<svg xmlns="http://www.w3.org/2000/svg" viewBox="0 0 50 50" id="svg2" width="50" height="50"><style id="style4">.st0{fill:#adb8bc}.st1{fill:#aa5263}.st2{fill:#c7ecff}.st3{fill:#808384}.st4{fill:#c6babd}.st5{fill:#fff}</style><g id="Layer_3" transform="translate(-3.933 -3.01) scale(.05736)"><path class="st0" d="M90.6 458.3l4.2.4c.8.1 1.4-.5 1.5-1.2.4-3.7.8-7.3 1.3-11 .1-.8-.4-1.5-1.2-1.6l-4.2-.6c-.8-.1-1.5.4-1.6 1.2-.5 3.7-.9 7.5-1.3 11.2 0 .8.6 1.5 1.3 1.6z" id="path7" fill="#adb8bc"/><path class="st0" d="M89.1 479.2l4.2.2c.8 0 1.4-.6 1.5-1.3.2-3.7.4-7.4.7-11 .1-.8-.5-1.4-1.3-1.5l-4.2-.3c-.8-.1-1.5.5-1.5 1.3-.3 3.7-.5 7.5-.7 11.2-.1.7.5 1.4 1.3 1.4z" id="path9" fill="#adb8bc"/><path class="st0" d="M94.2 500c0-4 .1-8.1.2-12.2 0-.8-.6-1.4-1.3-1.4l-4.2-.1c-.8 0-1.4.6-1.4 1.4-.1 4.1-.2 8.3-.2 12.4v.3h7v-.4z" id="path11" fill="#adb8bc"/><path class="st0" d="M97.5 562.5c.8-.1 1.3-.8 1.2-1.6-.5-3.6-1-7.3-1.5-10.9-.1-.8-.8-1.3-1.5-1.2l-4.2.5c-.8.1-1.3.8-1.2 1.6.5 3.7 1 7.5 1.5 11.2.1.8.8 1.3 1.6 1.2l4.1-.8z" id="path13" fill="#adb8bc"/><path class="st0" d="M90.7 542.2l4.2-.4c.8-.1 1.3-.8 1.2-1.5-.4-3.7-.7-7.3-.9-11-.1-.8-.7-1.3-1.5-1.3l-4.2.3c-.8.1-1.4.7-1.3 1.5.3 3.7.6 7.5.9 11.2.1.8.8 1.3 1.6 1.2z" id="path15" fill="#adb8bc"/><path class="st0" d="M93.3 521.1c.8 0 1.4-.7 1.3-1.5-.2-3.7-.3-7.4-.4-11 0-.8-.6-1.4-1.4-1.4l-4.2.1c-.8 0-1.4.7-1.4 1.4.1 3.7.2 7.5.4 11.3 0 .8.7 1.4 1.5 1.3l4.2-.2z" id="path17" fill="#adb8bc"/><path class="st0" d="M122 336.5l3.9 1.7c.7.3 1.5 0 1.8-.7 1.5-3.4 3-6.8 4.5-10.1.3-.7 0-1.5-.7-1.9l-3.8-1.8c-.7-.3-1.5 0-1.9.7-1.6 3.4-3.1 6.9-4.6 10.3-.2.6.1 1.5.8 1.8z" id="path19" fill="#adb8bc"/><path class="st0" d="M102.2 581.3c-.7-3.6-1.4-7.2-2-10.9-.1-.8-.8-1.3-1.6-1.1l-4.1.7c-.8.1-1.3.9-1.1 1.6.6 3.7 1.3 7.4 2.1 11.1.2.8.9 1.2 1.7 1.1l4.1-.8c.6-.2 1.1-.9.9-1.7z" id="path21" fill="#adb8bc"/><path class="st0" d="M130.8 317.3l3.8 1.8c.7.3 1.5.1 1.9-.6 1.6-3.3 3.3-6.6 5.1-9.9.4-.7.1-1.5-.6-1.9l-3.7-2c-.7-.4-1.5-.1-1.9.6-1.8 3.3-3.5 6.7-5.1 10-.4.8-.2 1.7.5 2z" id="path23" fill="#adb8bc"/><path class="st0" d="M114.2 356l3.9 1.5c.7.3 1.5-.1 1.8-.8 1.3-3.5 2.6-6.9 4-10.3.3-.7-.1-1.5-.8-1.8l-3.9-1.6c-.7-.3-1.5 0-1.8.8-1.4 3.5-2.8 7-4.1 10.5-.2.7.2 1.5.9 1.7z" id="path25" fill="#adb8bc"/><path class="st0" d="M96.9 416.7l4.1.8c.8.2 1.5-.3 1.6-1.1.7-3.6 1.5-7.2 2.4-10.8.2-.7-.3-1.5-1-1.7l-4.1-1c-.8-.2-1.5.3-1.7 1-.9 3.6-1.7 7.3-2.4 11-.1.9.4 1.7 1.1 1.8z" id="path27" fill="#adb8bc"/><path class="st0" d="M107.4 376l4 1.3c.7.2 1.5-.2 1.7-.9 1.1-3.5 2.3-7 3.5-10.5.3-.7-.1-1.5-.9-1.8l-4-1.4c-.7-.3-1.5.1-1.8.9-1.2 3.6-2.4 7.2-3.6 10.7 0 .7.4 1.5 1.1 1.7z" id="path29" fill="#adb8bc"/><path class="st0" d="M140.6 298.6l3.7 2c.7.4 1.5.1 1.9-.5 1.8-3.2 3.7-6.4 5.5-9.6.4-.7.2-1.5-.5-1.9l-3.6-2.2c-.7-.4-1.5-.2-1.9.5-1.9 3.2-3.8 6.5-5.6 9.8-.4.7-.2 1.6.5 1.9z" id="path31" fill="#adb8bc"/><path class="st0" d="M101.7 396.2l4.1 1c.7.2 1.5-.3 1.7-1 .9-3.6 1.9-7.1 2.9-10.7.2-.7-.2-1.5-.9-1.7l-4-1.2c-.7-.2-1.5.2-1.7.9-1 3.6-2 7.2-3 10.9-.3.9.1 1.6.9 1.8z" id="path33" fill="#adb8bc"/><path class="st0" d="M93.3 437.4l4.1.6c.8.1 1.5-.4 1.6-1.2.6-3.6 1.2-7.3 1.8-10.9.1-.8-.4-1.5-1.1-1.6l-4.1-.8c-.8-.1-1.5.4-1.6 1.1-.7 3.7-1.3 7.4-1.9 11.1-.1.9.4 1.6 1.2 1.7z" id="path35" fill="#adb8bc"/><path class="st0" d="M178.9 749.5c-2.2-2.9-4.5-5.9-6.6-8.8-.5-.6-1.3-.8-1.9-.3l-3.4 2.5c-.6.5-.8 1.3-.3 2 2.2 3 4.5 6 6.7 9 .5.6 1.4.7 2 .2l3.3-2.6c.6-.6.7-1.4.2-2z" id="path37" fill="#adb8bc"/><path class="st0" d="M215.5 209.1c.5-.5.6-1.4 0-2l-2.9-3c-.5-.6-1.4-.6-2 0-2.7 2.6-5.3 5.3-7.9 8-.5.6-.5 1.4 0 2l3 2.9c.6.5 1.4.5 2 0 2.6-2.7 5.2-5.4 7.8-7.9z" id="path39" fill="#adb8bc"/><path class="st0" d="M246.6 179.5l-2.6-3.3c-.5-.6-1.4-.7-2-.2l-8.7 7.2c-.6.5-.7 1.4-.1 2l2.7 3.2c.5.6 1.4.7 2 .2 2.8-2.4 5.6-4.7 8.5-7.1.6-.6.7-1.4.2-2z" id="path41" fill="#adb8bc"/><path class="st0" d="M198.3 772.9c-.5-.6-1.4-.6-2-.1l-3.1 2.8c-.6.5-.6 1.4-.1 2 2.5 2.8 5.1 5.6 7.6 8.3.5.6 1.4.6 2 .1l3-2.9c.6-.5.6-1.4.1-2-2.5-2.8-5-5.5-7.5-8.2z" id="path43" fill="#adb8bc"/><path class="st0" d="M227.5 802.3c-.6-.5-1.4-.5-2 .1l-2.8 3.1c-.5.6-.5 1.5.1 2l8.4 7.5c.6.5 1.5.4 2-.1l2.7-3.2c.5-.6.4-1.5-.1-2-2.8-2.4-5.6-4.9-8.3-7.4z" id="path45" fill="#adb8bc"/><path class="st0" d="M230.6 194.8c.6-.5.6-1.4.1-2l-2.8-3.1c-.5-.6-1.4-.6-2-.1-2.8 2.5-5.6 5.1-8.3 7.6-.6.5-.6 1.4 0 2l2.9 3c.5.6 1.4.6 2 .1l8.1-7.5z" id="path47" fill="#adb8bc"/><path class="st0" d="M212.5 788c-.5-.5-1.4-.6-2 0l-3 2.9c-.6.5-.6 1.4 0 2 2.6 2.7 5.3 5.3 8 7.9.6.5 1.4.5 2 0l2.9-3c.5-.6.5-1.4 0-2-2.6-2.6-5.3-5.2-7.9-7.8z" id="path49" fill="#adb8bc"/><path class="st0" d="M166.7 732.7c-2.1-3-4.2-6.1-6.2-9.2-.4-.6-1.3-.8-1.9-.4l-3.5 2.3c-.6.4-.8 1.3-.4 1.9 2 3.1 4.1 6.3 6.3 9.3.4.6 1.3.8 2 .3l3.4-2.4c.6-.3.7-1.1.3-1.8z" id="path51" fill="#adb8bc"/><path class="st0" d="M119.1 641.1c-1.3-3.4-2.5-6.9-3.7-10.4-.2-.7-1-1.1-1.8-.9l-4 1.3c-.7.2-1.1 1-.9 1.8 1.2 3.6 2.5 7.1 3.7 10.6.3.7 1.1 1.1 1.8.8l3.9-1.5c.9-.1 1.3-.9 1-1.7z" id="path53" fill="#adb8bc"/><path class="st0" d="M126.8 660.4l-4.2-10.2c-.3-.7-1.1-1.1-1.8-.8l-3.9 1.5c-.7.3-1.1 1.1-.8 1.8 1.4 3.5 2.8 7 4.3 10.4.3.7 1.1 1 1.8.7l3.9-1.7c.6-.2 1-1 .7-1.7z" id="path55" fill="#adb8bc"/><path class="st0" d="M112.5 621.5c-1.1-3.5-2.1-7.1-3.1-10.6-.2-.7-1-1.2-1.7-1l-4 1.1c-.7.2-1.2 1-1 1.7 1 3.6 2.1 7.2 3.2 10.8.2.7 1 1.1 1.8.9l4-1.3c.6-.1 1-.9.8-1.6z" id="path57" fill="#adb8bc"/><path class="st0" d="M144.9 697.5c-1.8-3.2-3.5-6.5-5.2-9.7-.4-.7-1.2-1-1.9-.6l-3.7 1.9c-.7.4-1 1.2-.6 1.9 1.7 3.3 3.5 6.6 5.3 9.9.4.7 1.2.9 1.9.5l3.7-2c.6-.3.9-1.2.5-1.9z" id="path59" fill="#adb8bc"/><path class="st0" d="M155.3 715.4c-1.9-3.1-3.8-6.3-5.7-9.4-.4-.7-1.2-.9-1.9-.5l-3.6 2.1c-.7.4-.9 1.2-.5 1.9 1.9 3.2 3.8 6.5 5.8 9.6.4.7 1.3.9 1.9.4l3.6-2.2c.6-.4.8-1.2.4-1.9z" id="path61" fill="#adb8bc"/><path class="st0" d="M135.3 679.2c-1.6-3.3-3.2-6.6-4.7-10-.3-.7-1.1-1-1.8-.7l-3.8 1.7c-.7.3-1 1.1-.7 1.9 1.5 3.4 3.1 6.8 4.8 10.2.3.7 1.2 1 1.9.6l3.8-1.9c.6-.3.9-1.1.5-1.8z" id="path63" fill="#adb8bc"/><path class="st0" d="M106.8 601.5c-.9-3.6-1.8-7.2-2.6-10.7-.2-.8-.9-1.2-1.7-1.1l-4.1.9c-.8.2-1.2.9-1.1 1.7.8 3.7 1.7 7.3 2.6 10.9.2.8 1 1.2 1.7 1l4.1-1.1c.9-.1 1.3-.8 1.1-1.6z" id="path65" fill="#adb8bc"/><path class="st0" d="M184.9 757.1c-.5-.6-1.4-.7-2-.2l-3.3 2.6c-.6.5-.7 1.4-.2 2l7.2 8.7c.5.6 1.4.7 2 .1l3.2-2.7c.6-.5.7-1.4.2-2-2.4-2.8-4.8-5.7-7.1-8.5z" id="path67" fill="#adb8bc"/><path class="st0" d="M862.1 302.2c1.8 3.2 3.5 6.5 5.2 9.7.4.7 1.2 1 1.9.6l3.7-1.9c.7-.4 1-1.2.6-1.9-1.7-3.3-3.5-6.6-5.3-9.9-.4-.7-1.2-.9-1.9-.5l-3.7 2c-.6.4-.8 1.3-.5 1.9z" id="path69" fill="#adb8bc"/><path class="st0" d="M871.7 320.6c1.6 3.3 3.2 6.6 4.7 10 .3.7 1.1 1 1.8.7l3.8-1.7c.7-.3 1-1.1.7-1.9-1.5-3.4-3.2-6.8-4.8-10.2-.3-.7-1.2-1-1.9-.6l-3.8 1.9c-.6.3-.8 1.1-.5 1.8z" id="path71" fill="#adb8bc"/><path class="st0" d="M151.3 280.5l3.6 2.2c.7.4 1.5.2 1.9-.4l6-9.3c.4-.6.3-1.5-.4-1.9l-3.5-2.3c-.6-.4-1.5-.3-1.9.4-2.1 3.1-4.1 6.3-6.1 9.5-.5.5-.3 1.4.4 1.8z" id="path73" fill="#adb8bc"/><path class="st0" d="M840.3 267.1c2.1 3 4.2 6.1 6.2 9.2.4.6 1.3.8 1.9.4l3.5-2.3c.6-.4.8-1.3.4-1.9-2-3.1-4.2-6.3-6.3-9.3-.4-.6-1.3-.8-2-.3l-3.4 2.4c-.6.3-.7 1.1-.3 1.8z" id="path75" fill="#adb8bc"/><path class="st0" d="M880.3 339.4l4.2 10.2c.3.7 1.1 1.1 1.8.8l3.9-1.5c.7-.3 1.1-1.1.8-1.8-1.4-3.5-2.8-6.9-4.3-10.4-.3-.7-1.1-1-1.8-.7l-3.8 1.7c-.8.2-1.1 1-.8 1.7z" id="path77" fill="#adb8bc"/><path class="st0" d="M822.1 242.7c.5.6 1.4.7 2 .2l3.3-2.6c.6-.5.7-1.4.2-2l-7.2-8.7c-.5-.6-1.4-.7-2-.1l-3.2 2.7c-.6.5-.7 1.4-.2 2 2.4 2.8 4.8 5.7 7.1 8.5z" id="path79" fill="#adb8bc"/><path class="st0" d="M828.1 250.3c2.2 2.9 4.5 5.9 6.6 8.8.5.6 1.3.8 1.9.3l3.4-2.5c.6-.5.8-1.3.3-2-2.2-3-4.5-6-6.7-9-.5-.6-1.4-.7-2-.2l-3.3 2.6c-.6.5-.7 1.4-.2 2z" id="path81" fill="#adb8bc"/><path class="st0" d="M904.9 418.4c.7 3.6 1.4 7.2 2 10.9.1.8.8 1.3 1.6 1.1l4.1-.7c.8-.1 1.3-.9 1.1-1.6-.6-3.7-1.3-7.4-2.1-11.1-.2-.8-.9-1.2-1.7-1.1l-4.1.8c-.6.3-1.1 1-.9 1.7z" id="path83" fill="#adb8bc"/><path class="st0" d="M909.6 437.3c-.8.1-1.3.8-1.2 1.6.5 3.6 1 7.3 1.5 10.9.1.8.8 1.3 1.5 1.2l4.2-.5c.8-.1 1.3-.8 1.2-1.6-.5-3.7-1-7.5-1.5-11.2-.1-.8-.8-1.3-1.6-1.2l-4.1.8z" id="path85" fill="#adb8bc"/><path class="st0" d="M916.4 457.5l-4.2.4c-.8.1-1.3.8-1.2 1.5.4 3.6.7 7.3.9 11 .1.8.7 1.3 1.5 1.3l4.2-.3c.8-.1 1.4-.7 1.3-1.5-.3-3.7-.6-7.5-1-11.2 0-.7-.7-1.3-1.5-1.2z" id="path87" fill="#adb8bc"/><path class="st0" d="M913.8 478.7c-.8 0-1.4.7-1.3 1.5.2 3.7.3 7.4.4 11 0 .8.6 1.4 1.4 1.4l4.2-.1c.8 0 1.4-.7 1.4-1.4-.1-3.7-.2-7.5-.4-11.3 0-.8-.7-1.4-1.5-1.3l-4.2.2z" id="path89" fill="#adb8bc"/><path class="st0" d="M894.6 378.3c1.1 3.5 2.1 7.1 3.1 10.6.2.7 1 1.2 1.7 1l4-1.1c.7-.2 1.2-1 1-1.7-1-3.6-2.1-7.2-3.2-10.8-.2-.7-1-1.1-1.8-.9l-4 1.3c-.6.1-1 .8-.8 1.6z" id="path91" fill="#adb8bc"/><path class="st0" d="M808.6 226.9c.5.6 1.4.6 2 .1l3.1-2.8c.6-.5.6-1.4.1-2-2.5-2.8-5-5.6-7.6-8.3-.5-.6-1.4-.6-2 0l-3 2.9c-.6.5-.6 1.4-.1 2 2.6 2.7 5.1 5.4 7.5 8.1z" id="path93" fill="#adb8bc"/><path class="st0" d="M887.9 358.6c1.3 3.4 2.5 6.9 3.7 10.4.2.7 1 1.1 1.8.9l4-1.3c.7-.2 1.1-1 .9-1.8-1.2-3.6-2.5-7.1-3.7-10.6-.3-.7-1.1-1.1-1.8-.8l-3.9 1.5c-.9.2-1.2 1-1 1.7z" id="path95" fill="#adb8bc"/><path class="st0" d="M900.2 398.2c.9 3.6 1.8 7.2 2.6 10.7.2.8.9 1.2 1.7 1.1l4.1-.9c.8-.2 1.2-.9 1.1-1.7-.8-3.7-1.7-7.3-2.6-10.9-.2-.7-1-1.2-1.7-1l-4.1 1.1c-.8.1-1.2.9-1.1 1.6z" id="path97" fill="#adb8bc"/><path class="st0" d="M851.7 284.4c1.9 3.1 3.8 6.3 5.7 9.4.4.7 1.2.9 1.9.5l3.6-2.1c.7-.4.9-1.2.5-1.9-1.9-3.2-3.8-6.5-5.8-9.6-.4-.7-1.3-.9-1.9-.4l-3.6 2.2c-.6.4-.8 1.2-.4 1.9z" id="path99" fill="#adb8bc"/><path class="st0" d="M166.3 265.3c.6.4 1.5.3 1.9-.3 2.1-3 4.3-6 6.5-9 .5-.6.3-1.5-.3-1.9l-3.4-2.5c-.6-.5-1.5-.3-2 .3-2.2 3-4.4 6.1-6.6 9.1-.4.6-.3 1.5.3 2l3.6 2.3z" id="path101" fill="#adb8bc"/><path class="st0" d="M646.8 116.3c3.5 1.3 6.9 2.6 10.3 4 .7.3 1.5-.1 1.8-.8l1.6-3.9c.3-.7 0-1.5-.8-1.8-3.5-1.4-7-2.8-10.5-4.1-.7-.3-1.5.1-1.8.8l-1.5 3.9c-.2.9.2 1.6.9 1.9z" id="path103" fill="#adb8bc"/><path class="st0" d="M794.4 211.8c.5.5 1.4.6 2 0l3-2.9c.6-.5.6-1.4 0-2-2.6-2.7-5.3-5.3-8-7.9-.6-.5-1.4-.5-2 .1l-2.9 3c-.5.6-.5 1.4 0 2 2.7 2.5 5.3 5.1 7.9 7.7z" id="path105" fill="#adb8bc"/><path class="st0" d="M178.7 248.6c.6.5 1.5.4 2-.2 2.3-2.9 4.6-5.8 6.9-8.6.5-.6.4-1.5-.2-2l-3.2-2.7c-.6-.5-1.5-.4-2 .2-2.4 2.9-4.7 5.8-7.1 8.8-.5.6-.4 1.5.2 2l3.4 2.5z" id="path107" fill="#adb8bc"/><path class="st0" d="M191.8 232.4c.6.5 1.5.4 2-.1 2.4-2.8 4.9-5.6 7.3-8.3.5-.6.5-1.4-.1-2l-3.1-2.8c-.6-.5-1.5-.5-2 .1l-7.5 8.4c-.5.6-.4 1.5.1 2l3.3 2.7z" id="path109" fill="#adb8bc"/><path class="st0" d="M666.1 124.1c3.4 1.5 6.8 3 10.1 4.5.7.3 1.5 0 1.8-.7l1.8-3.8c.3-.7 0-1.5-.7-1.9-3.4-1.6-6.9-3.1-10.3-4.6-.7-.3-1.5 0-1.8.7l-1.7 3.9c-.3.8.1 1.6.8 1.9z" id="path111" fill="#adb8bc"/><path class="st0" d="M747.4 171.1c.6.5 1.5.3 1.9-.3l2.5-3.4c.5-.6.3-1.5-.3-2-3-2.2-6.1-4.4-9.1-6.6-.6-.4-1.5-.3-2 .3l-2.4 3.4c-.4.6-.3 1.5.3 1.9 3.2 2.3 6.2 4.5 9.1 6.7z" id="path113" fill="#adb8bc"/><path class="st0" d="M779.5 197.5c.6.5 1.4.5 2-.1l2.8-3.1c.5-.6.5-1.5-.1-2l-8.4-7.5c-.6-.5-1.5-.4-2 .2l-2.7 3.2c-.5.6-.4 1.5.1 2 2.8 2.3 5.6 4.8 8.3 7.3z" id="path115" fill="#adb8bc"/><path class="st0" d="M763.8 183.9c.6.5 1.5.4 2-.2l2.7-3.2c.5-.6.4-1.5-.2-2-2.9-2.4-5.8-4.8-8.8-7-.6-.5-1.5-.4-2 .2l-2.6 3.3c-.5.6-.4 1.5.2 2 3 2.2 5.8 4.5 8.7 6.9z" id="path117" fill="#adb8bc"/><path class="st0" d="M703.3 142.5c3.2 1.8 6.4 3.7 9.6 5.5.7.4 1.5.2 1.9-.5l2.2-3.6c.4-.7.2-1.5-.5-1.9-3.2-1.9-6.5-3.8-9.8-5.6-.7-.4-1.5-.1-1.9.5l-2 3.7c-.4.7-.2 1.5.5 1.9z" id="path119" fill="#adb8bc"/><path class="st0" d="M684.9 132.8c3.3 1.6 6.6 3.3 9.9 5 .7.4 1.5.1 1.9-.6l2-3.7c.4-.7.1-1.5-.6-1.9-3.3-1.8-6.7-3.5-10-5.1-.7-.3-1.5-.1-1.9.6l-1.8 3.8c-.4.8-.2 1.6.5 1.9z" id="path121" fill="#adb8bc"/><path class="st0" d="M721.2 153.1l9.3 6c.6.4 1.5.3 1.9-.4l2.3-3.5c.4-.6.3-1.5-.4-1.9-3.1-2.1-6.3-4.1-9.5-6.1-.7-.4-1.5-.2-1.9.4l-2.2 3.6c-.4.7-.2 1.5.5 1.9z" id="path123" fill="#adb8bc"/><path class="st0" d="M684.5 868.9c-.3-.7-1.2-1-1.9-.6-3.3 1.6-6.6 3.2-10 4.7-.7.3-1 1.1-.7 1.8l1.7 3.8c.3.7 1.1 1 1.9.7 3.4-1.5 6.8-3.1 10.2-4.8.7-.3 1-1.2.6-1.9l-1.8-3.7z" id="path125" fill="#adb8bc"/><path class="st0" d="M720.8 848.7c-.4-.7-1.3-.9-1.9-.4-3.1 1.9-6.3 3.8-9.5 5.7-.7.4-.9 1.2-.5 1.9l2.1 3.6c.4.7 1.2.9 1.9.5 3.2-1.9 6.5-3.8 9.6-5.8.7-.4.9-1.3.4-1.9l-2.1-3.6z" id="path127" fill="#adb8bc"/><path class="st0" d="M702.9 859.3c-.4-.7-1.2-.9-1.9-.5-3.2 1.8-6.5 3.5-9.7 5.2-.7.4-1 1.2-.6 1.9l1.9 3.7c.4.7 1.2 1 1.9.6 3.3-1.7 6.6-3.5 9.9-5.3.7-.4.9-1.2.5-1.9l-2-3.7z" id="path129" fill="#adb8bc"/><path class="st0" d="M738.1 837.3c-.4-.6-1.3-.8-1.9-.3-3 2.1-6.1 4.2-9.2 6.2-.6.4-.8 1.3-.4 1.9l2.3 3.5c.4.6 1.3.8 1.9.4 3.1-2 6.3-4.1 9.3-6.3.6-.4.8-1.3.3-2l-2.3-3.4z" id="path131" fill="#adb8bc"/><path class="st0" d="M786.5 797.9c-.5-.6-1.4-.6-2-.1l-8.1 7.5c-.6.5-.6 1.4-.1 2l2.8 3.1c.5.6 1.4.6 2 .1 2.8-2.5 5.6-5 8.3-7.6.6-.5.6-1.4.1-2l-3-3z" id="path133" fill="#adb8bc"/><path class="st0" d="M801.2 783.2c-.6-.5-1.4-.5-2 0-2.5 2.6-5.1 5.3-7.8 7.9-.5.5-.6 1.4 0 2l2.9 3c.5.6 1.4.6 2 0 2.7-2.6 5.3-5.3 7.9-8 .5-.6.5-1.4 0-2l-3-2.9z" id="path135" fill="#adb8bc"/><path class="st0" d="M754.9 825c-.5-.6-1.3-.7-2-.3-2.9 2.2-5.9 4.5-8.8 6.6-.6.5-.8 1.3-.3 1.9l2.5 3.4c.5.6 1.3.8 2 .3 3-2.2 6-4.5 9-6.7.6-.5.7-1.4.3-2l-2.7-3.2z" id="path137" fill="#adb8bc"/><path class="st0" d="M771 811.8c-.5-.6-1.4-.7-2-.2-2.8 2.4-5.6 4.7-8.5 7.1-.6.5-.7 1.4-.2 2l2.6 3.3c.5.6 1.4.7 2 .2 2.9-2.3 5.8-4.8 8.7-7.2.6-.5.7-1.4.2-2l-2.8-3.2z" id="path139" fill="#adb8bc"/><path class="st0" d="M586.4 902.5c-.2-.8-.9-1.2-1.6-1.1-3.6.7-7.2 1.4-10.9 2-.8.1-1.3.8-1.1 1.6l.7 4.1c.1.8.9 1.3 1.6 1.1 3.7-.6 7.4-1.3 11.1-2.1.8-.2 1.2-.9 1.1-1.7l-.9-3.9z" id="path141" fill="#adb8bc"/><path class="st0" d="M665.7 877.6c-.3-.7-1.1-1-1.8-.7l-10.2 4.2c-.7.3-1.1 1.1-.8 1.8l1.5 3.9c.3.7 1.1 1.1 1.8.8 3.5-1.4 6.9-2.8 10.4-4.3.7-.3 1-1.1.7-1.8l-1.6-3.9z" id="path143" fill="#adb8bc"/><path class="st0" d="M565.9 906.1c-.1-.8-.8-1.3-1.6-1.2-3.6.5-7.3 1-10.9 1.5-.8.1-1.3.8-1.2 1.5l.5 4.2c.1.8.8 1.3 1.6 1.2 3.7-.5 7.5-1 11.2-1.5.8-.1 1.3-.8 1.2-1.6l-.8-4.1z" id="path145" fill="#adb8bc"/><path class="st0" d="M646.4 885.3c-.3-.7-1.1-1.1-1.8-.8-3.4 1.3-6.9 2.5-10.4 3.7-.7.2-1.1 1-.9 1.8l1.3 4c.2.7 1 1.1 1.8.9 3.6-1.2 7.1-2.4 10.6-3.7.7-.3 1.1-1.1.8-1.8l-1.4-4.1z" id="path147" fill="#adb8bc"/><path class="st0" d="M606.7 897.8c-.2-.7-.9-1.2-1.7-1-3.6.9-7.2 1.8-10.7 2.6-.8.2-1.2.9-1.1 1.7l.9 4.1c.2.8.9 1.2 1.7 1.1 3.7-.8 7.3-1.7 11-2.6.8-.2 1.2-1 1-1.7l-1.1-4.2z" id="path149" fill="#adb8bc"/><path class="st0" d="M626.7 892c-.2-.7-1-1.1-1.7-.9-3.5 1.1-7.1 2.1-10.6 3.1-.7.2-1.2 1-1 1.7l1.1 4c.2.7 1 1.2 1.7 1 3.6-1 7.2-2.1 10.8-3.2.7-.2 1.1-1 .9-1.8l-1.2-3.9z" id="path151" fill="#adb8bc"/><path class="st0" d="M913.9 562.8l-4.1-.6c-.8-.1-1.5.4-1.6 1.2-.6 3.6-1.2 7.3-1.8 10.9-.1.8.4 1.5 1.1 1.6l4.1.8c.8.1 1.5-.4 1.6-1.1.7-3.7 1.3-7.4 1.9-11.1 0-.8-.5-1.6-1.2-1.7z" id="path153" fill="#adb8bc"/><path class="st0" d="M899.7 624.2l-4-1.3c-.7-.2-1.5.2-1.7.9-1.1 3.5-2.3 7-3.5 10.5-.3.7.1 1.5.9 1.8l4 1.4c.7.3 1.5-.1 1.8-.9 1.2-3.6 2.4-7.2 3.6-10.7 0-.6-.4-1.4-1.1-1.7z" id="path155" fill="#adb8bc"/><path class="st0" d="M905.4 604l-4.1-1c-.7-.2-1.5.3-1.7 1-.9 3.6-1.9 7.1-2.9 10.7-.2.7.2 1.5.9 1.7l4 1.2c.7.2 1.5-.2 1.7-.9 1-3.6 2.1-7.2 3-10.9.3-.8-.1-1.6-.9-1.8z" id="path157" fill="#adb8bc"/><path class="st0" d="M910.2 583.5l-4.1-.8c-.8-.2-1.5.3-1.6 1.1-.7 3.6-1.6 7.2-2.4 10.8-.2.7.3 1.5 1 1.7l4.1 1c.8.2 1.5-.3 1.7-1 .9-3.6 1.7-7.3 2.4-11 .1-.9-.4-1.6-1.1-1.8z" id="path159" fill="#adb8bc"/><path class="st0" d="M916.5 542l-4.2-.4c-.8-.1-1.4.5-1.5 1.2-.4 3.7-.8 7.3-1.3 11-.1.8.4 1.5 1.2 1.6l4.2.6c.8.1 1.5-.4 1.6-1.2.5-3.7.9-7.5 1.3-11.2 0-.9-.5-1.5-1.3-1.6z" id="path161" fill="#adb8bc"/><path class="st0" d="M243.2 815.9c-.6-.5-1.5-.4-2 .2l-2.7 3.2c-.5.6-.4 1.5.2 2 2.9 2.4 5.8 4.8 8.8 7.1.6.5 1.5.4 2-.2l2.6-3.3c.5-.6.4-1.5-.2-2-3-2.3-5.9-4.6-8.7-7z" id="path163" fill="#adb8bc"/><path class="st0" d="M918.1 521l-4.2-.2c-.8 0-1.4.5-1.5 1.3-.2 3.7-.4 7.4-.7 11-.1.8.5 1.4 1.3 1.5l4.2.3c.8.1 1.5-.5 1.5-1.3.3-3.7.5-7.5.7-11.2 0-.7-.6-1.3-1.3-1.4z" id="path165" fill="#adb8bc"/><path class="st0" d="M913 499.5v.5c0 4.1-.1 8.3-.2 12.4 0 .8.6 1.4 1.3 1.4l4.2.1c.8 0 1.4-.6 1.4-1.4.1-4.2.2-8.5.2-12.7v-.5H913z" id="path167" fill="#adb8bc"/><path class="st0" d="M840.7 734.9c-.6-.4-1.5-.3-1.9.3-2.1 3-4.3 6-6.5 9-.5.6-.3 1.5.3 1.9l3.4 2.5c.6.5 1.5.3 2-.3 2.2-3 4.5-6.1 6.6-9.1.4-.6.3-1.5-.3-2l-3.6-2.3z" id="path169" fill="#adb8bc"/><path class="st0" d="M855.7 719.7l-3.6-2.2c-.7-.4-1.5-.2-1.9.4l-6 9.3c-.4.6-.3 1.5.4 1.9l3.5 2.3c.6.4 1.5.3 1.9-.4 2.1-3.1 4.1-6.3 6.1-9.5.5-.5.3-1.4-.4-1.8z" id="path171" fill="#adb8bc"/><path class="st0" d="M828.3 751.6c-.6-.5-1.5-.4-2 .2-2.3 2.9-4.6 5.8-6.9 8.6-.5.6-.4 1.5.2 2l3.2 2.7c.6.5 1.5.4 2-.2 2.4-2.9 4.8-5.8 7.1-8.8.5-.6.4-1.5-.2-2l-3.4-2.5z" id="path173" fill="#adb8bc"/><path class="st0" d="M866.4 701.6l-3.7-2c-.7-.4-1.5-.1-1.9.5-1.8 3.2-3.7 6.4-5.5 9.6-.4.7-.2 1.5.5 1.9l3.6 2.2c.7.4 1.5.2 1.9-.5 1.9-3.2 3.8-6.5 5.7-9.8.3-.7.1-1.5-.6-1.9z" id="path175" fill="#adb8bc"/><path class="st0" d="M885 663.8l-3.9-1.7c-.7-.3-1.5 0-1.8.7-1.5 3.4-3 6.8-4.5 10.1-.3.7 0 1.5.7 1.9l3.8 1.8c.7.3 1.5 0 1.9-.7 1.6-3.4 3.1-6.9 4.6-10.3.3-.7-.1-1.5-.8-1.8z" id="path177" fill="#adb8bc"/><path class="st0" d="M876.2 682.9l-3.8-1.8c-.7-.3-1.5-.1-1.9.6-1.6 3.3-3.3 6.6-5.1 9.9-.4.7-.1 1.5.6 1.9l3.7 2c.7.4 1.5.1 1.9-.6 1.8-3.3 3.5-6.7 5.2-10 .4-.8.1-1.6-.6-2z" id="path179" fill="#adb8bc"/><path class="st0" d="M892.8 644.2l-3.9-1.5c-.7-.3-1.5.1-1.8.8-1.3 3.4-2.6 6.9-4 10.3-.3.7.1 1.5.8 1.8l3.9 1.6c.7.3 1.5 0 1.8-.8 1.4-3.5 2.8-7 4.1-10.5.2-.6-.1-1.4-.9-1.7z" id="path181" fill="#adb8bc"/><path class="st0" d="M815.1 767.8c-.6-.5-1.5-.4-2 .1-2.4 2.8-4.9 5.5-7.3 8.3-.5.6-.5 1.4.1 2l3.1 2.8c.6.5 1.5.5 2-.1l7.5-8.4c.5-.6.4-1.5-.1-2l-3.3-2.7z" id="path183" fill="#adb8bc"/><path class="st0" d="M340.8 875.8c-3.4-1.5-6.8-3-10.1-4.5-.7-.3-1.5 0-1.9.7l-1.8 3.8c-.3.7 0 1.5.7 1.9 3.4 1.6 6.9 3.1 10.3 4.6.7.3 1.5 0 1.8-.7l1.7-3.9c.4-.8.1-1.6-.7-1.9z" id="path185" fill="#adb8bc"/><path class="st0" d="M322 867c-3.3-1.6-6.6-3.3-9.9-5.1-.7-.4-1.5-.1-1.9.6l-2 3.7c-.4.7-.1 1.5.6 1.9 3.3 1.8 6.7 3.5 10 5.2.7.3 1.5.1 1.9-.6l1.8-3.8c.5-.7.2-1.5-.5-1.9z" id="path187" fill="#adb8bc"/><path class="st0" d="M334.9 125.3l-1.7-3.8c-.3-.7-1.1-1-1.9-.7-3.4 1.5-6.8 3.1-10.2 4.8-.7.3-1 1.2-.6 1.9l1.9 3.8c.3.7 1.2 1 1.9.6 3.3-1.6 6.6-3.2 10-4.7.6-.4.9-1.2.6-1.9z" id="path189" fill="#adb8bc"/><path class="st0" d="M354.1 117.2l-1.5-3.9c-.3-.7-1.1-1.1-1.8-.8-3.5 1.4-7 2.8-10.4 4.3-.7.3-1 1.1-.7 1.8l1.7 3.9c.3.7 1.1 1 1.8.7l10.2-4.2c.6-.2.9-1 .7-1.8z" id="path191" fill="#adb8bc"/><path class="st0" d="M379.8 890.4c-3.5-1.1-7-2.3-10.5-3.5-.7-.3-1.5.1-1.8.9l-1.4 4c-.3.7.1 1.5.9 1.8 3.6 1.2 7.2 2.4 10.7 3.6.7.2 1.5-.2 1.8-.9l1.3-4c.1-.9-.3-1.7-1-1.9z" id="path193" fill="#adb8bc"/><path class="st0" d="M360.1 883.6c-3.4-1.3-6.9-2.6-10.3-4-.7-.3-1.5.1-1.8.8l-1.6 3.9c-.3.7 0 1.5.8 1.8 3.5 1.4 7 2.8 10.5 4.1.7.3 1.5-.1 1.8-.8l1.5-3.9c.2-.8-.1-1.6-.9-1.9z" id="path195" fill="#adb8bc"/><path class="st0" d="M373.6 110.2l-1.3-4c-.2-.7-1-1.1-1.8-.9-3.6 1.2-7.1 2.5-10.6 3.7-.7.3-1.1 1.1-.8 1.8l1.5 3.9c.3.7 1.1 1.1 1.8.8 3.4-1.3 6.9-2.5 10.4-3.7.7-.1 1.1-.9.8-1.6z" id="path197" fill="#adb8bc"/><path class="st0" d="M280.3 155.1l-2.3-3.5c-.4-.6-1.3-.8-1.9-.4-3.1 2-6.3 4.2-9.3 6.3-.6.4-.8 1.3-.3 2l2.4 3.4c.4.6 1.3.8 1.9.3 3-2.1 6.1-4.2 9.2-6.2.5-.4.7-1.3.3-1.9z" id="path199" fill="#adb8bc"/><path class="st0" d="M543.7 907.5c-3.7.4-7.3.7-11 .9-.8.1-1.3.7-1.3 1.5l.3 4.2c.1.8.7 1.4 1.5 1.3 3.7-.3 7.5-.6 11.2-.9.8-.1 1.3-.8 1.3-1.5l-.4-4.2c-.1-.8-.8-1.4-1.6-1.3z" id="path201" fill="#adb8bc"/><path class="st0" d="M259.5 828.7c-.6-.5-1.5-.3-1.9.3l-2.5 3.4c-.5.6-.3 1.5.3 2 3 2.2 6.1 4.5 9.1 6.6.6.4 1.5.3 2-.3l2.4-3.4c.4-.6.3-1.5-.3-1.9-3.1-2.3-6.1-4.5-9.1-6.7z" id="path203" fill="#adb8bc"/><path class="st0" d="M263.2 166.8l-2.5-3.4c-.5-.6-1.3-.8-2-.3-3 2.2-6 4.5-9 6.7-.6.5-.7 1.4-.2 2l2.6 3.3c.5.6 1.3.7 2 .3 2.9-2.2 5.9-4.5 8.8-6.6.6-.5.7-1.3.3-2z" id="path205" fill="#adb8bc"/><path class="st0" d="M393.5 104.1l-1.1-4c-.2-.7-1-1.2-1.7-1-3.6 1-7.2 2.1-10.8 3.2-.7.2-1.1 1-.9 1.8l1.3 4c.2.7 1 1.1 1.7.9 3.5-1.1 7.1-2.1 10.6-3.1.7-.3 1.1-1.1.9-1.8z" id="path207" fill="#adb8bc"/><path class="st0" d="M303.6 857.3c-3.2-1.8-6.4-3.7-9.6-5.5-.7-.4-1.5-.2-1.9.5l-2.2 3.6c-.4.7-.2 1.5.5 1.9 3.2 1.9 6.5 3.8 9.8 5.7.7.4 1.5.1 1.9-.5l2-3.7c.4-.7.2-1.6-.5-2z" id="path209" fill="#adb8bc"/><path class="st0" d="M298 144.2l-2.1-3.6c-.4-.7-1.2-.9-1.9-.5-3.2 1.9-6.5 3.8-9.6 5.8-.7.4-.9 1.3-.4 1.9l2.2 3.6c.4.7 1.3.9 1.9.4 3.1-1.9 6.3-3.8 9.4-5.7.7-.3.9-1.2.5-1.9z" id="path211" fill="#adb8bc"/><path class="st0" d="M285.8 846.7l-9.3-6c-.6-.4-1.5-.3-1.9.4l-2.3 3.5c-.4.6-.3 1.5.4 1.9 3.1 2.1 6.3 4.1 9.5 6.1.7.4 1.5.2 1.9-.4l2.2-3.6c.3-.6.1-1.5-.5-1.9z" id="path213" fill="#adb8bc"/><path class="st0" d="M316.2 134.3l-1.9-3.7c-.4-.7-1.2-1-1.9-.6-3.3 1.7-6.6 3.5-9.9 5.3-.7.4-.9 1.2-.5 1.9l2 3.7c.4.7 1.2.9 1.9.5 3.2-1.8 6.5-3.5 9.7-5.2.7-.4 1-1.2.6-1.9z" id="path215" fill="#adb8bc"/><path class="st0" d="M481.6 908.8c-3.7-.2-7.4-.4-11-.7-.8-.1-1.4.5-1.5 1.3l-.3 4.2c-.1.8.5 1.5 1.3 1.5 3.7.3 7.5.5 11.2.7.8 0 1.4-.6 1.5-1.3l.2-4.2c-.1-.8-.7-1.4-1.4-1.5z" id="path217" fill="#adb8bc"/><path class="st0" d="M399.7 896.1c-3.6-.9-7.1-1.9-10.7-2.9-.7-.2-1.5.2-1.7.9l-1.2 4c-.2.7.2 1.5.9 1.7 3.6 1 7.2 2 10.9 3 .7.2 1.5-.3 1.7-1l1-4.1c.3-.6-.1-1.4-.9-1.6z" id="path219" fill="#adb8bc"/><path class="st0" d="M523.1 909c-3.7.2-7.4.3-11 .4-.8 0-1.4.6-1.4 1.4l.1 4.2c0 .8.7 1.4 1.4 1.4 3.7-.1 7.5-.2 11.3-.4.8 0 1.4-.7 1.3-1.5l-.2-4.2c-.1-.8-.8-1.4-1.5-1.3z" id="path221" fill="#adb8bc"/><path class="st0" d="M491.3 909.2c-.8 0-1.4.6-1.4 1.3l-.1 4.2c0 .8.6 1.4 1.4 1.4 4.1.1 8.3.2 12.5.2h.1v-7h-.1c-4.2.1-8.3.1-12.4-.1z" id="path223" fill="#adb8bc"/><path class="st0" d="M460.9 907.2c-3.7-.4-7.3-.8-11-1.3-.8-.1-1.5.4-1.6 1.2l-.6 4.2c-.1.8.4 1.5 1.2 1.6 3.7.5 7.5.9 11.2 1.3.8.1 1.5-.5 1.5-1.3l.4-4.2c.2-.7-.3-1.4-1.1-1.5z" id="path225" fill="#adb8bc"/><path class="st0" d="M419.9 900.9c-3.6-.7-7.2-1.5-10.8-2.4-.7-.2-1.5.3-1.7 1l-1 4.1c-.2.8.3 1.5 1 1.7 3.6.9 7.3 1.7 11 2.4.8.2 1.5-.3 1.7-1.1l.8-4.1c.3-.7-.2-1.5-1-1.6z" id="path227" fill="#adb8bc"/><path class="st0" d="M440.3 904.6c-3.6-.6-7.3-1.2-10.9-1.8-.8-.1-1.5.4-1.6 1.1l-.8 4.1c-.1.8.4 1.5 1.1 1.6 3.7.7 7.4 1.3 11.1 1.9.8.1 1.5-.4 1.6-1.2l.6-4.1c.2-.8-.3-1.5-1.1-1.6z" id="path229" fill="#adb8bc"/><path class="st0" d="M471.5 96.3l-65.6-37.9c-2.1-1.2-4.7.3-4.7 2.7v75.8c0 2.4 2.6 3.9 4.7 2.7l65.6-37.9c2.1-1.2 2.1-4.2 0-5.4z" id="path231" fill="#adb8bc"/></g><g id="Layer_2" transform="translate(-3.933 -3.01) scale(.05736)"><path class="st1" d="M778.5 820.7H221.6c-54.8 0-99.2-44.4-99.2-99.2 0-8.3 6.7-15.1 15.1-15.1h725.2c8.3 0 15.1 6.7 15.1 15.1-.1 54.8-44.5 99.2-99.3 99.2z" id="path234" fill="#aa5263"/><circle class="st1" cx="140.4" cy="681" r="18" id="circle236" fill="#aa5263"/><circle class="st1" cx="859.1" cy="681" r="18" id="circle238" fill="#aa5263"/><circle class="st1" cx="859.1" cy="282.9" r="17.1" id="circle240" fill="#aa5263"/><circle class="st1" cx="140.4" cy="282.4" r="17.1" id="circle242" fill="#aa5263"/><circle class="st1" cx="493.1" cy="683" r="15.9" id="circle244" fill="#aa5263"/><circle class="st1" cx="859.1" cy="653.3" r="6.2" id="circle246" fill="#aa5263"/><circle class="st1" cx="859.1" cy="639" r="6.2" id="circle248" fill="#aa5263"/><circle class="st1" cx="859.1" cy="624.6" r="6.2" id="circle250" fill="#aa5263"/><circle class="st1" cx="859.1" cy="610.3" r="6.2" id="circle252" fill="#aa5263"/><circle class="st1" cx="859.1" cy="596" r="6.2" id="circle254" fill="#aa5263"/><circle class="st1" cx="859.1" cy="581.6" r="6.2" id="circle256" fill="#aa5263"/><circle class="st1" cx="859.1" cy="567.3" r="6.2" id="circle258" fill="#aa5263"/><circle class="st1" cx="859.1" cy="553" r="6.2" id="circle260" fill="#aa5263"/><circle class="st1" cx="859.1" cy="538.6" r="6.2" id="circle262" fill="#aa5263"/><circle class="st1" cx="859.1" cy="524.3" r="6.2" id="circle264" fill="#aa5263"/><circle class="st1" cx="859.1" cy="510" r="6.2" id="circle266" fill="#aa5263"/><circle class="st1" cx="859.1" cy="495.6" r="6.2" id="circle268" fill="#aa5263"/><circle class="st1" cx="859.1" cy="481.3" r="6.2" id="circle270" fill="#aa5263"/><circle class="st1" cx="859.1" cy="467" r="6.2" id="circle272" fill="#aa5263"/><circle class="st1" cx="859.1" cy="452.6" r="6.2" id="circle274" fill="#aa5263"/><circle class="st1" cx="859.1" cy="438.3" r="6.2" id="circle276" fill="#aa5263"/><circle class="st1" cx="859.1" cy="424" r="6.2" id="circle278" fill="#aa5263"/><circle class="st1" cx="859.1" cy="409.6" r="6.2" id="circle280" fill="#aa5263"/><circle class="st1" cx="859.1" cy="395.3" r="6.2" id="circle282" fill="#aa5263"/><circle class="st1" cx="859.1" cy="381" r="6.2" id="circle284" fill="#aa5263"/><circle class="st1" cx="859.1" cy="366.6" r="6.2" id="circle286" fill="#aa5263"/><circle class="st1" cx="859.1" cy="352.3" r="6.2" id="circle288" fill="#aa5263"/><circle class="st1" cx="859.1" cy="338" r="6.2" id="circle290" fill="#aa5263"/><circle class="st1" cx="859.1" cy="323.6" r="6.2" id="circle292" fill="#aa5263"/><circle class="st1" cx="859.1" cy="309.3" r="6.2" id="circle294" fill="#aa5263"/><circle class="st1" cx="493.1" cy="314.8" r="6.2" id="circle296" fill="#aa5263"/><circle class="st1" cx="493.1" cy="329.2" r="6.2" id="circle298" fill="#aa5263"/><circle class="st1" cx="493.1" cy="300.5" r="6.2" id="circle300" fill="#aa5263"/><circle class="st1" cx="493.1" cy="278.2" r="13.2" id="circle302" fill="#aa5263"/><circle class="st1" cx="493.1" cy="171.4" r="32.2" id="circle304" fill="#aa5263"/><circle class="st1" cx="493.1" cy="112.4" r="19.8" id="circle306" fill="#aa5263"/><circle class="st1" cx="140.4" cy="652.6" r="6.2" id="circle308" fill="#aa5263"/><circle class="st1" cx="140.4" cy="638.3" r="6.2" id="circle310" fill="#aa5263"/><circle class="st1" cx="140.4" cy="623.9" r="6.2" id="circle312" fill="#aa5263"/><circle class="st1" cx="140.4" cy="609.6" r="6.2" id="circle314" fill="#aa5263"/><circle class="st1" cx="140.4" cy="595.3" r="6.2" id="circle316" fill="#aa5263"/><circle class="st1" cx="140.4" cy="580.9" r="6.2" id="circle318" fill="#aa5263"/><circle class="st1" cx="140.4" cy="566.6" r="6.2" id="circle320" fill="#aa5263"/><circle class="st1" cx="140.4" cy="552.3" r="6.2" id="circle322" fill="#aa5263"/><circle class="st1" cx="140.4" cy="537.9" r="6.2" id="circle324" fill="#aa5263"/><circle class="st1" cx="140.4" cy="523.6" r="6.2" id="circle326" fill="#aa5263"/><circle class="st1" cx="140.4" cy="509.3" r="6.2" id="circle328" fill="#aa5263"/><circle class="st1" cx="140.4" cy="494.9" r="6.2" id="circle330" fill="#aa5263"/><circle class="st1" cx="140.4" cy="480.6" r="6.2" id="circle332" fill="#aa5263"/><circle class="st1" cx="140.4" cy="466.3" r="6.2" id="circle334" fill="#aa5263"/><circle class="st1" cx="140.4" cy="451.9" r="6.2" id="circle336" fill="#aa5263"/><circle class="st1" cx="140.4" cy="437.6" r="6.2" id="circle338" fill="#aa5263"/><circle class="st1" cx="140.4" cy="423.3" r="6.2" id="circle340" fill="#aa5263"/><circle class="st1" cx="140.4" cy="408.9" r="6.2" id="circle342" fill="#aa5263"/><circle class="st1" cx="140.4" cy="394.6" r="6.2" id="circle344" fill="#aa5263"/><circle class="st1" cx="140.4" cy="380.3" r="6.2" id="circle346" fill="#aa5263"/><circle class="st1" cx="140.4" cy="365.9" r="6.2" id="circle348" fill="#aa5263"/><circle class="st1" cx="140.4" cy="351.6" r="6.2" id="circle350" fill="#aa5263"/><circle class="st1" cx="140.4" cy="337.3" r="6.2" id="circle352" fill="#aa5263"/><circle class="st1" cx="140.4" cy="322.9" r="6.2" id="circle354" fill="#aa5263"/><circle class="st1" cx="140.4" cy="308.6" r="6.2" id="circle356" fill="#aa5263"/><path class="st1" d="M877.7 258.4H124.2c0-24 31.2-43.5 69.6-43.5H808c38.5.1 69.7 19.5 69.7 43.5z" id="path358" fill="#aa5263"/></g><g id="Layer_1" transform="translate(-3.933 -3.01) scale(.05736)"><path class="st2" d="M757.3 662.2H286.5c-9.7 0-17.5-7.8-17.5-17.5V355.1c0-9.7 7.8-17.5 17.5-17.5h470.8c9.7 0 17.5 7.8 17.5 17.5v289.7c0 9.6-7.8 17.4-17.5 17.4z" id="path361" fill="#c7ecff"/><path class="st3" d="M717.6 389.2H469c-2.7 0-4.8-2.2-4.8-4.8v-8.7c0-2.7 2.2-4.8 4.8-4.8h248.7c2.7 0 4.8 2.2 4.8 4.8v8.7c0 2.7-2.2 4.8-4.9 4.8z" id="path363" fill="#808384"/><path class="st3" d="M587.7 439.1h-61.1c-1.6 0-2.9-1.3-2.9-2.9v-6.1c0-1.6 1.3-2.9 2.9-2.9h61.1c1.6 0 2.9 1.3 2.9 2.9v6.1c0 1.6-1.3 2.9-2.9 2.9z" id="path365" fill="#808384"/><path class="st3" d="M587.7 463.8h-61.1c-1.6 0-2.9-1.3-2.9-2.9v-6.1c0-1.6 1.3-2.9 2.9-2.9h61.1c1.6 0 2.9 1.3 2.9 2.9v6.1c0 1.6-1.3 2.9-2.9 2.9z" id="path367" fill="#808384"/><path class="st3" d="M587.7 488.5h-61.1c-1.6 0-2.9-1.3-2.9-2.9v-6.1c0-1.6 1.3-2.9 2.9-2.9h61.1c1.6 0 2.9 1.3 2.9 2.9v6.1c0 1.6-1.3 2.9-2.9 2.9z" id="path369" fill="#808384"/><path class="st3" d="M603.5 551.5h-77c-1.6 0-2.9-1.3-2.9-2.9v-6.1c0-1.6 1.3-2.9 2.9-2.9h77c1.6 0 2.9 1.3 2.9 2.9v6.1c0 1.6-1.3 2.9-2.9 2.9z" id="path371" fill="#808384"/><path class="st3" d="M603.5 609.3h-77c-1.6 0-2.9-1.3-2.9-2.9v-6.1c0-1.6 1.3-2.9 2.9-2.9h77c1.6 0 2.9 1.3 2.9 2.9v6.1c0 1.6-1.3 2.9-2.9 2.9z" id="path373" fill="#808384"/><path class="st3" d="M744 551.5H638.9c-1.6 0-2.9-1.3-2.9-2.9v-6.1c0-1.6 1.3-2.9 2.9-2.9H744c1.6 0 2.9 1.3 2.9 2.9v6.1c.1 1.6-1.3 2.9-2.9 2.9z" id="path375" fill="#808384"/><path class="st1" d="M672.3 439.1h-61.1c-1.6 0-2.9-1.3-2.9-2.9v-6.1c0-1.6 1.3-2.9 2.9-2.9h61.1c1.6 0 2.9 1.3 2.9 2.9v6.1c0 1.6-1.3 2.9-2.9 2.9z" id="path377" fill="#aa5263"/><path class="st1" d="M672.3 463.8h-61.1c-1.6 0-2.9-1.3-2.9-2.9v-6.1c0-1.6 1.3-2.9 2.9-2.9h61.1c1.6 0 2.9 1.3 2.9 2.9v6.1c0 1.6-1.3 2.9-2.9 2.9z" id="path379" fill="#aa5263"/><path class="st1" d="M672.3 488.5h-61.1c-1.6 0-2.9-1.3-2.9-2.9v-6.1c0-1.6 1.3-2.9 2.9-2.9h61.1c1.6 0 2.9 1.3 2.9 2.9v6.1c0 1.6-1.3 2.9-2.9 2.9z" id="path381" fill="#aa5263"/><path class="st4" d="M435.1 566c-3.2-1.6-10.9-15.6-11.8-18.6-.9-3 1.4-13.4 1.8-17 .5-3.6 4.1-5 5.7-6.3 1.6-1.4 5.2-18.8 6.1-24.2.9-5.4-.9-6.2-2-7.8-1.1-1.6.2-7.5 2.3-16.5 2-9.1 2.5-17.5 0-21.3-2.5-3.9-1.1-7.9-3.4-12.2-2.3-4.3-7.7-6.6-11.8-8.9-4.1-2.3-7.9-8.6-11.8-10.1-3.9-1.5-14.7-1.1-19-2.3-4.3-1.1-16.3 0-26.7 3.2-10.4 3.2-18.8 16.8-20.8 21.4-2 4.6-4.9 17-7.3 24.5-2.4 7.5 1 17 1.9 21.4.8 4.4-1.2 5.8-1.9 8.7-.7 2.9 4.1 16.1 7.5 21.2 3.4 5.1 5.1 5.8 7.8 7.5 2.7 1.7 3.4 17 3.4 21.1 0 4.1-2.4 12.9-14.3 17-7 2.4-19 8.2-27.5 12.5v16.1c0 4.5 3.7 8.2 8.2 8.2h131.2c4.5 0 8.2-3.7 8.2-8.2v-20.9c-9.1-2.9-23.6-7.4-25.8-8.5z" id="path383" fill="#c6babd"/><path class="st5" d="M355 549.7c0-4.1-.7-19.4-3.4-21.1-2.7-1.7-4.4-2.4-7.8-7.5-3.4-5.1-8.2-18.3-7.5-21.2.7-2.9 2.7-4.3 1.9-8.7-.8-4.4-4.2-13.9-1.9-21.4 2.4-7.5 5.3-19.9 7.3-24.5 2-4.6 10.4-18.2 20.8-21.4 10.4-3.2 22.4-4.3 26.7-3.2 4.3 1.1 15.2.7 19 2.3 3.8 1.6 7.7 7.8 11.8 10.1 4.1 2.3 9.5 4.6 11.8 8.9 2.3 4.3.9 8.4 3.4 12.2 2.5 3.9 2 12.2 0 21.3-2 9.1-3.4 15-2.3 16.5 1.1 1.6 2.9 2.4 2 7.8-.9 5.4-4.5 22.8-6.1 24.2-1.6 1.4-5.2 2.7-5.7 6.3-.5 3.6-2.7 14.1-1.8 17 .9 2.9 8.6 17 11.8 18.6 2.2 1.1 16.7 5.6 25.6 8.3v-153c0-4.5-3.7-8.2-8.2-8.2H321.3c-4.5 0-8.2 3.7-8.2 8.2v158c8.6-4.3 20.5-10 27.5-12.5 12-4.1 14.4-12.9 14.4-17z" id="path385" fill="#fff"/></g></svg>