<svg xmlns="http://www.w3.org/2000/svg" viewBox="0 0 50 50" id="svg2" width="50" height="50"><style id="style4">.st0{fill:#c7ecff}.st1{fill:#adb8bc}.st2{fill:#aa5263}</style><g id="Layer_6" transform="translate(-3.823 -6.256) scale(.05897)"><path class="st0" id="polygon7" fill="#c7ecff" d="M485 244.4h9.2l25.2 601.5h-55.8z"/><path class="st0" d="M851.2 356.8l-55.3-62.5c-2.7-3.1-9.5-3.1-12.2 0l-55.3 62.5c-2.7 3.1.7 6.9 6.1 6.9h27.4c3.9 0 7.1 2.1 7.1 4.6v169.6c0 2.5 3.2 4.6 7.1 4.6h27.5c3.9 0 7.1-2.1 7.1-4.6V368.3c0-2.5 3.2-4.6 7.1-4.6h27.4c5.4 0 8.7-3.9 6-6.9z" id="path9" fill="#c7ecff"/><path class="st0" d="M215.8 794.3l43.2 48.8c2.1 2.4 7.4 2.4 9.5 0l43.2-48.8c2.1-2.4-.5-5.4-4.8-5.4h-21.4c-3 0-5.5-1.6-5.5-3.6V652.9c0-2-2.5-3.6-5.5-3.6H253c-3 0-5.5 1.6-5.5 3.6v132.4c0 2-2.5 3.6-5.5 3.6h-21.4c-4.2 0-6.9 3-4.8 5.4z" id="path11" fill="#c7ecff"/></g><g id="Layer_3" transform="translate(-3.823 -6.256) scale(.05897)"><path class="st1" d="M905.9 557.5l-4.2-.2c-.8 0-1.4.5-1.5 1.3-.2 3.7-.5 7.4-.8 11-.1.8.5 1.4 1.3 1.5l4.2.4c.8.1 1.5-.5 1.5-1.3.3-3.7.6-7.5.9-11.2 0-.8-.6-1.5-1.4-1.5z" id="path14" fill="#adb8bc"/><path class="st1" d="M906.6 536.5h-4.2c-.8 0-1.4.6-1.4 1.4 0 3.7-.1 7.4-.3 11 0 .8.6 1.4 1.3 1.4l4.2.2c.8 0 1.4-.6 1.5-1.3.1-3.7.2-7.5.3-11.3 0-.8-.6-1.4-1.4-1.4z" id="path16" fill="#adb8bc"/><path class="st1" d="M900.7 515.9c.2 4 .3 8.1.3 12.2 0 .8.6 1.4 1.4 1.4h4.2c.8 0 1.4-.6 1.4-1.4 0-4.1-.1-8.3-.3-12.4v-.3l-7 .3v.2z" id="path18" fill="#adb8bc"/><path class="st1" d="M894.9 453.7c-.8.1-1.2.9-1.1 1.6.7 3.6 1.3 7.3 1.9 10.9.1.8.8 1.3 1.6 1.2l4.1-.7c.8-.1 1.3-.8 1.2-1.6-.6-3.7-1.3-7.4-2-11.1-.1-.8-.9-1.3-1.6-1.1l-4.1.8z" id="path20" fill="#adb8bc"/><path class="st1" d="M902.5 473.6l-4.2.6c-.8.1-1.3.8-1.2 1.6.5 3.6 1 7.3 1.4 11 .1.8.8 1.3 1.5 1.2l4.2-.4c.8-.1 1.3-.8 1.2-1.5-.4-3.7-.9-7.5-1.4-11.2 0-.9-.7-1.4-1.5-1.3z" id="path22" fill="#adb8bc"/><path class="st1" d="M900.8 494.9c-.8.1-1.3.7-1.3 1.5.3 3.7.6 7.4.8 11 0 .8.7 1.4 1.5 1.3l4.2-.2c.8 0 1.4-.7 1.3-1.5-.2-3.7-.5-7.5-.8-11.2-.1-.8-.8-1.3-1.5-1.3l-4.2.4z" id="path24" fill="#adb8bc"/><path class="st1" d="M879.4 680.5l-3.9-1.5c-.7-.3-1.5.1-1.8.8-1.3 3.4-2.7 6.9-4.1 10.3-.3.7 0 1.5.7 1.8l3.9 1.6c.7.3 1.5 0 1.8-.7 1.4-3.5 2.9-7 4.2-10.5.3-.8-.1-1.6-.8-1.8z" id="path26" fill="#adb8bc"/><path class="st1" d="M889.4 435c.9 3.6 1.7 7.2 2.5 10.8.2.8.9 1.2 1.7 1.1l4.1-.9c.8-.2 1.2-.9 1.1-1.7-.8-3.7-1.6-7.3-2.5-11-.2-.8-.9-1.2-1.7-1l-4.1 1c-.8.2-1.3 1-1.1 1.7z" id="path28" fill="#adb8bc"/><path class="st1" d="M871.4 699.9l-3.8-1.7c-.7-.3-1.5 0-1.8.7-1.5 3.4-3.1 6.7-4.7 10.1-.3.7 0 1.5.6 1.9l3.8 1.8c.7.3 1.5 0 1.9-.7 1.6-3.4 3.2-6.8 4.7-10.2.3-.7 0-1.5-.7-1.9z" id="path30" fill="#adb8bc"/><path class="st1" d="M886.4 660.6l-4-1.3c-.7-.2-1.5.2-1.8.9l-3.6 10.5c-.3.7.1 1.5.8 1.8l3.9 1.4c.7.3 1.5-.1 1.8-.8 1.3-3.5 2.5-7.1 3.7-10.7.4-.8 0-1.6-.8-1.8z" id="path32" fill="#adb8bc"/><path class="st1" d="M901.3 599.3l-4.1-.7c-.8-.1-1.5.4-1.6 1.1-.6 3.6-1.3 7.3-2 10.9-.1.8.3 1.5 1.1 1.6l4.1.8c.8.1 1.5-.3 1.6-1.1.7-3.7 1.4-7.4 2-11.1.2-.7-.3-1.4-1.1-1.5z" id="path34" fill="#adb8bc"/><path class="st1" d="M892.5 640.4l-4-1.1c-.7-.2-1.5.2-1.7 1-1 3.6-2 7.1-3.1 10.7-.2.7.2 1.5.9 1.7l4 1.2c.7.2 1.5-.2 1.7-.9 1.1-3.6 2.1-7.2 3.1-10.9.2-.8-.2-1.5-.9-1.7z" id="path36" fill="#adb8bc"/><path class="st1" d="M862.4 719l-3.7-1.9c-.7-.3-1.5-.1-1.9.6-1.7 3.3-3.4 6.6-5.2 9.8-.4.7-.1 1.5.6 1.9l3.7 2c.7.4 1.5.1 1.9-.6 1.8-3.3 3.6-6.6 5.3-10 .2-.6 0-1.5-.7-1.8z" id="path38" fill="#adb8bc"/><path class="st1" d="M897.4 619.9l-4.1-.9c-.8-.2-1.5.3-1.7 1.1-.8 3.6-1.6 7.2-2.5 10.8-.2.7.3 1.5 1 1.7l4.1 1c.8.2 1.5-.3 1.7-1 .9-3.6 1.8-7.3 2.6-11 .1-.8-.3-1.5-1.1-1.7z" id="path40" fill="#adb8bc"/><path class="st1" d="M904.1 578.4l-4.1-.4c-.8-.1-1.5.5-1.5 1.2-.4 3.7-.9 7.3-1.4 11-.1.8.4 1.5 1.2 1.6l4.1.6c.8.1 1.5-.4 1.6-1.2.5-3.7 1-7.5 1.4-11.2.1-.8-.5-1.5-1.3-1.6z" id="path42" fill="#adb8bc"/><path class="st1" d="M806.1 270.1c2.3 2.8 4.7 5.7 7 8.6.5.6 1.3.7 2 .2l3.3-2.6c.6-.5.7-1.4.2-2-2.3-2.9-4.7-5.9-7.1-8.7-.5-.6-1.4-.7-2-.2l-3.2 2.7c-.6.5-.7 1.4-.2 2z" id="path44" fill="#adb8bc"/><path class="st1" d="M791.1 811.5c-.5.6-.5 1.4.1 2l3.1 2.9c.6.5 1.5.5 2-.1 2.6-2.7 5.1-5.5 7.6-8.3.5-.6.5-1.5-.1-2l-3.2-2.8c-.6-.5-1.5-.5-2 .1-2.5 2.8-5 5.5-7.5 8.2z" id="path46" fill="#adb8bc"/><path class="st1" d="M761.2 842.3l2.8 3.2c.5.6 1.4.6 2 .1l8.4-7.5c.6-.5.6-1.4.1-2l-2.9-3.1c-.5-.6-1.4-.6-2-.1-2.7 2.5-5.4 5-8.2 7.4-.6.6-.7 1.4-.2 2z" id="path48" fill="#adb8bc"/><path class="st1" d="M785.7 247.5c.5.6 1.4.6 2 0l3-2.9c.6-.5.6-1.4 0-2-2.6-2.7-5.3-5.4-7.9-8-.6-.5-1.4-.5-2 0l-2.9 3c-.5.6-.5 1.4 0 2 2.7 2.6 5.3 5.2 7.8 7.9z" id="path50" fill="#adb8bc"/><path class="st1" d="M755.4 219.2c.6.5 1.5.4 2-.2l2.7-3.2c.5-.6.4-1.5-.2-2-2.9-2.4-5.8-4.8-8.7-7.1-.6-.5-1.5-.4-2 .2l-2.6 3.3c-.5.6-.4 1.5.2 2 2.9 2.2 5.8 4.6 8.6 7z" id="path52" fill="#adb8bc"/><path class="st1" d="M776.6 826.3c-.6.5-.6 1.4 0 2l2.9 3c.5.6 1.4.6 2 0 2.7-2.6 5.4-5.3 8-7.9.5-.6.5-1.4 0-2l-3-2.9c-.6-.5-1.4-.5-2 0-2.7 2.6-5.3 5.2-7.9 7.8z" id="path54" fill="#adb8bc"/><path class="st1" d="M770.9 232.9c.6.5 1.4.5 2-.1l2.9-3.1c.5-.6.5-1.5-.1-2-2.7-2.6-5.5-5.1-8.3-7.6-.6-.5-1.5-.5-2 .1l-2.8 3.1c-.5.6-.5 1.5.1 2 2.8 2.6 5.6 5.1 8.2 7.6z" id="path56" fill="#adb8bc"/><path class="st1" d="M819 286.3c2.2 2.9 4.4 5.9 6.5 8.9.4.6 1.3.8 1.9.3l3.4-2.4c.6-.4.8-1.3.3-2-2.2-3-4.4-6.1-6.6-9.1-.5-.6-1.3-.7-2-.3l-3.3 2.5c-.6.6-.7 1.5-.2 2.1z" id="path58" fill="#adb8bc"/><path class="st1" d="M870.1 375.9c1.4 3.4 2.8 6.8 4.1 10.3.3.7 1.1 1.1 1.8.8l3.9-1.5c.7-.3 1.1-1.1.8-1.8-1.3-3.5-2.7-7-4.2-10.5-.3-.7-1.1-1.1-1.8-.8l-3.9 1.6c-.6.4-.9 1.2-.7 1.9z" id="path60" fill="#adb8bc"/><path class="st1" d="M861.8 357c1.6 3.3 3.1 6.7 4.6 10 .3.7 1.1 1 1.8.7l3.8-1.7c.7-.3 1-1.1.7-1.8-1.5-3.4-3.1-6.8-4.7-10.2-.3-.7-1.2-1-1.9-.7l-3.8 1.8c-.6.4-.9 1.2-.5 1.9z" id="path62" fill="#adb8bc"/><path class="st1" d="M877.6 395.3l3.6 10.5c.2.7 1 1.1 1.8.9l4-1.3c.7-.2 1.1-1 .9-1.8-1.2-3.6-2.4-7.1-3.6-10.7-.3-.7-1.1-1.1-1.8-.8l-3.9 1.4c-.9.3-1.3 1.1-1 1.8z" id="path64" fill="#adb8bc"/><path class="st1" d="M842.2 320.6c1.9 3.1 3.8 6.3 5.6 9.5.4.7 1.2.9 1.9.5l3.7-2.1c.7-.4.9-1.2.5-1.9-1.8-3.2-3.8-6.5-5.7-9.7-.4-.7-1.3-.9-1.9-.5l-3.6 2.2c-.7.5-.9 1.3-.5 2z" id="path66" fill="#adb8bc"/><path class="st1" d="M831 303.1c2.1 3 4.1 6.1 6.1 9.2.4.6 1.3.8 1.9.4l3.5-2.2c.7-.4.9-1.3.4-1.9-2-3.1-4.1-6.3-6.2-9.4-.4-.6-1.3-.8-1.9-.4l-3.5 2.4c-.6.4-.7 1.3-.3 1.9z" id="path68" fill="#adb8bc"/><path class="st1" d="M852.4 338.5c1.7 3.2 3.4 6.5 5.1 9.8.3.7 1.2 1 1.9.6l3.8-1.9c.7-.3 1-1.2.6-1.9-1.7-3.3-3.4-6.7-5.2-10-.4-.7-1.2-.9-1.9-.6l-3.7 2c-.7.5-.9 1.4-.6 2z" id="path70" fill="#adb8bc"/><path class="st1" d="M884 415c1 3.5 2.1 7.1 3 10.6.2.7 1 1.2 1.7 1l4.1-1.1c.7-.2 1.2-1 1-1.7-1-3.6-2-7.3-3.1-10.8-.2-.7-1-1.2-1.7-.9l-4 1.2c-.8.2-1.2 1-1 1.7z" id="path72" fill="#adb8bc"/><path class="st1" d="M799.8 262.7c.5.6 1.4.6 2 .1l3.2-2.8c.6-.5.6-1.4.1-2l-7.5-8.4c-.5-.6-1.4-.6-2-.1l-3.1 2.9c-.6.5-.6 1.4-.1 2 2.5 2.8 5 5.5 7.4 8.3z" id="path74" fill="#adb8bc"/><path class="st1" d="M141.3 744.2c-1.9-3.1-3.8-6.3-5.6-9.5-.4-.7-1.2-.9-1.9-.5l-3.6 2.1c-.7.4-.9 1.2-.5 1.9 1.8 3.2 3.8 6.5 5.7 9.7.4.7 1.3.9 1.9.5l3.6-2.2c.6-.4.8-1.3.4-2z" id="path76" fill="#adb8bc"/><path class="st1" d="M131 726.3c-1.7-3.2-3.4-6.5-5.1-9.8-.3-.7-1.2-1-1.9-.6l-3.7 1.9c-.7.3-1 1.2-.6 1.9 1.7 3.3 3.4 6.7 5.2 10 .4.7 1.2.9 1.9.6l3.7-2c.6-.5.9-1.3.5-2z" id="path78" fill="#adb8bc"/><path class="st1" d="M852.4 737.5l-3.6-2.1c-.7-.4-1.5-.2-1.9.5-1.8 3.2-3.7 6.4-5.6 9.5-.4.7-.2 1.5.5 1.9l3.6 2.2c.7.4 1.5.2 1.9-.5 2-3.2 3.9-6.5 5.8-9.7.2-.5 0-1.4-.7-1.8z" id="path80" fill="#adb8bc"/><path class="st1" d="M164.5 778.5c-2.2-2.9-4.4-5.9-6.5-8.9-.4-.6-1.3-.8-1.9-.3l-3.4 2.4c-.6.4-.8 1.3-.3 2 2.2 3 4.4 6.1 6.6 9.1.5.6 1.3.7 2 .3l3.3-2.5c.5-.6.7-1.5.2-2.1z" id="path82" fill="#adb8bc"/><path class="st1" d="M121.7 707.8c-1.6-3.3-3.1-6.7-4.6-10-.3-.7-1.1-1-1.8-.7l-3.8 1.7c-.7.3-1 1.1-.7 1.8 1.5 3.4 3.1 6.8 4.7 10.2.3.7 1.2 1 1.9.7l3.8-1.8c.5-.3.8-1.2.5-1.9z" id="path84" fill="#adb8bc"/><path class="st1" d="M183.7 802.1c-.5-.6-1.4-.6-2-.1l-3.2 2.8c-.6.5-.6 1.4-.1 2l7.5 8.4c.5.6 1.4.6 2 .1l3.1-2.9c.6-.5.6-1.4.1-2-2.5-2.8-5-5.6-7.4-8.3z" id="path86" fill="#adb8bc"/><path class="st1" d="M177.4 794.7c-2.4-2.8-4.7-5.7-7-8.6-.5-.6-1.3-.7-2-.2l-3.3 2.6c-.6.5-.7 1.4-.2 2 2.3 2.9 4.7 5.9 7.1 8.7.5.6 1.4.7 2 .2l3.2-2.7c.6-.5.7-1.4.2-2z" id="path88" fill="#adb8bc"/><path class="st1" d="M93.9 629.8c-.9-3.6-1.7-7.2-2.5-10.8-.2-.8-.9-1.2-1.7-1.1l-4.1.9c-.8.2-1.2.9-1.1 1.7.8 3.7 1.6 7.3 2.5 11 .2.8.9 1.2 1.7 1l4.1-1c.9-.2 1.3-.9 1.1-1.7z" id="path90" fill="#adb8bc"/><path class="st1" d="M88.4 611.2c.8-.1 1.2-.9 1.1-1.6-.7-3.6-1.3-7.2-1.9-10.9-.1-.8-.8-1.3-1.6-1.2l-4.1.7c-.8.1-1.3.8-1.2 1.6.6 3.7 1.3 7.4 2 11.1.1.8.9 1.3 1.6 1.1l4.1-.8z" id="path92" fill="#adb8bc"/><path class="st1" d="M80.8 591.3l4.2-.6c.8-.1 1.3-.8 1.2-1.6-.5-3.6-1-7.3-1.4-11-.1-.8-.8-1.3-1.5-1.2l-4.2.5c-.8.1-1.3.8-1.2 1.5.4 3.7.9 7.5 1.4 11.2 0 .7.8 1.3 1.5 1.2z" id="path94" fill="#adb8bc"/><path class="st1" d="M82.6 570c.8-.1 1.3-.7 1.3-1.5-.3-3.7-.6-7.4-.8-11 0-.8-.7-1.4-1.5-1.3l-4.2.2c-.8 0-1.4.7-1.3 1.5.2 3.7.5 7.5.8 11.2.1.8.8 1.3 1.5 1.3l4.2-.4z" id="path96" fill="#adb8bc"/><path class="st1" d="M105.8 669.6l-3.6-10.5c-.2-.7-1-1.1-1.8-.9l-4 1.3c-.7.2-1.1 1-.9 1.8 1.2 3.6 2.4 7.1 3.6 10.7.3.7 1.1 1.1 1.8.8l3.9-1.4c.9-.3 1.3-1.1 1-1.8z" id="path98" fill="#adb8bc"/><path class="st1" d="M197.7 817.3c-.5-.6-1.4-.6-2 0l-3 2.9c-.6.5-.6 1.4 0 2 2.6 2.7 5.3 5.4 7.9 8 .6.5 1.4.5 2 0l2.9-3c.5-.6.5-1.4 0-2-2.6-2.6-5.2-5.2-7.8-7.9z" id="path100" fill="#adb8bc"/><path class="st1" d="M113.2 688.9c-1.4-3.4-2.8-6.8-4.1-10.3-.3-.7-1.1-1.1-1.8-.8l-3.9 1.5c-.7.3-1.1 1.1-.8 1.8 1.3 3.5 2.7 7 4.2 10.5.3.7 1.1 1.1 1.8.8l3.9-1.6c.7-.4 1-1.2.7-1.9z" id="path102" fill="#adb8bc"/><path class="st1" d="M99.4 649.8c-1.1-3.5-2.1-7.1-3-10.6-.2-.7-1-1.2-1.7-1l-4.1 1.1c-.7.2-1.2 1-1 1.7 1 3.6 2 7.3 3.1 10.8.2.7 1 1.2 1.7.9l4-1.2c.8-.1 1.2-.9 1-1.7z" id="path104" fill="#adb8bc"/><path class="st1" d="M152.4 761.7c-2.1-3-4.1-6.1-6.1-9.2-.4-.6-1.3-.8-1.9-.4l-3.5 2.2c-.7.4-.8 1.3-.4 1.9 2 3.1 4.1 6.3 6.2 9.4.4.6 1.3.8 1.9.4l3.5-2.4c.6-.4.8-1.3.3-1.9z" id="path106" fill="#adb8bc"/><path class="st1" d="M838 753.3c-.6-.4-1.5-.2-1.9.4-2 3.1-4 6.2-6.1 9.2-.4.6-.3 1.5.4 1.9l3.5 2.4c.6.4 1.5.3 1.9-.4 2.1-3.1 4.2-6.2 6.2-9.4.4-.7.2-1.5-.4-1.9l-3.6-2.2z" id="path108" fill="#adb8bc"/><path class="st1" d="M363.9 921.4l-10.5-3.6c-.7-.3-1.5.1-1.8.8l-1.4 3.9c-.3.7.1 1.5.8 1.8 3.5 1.3 7.1 2.5 10.7 3.7.7.2 1.5-.2 1.8-.9l1.3-4c.2-.7-.2-1.5-.9-1.7z" id="path110" fill="#adb8bc"/><path class="st1" d="M212.5 831.8c-.6-.5-1.4-.5-2 .1l-2.9 3.1c-.5.6-.5 1.5.1 2 2.7 2.5 5.5 5.1 8.3 7.6.6.5 1.5.5 2-.1l2.8-3.2c.5-.6.5-1.5-.1-2-2.7-2.5-5.5-5-8.2-7.5z" id="path112" fill="#adb8bc"/><path class="st1" d="M826.3 770.6c-.6-.4-1.5-.3-1.9.3-2.1 3-4.3 6-6.6 8.9-.5.6-.3 1.5.3 2l3.3 2.5c.6.5 1.5.4 2-.3 2.3-3 4.5-6 6.7-9.1.5-.6.3-1.5-.3-2l-3.5-2.3z" id="path114" fill="#adb8bc"/><path class="st1" d="M813.8 787.2c-.6-.5-1.5-.4-2 .2-2.3 2.9-4.6 5.7-7 8.5-.5.6-.4 1.5.2 2l3.2 2.7c.6.5 1.5.4 2-.2 2.4-2.9 4.8-5.8 7.1-8.7.5-.6.4-1.5-.2-2l-3.3-2.5z" id="path116" fill="#adb8bc"/><path class="st1" d="M344.3 914.4c-3.4-1.3-6.9-2.7-10.3-4.1-.7-.3-1.5 0-1.8.7l-1.6 3.9c-.3.7 0 1.5.7 1.8 3.5 1.4 7 2.9 10.5 4.2.7.3 1.5-.1 1.8-.8l1.5-3.9c.3-.7-.1-1.5-.8-1.8z" id="path118" fill="#adb8bc"/><path class="st1" d="M261.1 870.7c-.6-.4-1.5-.3-1.9.4l-2.4 3.5c-.4.6-.3 1.5.4 1.9 3.1 2.1 6.2 4.2 9.4 6.2.7.4 1.5.2 1.9-.4l2.3-3.5c.4-.6.2-1.5-.4-1.9-3.2-2.1-6.2-4.1-9.3-6.2z" id="path120" fill="#adb8bc"/><path class="st1" d="M228.1 845.6c-.6-.5-1.5-.4-2 .2l-2.7 3.2c-.5.6-.4 1.5.2 2 2.9 2.4 5.8 4.8 8.7 7.1.6.5 1.5.4 2-.2l2.6-3.3c.5-.6.4-1.5-.2-2-3-2.3-5.8-4.6-8.6-7z" id="path122" fill="#adb8bc"/><path class="st1" d="M244.3 858.6c-.6-.5-1.5-.3-2 .3l-2.5 3.3c-.5.6-.4 1.5.3 2 3 2.3 6 4.5 9.1 6.7.6.5 1.5.3 2-.3l2.4-3.4c.4-.6.3-1.5-.3-1.9-3.1-2.3-6.1-4.5-9-6.7z" id="path124" fill="#adb8bc"/><path class="st1" d="M306.4 897.5c-3.3-1.7-6.6-3.4-9.8-5.2-.7-.4-1.5-.1-1.9.6l-2 3.7c-.4.7-.1 1.5.6 1.9 3.3 1.8 6.6 3.6 10 5.3.7.4 1.5.1 1.9-.6l1.9-3.7c.2-.8-.1-1.7-.7-2z" id="path126" fill="#adb8bc"/><path class="st1" d="M325.1 906.4c-3.4-1.5-6.7-3.1-10.1-4.6-.7-.3-1.5 0-1.9.7l-1.8 3.8c-.3.7 0 1.5.7 1.9 3.4 1.6 6.8 3.2 10.2 4.7.7.3 1.5 0 1.8-.7l1.7-3.8c.4-.9.1-1.7-.6-2z" id="path128" fill="#adb8bc"/><path class="st1" d="M288.1 887.6c-3.2-1.8-6.4-3.7-9.5-5.6-.7-.4-1.5-.2-1.9.5l-2.2 3.6c-.4.7-.2 1.5.5 1.9 3.2 2 6.5 3.9 9.7 5.7.7.4 1.5.1 1.9-.5l2.1-3.6c.3-.8 0-1.6-.6-2z" id="path130" fill="#adb8bc"/><path class="st1" d="M296.1 170.9c.4.7 1.2.9 1.9.6 3.2-1.7 6.5-3.4 9.8-5.1.7-.3 1-1.2.6-1.9l-1.9-3.8c-.3-.7-1.2-1-1.9-.6-3.3 1.7-6.7 3.4-10 5.2-.7.4-.9 1.2-.6 1.9l2.1 3.7z" id="path132" fill="#adb8bc"/><path class="st1" d="M260.7 192.5c.4.6 1.3.8 1.9.4 3-2.1 6.1-4.1 9.2-6.1.6-.4.8-1.3.4-1.9l-2.2-3.5c-.4-.7-1.3-.9-1.9-.4-3.1 2-6.3 4.1-9.4 6.2-.6.4-.8 1.3-.4 1.9l2.4 3.4z" id="path134" fill="#adb8bc"/><path class="st1" d="M278.1 181.3c.4.7 1.3.9 1.9.5 3.1-1.9 6.3-3.8 9.5-5.6.7-.4.9-1.2.5-1.9l-2.1-3.7c-.4-.7-1.2-.9-1.9-.5-3.2 1.8-6.5 3.7-9.7 5.7-.7.4-.9 1.3-.5 1.9l2.3 3.6z" id="path136" fill="#adb8bc"/><path class="st1" d="M243.8 204.6c.5.6 1.3.7 1.9.3 2.9-2.2 5.9-4.4 8.9-6.5.6-.4.8-1.3.3-1.9l-2.4-3.4c-.4-.6-1.3-.8-2-.3-3 2.2-6.1 4.4-9.1 6.6-.6.5-.7 1.3-.3 2l2.7 3.2z" id="path138" fill="#adb8bc"/><path class="st1" d="M197.1 245.9c.6.5 1.4.5 2 0l7.8-7.8c.6-.5.6-1.4 0-2l-2.9-3c-.5-.6-1.4-.6-2 0-2.7 2.6-5.4 5.3-8 7.9-.5.6-.5 1.4 0 2l3.1 2.9z" id="path140" fill="#adb8bc"/><path class="st1" d="M183 261.2c.6.5 1.5.5 2-.1 2.4-2.7 4.9-5.5 7.4-8.2.5-.6.5-1.4-.1-2l-3.1-2.9c-.6-.5-1.5-.5-2 .1-2.6 2.7-5.1 5.5-7.6 8.3-.5.6-.5 1.5.1 2l3.3 2.8z" id="path142" fill="#adb8bc"/><path class="st1" d="M227.5 217.6c.5.6 1.4.7 2 .2 2.8-2.4 5.7-4.7 8.6-7 .6-.5.7-1.3.2-2l-2.6-3.3c-.5-.6-1.4-.7-2-.2-2.9 2.3-5.9 4.7-8.7 7.1-.6.5-.7 1.4-.2 2l2.7 3.2z" id="path144" fill="#adb8bc"/><path class="st1" d="M212 231.4c.5.6 1.4.6 2 .1 2.7-2.5 5.4-5 8.2-7.4.6-.5.6-1.4.1-2l-2.8-3.2c-.5-.6-1.4-.6-2-.1l-8.4 7.5c-.6.5-.6 1.4-.1 2l3 3.1z" id="path146" fill="#adb8bc"/><path class="st1" d="M392.8 133.5c.2.7.9 1.2 1.7 1 3.6-.9 7.2-1.7 10.8-2.5.8-.2 1.2-.9 1.1-1.7l-.9-4.1c-.2-.8-.9-1.2-1.7-1.1-3.7.8-7.3 1.6-11 2.5-.8.2-1.2.9-1 1.7l1 4.2z" id="path148" fill="#adb8bc"/><path class="st1" d="M314.6 161.5c.3.7 1.2 1 1.9.7 3.3-1.6 6.7-3.1 10-4.6.7-.3 1-1.1.7-1.8l-1.7-3.8c-.3-.7-1.1-1-1.8-.7-3.4 1.5-6.8 3.1-10.2 4.7-.7.3-1 1.2-.7 1.9l1.8 3.6z" id="path150" fill="#adb8bc"/><path class="st1" d="M413.1 129c.1.8.9 1.2 1.6 1.1 3.6-.7 7.3-1.3 10.9-1.9.8-.1 1.3-.8 1.2-1.6l-.7-4.1c-.1-.8-.8-1.3-1.6-1.2-3.7.6-7.4 1.3-11.1 2-.8.1-1.3.9-1.1 1.6l.8 4.1z" id="path152" fill="#adb8bc"/><path class="st1" d="M333.6 153c.3.7 1.1 1 1.8.8 3.4-1.4 6.8-2.8 10.3-4.1.7-.3 1.1-1.1.8-1.8L345 144c-.3-.7-1.1-1.1-1.8-.8-3.5 1.3-7 2.7-10.5 4.2-.7.3-1.1 1.1-.8 1.8l1.7 3.8z" id="path154" fill="#adb8bc"/><path class="st1" d="M372.7 139c.2.7 1 1.2 1.7.9 3.5-1 7.1-2.1 10.6-3 .7-.2 1.2-1 1-1.7l-1.1-4.1c-.2-.7-1-1.2-1.7-1-3.6 1-7.2 2-10.8 3.1-.7.2-1.2 1-.9 1.7l1.2 4.1z" id="path156" fill="#adb8bc"/><path class="st1" d="M353 145.5c.3.7 1.1 1.1 1.8.8 3.5-1.2 7-2.4 10.5-3.5.7-.2 1.1-1 .9-1.8l-1.3-4c-.2-.7-1-1.1-1.8-.9-3.6 1.2-7.1 2.4-10.7 3.6-.7.3-1.1 1.1-.8 1.8l1.4 4z" id="path158" fill="#adb8bc"/><path class="st1" d="M79.2 485.9l4.2.5c.8.1 1.5-.5 1.5-1.2.4-3.6.9-7.3 1.4-11 .1-.8-.4-1.5-1.2-1.6L81 472c-.8-.1-1.5.4-1.6 1.2-.5 3.7-1 7.5-1.4 11.2-.1.7.4 1.4 1.2 1.5z" id="path160" fill="#adb8bc"/><path class="st1" d="M90.9 424l4 1.1c.7.2 1.5-.2 1.7-1 1-3.6 2-7.1 3.1-10.7.2-.7-.2-1.5-.9-1.7l-4-1.2c-.7-.2-1.5.2-1.8.9-1.1 3.6-2.1 7.2-3.1 10.9-.2.7.3 1.5 1 1.7z" id="path162" fill="#adb8bc"/><path class="st1" d="M86 444.4l4.1.9c.8.2 1.5-.3 1.7-1.1.8-3.6 1.6-7.2 2.5-10.8.2-.7-.3-1.5-1-1.7l-4.1-1c-.8-.2-1.5.3-1.7 1-.9 3.6-1.8 7.3-2.6 11-.2.8.3 1.6 1.1 1.7z" id="path164" fill="#adb8bc"/><path class="st1" d="M82 465.1l4.1.7c.8.1 1.5-.4 1.6-1.1.6-3.6 1.3-7.3 2-10.9.1-.8-.3-1.5-1.1-1.6l-4.1-.8c-.8-.2-1.5.3-1.6 1.1-.7 3.7-1.4 7.4-2 11.1-.1.6.4 1.4 1.1 1.5z" id="path166" fill="#adb8bc"/><path class="st1" d="M77.4 506.9l4.2.3c.8 0 1.4-.5 1.5-1.3.2-3.7.5-7.4.8-11 .1-.8-.5-1.4-1.3-1.5l-4.2-.4c-.8-.1-1.5.5-1.5 1.3-.3 3.7-.6 7.5-.9 11.2 0 .6.6 1.3 1.4 1.4z" id="path168" fill="#adb8bc"/><path class="st1" d="M739.2 206.2c.6.5 1.5.3 2-.3l2.5-3.3c.5-.6.4-1.5-.3-2-3-2.3-6-4.5-9.1-6.7-.6-.5-1.5-.3-2 .3l-2.4 3.4c-.4.6-.3 1.5.3 1.9 3.1 2.3 6.1 4.5 9 6.7z" id="path170" fill="#adb8bc"/><path class="st1" d="M76.7 527.9h4.2c.8 0 1.4-.6 1.4-1.4 0-3.7.1-7.4.3-11 0-.8-.6-1.4-1.3-1.4l-4.2-.2c-.8 0-1.4.6-1.5 1.3-.1 3.7-.2 7.5-.3 11.3 0 .7.6 1.4 1.4 1.4z" id="path172" fill="#adb8bc"/><path class="st1" d="M82.6 549.2v-.5c-.2-4.1-.3-8.3-.3-12.4 0-.8-.6-1.4-1.4-1.4h-4.2c-.8 0-1.4.6-1.4 1.4 0 4.2.1 8.5.3 12.7v.5l7-.3z" id="path174" fill="#adb8bc"/><path class="st1" d="M145.4 311.1c.6.4 1.5.2 1.9-.4 2-3.1 4-6.2 6.1-9.2.4-.6.3-1.5-.4-1.9l-3.5-2.4c-.6-.4-1.5-.3-1.9.4-2.1 3.1-4.2 6.2-6.2 9.4-.4.7-.2 1.5.4 1.9l3.6 2.2z" id="path176" fill="#adb8bc"/><path class="st1" d="M131 326.8l3.6 2.1c.7.4 1.5.2 1.9-.5 1.8-3.2 3.7-6.4 5.6-9.5.4-.7.2-1.5-.5-1.9l-3.6-2.2c-.7-.4-1.5-.2-1.9.5-2 3.2-3.9 6.4-5.8 9.7-.2.6 0 1.5.7 1.8z" id="path178" fill="#adb8bc"/><path class="st1" d="M157.1 293.8c.6.4 1.5.3 1.9-.3 2.1-3 4.4-6 6.6-8.9.5-.6.3-1.5-.3-2l-3.3-2.5c-.6-.5-1.5-.4-2 .3-2.3 3-4.5 6-6.7 9.1-.5.6-.3 1.5.3 2l3.5 2.3z" id="path180" fill="#adb8bc"/><path class="st1" d="M121 345.4l3.7 1.9c.7.3 1.5.1 1.9-.6 1.7-3.3 3.4-6.6 5.2-9.8.4-.7.1-1.5-.6-1.9l-3.7-2c-.7-.4-1.5-.1-1.9.6-1.8 3.3-3.6 6.6-5.3 10-.2.6 0 1.4.7 1.8z" id="path182" fill="#adb8bc"/><path class="st1" d="M104 383.9l3.9 1.5c.7.3 1.5-.1 1.8-.8 1.3-3.4 2.7-6.9 4.1-10.3.3-.7 0-1.5-.7-1.8l-3.9-1.6c-.7-.3-1.5 0-1.8.7-1.4 3.5-2.9 7-4.2 10.5-.3.7.1 1.5.8 1.8z" id="path184" fill="#adb8bc"/><path class="st1" d="M112 364.4l3.8 1.7c.7.3 1.5 0 1.8-.7 1.5-3.4 3.1-6.7 4.7-10 .3-.7 0-1.5-.6-1.9l-3.8-1.8c-.7-.3-1.5 0-1.9.7-1.6 3.4-3.2 6.8-4.7 10.2-.3.7 0 1.5.7 1.8z" id="path186" fill="#adb8bc"/><path class="st1" d="M96.9 403.8l4 1.3c.7.2 1.5-.2 1.8-.9l3.6-10.5c.3-.7-.1-1.5-.8-1.8l-3.9-1.4c-.7-.3-1.5.1-1.8.8-1.3 3.5-2.5 7.1-3.7 10.7-.3.7.1 1.5.8 1.8z" id="path188" fill="#adb8bc"/><path class="st1" d="M169.6 277.2c.6.5 1.5.4 2-.2 2.3-2.9 4.6-5.7 7-8.5.5-.6.4-1.5-.2-2l-3.2-2.7c-.6-.5-1.5-.4-2 .2-2.4 2.9-4.8 5.8-7.1 8.7-.5.6-.4 1.5.2 2l3.3 2.5z" id="path190" fill="#adb8bc"/><path class="st1" d="M639.2 150.3c3.4 1.3 6.9 2.7 10.3 4.1.7.3 1.5 0 1.8-.7l1.6-3.9c.3-.7 0-1.5-.7-1.8-3.5-1.4-7-2.9-10.5-4.2-.7-.3-1.5.1-1.8.8l-1.5 3.9c-.2.7.1 1.5.8 1.8z" id="path192" fill="#adb8bc"/><path class="st1" d="M658.4 158.3c3.4 1.5 6.7 3.1 10 4.7.7.3 1.5 0 1.9-.6l1.8-3.8c.3-.7 0-1.5-.7-1.9-3.4-1.6-6.8-3.2-10.2-4.7-.7-.3-1.5 0-1.8.7l-1.7 3.8c-.3.7 0 1.5.7 1.8z" id="path194" fill="#adb8bc"/><path class="st1" d="M675.1 900l1.9 3.7c.3.7 1.2 1 1.9.6 3.3-1.7 6.7-3.4 10-5.2.7-.4.9-1.2.6-1.9l-2-3.7c-.4-.7-1.2-.9-1.9-.6-3.2 1.7-6.5 3.4-9.8 5.1-.7.5-1 1.3-.7 2z" id="path196" fill="#adb8bc"/><path class="st1" d="M656.3 908.8l1.7 3.8c.3.7 1.1 1 1.8.7 3.4-1.5 6.8-3.1 10.2-4.7.7-.3 1-1.2.7-1.9l-1.8-3.8c-.3-.7-1.2-1-1.9-.7-3.3 1.6-6.7 3.1-10 4.6-.6.4-1 1.3-.7 2z" id="path198" fill="#adb8bc"/><path class="st1" d="M599.7 137.3c3.6 1 7.1 2 10.7 3.1.7.2 1.5-.2 1.7-.9l1.2-4c.2-.7-.2-1.5-.9-1.8-3.6-1.1-7.2-2.1-10.9-3.1-.7-.2-1.5.2-1.7 1l-1.1 4c-.2.7.3 1.5 1 1.7z" id="path200" fill="#adb8bc"/><path class="st1" d="M619.6 143.3l10.5 3.6c.7.3 1.5-.1 1.8-.8l1.4-3.9c.3-.7-.1-1.5-.8-1.8-3.5-1.3-7.1-2.5-10.7-3.7-.7-.2-1.5.2-1.8.9l-1.3 4c-.2.7.2 1.4.9 1.7z" id="path202" fill="#adb8bc"/><path class="st1" d="M637.1 916.6l1.5 3.9c.3.7 1.1 1.1 1.8.8 3.5-1.3 7-2.7 10.5-4.2.7-.3 1.1-1.1.8-1.8l-1.6-3.9c-.3-.7-1.1-1-1.8-.8-3.4 1.4-6.8 2.8-10.3 4.1-.8.4-1.2 1.2-.9 1.9z" id="path204" fill="#adb8bc"/><path class="st1" d="M728.5 868l2.4 3.4c.4.6 1.3.8 2 .3 3-2.2 6.1-4.4 9.1-6.6.6-.5.7-1.3.3-2l-2.5-3.3c-.5-.6-1.3-.7-1.9-.3-2.9 2.2-5.9 4.4-8.9 6.5-.8.5-.9 1.4-.5 2z" id="path206" fill="#adb8bc"/><path class="st1" d="M435.2 126.8c3.6-.5 7.3-1 11-1.4.8-.1 1.3-.8 1.2-1.5l-.4-4.2c-.1-.8-.8-1.3-1.5-1.2-3.7.4-7.5.9-11.2 1.4-.8.1-1.3.8-1.2 1.6l.6 4.2c.1.6.8 1.2 1.5 1.1z" id="path208" fill="#adb8bc"/><path class="st1" d="M722.4 194.1c.6.4 1.5.3 1.9-.4l2.4-3.5c.4-.6.3-1.5-.4-1.9-3.1-2.1-6.2-4.2-9.4-6.2-.7-.4-1.5-.2-1.9.4l-2.3 3.5c-.4.6-.2 1.5.4 1.9 3.2 2 6.3 4.1 9.3 6.2z" id="path210" fill="#adb8bc"/><path class="st1" d="M745.2 855.6l2.6 3.3c.5.6 1.4.7 2 .2 2.9-2.3 5.9-4.7 8.7-7.1.6-.5.7-1.4.2-2l-2.7-3.2c-.5-.6-1.4-.7-2-.2-2.8 2.4-5.7 4.7-8.6 7-.6.5-.7 1.4-.2 2z" id="path212" fill="#adb8bc"/><path class="st1" d="M617.4 923.5l1.3 4c.2.7 1 1.1 1.8.9 3.6-1.2 7.1-2.4 10.7-3.6.7-.3 1.1-1.1.8-1.8l-1.4-3.9c-.3-.7-1.1-1.1-1.8-.8l-10.5 3.6c-.7.1-1.1.9-.9 1.6z" id="path214" fill="#adb8bc"/><path class="st1" d="M677.2 167.2c3.3 1.7 6.6 3.4 9.8 5.2.7.4 1.5.1 1.9-.6l2-3.7c.4-.7.1-1.5-.6-1.9-3.3-1.8-6.6-3.6-10-5.3-.7-.4-1.5-.1-1.9.6l-1.9 3.7c-.3.9 0 1.7.7 2z" id="path216" fill="#adb8bc"/><path class="st1" d="M711.3 879.6l2.2 3.5c.4.7 1.3.8 1.9.4 3.1-2 6.3-4.1 9.4-6.2.6-.4.8-1.3.4-1.9l-2.4-3.5c-.4-.6-1.3-.8-1.9-.4-3 2.1-6.1 4.1-9.2 6.1-.6.5-.8 1.3-.4 2z" id="path218" fill="#adb8bc"/><path class="st1" d="M695.4 177.1c3.2 1.8 6.4 3.7 9.5 5.6.7.4 1.5.2 1.9-.5l2.2-3.6c.4-.7.2-1.5-.5-1.9-3.2-2-6.4-3.9-9.7-5.8-.7-.4-1.5-.2-1.9.5l-2.1 3.6c-.3.9 0 1.8.6 2.1z" id="path220" fill="#adb8bc"/><path class="st1" d="M693.5 890.2l2.1 3.6c.4.7 1.2.9 1.9.5 3.2-1.8 6.5-3.8 9.7-5.7.7-.4.9-1.3.5-1.9l-2.2-3.6c-.4-.7-1.3-.9-1.9-.5-3.1 1.9-6.3 3.8-9.5 5.6-.8.5-1 1.4-.6 2z" id="path222" fill="#adb8bc"/><path class="st1" d="M497.3 122.9c3.7 0 7.4.1 11 .3.8 0 1.4-.6 1.4-1.3l.2-4.2c0-.8-.6-1.4-1.3-1.5-3.7-.1-7.5-.2-11.3-.3-.8 0-1.4.6-1.4 1.4v4.2c0 .8.6 1.4 1.4 1.4z" id="path224" fill="#adb8bc"/><path class="st1" d="M579.6 132.3c3.6.8 7.2 1.6 10.8 2.5.7.2 1.5-.3 1.7-1l1-4.1c.2-.8-.3-1.5-1-1.7-3.6-.9-7.3-1.8-11-2.6-.8-.2-1.5.3-1.7 1.1l-.9 4.1c-.1.8.3 1.6 1.1 1.7z" id="path226" fill="#adb8bc"/><path class="st1" d="M455.8 124.4c3.7-.3 7.4-.6 11-.8.8 0 1.4-.7 1.3-1.5l-.2-4.2c0-.8-.7-1.4-1.5-1.3-3.7.2-7.5.5-11.2.8-.8.1-1.3.8-1.3 1.5l.4 4.2c.1.8.8 1.4 1.5 1.3z" id="path228" fill="#adb8bc"/><path class="st1" d="M487.6 122.9c.8 0 1.4-.6 1.4-1.4v-4.2c0-.8-.6-1.4-1.4-1.4-4.1 0-8.3.1-12.5.3h-.1l.3 7h.1c4-.2 8.1-.3 12.2-.3z" id="path230" fill="#adb8bc"/><path class="st1" d="M518 123.7c3.7.2 7.4.5 11 .8.8.1 1.4-.5 1.5-1.3l.4-4.2c.1-.8-.5-1.5-1.3-1.5-3.7-.3-7.5-.6-11.2-.9-.8 0-1.4.5-1.5 1.3l-.3 4.2c.1.9.7 1.5 1.4 1.6z" id="path232" fill="#adb8bc"/><path class="st1" d="M559.2 128.4c3.6.6 7.3 1.3 10.9 2 .8.1 1.5-.3 1.6-1.1l.8-4.1c.2-.8-.3-1.5-1.1-1.6-3.7-.7-7.4-1.4-11.1-2-.8-.1-1.5.4-1.6 1.2l-.7 4.1c-.1.7.5 1.4 1.2 1.5z" id="path234" fill="#adb8bc"/><path class="st1" d="M538.7 125.5c3.6.4 7.3.9 11 1.4.8.1 1.5-.4 1.6-1.2l.6-4.1c.1-.8-.4-1.5-1.2-1.6-3.7-.5-7.5-1-11.2-1.4-.8-.1-1.5.5-1.5 1.2l-.5 4.2c-.1.8.4 1.4 1.2 1.5z" id="path236" fill="#adb8bc"/></g><g id="Layer_4" transform="translate(-3.823 -6.256) scale(.05897)"><path class="st1" d="M466.7 471.5l-2.8-24.6c-1.4-12-11.3-21.2-23.3-21.7l-64.7-2.8c-8.5-.4-16.3-5.1-20.4-12.6l-12-21.6c-4.2-7.7-12.3-12.5-21-12.6l-111.6-2c-10.8-.2-20.4 6.7-23.8 16.9l-1.9 5.8c-3.4 10.5-13.4 17.4-24.4 16.9l-24.6-1.1c-13.9-.6-25.6 10.5-25.6 24.5v37.6c0 13.5 11 24.5 24.5 24.5h9c4.7 0 8.8-3.2 10-7.8 3.4-12.8 15.1-22.3 29.1-22.3 13.8 0 25.5 9.4 29 22.1 1.3 4.7 5.4 8 10.3 8h114.1c4.8 0 9-3.3 10.3-8 3.5-12.7 15.2-22.1 29-22.1s25.5 9.3 29 22c1.3 4.8 5.8 8.1 10.8 8.1h26.5c14.8.1 26.2-12.6 24.5-27.2z" id="path239" fill="#adb8bc"/><circle class="st1" cx="376.1" cy="498.8" r="26" id="circle241" fill="#adb8bc"/><circle class="st1" cx="183" cy="498.8" r="26" id="circle243" fill="#adb8bc"/><path class="st1" d="M687.2 625.8c-39.9 0-72.2 32.3-72.2 72.2 0 39.9 32.3 72.2 72.2 72.2 39.9 0 72.2-32.3 72.2-72.2 0-39.9-32.3-72.2-72.2-72.2zm4.1 108.2c-.7.2-1.2.8-1.2 1.5v9c0 .9-.7 1.6-1.6 1.6h-4c-.9 0-1.6-.7-1.6-1.6v-8.4c0-.8-.6-1.5-1.5-1.6-5.6-.3-11.2-2-14.9-4.3-.6-.4-.9-1.2-.7-1.9l1.7-4.7c.3-.9 1.4-1.3 2.3-.8 4 2.3 9.2 3.9 14.8 3.9 8.1 0 13.6-4.7 13.6-11.2 0-6.3-4.5-10.2-12.9-13.6-11.7-4.6-18.9-9.8-18.9-19.8 0-9.1 6.2-16.1 16-18.2.7-.2 1.2-.8 1.2-1.5v-8.6c0-.9.7-1.6 1.6-1.6h3.9c.9 0 1.6.7 1.6 1.6v8c0 .8.6 1.5 1.5 1.6 5.3.4 9.2 1.7 12.2 3.2.7.4 1 1.2.7 2l-1.7 4.5c-.3.9-1.4 1.3-2.2.9-2.7-1.4-6.9-3-12.8-3-8.8 0-12.1 5.3-12.1 9.8 0 5.9 4.2 8.9 14.2 13 11.8 4.8 17.7 10.7 17.7 20.9-.1 8.8-5.9 17-16.9 19.3z" id="path245" fill="#adb8bc"/></g><g id="Layer_2" transform="translate(-3.823 -6.256) scale(.05897)"><path class="st2" d="M787.7 820.2H580c-20.4 0-37-16.6-37-37 0-3.1 2.5-5.6 5.6-5.6H819c3.1 0 5.6 2.5 5.6 5.6 0 20.4-16.5 37-36.9 37z" id="path248" fill="#aa5263"/><circle class="st2" cx="549.7" cy="768.1" r="6.7" id="circle250" fill="#aa5263"/><circle class="st2" cx="817.7" cy="768.1" r="6.7" id="circle252" fill="#aa5263"/><circle class="st2" cx="817.7" cy="619.7" r="6.4" id="circle254" fill="#aa5263"/><circle class="st2" cx="549.7" cy="619.5" r="6.4" id="circle256" fill="#aa5263"/><circle class="st2" cx="817.7" cy="757.8" r="2.3" id="circle258" fill="#aa5263"/><circle class="st2" cx="817.7" cy="752.4" r="2.3" id="circle260" fill="#aa5263"/><circle class="st2" cx="817.7" cy="747.1" r="2.3" id="circle262" fill="#aa5263"/><circle class="st2" cx="817.7" cy="741.8" r="2.3" id="circle264" fill="#aa5263"/><circle class="st2" cx="817.7" cy="736.4" r="2.3" id="circle266" fill="#aa5263"/><circle class="st2" cx="817.7" cy="731.1" r="2.3" id="circle268" fill="#aa5263"/><circle class="st2" cx="817.7" cy="725.7" r="2.3" id="circle270" fill="#aa5263"/><circle class="st2" cx="817.7" cy="720.4" r="2.3" id="circle272" fill="#aa5263"/><circle class="st2" cx="817.7" cy="715" r="2.3" id="circle274" fill="#aa5263"/><circle class="st2" cx="817.7" cy="709.7" r="2.3" id="circle276" fill="#aa5263"/><circle class="st2" cx="817.7" cy="704.3" r="2.3" id="circle278" fill="#aa5263"/><circle class="st2" cx="817.7" cy="699" r="2.3" id="circle280" fill="#aa5263"/><circle class="st2" cx="817.7" cy="693.7" r="2.3" id="circle282" fill="#aa5263"/><circle class="st2" cx="817.7" cy="688.3" r="2.3" id="circle284" fill="#aa5263"/><circle class="st2" cx="817.7" cy="683" r="2.3" id="circle286" fill="#aa5263"/><circle class="st2" cx="817.7" cy="677.6" r="2.3" id="circle288" fill="#aa5263"/><circle class="st2" cx="817.7" cy="672.3" r="2.3" id="circle290" fill="#aa5263"/><circle class="st2" cx="817.7" cy="666.9" r="2.3" id="circle292" fill="#aa5263"/><circle class="st2" cx="817.7" cy="661.6" r="2.3" id="circle294" fill="#aa5263"/><circle class="st2" cx="817.7" cy="656.2" r="2.3" id="circle296" fill="#aa5263"/><circle class="st2" cx="817.7" cy="650.9" r="2.3" id="circle298" fill="#aa5263"/><circle class="st2" cx="817.7" cy="645.6" r="2.3" id="circle300" fill="#aa5263"/><circle class="st2" cx="817.7" cy="640.2" r="2.3" id="circle302" fill="#aa5263"/><circle class="st2" cx="817.7" cy="634.9" r="2.3" id="circle304" fill="#aa5263"/><circle class="st2" cx="817.7" cy="629.5" r="2.3" id="circle306" fill="#aa5263"/><circle class="st2" cx="681.3" cy="578.1" r="12" id="circle308" fill="#aa5263"/><circle class="st2" cx="681.3" cy="556.1" r="7.4" id="circle310" fill="#aa5263"/><circle class="st2" cx="681.3" cy="537.7" r="7.4" id="circle312" fill="#aa5263"/><circle class="st2" cx="681.3" cy="519.2" r="7.4" id="circle314" fill="#aa5263"/><circle class="st2" cx="681.3" cy="500.8" r="7.4" id="circle316" fill="#aa5263"/><circle class="st2" cx="681.3" cy="482.4" r="7.4" id="circle318" fill="#aa5263"/><circle class="st2" cx="681.3" cy="463.9" r="7.4" id="circle320" fill="#aa5263"/><circle class="st2" cx="681.3" cy="445.5" r="7.4" id="circle322" fill="#aa5263"/><circle class="st2" cx="681.3" cy="427.1" r="7.4" id="circle324" fill="#aa5263"/><circle class="st2" cx="681.3" cy="408.6" r="7.4" id="circle326" fill="#aa5263"/><circle class="st2" cx="681.3" cy="390.2" r="7.4" id="circle328" fill="#aa5263"/><circle class="st2" cx="681.3" cy="371.8" r="7.4" id="circle330" fill="#aa5263"/><circle class="st2" cx="681.3" cy="353.3" r="7.4" id="circle332" fill="#aa5263"/><circle class="st2" cx="681.3" cy="334.9" r="7.4" id="circle334" fill="#aa5263"/><circle class="st2" cx="681.3" cy="316.5" r="7.4" id="circle336" fill="#aa5263"/><circle class="st2" cx="681.3" cy="298" r="7.4" id="circle338" fill="#aa5263"/><circle class="st2" cx="549.7" cy="757.5" r="2.3" id="circle340" fill="#aa5263"/><circle class="st2" cx="549.7" cy="752.2" r="2.3" id="circle342" fill="#aa5263"/><circle class="st2" cx="549.7" cy="746.8" r="2.3" id="circle344" fill="#aa5263"/><circle class="st2" cx="549.7" cy="741.5" r="2.3" id="circle346" fill="#aa5263"/><circle class="st2" cx="549.7" cy="736.1" r="2.3" id="circle348" fill="#aa5263"/><circle class="st2" cx="549.7" cy="730.8" r="2.3" id="circle350" fill="#aa5263"/><circle class="st2" cx="549.7" cy="725.5" r="2.3" id="circle352" fill="#aa5263"/><circle class="st2" cx="549.7" cy="720.1" r="2.3" id="circle354" fill="#aa5263"/><circle class="st2" cx="549.7" cy="714.8" r="2.3" id="circle356" fill="#aa5263"/><circle class="st2" cx="549.7" cy="709.4" r="2.3" id="circle358" fill="#aa5263"/><circle class="st2" cx="549.7" cy="704.1" r="2.3" id="circle360" fill="#aa5263"/><circle class="st2" cx="549.7" cy="698.7" r="2.3" id="circle362" fill="#aa5263"/><circle class="st2" cx="549.7" cy="693.4" r="2.3" id="circle364" fill="#aa5263"/><circle class="st2" cx="549.7" cy="688" r="2.3" id="circle366" fill="#aa5263"/><circle class="st2" cx="549.7" cy="682.7" r="2.3" id="circle368" fill="#aa5263"/><circle class="st2" cx="549.7" cy="677.4" r="2.3" id="circle370" fill="#aa5263"/><circle class="st2" cx="549.7" cy="672" r="2.3" id="circle372" fill="#aa5263"/><circle class="st2" cx="549.7" cy="666.7" r="2.3" id="circle374" fill="#aa5263"/><circle class="st2" cx="549.7" cy="661.3" r="2.3" id="circle376" fill="#aa5263"/><circle class="st2" cx="549.7" cy="656" r="2.3" id="circle378" fill="#aa5263"/><circle class="st2" cx="549.7" cy="650.6" r="2.3" id="circle380" fill="#aa5263"/><circle class="st2" cx="549.7" cy="645.3" r="2.3" id="circle382" fill="#aa5263"/><circle class="st2" cx="549.7" cy="639.9" r="2.3" id="circle384" fill="#aa5263"/><circle class="st2" cx="549.7" cy="634.6" r="2.3" id="circle386" fill="#aa5263"/><circle class="st2" cx="549.7" cy="629.3" r="2.3" id="circle388" fill="#aa5263"/><path class="st2" d="M824.6 610.5h-281c0-8.9 11.6-16.2 26-16.2h229c14.4 0 26 7.3 26 16.2z" id="path390" fill="#aa5263"/><path class="st2" d="M699.2 267.7c-2.3 0-4.3 1-5.7 2.7l-201.3-52.8L287.1 177c-1-2.8-3.7-4.8-6.9-4.8-4 0-7.3 3.3-7.3 7.3s3.3 7.3 7.3 7.3c2.1 0 4-.9 5.3-2.3L486 244.7l206.3 32.7c1 2.9 3.7 4.9 6.9 4.9 4 0 7.3-3.3 7.3-7.3s-3.3-7.3-7.3-7.3zm-209.4-27c-5.1 0-9.2-4.1-9.2-9.2s4.1-9.2 9.2-9.2 9.2 4.1 9.2 9.2-4.1 9.2-9.2 9.2z" id="path392" fill="#aa5263"/><path class="st2" d="M660.8 929.6h-350c-9.4 0-17.1-7.7-17.1-17.1v-20c0-30.3 24.5-54.8 54.8-54.8h274.7c30.3 0 54.8 24.5 54.8 54.8v20c-.1 9.5-7.7 17.1-17.2 17.1z" id="path394" fill="#aa5263"/></g><g id="Layer_5" transform="translate(-3.823 -6.256) scale(.05897)"><path class="st2" d="M466.8 620.4h-334c-26.4 0-47.8-21.4-47.8-47.8v-10c0-4 3.2-7.2 7.2-7.2h415.1c4 0 7.2 3.2 7.2 7.2v10c0 26.4-21.3 47.8-47.7 47.8z" id="path397" fill="#aa5263"/><circle class="st2" cx="95.2" cy="540.9" r="10.2" id="circle399" fill="#aa5263"/><circle class="st2" cx="504" cy="540.9" r="10.2" id="circle401" fill="#aa5263"/><circle class="st2" cx="504" cy="314.5" r="9.7" id="circle403" fill="#aa5263"/><circle class="st2" cx="95.2" cy="314.2" r="9.7" id="circle405" fill="#aa5263"/><circle class="st2" cx="295.8" cy="542.1" r="9.1" id="circle407" fill="#aa5263"/><circle class="st2" cx="504" cy="525.2" r="3.5" id="circle409" fill="#aa5263"/><circle class="st2" cx="504" cy="517" r="3.5" id="circle411" fill="#aa5263"/><circle class="st2" cx="504" cy="508.9" r="3.5" id="circle413" fill="#aa5263"/><circle class="st2" cx="504" cy="500.7" r="3.5" id="circle415" fill="#aa5263"/><circle class="st2" cx="504" cy="492.6" r="3.5" id="circle417" fill="#aa5263"/><circle class="st2" cx="504" cy="484.4" r="3.5" id="circle419" fill="#aa5263"/><circle class="st2" cx="504" cy="476.3" r="3.5" id="circle421" fill="#aa5263"/><circle class="st2" cx="504" cy="468.1" r="3.5" id="circle423" fill="#aa5263"/><circle class="st2" cx="504" cy="460" r="3.5" id="circle425" fill="#aa5263"/><circle class="st2" cx="504" cy="451.8" r="3.5" id="circle427" fill="#aa5263"/><circle class="st2" cx="504" cy="443.7" r="3.5" id="circle429" fill="#aa5263"/><circle class="st2" cx="504" cy="435.5" r="3.5" id="circle431" fill="#aa5263"/><circle class="st2" cx="504" cy="427.4" r="3.5" id="circle433" fill="#aa5263"/><circle class="st2" cx="504" cy="419.2" r="3.5" id="circle435" fill="#aa5263"/><circle class="st2" cx="504" cy="411.1" r="3.5" id="circle437" fill="#aa5263"/><circle class="st2" cx="504" cy="402.9" r="3.5" id="circle439" fill="#aa5263"/><circle class="st2" cx="504" cy="394.7" r="3.5" id="circle441" fill="#aa5263"/><circle class="st2" cx="504" cy="386.6" r="3.5" id="circle443" fill="#aa5263"/><circle class="st2" cx="504" cy="378.4" r="3.5" id="circle445" fill="#aa5263"/><circle class="st2" cx="504" cy="370.3" r="3.5" id="circle447" fill="#aa5263"/><circle class="st2" cx="504" cy="362.1" r="3.5" id="circle449" fill="#aa5263"/><circle class="st2" cx="504" cy="354" r="3.5" id="circle451" fill="#aa5263"/><circle class="st2" cx="504" cy="345.8" r="3.5" id="circle453" fill="#aa5263"/><circle class="st2" cx="504" cy="337.7" r="3.5" id="circle455" fill="#aa5263"/><circle class="st2" cx="504" cy="329.5" r="3.5" id="circle457" fill="#aa5263"/><circle class="st2" cx="295.8" cy="332.7" r="3.5" id="circle459" fill="#aa5263"/><circle class="st2" cx="295.8" cy="340.8" r="3.5" id="circle461" fill="#aa5263"/><circle class="st2" cx="295.8" cy="324.5" r="3.5" id="circle463" fill="#aa5263"/><circle class="st2" cx="295.8" cy="311.8" r="7.5" id="circle465" fill="#aa5263"/><circle class="st2" cx="295.8" cy="251.1" r="18.3" id="circle467" fill="#aa5263"/><circle class="st2" cx="295.8" cy="217.6" r="11.3" id="circle469" fill="#aa5263"/><circle class="st2" cx="95.2" cy="524.8" r="3.5" id="circle471" fill="#aa5263"/><circle class="st2" cx="95.2" cy="516.6" r="3.5" id="circle473" fill="#aa5263"/><circle class="st2" cx="95.2" cy="508.5" r="3.5" id="circle475" fill="#aa5263"/><circle class="st2" cx="95.2" cy="500.3" r="3.5" id="circle477" fill="#aa5263"/><circle class="st2" cx="95.2" cy="492.2" r="3.5" id="circle479" fill="#aa5263"/><circle class="st2" cx="95.2" cy="484" r="3.5" id="circle481" fill="#aa5263"/><circle class="st2" cx="95.2" cy="475.9" r="3.5" id="circle483" fill="#aa5263"/><circle class="st2" cx="95.2" cy="467.7" r="3.5" id="circle485" fill="#aa5263"/><circle class="st2" cx="95.2" cy="459.6" r="3.5" id="circle487" fill="#aa5263"/><circle class="st2" cx="95.2" cy="451.4" r="3.5" id="circle489" fill="#aa5263"/><circle class="st2" cx="95.2" cy="443.3" r="3.5" id="circle491" fill="#aa5263"/><circle class="st2" cx="95.2" cy="435.1" r="3.5" id="circle493" fill="#aa5263"/><circle class="st2" cx="95.2" cy="427" r="3.5" id="circle495" fill="#aa5263"/><circle class="st2" cx="95.2" cy="418.8" r="3.5" id="circle497" fill="#aa5263"/><circle class="st2" cx="95.2" cy="410.7" r="3.5" id="circle499" fill="#aa5263"/><circle class="st2" cx="95.2" cy="402.5" r="3.5" id="circle501" fill="#aa5263"/><circle class="st2" cx="95.2" cy="394.3" r="3.5" id="circle503" fill="#aa5263"/><circle class="st2" cx="95.2" cy="386.2" r="3.5" id="circle505" fill="#aa5263"/><circle class="st2" cx="95.2" cy="378" r="3.5" id="circle507" fill="#aa5263"/><circle class="st2" cx="95.2" cy="369.9" r="3.5" id="circle509" fill="#aa5263"/><circle class="st2" cx="95.2" cy="361.7" r="3.5" id="circle511" fill="#aa5263"/><circle class="st2" cx="95.2" cy="353.6" r="3.5" id="circle513" fill="#aa5263"/><circle class="st2" cx="95.2" cy="345.4" r="3.5" id="circle515" fill="#aa5263"/><circle class="st2" cx="95.2" cy="337.3" r="3.5" id="circle517" fill="#aa5263"/><circle class="st2" cx="95.2" cy="329.1" r="3.5" id="circle519" fill="#aa5263"/><path class="st2" d="M514.5 300.6H86c0-13.6 17.7-24.7 39.6-24.7h349.3c21.9 0 39.6 11.1 39.6 24.7z" id="path521" fill="#aa5263"/></g></svg>