<svg xmlns="http://www.w3.org/2000/svg" id="Layer_1" viewBox="0 0 50 50" width="50" height="50"><style id="style3">.st0{fill:#adb8bc}.st1{fill:#aa5263}.st2{fill:#c7ecff}</style><g id="Layer_2_1_" transform="translate(-4.114 -5.545) scale(.05916)"><path class="st0" d="M905.9 557.5l-4.2-.2c-.8 0-1.4.5-1.5 1.3-.2 3.7-.5 7.4-.8 11-.1.8.5 1.4 1.3 1.5l4.2.4c.8.1 1.5-.5 1.5-1.3.3-3.7.6-7.5.9-11.2 0-.8-.6-1.5-1.4-1.5z" id="path6" fill="#adb8bc"/><path class="st0" d="M906.6 536.5h-4.2c-.8 0-1.4.6-1.4 1.4 0 3.7-.1 7.4-.3 11 0 .8.6 1.4 1.3 1.4l4.2.2c.8 0 1.4-.6 1.5-1.3.1-3.7.2-7.5.3-11.3 0-.8-.6-1.4-1.4-1.4z" id="path8" fill="#adb8bc"/><path class="st0" d="M900.7 515.9c.2 4 .3 8.1.3 12.2 0 .8.6 1.4 1.4 1.4h4.2c.8 0 1.4-.6 1.4-1.4 0-4.1-.1-8.3-.3-12.4v-.3l-7 .3v.2z" id="path10" fill="#adb8bc"/><path class="st0" d="M894.9 453.7c-.8.1-1.2.9-1.1 1.6.7 3.6 1.3 7.3 1.9 10.9.1.8.8 1.3 1.6 1.2l4.1-.7c.8-.1 1.3-.8 1.2-1.6-.6-3.7-1.3-7.4-2-11.1-.1-.8-.9-1.3-1.6-1.1l-4.1.8z" id="path12" fill="#adb8bc"/><path class="st0" d="M902.5 473.6l-4.2.6c-.8.1-1.3.8-1.2 1.6.5 3.6 1 7.3 1.4 11 .1.8.8 1.3 1.5 1.2l4.2-.4c.8-.1 1.3-.8 1.2-1.5-.4-3.7-.9-7.5-1.4-11.2 0-.9-.7-1.4-1.5-1.3z" id="path14" fill="#adb8bc"/><path class="st0" d="M900.8 494.9c-.8.1-1.3.7-1.3 1.5.3 3.7.6 7.4.8 11 0 .8.7 1.4 1.5 1.3l4.2-.2c.8 0 1.4-.7 1.3-1.5-.2-3.7-.5-7.5-.8-11.2-.1-.8-.8-1.3-1.5-1.3l-4.2.4z" id="path16" fill="#adb8bc"/><path class="st0" d="M879.4 680.5l-3.9-1.5c-.7-.3-1.5.1-1.8.8-1.3 3.4-2.7 6.9-4.1 10.3-.3.7 0 1.5.7 1.8l3.9 1.6c.7.3 1.5 0 1.8-.7 1.4-3.5 2.9-7 4.2-10.5.3-.8-.1-1.6-.8-1.8z" id="path18" fill="#adb8bc"/><path class="st0" d="M889.4 435c.9 3.6 1.7 7.2 2.5 10.8.2.8.9 1.2 1.7 1.1l4.1-.9c.8-.2 1.2-.9 1.1-1.7-.8-3.7-1.6-7.3-2.5-11-.2-.8-.9-1.2-1.7-1l-4.1 1c-.8.2-1.3 1-1.1 1.7z" id="path20" fill="#adb8bc"/><path class="st0" d="M871.4 699.9l-3.8-1.7c-.7-.3-1.5 0-1.8.7-1.5 3.4-3.1 6.7-4.7 10.1-.3.7 0 1.5.6 1.9l3.8 1.8c.7.3 1.5 0 1.9-.7 1.6-3.4 3.2-6.8 4.7-10.2.3-.7 0-1.5-.7-1.9z" id="path22" fill="#adb8bc"/><path class="st0" d="M886.4 660.6l-4-1.3c-.7-.2-1.5.2-1.8.9l-3.6 10.5c-.3.7.1 1.5.8 1.8l3.9 1.4c.7.3 1.5-.1 1.8-.8 1.3-3.5 2.5-7.1 3.7-10.7.4-.8 0-1.6-.8-1.8z" id="path24" fill="#adb8bc"/><path class="st0" d="M901.3 599.3l-4.1-.7c-.8-.1-1.5.4-1.6 1.1-.6 3.6-1.3 7.3-2 10.9-.1.8.3 1.5 1.1 1.6l4.1.8c.8.1 1.5-.3 1.6-1.1.7-3.7 1.4-7.4 2-11.1.2-.7-.3-1.4-1.1-1.5z" id="path26" fill="#adb8bc"/><path class="st0" d="M892.5 640.4l-4-1.1c-.7-.2-1.5.2-1.7 1-1 3.6-2 7.1-3.1 10.7-.2.7.2 1.5.9 1.7l4 1.2c.7.2 1.5-.2 1.7-.9 1.1-3.6 2.1-7.2 3.1-10.9.2-.8-.2-1.5-.9-1.7z" id="path28" fill="#adb8bc"/><path class="st0" d="M862.4 719l-3.7-1.9c-.7-.3-1.5-.1-1.9.6-1.7 3.3-3.4 6.6-5.2 9.8-.4.7-.1 1.5.6 1.9l3.7 2c.7.4 1.5.1 1.9-.6 1.8-3.3 3.6-6.6 5.3-10 .2-.6 0-1.5-.7-1.8z" id="path30" fill="#adb8bc"/><path class="st0" d="M897.4 619.9l-4.1-.9c-.8-.2-1.5.3-1.7 1.1-.8 3.6-1.6 7.2-2.5 10.8-.2.7.3 1.5 1 1.7l4.1 1c.8.2 1.5-.3 1.7-1 .9-3.6 1.8-7.3 2.6-11 .1-.8-.3-1.5-1.1-1.7z" id="path32" fill="#adb8bc"/><path class="st0" d="M904.1 578.4l-4.1-.4c-.8-.1-1.5.5-1.5 1.2-.4 3.7-.9 7.3-1.4 11-.1.8.4 1.5 1.2 1.6l4.1.6c.8.1 1.5-.4 1.6-1.2.5-3.7 1-7.5 1.4-11.2.1-.8-.5-1.5-1.3-1.6z" id="path34" fill="#adb8bc"/><path class="st0" d="M806.1 270.1c2.3 2.8 4.7 5.7 7 8.6.5.6 1.3.7 2 .2l3.3-2.6c.6-.5.7-1.4.2-2-2.3-2.9-4.7-5.9-7.1-8.7-.5-.6-1.4-.7-2-.2l-3.2 2.7c-.6.5-.7 1.4-.2 2z" id="path36" fill="#adb8bc"/><path class="st0" d="M791.1 811.5c-.5.6-.5 1.4.1 2l3.1 2.9c.6.5 1.5.5 2-.1 2.6-2.7 5.1-5.5 7.6-8.3.5-.6.5-1.5-.1-2l-3.2-2.8c-.6-.5-1.5-.5-2 .1-2.5 2.8-5 5.5-7.5 8.2z" id="path38" fill="#adb8bc"/><path class="st0" d="M761.2 842.3l2.8 3.2c.5.6 1.4.6 2 .1l8.4-7.5c.6-.5.6-1.4.1-2l-2.9-3.1c-.5-.6-1.4-.6-2-.1-2.7 2.5-5.4 5-8.2 7.4-.6.6-.7 1.4-.2 2z" id="path40" fill="#adb8bc"/><path class="st0" d="M785.7 247.5c.5.6 1.4.6 2 0l3-2.9c.6-.5.6-1.4 0-2-2.6-2.7-5.3-5.4-7.9-8-.6-.5-1.4-.5-2 0l-2.9 3c-.5.6-.5 1.4 0 2 2.7 2.6 5.3 5.2 7.8 7.9z" id="path42" fill="#adb8bc"/><path class="st0" d="M755.4 219.2c.6.5 1.5.4 2-.2l2.7-3.2c.5-.6.4-1.5-.2-2-2.9-2.4-5.8-4.8-8.7-7.1-.6-.5-1.5-.4-2 .2l-2.6 3.3c-.5.6-.4 1.5.2 2 2.9 2.2 5.8 4.6 8.6 7z" id="path44" fill="#adb8bc"/><path class="st0" d="M776.6 826.3c-.6.5-.6 1.4 0 2l2.9 3c.5.6 1.4.6 2 0 2.7-2.6 5.4-5.3 8-7.9.5-.6.5-1.4 0-2l-3-2.9c-.6-.5-1.4-.5-2 0-2.7 2.6-5.3 5.2-7.9 7.8z" id="path46" fill="#adb8bc"/><path class="st0" d="M770.9 232.9c.6.5 1.4.5 2-.1l2.9-3.1c.5-.6.5-1.5-.1-2-2.7-2.6-5.5-5.1-8.3-7.6-.6-.5-1.5-.5-2 .1l-2.8 3.1c-.5.6-.5 1.5.1 2 2.8 2.6 5.6 5.1 8.2 7.6z" id="path48" fill="#adb8bc"/><path class="st0" d="M819 286.3c2.2 2.9 4.4 5.9 6.5 8.9.4.6 1.3.8 1.9.3l3.4-2.4c.6-.4.8-1.3.3-2-2.2-3-4.4-6.1-6.6-9.1-.5-.6-1.3-.7-2-.3l-3.3 2.5c-.6.6-.7 1.5-.2 2.1z" id="path50" fill="#adb8bc"/><path class="st0" d="M870.1 375.9c1.4 3.4 2.8 6.8 4.1 10.3.3.7 1.1 1.1 1.8.8l3.9-1.5c.7-.3 1.1-1.1.8-1.8-1.3-3.5-2.7-7-4.2-10.5-.3-.7-1.1-1.1-1.8-.8l-3.9 1.6c-.6.4-.9 1.2-.7 1.9z" id="path52" fill="#adb8bc"/><path class="st0" d="M861.8 357c1.6 3.3 3.1 6.7 4.6 10 .3.7 1.1 1 1.8.7l3.8-1.7c.7-.3 1-1.1.7-1.8-1.5-3.4-3.1-6.8-4.7-10.2-.3-.7-1.2-1-1.9-.7l-3.8 1.8c-.6.4-.9 1.2-.5 1.9z" id="path54" fill="#adb8bc"/><path class="st0" d="M877.6 395.3l3.6 10.5c.2.7 1 1.1 1.8.9l4-1.3c.7-.2 1.1-1 .9-1.8-1.2-3.6-2.4-7.1-3.6-10.7-.3-.7-1.1-1.1-1.8-.8l-3.9 1.4c-.9.3-1.3 1.1-1 1.8z" id="path56" fill="#adb8bc"/><path class="st0" d="M842.2 320.6c1.9 3.1 3.8 6.3 5.6 9.5.4.7 1.2.9 1.9.5l3.7-2.1c.7-.4.9-1.2.5-1.9-1.8-3.2-3.8-6.5-5.7-9.7-.4-.7-1.3-.9-1.9-.5l-3.6 2.2c-.7.5-.9 1.3-.5 2z" id="path58" fill="#adb8bc"/><path class="st0" d="M831 303.1c2.1 3 4.1 6.1 6.1 9.2.4.6 1.3.8 1.9.4l3.5-2.2c.7-.4.9-1.3.4-1.9-2-3.1-4.1-6.3-6.2-9.4-.4-.6-1.3-.8-1.9-.4l-3.5 2.4c-.6.4-.7 1.3-.3 1.9z" id="path60" fill="#adb8bc"/><path class="st0" d="M852.4 338.5c1.7 3.2 3.4 6.5 5.1 9.8.3.7 1.2 1 1.9.6l3.8-1.9c.7-.3 1-1.2.6-1.9-1.7-3.3-3.4-6.7-5.2-10-.4-.7-1.2-.9-1.9-.6l-3.7 2c-.7.5-.9 1.4-.6 2z" id="path62" fill="#adb8bc"/><path class="st0" d="M884 415c1 3.5 2.1 7.1 3 10.6.2.7 1 1.2 1.7 1l4.1-1.1c.7-.2 1.2-1 1-1.7-1-3.6-2-7.3-3.1-10.8-.2-.7-1-1.2-1.7-.9l-4 1.2c-.8.2-1.2 1-1 1.7z" id="path64" fill="#adb8bc"/><path class="st0" d="M799.8 262.7c.5.6 1.4.6 2 .1l3.2-2.8c.6-.5.6-1.4.1-2l-7.5-8.4c-.5-.6-1.4-.6-2-.1l-3.1 2.9c-.6.5-.6 1.4-.1 2 2.5 2.8 5 5.5 7.4 8.3z" id="path66" fill="#adb8bc"/><path class="st0" d="M141.3 744.2c-1.9-3.1-3.8-6.3-5.6-9.5-.4-.7-1.2-.9-1.9-.5l-3.6 2.1c-.7.4-.9 1.2-.5 1.9 1.8 3.2 3.8 6.5 5.7 9.7.4.7 1.3.9 1.9.5l3.6-2.2c.6-.4.8-1.3.4-2z" id="path68" fill="#adb8bc"/><path class="st0" d="M131 726.3c-1.7-3.2-3.4-6.5-5.1-9.8-.3-.7-1.2-1-1.9-.6l-3.7 1.9c-.7.3-1 1.2-.6 1.9 1.7 3.3 3.4 6.7 5.2 10 .4.7 1.2.9 1.9.6l3.7-2c.6-.5.9-1.3.5-2z" id="path70" fill="#adb8bc"/><path class="st0" d="M852.4 737.5l-3.6-2.1c-.7-.4-1.5-.2-1.9.5-1.8 3.2-3.7 6.4-5.6 9.5-.4.7-.2 1.5.5 1.9l3.6 2.2c.7.4 1.5.2 1.9-.5 2-3.2 3.9-6.5 5.8-9.7.2-.5 0-1.4-.7-1.8z" id="path72" fill="#adb8bc"/><path class="st0" d="M164.5 778.5c-2.2-2.9-4.4-5.9-6.5-8.9-.4-.6-1.3-.8-1.9-.3l-3.4 2.4c-.6.4-.8 1.3-.3 2 2.2 3 4.4 6.1 6.6 9.1.5.6 1.3.7 2 .3l3.3-2.5c.5-.6.7-1.5.2-2.1z" id="path74" fill="#adb8bc"/><path class="st0" d="M121.7 707.8c-1.6-3.3-3.1-6.7-4.6-10-.3-.7-1.1-1-1.8-.7l-3.8 1.7c-.7.3-1 1.1-.7 1.8 1.5 3.4 3.1 6.8 4.7 10.2.3.7 1.2 1 1.9.7l3.8-1.8c.5-.3.8-1.2.5-1.9z" id="path76" fill="#adb8bc"/><path class="st0" d="M183.7 802.1c-.5-.6-1.4-.6-2-.1l-3.2 2.8c-.6.5-.6 1.4-.1 2l7.5 8.4c.5.6 1.4.6 2 .1l3.1-2.9c.6-.5.6-1.4.1-2-2.5-2.8-5-5.6-7.4-8.3z" id="path78" fill="#adb8bc"/><path class="st0" d="M177.4 794.7c-2.4-2.8-4.7-5.7-7-8.6-.5-.6-1.3-.7-2-.2l-3.3 2.6c-.6.5-.7 1.4-.2 2 2.3 2.9 4.7 5.9 7.1 8.7.5.6 1.4.7 2 .2l3.2-2.7c.6-.5.7-1.4.2-2z" id="path80" fill="#adb8bc"/><path class="st0" d="M93.9 629.8c-.9-3.6-1.7-7.2-2.5-10.8-.2-.8-.9-1.2-1.7-1.1l-4.1.9c-.8.2-1.2.9-1.1 1.7.8 3.7 1.6 7.3 2.5 11 .2.8.9 1.2 1.7 1l4.1-1c.9-.2 1.3-.9 1.1-1.7z" id="path82" fill="#adb8bc"/><path class="st0" d="M88.4 611.2c.8-.1 1.2-.9 1.1-1.6-.7-3.6-1.3-7.2-1.9-10.9-.1-.8-.8-1.3-1.6-1.2l-4.1.7c-.8.1-1.3.8-1.2 1.6.6 3.7 1.3 7.4 2 11.1.1.8.9 1.3 1.6 1.1l4.1-.8z" id="path84" fill="#adb8bc"/><path class="st0" d="M105.8 669.6l-3.6-10.5c-.2-.7-1-1.1-1.8-.9l-4 1.3c-.7.2-1.1 1-.9 1.8 1.2 3.6 2.4 7.1 3.6 10.7.3.7 1.1 1.1 1.8.8l3.9-1.4c.9-.3 1.3-1.1 1-1.8z" id="path86" fill="#adb8bc"/><path class="st0" d="M197.7 817.3c-.5-.6-1.4-.6-2 0l-3 2.9c-.6.5-.6 1.4 0 2 2.6 2.7 5.3 5.4 7.9 8 .6.5 1.4.5 2 0l2.9-3c.5-.6.5-1.4 0-2-2.6-2.6-5.2-5.2-7.8-7.9z" id="path88" fill="#adb8bc"/><path class="st0" d="M113.2 688.9c-1.4-3.4-2.8-6.8-4.1-10.3-.3-.7-1.1-1.1-1.8-.8l-3.9 1.5c-.7.3-1.1 1.1-.8 1.8 1.3 3.5 2.7 7 4.2 10.5.3.7 1.1 1.1 1.8.8l3.9-1.6c.7-.4 1-1.2.7-1.9z" id="path90" fill="#adb8bc"/><path class="st0" d="M99.4 649.8c-1.1-3.5-2.1-7.1-3-10.6-.2-.7-1-1.2-1.7-1l-4.1 1.1c-.7.2-1.2 1-1 1.7 1 3.6 2 7.3 3.1 10.8.2.7 1 1.2 1.7.9l4-1.2c.8-.1 1.2-.9 1-1.7z" id="path92" fill="#adb8bc"/><path class="st0" d="M152.4 761.7c-2.1-3-4.1-6.1-6.1-9.2-.4-.6-1.3-.8-1.9-.4l-3.5 2.2c-.7.4-.8 1.3-.4 1.9 2 3.1 4.1 6.3 6.2 9.4.4.6 1.3.8 1.9.4l3.5-2.4c.6-.4.8-1.3.3-1.9z" id="path94" fill="#adb8bc"/><path class="st0" d="M838 753.3c-.6-.4-1.5-.2-1.9.4-2 3.1-4 6.2-6.1 9.2-.4.6-.3 1.5.4 1.9l3.5 2.4c.6.4 1.5.3 1.9-.4 2.1-3.1 4.2-6.2 6.2-9.4.4-.7.2-1.5-.4-1.9l-3.6-2.2z" id="path96" fill="#adb8bc"/><path class="st0" d="M212.5 831.8c-.6-.5-1.4-.5-2 .1l-2.9 3.1c-.5.6-.5 1.5.1 2 2.7 2.5 5.5 5.1 8.3 7.6.6.5 1.5.5 2-.1l2.8-3.2c.5-.6.5-1.5-.1-2-2.7-2.5-5.5-5-8.2-7.5z" id="path98" fill="#adb8bc"/><path class="st0" d="M826.3 770.6c-.6-.4-1.5-.3-1.9.3-2.1 3-4.3 6-6.6 8.9-.5.6-.3 1.5.3 2l3.3 2.5c.6.5 1.5.4 2-.3 2.3-3 4.5-6 6.7-9.1.5-.6.3-1.5-.3-2l-3.5-2.3z" id="path100" fill="#adb8bc"/><path class="st0" d="M813.8 787.2c-.6-.5-1.5-.4-2 .2-2.3 2.9-4.6 5.7-7 8.5-.5.6-.4 1.5.2 2l3.2 2.7c.6.5 1.5.4 2-.2 2.4-2.9 4.8-5.8 7.1-8.7.5-.6.4-1.5-.2-2l-3.3-2.5z" id="path102" fill="#adb8bc"/><path class="st0" d="M261.1 870.7c-.6-.4-1.5-.3-1.9.4l-2.4 3.5c-.4.6-.3 1.5.4 1.9 3.1 2.1 6.2 4.2 9.4 6.2.7.4 1.5.2 1.9-.4l2.3-3.5c.4-.6.2-1.5-.4-1.9-3.2-2.1-6.2-4.1-9.3-6.2z" id="path104" fill="#adb8bc"/><path class="st0" d="M228.1 845.6c-.6-.5-1.5-.4-2 .2l-2.7 3.2c-.5.6-.4 1.5.2 2 2.9 2.4 5.8 4.8 8.7 7.1.6.5 1.5.4 2-.2l2.6-3.3c.5-.6.4-1.5-.2-2-3-2.3-5.8-4.6-8.6-7z" id="path106" fill="#adb8bc"/><path class="st0" d="M244.3 858.6c-.6-.5-1.5-.3-2 .3l-2.5 3.3c-.5.6-.4 1.5.3 2 3 2.3 6 4.5 9.1 6.7.6.5 1.5.3 2-.3l2.4-3.4c.4-.6.3-1.5-.3-1.9-3.1-2.3-6.1-4.5-9-6.7z" id="path108" fill="#adb8bc"/><path class="st0" d="M296.1 170.9c.4.7 1.2.9 1.9.6 3.2-1.7 6.5-3.4 9.8-5.1.7-.3 1-1.2.6-1.9l-1.9-3.8c-.3-.7-1.2-1-1.9-.6-3.3 1.7-6.7 3.4-10 5.2-.7.4-.9 1.2-.6 1.9l2.1 3.7z" id="path110" fill="#adb8bc"/><path class="st0" d="M260.7 192.5c.4.6 1.3.8 1.9.4 3-2.1 6.1-4.1 9.2-6.1.6-.4.8-1.3.4-1.9l-2.2-3.5c-.4-.7-1.3-.9-1.9-.4-3.1 2-6.3 4.1-9.4 6.2-.6.4-.8 1.3-.4 1.9l2.4 3.4z" id="path112" fill="#adb8bc"/><path class="st0" d="M278.1 181.3c.4.7 1.3.9 1.9.5 3.1-1.9 6.3-3.8 9.5-5.6.7-.4.9-1.2.5-1.9l-2.1-3.7c-.4-.7-1.2-.9-1.9-.5-3.2 1.8-6.5 3.7-9.7 5.7-.7.4-.9 1.3-.5 1.9l2.3 3.6z" id="path114" fill="#adb8bc"/><path class="st0" d="M243.8 204.6c.5.6 1.3.7 1.9.3 2.9-2.2 5.9-4.4 8.9-6.5.6-.4.8-1.3.3-1.9l-2.4-3.4c-.4-.6-1.3-.8-2-.3-3 2.2-6.1 4.4-9.1 6.6-.6.5-.7 1.3-.3 2l2.7 3.2z" id="path116" fill="#adb8bc"/><path class="st0" d="M197.1 245.9c.6.5 1.4.5 2 0l7.8-7.8c.6-.5.6-1.4 0-2l-2.9-3c-.5-.6-1.4-.6-2 0-2.7 2.6-5.4 5.3-8 7.9-.5.6-.5 1.4 0 2l3.1 2.9z" id="path118" fill="#adb8bc"/><path class="st0" d="M183 261.2c.6.5 1.5.5 2-.1 2.4-2.7 4.9-5.5 7.4-8.2.5-.6.5-1.4-.1-2l-3.1-2.9c-.6-.5-1.5-.5-2 .1-2.6 2.7-5.1 5.5-7.6 8.3-.5.6-.5 1.5.1 2l3.3 2.8z" id="path120" fill="#adb8bc"/><path class="st0" d="M227.5 217.6c.5.6 1.4.7 2 .2 2.8-2.4 5.7-4.7 8.6-7 .6-.5.7-1.3.2-2l-2.6-3.3c-.5-.6-1.4-.7-2-.2-2.9 2.3-5.9 4.7-8.7 7.1-.6.5-.7 1.4-.2 2l2.7 3.2z" id="path122" fill="#adb8bc"/><path class="st0" d="M212 231.4c.5.6 1.4.6 2 .1 2.7-2.5 5.4-5 8.2-7.4.6-.5.6-1.4.1-2l-2.8-3.2c-.5-.6-1.4-.6-2-.1l-8.4 7.5c-.6.5-.6 1.4-.1 2l3 3.1z" id="path124" fill="#adb8bc"/><path class="st0" d="M392.8 133.5c.2.7.9 1.2 1.7 1 3.6-.9 7.2-1.7 10.8-2.5.8-.2 1.2-.9 1.1-1.7l-.9-4.1c-.2-.8-.9-1.2-1.7-1.1-3.7.8-7.3 1.6-11 2.5-.8.2-1.2.9-1 1.7l1 4.2z" id="path126" fill="#adb8bc"/><path class="st0" d="M314.6 161.5c.3.7 1.2 1 1.9.7 3.3-1.6 6.7-3.1 10-4.6.7-.3 1-1.1.7-1.8l-1.7-3.8c-.3-.7-1.1-1-1.8-.7-3.4 1.5-6.8 3.1-10.2 4.7-.7.3-1 1.2-.7 1.9l1.8 3.6z" id="path128" fill="#adb8bc"/><path class="st0" d="M413.1 129c.1.8.9 1.2 1.6 1.1 3.6-.7 7.3-1.3 10.9-1.9.8-.1 1.3-.8 1.2-1.6l-.7-4.1c-.1-.8-.8-1.3-1.6-1.2-3.7.6-7.4 1.3-11.1 2-.8.1-1.3.9-1.1 1.6l.8 4.1z" id="path130" fill="#adb8bc"/><path class="st0" d="M333.6 153c.3.7 1.1 1 1.8.8 3.4-1.4 6.8-2.8 10.3-4.1.7-.3 1.1-1.1.8-1.8L345 144c-.3-.7-1.1-1.1-1.8-.8-3.5 1.3-7 2.7-10.5 4.2-.7.3-1.1 1.1-.8 1.8l1.7 3.8z" id="path132" fill="#adb8bc"/><path class="st0" d="M372.7 139c.2.7 1 1.2 1.7.9 3.5-1 7.1-2.1 10.6-3 .7-.2 1.2-1 1-1.7l-1.1-4.1c-.2-.7-1-1.2-1.7-1-3.6 1-7.2 2-10.8 3.1-.7.2-1.2 1-.9 1.7l1.2 4.1z" id="path134" fill="#adb8bc"/><path class="st0" d="M353 145.5c.3.7 1.1 1.1 1.8.8 3.5-1.2 7-2.4 10.5-3.5.7-.2 1.1-1 .9-1.8l-1.3-4c-.2-.7-1-1.1-1.8-.9-3.6 1.2-7.1 2.4-10.7 3.6-.7.3-1.1 1.1-.8 1.8l1.4 4z" id="path136" fill="#adb8bc"/><path class="st0" d="M739.2 206.2c.6.5 1.5.3 2-.3l2.5-3.3c.5-.6.4-1.5-.3-2-3-2.3-6-4.5-9.1-6.7-.6-.5-1.5-.3-2 .3l-2.4 3.4c-.4.6-.3 1.5.3 1.9 3.1 2.3 6.1 4.5 9 6.7z" id="path138" fill="#adb8bc"/><path class="st0" d="M639.2 150.3c3.4 1.3 6.9 2.7 10.3 4.1.7.3 1.5 0 1.8-.7l1.6-3.9c.3-.7 0-1.5-.7-1.8-3.5-1.4-7-2.9-10.5-4.2-.7-.3-1.5.1-1.8.8l-1.5 3.9c-.2.7.1 1.5.8 1.8z" id="path140" fill="#adb8bc"/><path class="st0" d="M658.4 158.3c3.4 1.5 6.7 3.1 10 4.7.7.3 1.5 0 1.9-.6l1.8-3.8c.3-.7 0-1.5-.7-1.9-3.4-1.6-6.8-3.2-10.2-4.7-.7-.3-1.5 0-1.8.7l-1.7 3.8c-.3.7 0 1.5.7 1.8z" id="path142" fill="#adb8bc"/><path class="st0" d="M599.7 137.3c3.6 1 7.1 2 10.7 3.1.7.2 1.5-.2 1.7-.9l1.2-4c.2-.7-.2-1.5-.9-1.8-3.6-1.1-7.2-2.1-10.9-3.1-.7-.2-1.5.2-1.7 1l-1.1 4c-.2.7.3 1.5 1 1.7z" id="path144" fill="#adb8bc"/><path class="st0" d="M619.6 143.3l10.5 3.6c.7.3 1.5-.1 1.8-.8l1.4-3.9c.3-.7-.1-1.5-.8-1.8-3.5-1.3-7.1-2.5-10.7-3.7-.7-.2-1.5.2-1.8.9l-1.3 4c-.2.7.2 1.4.9 1.7z" id="path146" fill="#adb8bc"/><path class="st0" d="M728.5 868l2.4 3.4c.4.6 1.3.8 2 .3 3-2.2 6.1-4.4 9.1-6.6.6-.5.7-1.3.3-2l-2.5-3.3c-.5-.6-1.3-.7-1.9-.3-2.9 2.2-5.9 4.4-8.9 6.5-.8.5-.9 1.4-.5 2z" id="path148" fill="#adb8bc"/><path class="st0" d="M435.2 126.8c3.6-.5 7.3-1 11-1.4.8-.1 1.3-.8 1.2-1.5l-.4-4.2c-.1-.8-.8-1.3-1.5-1.2-3.7.4-7.5.9-11.2 1.4-.8.1-1.3.8-1.2 1.6l.6 4.2c.1.6.8 1.2 1.5 1.1z" id="path150" fill="#adb8bc"/><path class="st0" d="M722.4 194.1c.6.4 1.5.3 1.9-.4l2.4-3.5c.4-.6.3-1.5-.4-1.9-3.1-2.1-6.2-4.2-9.4-6.2-.7-.4-1.5-.2-1.9.4l-2.3 3.5c-.4.6-.2 1.5.4 1.9 3.2 2 6.3 4.1 9.3 6.2z" id="path152" fill="#adb8bc"/><path class="st0" d="M745.2 855.6l2.6 3.3c.5.6 1.4.7 2 .2 2.9-2.3 5.9-4.7 8.7-7.1.6-.5.7-1.4.2-2l-2.7-3.2c-.5-.6-1.4-.7-2-.2-2.8 2.4-5.7 4.7-8.6 7-.6.5-.7 1.4-.2 2z" id="path154" fill="#adb8bc"/><path class="st0" d="M677.2 167.2c3.3 1.7 6.6 3.4 9.8 5.2.7.4 1.5.1 1.9-.6l2-3.7c.4-.7.1-1.5-.6-1.9-3.3-1.8-6.6-3.6-10-5.3-.7-.4-1.5-.1-1.9.6l-1.9 3.7c-.3.9 0 1.7.7 2z" id="path156" fill="#adb8bc"/><path class="st0" d="M711.3 879.6l2.2 3.5c.4.7 1.3.8 1.9.4 3.1-2 6.3-4.1 9.4-6.2.6-.4.8-1.3.4-1.9l-2.4-3.5c-.4-.6-1.3-.8-1.9-.4-3 2.1-6.1 4.1-9.2 6.1-.6.5-.8 1.3-.4 2z" id="path158" fill="#adb8bc"/><path class="st0" d="M695.4 177.1c3.2 1.8 6.4 3.7 9.5 5.6.7.4 1.5.2 1.9-.5l2.2-3.6c.4-.7.2-1.5-.5-1.9-3.2-2-6.4-3.9-9.7-5.8-.7-.4-1.5-.2-1.9.5l-2.1 3.6c-.3.9 0 1.8.6 2.1z" id="path160" fill="#adb8bc"/><path class="st0" d="M693.5 890.2l2.1 3.6c.4.7 1.2.9 1.9.5 3.2-1.8 6.5-3.8 9.7-5.7.7-.4.9-1.3.5-1.9l-2.2-3.6c-.4-.7-1.3-.9-1.9-.5-3.1 1.9-6.3 3.8-9.5 5.6-.8.5-1 1.4-.6 2z" id="path162" fill="#adb8bc"/><path class="st0" d="M497.3 122.9c3.7 0 7.4.1 11 .3.8 0 1.4-.6 1.4-1.3l.2-4.2c0-.8-.6-1.4-1.3-1.5-3.7-.1-7.5-.2-11.3-.3-.8 0-1.4.6-1.4 1.4v4.2c0 .8.6 1.4 1.4 1.4z" id="path164" fill="#adb8bc"/><path class="st0" d="M579.6 132.3c3.6.8 7.2 1.6 10.8 2.5.7.2 1.5-.3 1.7-1l1-4.1c.2-.8-.3-1.5-1-1.7-3.6-.9-7.3-1.8-11-2.6-.8-.2-1.5.3-1.7 1.1l-.9 4.1c-.1.8.3 1.6 1.1 1.7z" id="path166" fill="#adb8bc"/><path class="st0" d="M455.8 124.4c3.7-.3 7.4-.6 11-.8.8 0 1.4-.7 1.3-1.5l-.2-4.2c0-.8-.7-1.4-1.5-1.3-3.7.2-7.5.5-11.2.8-.8.1-1.3.8-1.3 1.5l.4 4.2c.1.8.8 1.4 1.5 1.3z" id="path168" fill="#adb8bc"/><path class="st0" d="M487.6 122.9c.8 0 1.4-.6 1.4-1.4v-4.2c0-.8-.6-1.4-1.4-1.4-4.1 0-8.3.1-12.5.3h-.1l.3 7h.1c4-.2 8.1-.3 12.2-.3z" id="path170" fill="#adb8bc"/><path class="st0" d="M518 123.7c3.7.2 7.4.5 11 .8.8.1 1.4-.5 1.5-1.3l.4-4.2c.1-.8-.5-1.5-1.3-1.5-3.7-.3-7.5-.6-11.2-.9-.8 0-1.4.5-1.5 1.3l-.3 4.2c.1.9.7 1.5 1.4 1.6z" id="path172" fill="#adb8bc"/><path class="st0" d="M559.2 128.4c3.6.6 7.3 1.3 10.9 2 .8.1 1.5-.3 1.6-1.1l.8-4.1c.2-.8-.3-1.5-1.1-1.6-3.7-.7-7.4-1.4-11.1-2-.8-.1-1.5.4-1.6 1.2l-.7 4.1c-.1.7.5 1.4 1.2 1.5z" id="path174" fill="#adb8bc"/><path class="st0" d="M538.7 125.5c3.6.4 7.3.9 11 1.4.8.1 1.5-.4 1.6-1.2l.6-4.1c.1-.8-.4-1.5-1.2-1.6-3.7-.5-7.5-1-11.2-1.4-.8-.1-1.5.5-1.5 1.2l-.5 4.2c-.1.8.4 1.4 1.2 1.5z" id="path176" fill="#adb8bc"/><path class="st1" d="M396.9 488.6l-2-17.1c-1-8.4-7.9-14.8-16.2-15.1l-45.1-2c-5.9-.3-11.4-3.6-14.2-8.8l-8.4-15c-2.9-5.4-8.6-8.7-14.6-8.8l-77.7-1.4c-7.5-.1-14.2 4.7-16.6 11.8l-1.3 4c-2.4 7.3-9.3 12.1-17 11.8l-17.1-.8c-9.7-.4-17.8 7.3-17.8 17.1v26.2c0 9.4 7.7 17.1 17.1 17.1h6.3c3.3 0 6.1-2.2 7-5.4 2.4-8.9 10.5-15.5 20.3-15.5 9.6 0 17.8 6.5 20.2 15.4.9 3.3 3.8 5.6 7.2 5.6h79.5c3.3 0 6.3-2.3 7.2-5.6 2.4-8.8 10.6-15.4 20.2-15.4s17.8 6.5 20.2 15.3c.9 3.3 4 5.6 7.5 5.6h18.5c10 0 18-8.8 16.8-19z" id="path178" fill="#aa5263"/><circle class="st1" cx="333.8" cy="507.6" r="18.1" id="circle180" fill="#aa5263"/><circle class="st1" cx="199.3" cy="507.6" r="18.1" id="circle182" fill="#aa5263"/><path class="st1" d="M700.6 386.2c-42.5 0-76.9 34.4-76.9 76.9 0 42.5 34.4 76.9 76.9 76.9 42.5 0 76.9-34.4 76.9-76.9 0-42.5-34.4-76.9-76.9-76.9zm4.4 115.2c-.7.2-1.3.9-1.3 1.6v9.6c0 1-.7 1.7-1.7 1.7h-4.3c-1 0-1.7-.7-1.7-1.7v-8.9c0-.9-.6-1.6-1.6-1.7-6-.3-11.9-2.1-15.9-4.6-.6-.4-1-1.3-.7-2l1.8-5c.3-1 1.5-1.4 2.4-.9 4.3 2.4 9.8 4.2 15.8 4.2 8.6 0 14.5-5 14.5-11.9 0-6.7-4.8-10.9-13.7-14.5-12.5-4.9-20.1-10.4-20.1-21.1 0-9.7 6.6-17.1 17-19.4.7-.2 1.3-.9 1.3-1.6V416c0-1 .7-1.7 1.7-1.7h4.2c1 0 1.7.7 1.7 1.7v8.5c0 .9.6 1.6 1.6 1.7 5.6.4 9.8 1.8 13 3.4.7.4 1.1 1.3.7 2.1l-1.8 4.8c-.3 1-1.5 1.4-2.3 1-2.9-1.5-7.3-3.2-13.6-3.2-9.4 0-12.9 5.6-12.9 10.4 0 6.3 4.5 9.5 15.1 13.8 12.6 5.1 18.9 11.4 18.9 22.3-.2 9.5-6.4 18.2-18.1 20.6z" id="path184" fill="#aa5263"/></g><g id="Layer_3_1_" transform="translate(-5.774 -5.73) scale(.05916)"><path class="st2" d="M805.8 587H598.1c-20.4 0-37-16.6-37-37 0-3.1 2.5-5.6 5.6-5.6h270.4c3.1 0 5.6 2.5 5.6 5.6 0 20.4-16.5 37-36.9 37z" id="path187" fill="#c7ecff"/><circle class="st2" cx="567.8" cy="534.9" r="6.7" id="circle189" fill="#c7ecff"/><circle class="st2" cx="835.8" cy="534.9" r="6.7" id="circle191" fill="#c7ecff"/><circle class="st2" cx="835.8" cy="386.5" r="6.4" id="circle193" fill="#c7ecff"/><circle class="st2" cx="567.8" cy="386.3" r="6.4" id="circle195" fill="#c7ecff"/><circle class="st2" cx="835.8" cy="524.6" r="2.3" id="circle197" fill="#c7ecff"/><circle class="st2" cx="835.8" cy="519.2" r="2.3" id="circle199" fill="#c7ecff"/><circle class="st2" cx="835.8" cy="513.9" r="2.3" id="circle201" fill="#c7ecff"/><circle class="st2" cx="835.8" cy="508.6" r="2.3" id="circle203" fill="#c7ecff"/><circle class="st2" cx="835.8" cy="503.2" r="2.3" id="circle205" fill="#c7ecff"/><circle class="st2" cx="835.8" cy="497.9" r="2.3" id="circle207" fill="#c7ecff"/><circle class="st2" cx="835.8" cy="492.5" r="2.3" id="circle209" fill="#c7ecff"/><circle class="st2" cx="835.8" cy="487.2" r="2.3" id="circle211" fill="#c7ecff"/><circle class="st2" cx="835.8" cy="481.8" r="2.3" id="circle213" fill="#c7ecff"/><circle class="st2" cx="835.8" cy="476.5" r="2.3" id="circle215" fill="#c7ecff"/><circle class="st2" cx="835.8" cy="471.1" r="2.3" id="circle217" fill="#c7ecff"/><circle class="st2" cx="835.8" cy="465.8" r="2.3" id="circle219" fill="#c7ecff"/><circle class="st2" cx="835.8" cy="460.5" r="2.3" id="circle221" fill="#c7ecff"/><circle class="st2" cx="835.8" cy="455.1" r="2.3" id="circle223" fill="#c7ecff"/><circle class="st2" cx="835.8" cy="449.8" r="2.3" id="circle225" fill="#c7ecff"/><circle class="st2" cx="835.8" cy="444.4" r="2.3" id="circle227" fill="#c7ecff"/><circle class="st2" cx="835.8" cy="439.1" r="2.3" id="circle229" fill="#c7ecff"/><circle class="st2" cx="835.8" cy="433.7" r="2.3" id="circle231" fill="#c7ecff"/><circle class="st2" cx="835.8" cy="428.4" r="2.3" id="circle233" fill="#c7ecff"/><circle class="st2" cx="835.8" cy="423" r="2.3" id="circle235" fill="#c7ecff"/><circle class="st2" cx="835.8" cy="417.7" r="2.3" id="circle237" fill="#c7ecff"/><circle class="st2" cx="835.8" cy="412.4" r="2.3" id="circle239" fill="#c7ecff"/><circle class="st2" cx="835.8" cy="407" r="2.3" id="circle241" fill="#c7ecff"/><circle class="st2" cx="835.8" cy="401.7" r="2.3" id="circle243" fill="#c7ecff"/><circle class="st2" cx="835.8" cy="396.3" r="2.3" id="circle245" fill="#c7ecff"/><circle class="st2" cx="699.4" cy="344.9" r="12" id="circle247" fill="#c7ecff"/><circle class="st2" cx="567.8" cy="524.3" r="2.3" id="circle249" fill="#c7ecff"/><circle class="st2" cx="567.8" cy="519" r="2.3" id="circle251" fill="#c7ecff"/><circle class="st2" cx="567.8" cy="513.6" r="2.3" id="circle253" fill="#c7ecff"/><circle class="st2" cx="567.8" cy="508.3" r="2.3" id="circle255" fill="#c7ecff"/><circle class="st2" cx="567.8" cy="502.9" r="2.3" id="circle257" fill="#c7ecff"/><circle class="st2" cx="567.8" cy="497.6" r="2.3" id="circle259" fill="#c7ecff"/><circle class="st2" cx="567.8" cy="492.3" r="2.3" id="circle261" fill="#c7ecff"/><circle class="st2" cx="567.8" cy="486.9" r="2.3" id="circle263" fill="#c7ecff"/><circle class="st2" cx="567.8" cy="481.6" r="2.3" id="circle265" fill="#c7ecff"/><circle class="st2" cx="567.8" cy="476.2" r="2.3" id="circle267" fill="#c7ecff"/><circle class="st2" cx="567.8" cy="470.9" r="2.3" id="circle269" fill="#c7ecff"/><circle class="st2" cx="567.8" cy="465.5" r="2.3" id="circle271" fill="#c7ecff"/><circle class="st2" cx="567.8" cy="460.2" r="2.3" id="circle273" fill="#c7ecff"/><circle class="st2" cx="567.8" cy="454.8" r="2.3" id="circle275" fill="#c7ecff"/><circle class="st2" cx="567.8" cy="449.5" r="2.3" id="circle277" fill="#c7ecff"/><circle class="st2" cx="567.8" cy="444.2" r="2.3" id="circle279" fill="#c7ecff"/><circle class="st2" cx="567.8" cy="438.8" r="2.3" id="circle281" fill="#c7ecff"/><circle class="st2" cx="567.8" cy="433.5" r="2.3" id="circle283" fill="#c7ecff"/><circle class="st2" cx="567.8" cy="428.1" r="2.3" id="circle285" fill="#c7ecff"/><circle class="st2" cx="567.8" cy="422.8" r="2.3" id="circle287" fill="#c7ecff"/><circle class="st2" cx="567.8" cy="417.4" r="2.3" id="circle289" fill="#c7ecff"/><circle class="st2" cx="567.8" cy="412.1" r="2.3" id="circle291" fill="#c7ecff"/><circle class="st2" cx="567.8" cy="406.7" r="2.3" id="circle293" fill="#c7ecff"/><circle class="st2" cx="567.8" cy="401.4" r="2.3" id="circle295" fill="#c7ecff"/><circle class="st2" cx="567.8" cy="396.1" r="2.3" id="circle297" fill="#c7ecff"/><path class="st2" d="M842.7 377.3h-281c0-8.9 11.6-16.2 26-16.2h229c14.4 0 26 7.3 26 16.2z" id="path299" fill="#c7ecff"/><path class="st2" d="M376.9 580.6H169.2c-20.4 0-37-16.6-37-37 0-3.1 2.5-5.6 5.6-5.6h270.4c3.1 0 5.6 2.5 5.6 5.6 0 20.4-16.5 37-36.9 37z" id="path301" fill="#c7ecff"/><circle class="st2" cx="138.9" cy="528.5" r="6.7" id="circle303" fill="#c7ecff"/><circle class="st2" cx="406.9" cy="528.5" r="6.7" id="circle305" fill="#c7ecff"/><circle class="st2" cx="406.9" cy="380.1" r="6.4" id="circle307" fill="#c7ecff"/><circle class="st2" cx="138.9" cy="379.9" r="6.4" id="circle309" fill="#c7ecff"/><circle class="st2" cx="406.9" cy="518.2" r="2.3" id="circle311" fill="#c7ecff"/><circle class="st2" cx="406.9" cy="512.8" r="2.3" id="circle313" fill="#c7ecff"/><circle class="st2" cx="406.9" cy="507.5" r="2.3" id="circle315" fill="#c7ecff"/><circle class="st2" cx="406.9" cy="502.2" r="2.3" id="circle317" fill="#c7ecff"/><circle class="st2" cx="406.9" cy="496.8" r="2.3" id="circle319" fill="#c7ecff"/><circle class="st2" cx="406.9" cy="491.5" r="2.3" id="circle321" fill="#c7ecff"/><circle class="st2" cx="406.9" cy="486.1" r="2.3" id="circle323" fill="#c7ecff"/><circle class="st2" cx="406.9" cy="480.8" r="2.3" id="circle325" fill="#c7ecff"/><circle class="st2" cx="406.9" cy="475.4" r="2.3" id="circle327" fill="#c7ecff"/><circle class="st2" cx="406.9" cy="470.1" r="2.3" id="circle329" fill="#c7ecff"/><circle class="st2" cx="406.9" cy="464.7" r="2.3" id="circle331" fill="#c7ecff"/><circle class="st2" cx="406.9" cy="459.4" r="2.3" id="circle333" fill="#c7ecff"/><circle class="st2" cx="406.9" cy="454.1" r="2.3" id="circle335" fill="#c7ecff"/><circle class="st2" cx="406.9" cy="448.7" r="2.3" id="circle337" fill="#c7ecff"/><circle class="st2" cx="406.9" cy="443.4" r="2.3" id="circle339" fill="#c7ecff"/><circle class="st2" cx="406.9" cy="438" r="2.3" id="circle341" fill="#c7ecff"/><circle class="st2" cx="406.9" cy="432.7" r="2.3" id="circle343" fill="#c7ecff"/><circle class="st2" cx="406.9" cy="427.3" r="2.3" id="circle345" fill="#c7ecff"/><circle class="st2" cx="406.9" cy="422" r="2.3" id="circle347" fill="#c7ecff"/><circle class="st2" cx="406.9" cy="416.6" r="2.3" id="circle349" fill="#c7ecff"/><circle class="st2" cx="406.9" cy="411.3" r="2.3" id="circle351" fill="#c7ecff"/><circle class="st2" cx="406.9" cy="406" r="2.3" id="circle353" fill="#c7ecff"/><circle class="st2" cx="406.9" cy="400.6" r="2.3" id="circle355" fill="#c7ecff"/><circle class="st2" cx="406.9" cy="395.3" r="2.3" id="circle357" fill="#c7ecff"/><circle class="st2" cx="406.9" cy="389.9" r="2.3" id="circle359" fill="#c7ecff"/><circle class="st2" cx="270.5" cy="336.5" r="12" id="circle361" fill="#c7ecff"/><circle class="st2" cx="270.5" cy="312" r="5.6" id="circle363" fill="#c7ecff"/><circle class="st2" cx="270.5" cy="297.8" r="5.6" id="circle365" fill="#c7ecff"/><circle class="st2" cx="270.5" cy="283.6" r="5.6" id="circle367" fill="#c7ecff"/><circle class="st2" cx="270.5" cy="269.5" r="5.6" id="circle369" fill="#c7ecff"/><circle class="st2" cx="270.5" cy="255.3" r="5.6" id="circle371" fill="#c7ecff"/><circle class="st2" cx="270.5" cy="241.1" r="5.6" id="circle373" fill="#c7ecff"/><circle class="st2" cx="699.4" cy="320.5" r="5.6" id="circle375" fill="#c7ecff"/><circle class="st2" cx="699.4" cy="306.3" r="5.6" id="circle377" fill="#c7ecff"/><circle class="st2" cx="699.4" cy="292.2" r="5.6" id="circle379" fill="#c7ecff"/><circle class="st2" cx="699.4" cy="278" r="5.6" id="circle381" fill="#c7ecff"/><circle class="st2" cx="699.4" cy="263.8" r="5.6" id="circle383" fill="#c7ecff"/><circle class="st2" cx="699.4" cy="249.7" r="5.6" id="circle385" fill="#c7ecff"/><circle class="st2" cx="138.9" cy="517.9" r="2.3" id="circle387" fill="#c7ecff"/><circle class="st2" cx="138.9" cy="512.6" r="2.3" id="circle389" fill="#c7ecff"/><circle class="st2" cx="138.9" cy="507.2" r="2.3" id="circle391" fill="#c7ecff"/><circle class="st2" cx="138.9" cy="501.9" r="2.3" id="circle393" fill="#c7ecff"/><circle class="st2" cx="138.9" cy="496.5" r="2.3" id="circle395" fill="#c7ecff"/><circle class="st2" cx="138.9" cy="491.2" r="2.3" id="circle397" fill="#c7ecff"/><circle class="st2" cx="138.9" cy="485.9" r="2.3" id="circle399" fill="#c7ecff"/><circle class="st2" cx="138.9" cy="480.5" r="2.3" id="circle401" fill="#c7ecff"/><circle class="st2" cx="138.9" cy="475.2" r="2.3" id="circle403" fill="#c7ecff"/><circle class="st2" cx="138.9" cy="469.8" r="2.3" id="circle405" fill="#c7ecff"/><circle class="st2" cx="138.9" cy="464.5" r="2.3" id="circle407" fill="#c7ecff"/><circle class="st2" cx="138.9" cy="459.1" r="2.3" id="circle409" fill="#c7ecff"/><circle class="st2" cx="138.9" cy="453.8" r="2.3" id="circle411" fill="#c7ecff"/><circle class="st2" cx="138.9" cy="448.4" r="2.3" id="circle413" fill="#c7ecff"/><circle class="st2" cx="138.9" cy="443.1" r="2.3" id="circle415" fill="#c7ecff"/><circle class="st2" cx="138.9" cy="437.8" r="2.3" id="circle417" fill="#c7ecff"/><circle class="st2" cx="138.9" cy="432.4" r="2.3" id="circle419" fill="#c7ecff"/><circle class="st2" cx="138.9" cy="427.1" r="2.3" id="circle421" fill="#c7ecff"/><circle class="st2" cx="138.9" cy="421.7" r="2.3" id="circle423" fill="#c7ecff"/><circle class="st2" cx="138.9" cy="416.4" r="2.3" id="circle425" fill="#c7ecff"/><circle class="st2" cx="138.9" cy="411" r="2.3" id="circle427" fill="#c7ecff"/><circle class="st2" cx="138.9" cy="405.7" r="2.3" id="circle429" fill="#c7ecff"/><circle class="st2" cx="138.9" cy="400.3" r="2.3" id="circle431" fill="#c7ecff"/><circle class="st2" cx="138.9" cy="395" r="2.3" id="circle433" fill="#c7ecff"/><circle class="st2" cx="138.9" cy="389.7" r="2.3" id="circle435" fill="#c7ecff"/><path class="st2" d="M413.8 370.9h-281c0-8.9 11.6-16.2 26-16.2h229c14.4 0 26 7.3 26 16.2z" id="path437" fill="#c7ecff"/><path class="st2" id="polygon439" fill="#c7ecff" d="M494.2 244.4l25.2 601.5h-55.8L485 244.4z"/><path class="st2" d="M704.4 224.7c-2.3.5-4 1.9-5.1 3.8l-209.1-11.3-210.4 1.5c-1.6-2.6-4.6-4-7.8-3.3-3.9.8-6.5 4.7-5.7 8.7.8 4 4.7 6.5 8.7 5.7 2.1-.4 3.8-1.7 4.8-3.3l209.8 18.7 210-9.6c1.6 2.7 4.6 4.1 7.8 3.4 3.9-.8 6.5-4.7 5.7-8.7-.9-3.8-4.8-6.4-8.7-5.6zm-211.9 15.8c-5 1-9.9-2.2-10.9-7.2s2.2-9.9 7.2-10.9 9.9 2.2 10.9 7.2c1.1 5-2.2 9.9-7.2 10.9z" id="path441" fill="#c7ecff"/><path class="st2" d="M660.8 929.6h-350c-9.4 0-17.1-7.7-17.1-17.1v-20c0-30.3 24.5-54.8 54.8-54.8h274.7c30.3 0 54.8 24.5 54.8 54.8v20c-.1 9.5-7.7 17.1-17.2 17.1z" id="path443" fill="#c7ecff"/></g><g id="Layer_4" transform="translate(-4.114 -5.545) scale(.05916)"><path class="st1" d="M121.3 341.6c-72.7 98.1-52.1 236.5 46 309.2 98.1 72.7 236.5 52.1 309.2-46 72.7-98.1 52.1-236.5-46-309.2-98.1-72.7-236.5-52.1-309.2 46zM465 596.2c-67.9 91.7-197.4 111-289.1 43-91.7-68-111-197.4-43-289.1 68-91.7 197.4-111 289.1-43 91.7 68 110.9 197.4 43 289.1z" id="path446" fill="#aa5263"/><path class="st1" d="M764.7 822.7l4.2-5.7c3.1-4.2 2.2-10.1-2-13.2L496.6 603.4c-4.2-3.1-10.1-2.2-13.2 2l-4.2 5.7c-3.1 4.2-2.2 10.1 2 13.2l270.4 200.3c4.1 3.2 10 2.3 13.1-1.9z" id="path448" fill="#aa5263"/></g></svg>