<svg xmlns="http://www.w3.org/2000/svg" viewBox="0 0 50 50" id="svg2" width="50" height="50"><style id="style4">.st0{fill:#adb8bc}.st1{fill:#c7ecff}.st2{fill:#aa5263}</style><g id="Layer_3" transform="translate(-4.919 -5.403) scale(.05996)"><path class="st0" d="M90.6 458.3l4.2.4c.8.1 1.4-.5 1.5-1.2.4-3.7.8-7.3 1.3-11 .1-.8-.4-1.5-1.2-1.6l-4.2-.6c-.8-.1-1.5.4-1.6 1.2-.5 3.7-.9 7.5-1.3 11.2 0 .8.6 1.5 1.3 1.6z" id="path7" fill="#adb8bc"/><path class="st0" d="M89.1 479.2l4.2.2c.8 0 1.4-.6 1.5-1.3.2-3.7.4-7.4.7-11 .1-.8-.5-1.4-1.3-1.5l-4.2-.3c-.8-.1-1.5.5-1.5 1.3-.3 3.7-.5 7.5-.7 11.2-.1.7.5 1.4 1.3 1.4z" id="path9" fill="#adb8bc"/><path class="st0" d="M94.2 500c0-4 .1-8.1.2-12.2 0-.8-.6-1.4-1.3-1.4l-4.2-.1c-.8 0-1.4.6-1.4 1.4-.1 4.1-.2 8.3-.2 12.4v.3h7v-.4z" id="path11" fill="#adb8bc"/><path class="st0" d="M97.5 562.5c.8-.1 1.3-.8 1.2-1.6-.5-3.6-1-7.3-1.5-10.9-.1-.8-.8-1.3-1.5-1.2l-4.2.5c-.8.1-1.3.8-1.2 1.6.5 3.7 1 7.5 1.5 11.2.1.8.8 1.3 1.6 1.2l4.1-.8z" id="path13" fill="#adb8bc"/><path class="st0" d="M90.7 542.2l4.2-.4c.8-.1 1.3-.8 1.2-1.5-.4-3.7-.7-7.3-.9-11-.1-.8-.7-1.3-1.5-1.3l-4.2.3c-.8.1-1.4.7-1.3 1.5.3 3.7.6 7.5.9 11.2.1.8.8 1.3 1.6 1.2z" id="path15" fill="#adb8bc"/><path class="st0" d="M93.3 521.1c.8 0 1.4-.7 1.3-1.5-.2-3.7-.3-7.4-.4-11 0-.8-.6-1.4-1.4-1.4l-4.2.1c-.8 0-1.4.7-1.4 1.4.1 3.7.2 7.5.4 11.3 0 .8.7 1.4 1.5 1.3l4.2-.2z" id="path17" fill="#adb8bc"/><path class="st0" d="M122 336.5l3.9 1.7c.7.3 1.5 0 1.8-.7 1.5-3.4 3-6.8 4.5-10.1.3-.7 0-1.5-.7-1.9l-3.8-1.8c-.7-.3-1.5 0-1.9.7-1.6 3.4-3.1 6.9-4.6 10.3-.2.6.1 1.5.8 1.8z" id="path19" fill="#adb8bc"/><path class="st0" d="M102.2 581.3c-.7-3.6-1.4-7.2-2-10.9-.1-.8-.8-1.3-1.6-1.1l-4.1.7c-.8.1-1.3.9-1.1 1.6.6 3.7 1.3 7.4 2.1 11.1.2.8.9 1.2 1.7 1.1l4.1-.8c.6-.2 1.1-.9.9-1.7z" id="path21" fill="#adb8bc"/><path class="st0" d="M130.8 317.3l3.8 1.8c.7.3 1.5.1 1.9-.6 1.6-3.3 3.3-6.6 5.1-9.9.4-.7.1-1.5-.6-1.9l-3.7-2c-.7-.4-1.5-.1-1.9.6-1.8 3.3-3.5 6.7-5.1 10-.4.8-.2 1.7.5 2z" id="path23" fill="#adb8bc"/><path class="st0" d="M114.2 356l3.9 1.5c.7.3 1.5-.1 1.8-.8 1.3-3.5 2.6-6.9 4-10.3.3-.7-.1-1.5-.8-1.8l-3.9-1.6c-.7-.3-1.5 0-1.8.8-1.4 3.5-2.8 7-4.1 10.5-.2.7.2 1.5.9 1.7z" id="path25" fill="#adb8bc"/><path class="st0" d="M96.9 416.7l4.1.8c.8.2 1.5-.3 1.6-1.1.7-3.6 1.5-7.2 2.4-10.8.2-.7-.3-1.5-1-1.7l-4.1-1c-.8-.2-1.5.3-1.7 1-.9 3.6-1.7 7.3-2.4 11-.1.9.4 1.7 1.1 1.8z" id="path27" fill="#adb8bc"/><path class="st0" d="M107.4 376l4 1.3c.7.2 1.5-.2 1.7-.9 1.1-3.5 2.3-7 3.5-10.5.3-.7-.1-1.5-.9-1.8l-4-1.4c-.7-.3-1.5.1-1.8.9-1.2 3.6-2.4 7.2-3.6 10.7 0 .7.4 1.5 1.1 1.7z" id="path29" fill="#adb8bc"/><path class="st0" d="M140.6 298.6l3.7 2c.7.4 1.5.1 1.9-.5 1.8-3.2 3.7-6.4 5.5-9.6.4-.7.2-1.5-.5-1.9l-3.6-2.2c-.7-.4-1.5-.2-1.9.5-1.9 3.2-3.8 6.5-5.6 9.8-.4.7-.2 1.6.5 1.9z" id="path31" fill="#adb8bc"/><path class="st0" d="M101.7 396.2l4.1 1c.7.2 1.5-.3 1.7-1 .9-3.6 1.9-7.1 2.9-10.7.2-.7-.2-1.5-.9-1.7l-4-1.2c-.7-.2-1.5.2-1.7.9-1 3.6-2 7.2-3 10.9-.3.9.1 1.6.9 1.8z" id="path33" fill="#adb8bc"/><path class="st0" d="M93.3 437.4l4.1.6c.8.1 1.5-.4 1.6-1.2.6-3.6 1.2-7.3 1.8-10.9.1-.8-.4-1.5-1.1-1.6l-4.1-.8c-.8-.1-1.5.4-1.6 1.1-.7 3.7-1.3 7.4-1.9 11.1-.1.9.4 1.6 1.2 1.7z" id="path35" fill="#adb8bc"/><path class="st0" d="M178.9 749.5c-2.2-2.9-4.5-5.9-6.6-8.8-.5-.6-1.3-.8-1.9-.3l-3.4 2.5c-.6.5-.8 1.3-.3 2 2.2 3 4.5 6 6.7 9 .5.6 1.4.7 2 .2l3.3-2.6c.6-.6.7-1.4.2-2z" id="path37" fill="#adb8bc"/><path class="st0" d="M215.5 209.1c.5-.5.6-1.4 0-2l-2.9-3c-.5-.6-1.4-.6-2 0-2.7 2.6-5.3 5.3-7.9 8-.5.6-.5 1.4 0 2l3 2.9c.6.5 1.4.5 2 0 2.6-2.7 5.2-5.4 7.8-7.9z" id="path39" fill="#adb8bc"/><path class="st0" d="M246.6 179.5l-2.6-3.3c-.5-.6-1.4-.7-2-.2l-8.7 7.2c-.6.5-.7 1.4-.1 2l2.7 3.2c.5.6 1.4.7 2 .2 2.8-2.4 5.6-4.7 8.5-7.1.6-.6.7-1.4.2-2z" id="path41" fill="#adb8bc"/><path class="st0" d="M198.3 772.9c-.5-.6-1.4-.6-2-.1l-3.1 2.8c-.6.5-.6 1.4-.1 2 2.5 2.8 5.1 5.6 7.6 8.3.5.6 1.4.6 2 .1l3-2.9c.6-.5.6-1.4.1-2-2.5-2.8-5-5.5-7.5-8.2z" id="path43" fill="#adb8bc"/><path class="st0" d="M227.5 802.3c-.6-.5-1.4-.5-2 .1l-2.8 3.1c-.5.6-.5 1.5.1 2l8.4 7.5c.6.5 1.5.4 2-.1l2.7-3.2c.5-.6.4-1.5-.1-2-2.8-2.4-5.6-4.9-8.3-7.4z" id="path45" fill="#adb8bc"/><path class="st0" d="M230.6 194.8c.6-.5.6-1.4.1-2l-2.8-3.1c-.5-.6-1.4-.6-2-.1-2.8 2.5-5.6 5.1-8.3 7.6-.6.5-.6 1.4 0 2l2.9 3c.5.6 1.4.6 2 .1l8.1-7.5z" id="path47" fill="#adb8bc"/><path class="st0" d="M212.5 788c-.5-.5-1.4-.6-2 0l-3 2.9c-.6.5-.6 1.4 0 2 2.6 2.7 5.3 5.3 8 7.9.6.5 1.4.5 2 0l2.9-3c.5-.6.5-1.4 0-2-2.6-2.6-5.3-5.2-7.9-7.8z" id="path49" fill="#adb8bc"/><path class="st0" d="M166.7 732.7c-2.1-3-4.2-6.1-6.2-9.2-.4-.6-1.3-.8-1.9-.4l-3.5 2.3c-.6.4-.8 1.3-.4 1.9 2 3.1 4.1 6.3 6.3 9.3.4.6 1.3.8 2 .3l3.4-2.4c.6-.3.7-1.1.3-1.8z" id="path51" fill="#adb8bc"/><path class="st0" d="M119.1 641.1c-1.3-3.4-2.5-6.9-3.7-10.4-.2-.7-1-1.1-1.8-.9l-4 1.3c-.7.2-1.1 1-.9 1.8 1.2 3.6 2.5 7.1 3.7 10.6.3.7 1.1 1.1 1.8.8l3.9-1.5c.9-.1 1.3-.9 1-1.7z" id="path53" fill="#adb8bc"/><path class="st0" d="M126.8 660.4l-4.2-10.2c-.3-.7-1.1-1.1-1.8-.8l-3.9 1.5c-.7.3-1.1 1.1-.8 1.8 1.4 3.5 2.8 7 4.3 10.4.3.7 1.1 1 1.8.7l3.9-1.7c.6-.2 1-1 .7-1.7z" id="path55" fill="#adb8bc"/><path class="st0" d="M112.5 621.5c-1.1-3.5-2.1-7.1-3.1-10.6-.2-.7-1-1.2-1.7-1l-4 1.1c-.7.2-1.2 1-1 1.7 1 3.6 2.1 7.2 3.2 10.8.2.7 1 1.1 1.8.9l4-1.3c.6-.1 1-.9.8-1.6z" id="path57" fill="#adb8bc"/><path class="st0" d="M144.9 697.5c-1.8-3.2-3.5-6.5-5.2-9.7-.4-.7-1.2-1-1.9-.6l-3.7 1.9c-.7.4-1 1.2-.6 1.9 1.7 3.3 3.5 6.6 5.3 9.9.4.7 1.2.9 1.9.5l3.7-2c.6-.3.9-1.2.5-1.9z" id="path59" fill="#adb8bc"/><path class="st0" d="M155.3 715.4c-1.9-3.1-3.8-6.3-5.7-9.4-.4-.7-1.2-.9-1.9-.5l-3.6 2.1c-.7.4-.9 1.2-.5 1.9 1.9 3.2 3.8 6.5 5.8 9.6.4.7 1.3.9 1.9.4l3.6-2.2c.6-.4.8-1.2.4-1.9z" id="path61" fill="#adb8bc"/><path class="st0" d="M135.3 679.2c-1.6-3.3-3.2-6.6-4.7-10-.3-.7-1.1-1-1.8-.7l-3.8 1.7c-.7.3-1 1.1-.7 1.9 1.5 3.4 3.1 6.8 4.8 10.2.3.7 1.2 1 1.9.6l3.8-1.9c.6-.3.9-1.1.5-1.8z" id="path63" fill="#adb8bc"/><path class="st0" d="M106.8 601.5c-.9-3.6-1.8-7.2-2.6-10.7-.2-.8-.9-1.2-1.7-1.1l-4.1.9c-.8.2-1.2.9-1.1 1.7.8 3.7 1.7 7.3 2.6 10.9.2.8 1 1.2 1.7 1l4.1-1.1c.9-.1 1.3-.8 1.1-1.6z" id="path65" fill="#adb8bc"/><path class="st0" d="M184.9 757.1c-.5-.6-1.4-.7-2-.2l-3.3 2.6c-.6.5-.7 1.4-.2 2l7.2 8.7c.5.6 1.4.7 2 .1l3.2-2.7c.6-.5.7-1.4.2-2-2.4-2.8-4.8-5.7-7.1-8.5z" id="path67" fill="#adb8bc"/><path class="st0" d="M862.1 302.2c1.8 3.2 3.5 6.5 5.2 9.7.4.7 1.2 1 1.9.6l3.7-1.9c.7-.4 1-1.2.6-1.9-1.7-3.3-3.5-6.6-5.3-9.9-.4-.7-1.2-.9-1.9-.5l-3.7 2c-.6.4-.8 1.3-.5 1.9z" id="path69" fill="#adb8bc"/><path class="st0" d="M871.7 320.6c1.6 3.3 3.2 6.6 4.7 10 .3.7 1.1 1 1.8.7l3.8-1.7c.7-.3 1-1.1.7-1.9-1.5-3.4-3.2-6.8-4.8-10.2-.3-.7-1.2-1-1.9-.6l-3.8 1.9c-.6.3-.8 1.1-.5 1.8z" id="path71" fill="#adb8bc"/><path class="st0" d="M151.3 280.5l3.6 2.2c.7.4 1.5.2 1.9-.4l6-9.3c.4-.6.3-1.5-.4-1.9l-3.5-2.3c-.6-.4-1.5-.3-1.9.4-2.1 3.1-4.1 6.3-6.1 9.5-.5.5-.3 1.4.4 1.8z" id="path73" fill="#adb8bc"/><path class="st0" d="M840.3 267.1c2.1 3 4.2 6.1 6.2 9.2.4.6 1.3.8 1.9.4l3.5-2.3c.6-.4.8-1.3.4-1.9-2-3.1-4.2-6.3-6.3-9.3-.4-.6-1.3-.8-2-.3l-3.4 2.4c-.6.3-.7 1.1-.3 1.8z" id="path75" fill="#adb8bc"/><path class="st0" d="M880.3 339.4l4.2 10.2c.3.7 1.1 1.1 1.8.8l3.9-1.5c.7-.3 1.1-1.1.8-1.8-1.4-3.5-2.8-6.9-4.3-10.4-.3-.7-1.1-1-1.8-.7l-3.8 1.7c-.8.2-1.1 1-.8 1.7z" id="path77" fill="#adb8bc"/><path class="st0" d="M822.1 242.7c.5.6 1.4.7 2 .2l3.3-2.6c.6-.5.7-1.4.2-2l-7.2-8.7c-.5-.6-1.4-.7-2-.1l-3.2 2.7c-.6.5-.7 1.4-.2 2 2.4 2.8 4.8 5.7 7.1 8.5z" id="path79" fill="#adb8bc"/><path class="st0" d="M828.1 250.3c2.2 2.9 4.5 5.9 6.6 8.8.5.6 1.3.8 1.9.3l3.4-2.5c.6-.5.8-1.3.3-2-2.2-3-4.5-6-6.7-9-.5-.6-1.4-.7-2-.2l-3.3 2.6c-.6.5-.7 1.4-.2 2z" id="path81" fill="#adb8bc"/><path class="st0" d="M904.9 418.4c.7 3.6 1.4 7.2 2 10.9.1.8.8 1.3 1.6 1.1l4.1-.7c.8-.1 1.3-.9 1.1-1.6-.6-3.7-1.3-7.4-2.1-11.1-.2-.8-.9-1.2-1.7-1.1l-4.1.8c-.6.3-1.1 1-.9 1.7z" id="path83" fill="#adb8bc"/><path class="st0" d="M909.6 437.3c-.8.1-1.3.8-1.2 1.6.5 3.6 1 7.3 1.5 10.9.1.8.8 1.3 1.5 1.2l4.2-.5c.8-.1 1.3-.8 1.2-1.6-.5-3.7-1-7.5-1.5-11.2-.1-.8-.8-1.3-1.6-1.2l-4.1.8z" id="path85" fill="#adb8bc"/><path class="st0" d="M916.4 457.5l-4.2.4c-.8.1-1.3.8-1.2 1.5.4 3.6.7 7.3.9 11 .1.8.7 1.3 1.5 1.3l4.2-.3c.8-.1 1.4-.7 1.3-1.5-.3-3.7-.6-7.5-1-11.2 0-.7-.7-1.3-1.5-1.2z" id="path87" fill="#adb8bc"/><path class="st0" d="M913.8 478.7c-.8 0-1.4.7-1.3 1.5.2 3.7.3 7.4.4 11 0 .8.6 1.4 1.4 1.4l4.2-.1c.8 0 1.4-.7 1.4-1.4-.1-3.7-.2-7.5-.4-11.3 0-.8-.7-1.4-1.5-1.3l-4.2.2z" id="path89" fill="#adb8bc"/><path class="st0" d="M894.6 378.3c1.1 3.5 2.1 7.1 3.1 10.6.2.7 1 1.2 1.7 1l4-1.1c.7-.2 1.2-1 1-1.7-1-3.6-2.1-7.2-3.2-10.8-.2-.7-1-1.1-1.8-.9l-4 1.3c-.6.1-1 .8-.8 1.6z" id="path91" fill="#adb8bc"/><path class="st0" d="M808.6 226.9c.5.6 1.4.6 2 .1l3.1-2.8c.6-.5.6-1.4.1-2-2.5-2.8-5-5.6-7.6-8.3-.5-.6-1.4-.6-2 0l-3 2.9c-.6.5-.6 1.4-.1 2 2.6 2.7 5.1 5.4 7.5 8.1z" id="path93" fill="#adb8bc"/><path class="st0" d="M887.9 358.6c1.3 3.4 2.5 6.9 3.7 10.4.2.7 1 1.1 1.8.9l4-1.3c.7-.2 1.1-1 .9-1.8-1.2-3.6-2.5-7.1-3.7-10.6-.3-.7-1.1-1.1-1.8-.8l-3.9 1.5c-.9.2-1.2 1-1 1.7z" id="path95" fill="#adb8bc"/><path class="st0" d="M900.2 398.2c.9 3.6 1.8 7.2 2.6 10.7.2.8.9 1.2 1.7 1.1l4.1-.9c.8-.2 1.2-.9 1.1-1.7-.8-3.7-1.7-7.3-2.6-10.9-.2-.7-1-1.2-1.7-1l-4.1 1.1c-.8.1-1.2.9-1.1 1.6z" id="path97" fill="#adb8bc"/><path class="st0" d="M851.7 284.4c1.9 3.1 3.8 6.3 5.7 9.4.4.7 1.2.9 1.9.5l3.6-2.1c.7-.4.9-1.2.5-1.9-1.9-3.2-3.8-6.5-5.8-9.6-.4-.7-1.3-.9-1.9-.4l-3.6 2.2c-.6.4-.8 1.2-.4 1.9z" id="path99" fill="#adb8bc"/><path class="st0" d="M166.3 265.3c.6.4 1.5.3 1.9-.3 2.1-3 4.3-6 6.5-9 .5-.6.3-1.5-.3-1.9l-3.4-2.5c-.6-.5-1.5-.3-2 .3-2.2 3-4.4 6.1-6.6 9.1-.4.6-.3 1.5.3 2l3.6 2.3z" id="path101" fill="#adb8bc"/><path class="st0" d="M646.8 116.3c3.5 1.3 6.9 2.6 10.3 4 .7.3 1.5-.1 1.8-.8l1.6-3.9c.3-.7 0-1.5-.8-1.8-3.5-1.4-7-2.8-10.5-4.1-.7-.3-1.5.1-1.8.8l-1.5 3.9c-.2.9.2 1.6.9 1.9z" id="path103" fill="#adb8bc"/><path class="st0" d="M794.4 211.8c.5.5 1.4.6 2 0l3-2.9c.6-.5.6-1.4 0-2-2.6-2.7-5.3-5.3-8-7.9-.6-.5-1.4-.5-2 .1l-2.9 3c-.5.6-.5 1.4 0 2 2.7 2.5 5.3 5.1 7.9 7.7z" id="path105" fill="#adb8bc"/><path class="st0" d="M178.7 248.6c.6.5 1.5.4 2-.2 2.3-2.9 4.6-5.8 6.9-8.6.5-.6.4-1.5-.2-2l-3.2-2.7c-.6-.5-1.5-.4-2 .2-2.4 2.9-4.7 5.8-7.1 8.8-.5.6-.4 1.5.2 2l3.4 2.5z" id="path107" fill="#adb8bc"/><path class="st0" d="M191.8 232.4c.6.5 1.5.4 2-.1 2.4-2.8 4.9-5.6 7.3-8.3.5-.6.5-1.4-.1-2l-3.1-2.8c-.6-.5-1.5-.5-2 .1l-7.5 8.4c-.5.6-.4 1.5.1 2l3.3 2.7z" id="path109" fill="#adb8bc"/><path class="st0" d="M666.1 124.1c3.4 1.5 6.8 3 10.1 4.5.7.3 1.5 0 1.8-.7l1.8-3.8c.3-.7 0-1.5-.7-1.9-3.4-1.6-6.9-3.1-10.3-4.6-.7-.3-1.5 0-1.8.7l-1.7 3.9c-.3.8.1 1.6.8 1.9z" id="path111" fill="#adb8bc"/><path class="st0" d="M747.4 171.1c.6.5 1.5.3 1.9-.3l2.5-3.4c.5-.6.3-1.5-.3-2-3-2.2-6.1-4.4-9.1-6.6-.6-.4-1.5-.3-2 .3l-2.4 3.4c-.4.6-.3 1.5.3 1.9 3.2 2.3 6.2 4.5 9.1 6.7z" id="path113" fill="#adb8bc"/><path class="st0" d="M779.5 197.5c.6.5 1.4.5 2-.1l2.8-3.1c.5-.6.5-1.5-.1-2l-8.4-7.5c-.6-.5-1.5-.4-2 .2l-2.7 3.2c-.5.6-.4 1.5.1 2 2.8 2.3 5.6 4.8 8.3 7.3z" id="path115" fill="#adb8bc"/><path class="st0" d="M763.8 183.9c.6.5 1.5.4 2-.2l2.7-3.2c.5-.6.4-1.5-.2-2-2.9-2.4-5.8-4.8-8.8-7-.6-.5-1.5-.4-2 .2l-2.6 3.3c-.5.6-.4 1.5.2 2 3 2.2 5.8 4.5 8.7 6.9z" id="path117" fill="#adb8bc"/><path class="st0" d="M703.3 142.5c3.2 1.8 6.4 3.7 9.6 5.5.7.4 1.5.2 1.9-.5l2.2-3.6c.4-.7.2-1.5-.5-1.9-3.2-1.9-6.5-3.8-9.8-5.6-.7-.4-1.5-.1-1.9.5l-2 3.7c-.4.7-.2 1.5.5 1.9z" id="path119" fill="#adb8bc"/><path class="st0" d="M684.9 132.8c3.3 1.6 6.6 3.3 9.9 5 .7.4 1.5.1 1.9-.6l2-3.7c.4-.7.1-1.5-.6-1.9-3.3-1.8-6.7-3.5-10-5.1-.7-.3-1.5-.1-1.9.6l-1.8 3.8c-.4.8-.2 1.6.5 1.9z" id="path121" fill="#adb8bc"/><path class="st0" d="M721.2 153.1l9.3 6c.6.4 1.5.3 1.9-.4l2.3-3.5c.4-.6.3-1.5-.4-1.9-3.1-2.1-6.3-4.1-9.5-6.1-.7-.4-1.5-.2-1.9.4l-2.2 3.6c-.4.7-.2 1.5.5 1.9z" id="path123" fill="#adb8bc"/><path class="st0" d="M684.5 868.9c-.3-.7-1.2-1-1.9-.6-3.3 1.6-6.6 3.2-10 4.7-.7.3-1 1.1-.7 1.8l1.7 3.8c.3.7 1.1 1 1.9.7 3.4-1.5 6.8-3.1 10.2-4.8.7-.3 1-1.2.6-1.9l-1.8-3.7z" id="path125" fill="#adb8bc"/><path class="st0" d="M720.8 848.7c-.4-.7-1.3-.9-1.9-.4-3.1 1.9-6.3 3.8-9.5 5.7-.7.4-.9 1.2-.5 1.9l2.1 3.6c.4.7 1.2.9 1.9.5 3.2-1.9 6.5-3.8 9.6-5.8.7-.4.9-1.3.4-1.9l-2.1-3.6z" id="path127" fill="#adb8bc"/><path class="st0" d="M702.9 859.3c-.4-.7-1.2-.9-1.9-.5-3.2 1.8-6.5 3.5-9.7 5.2-.7.4-1 1.2-.6 1.9l1.9 3.7c.4.7 1.2 1 1.9.6 3.3-1.7 6.6-3.5 9.9-5.3.7-.4.9-1.2.5-1.9l-2-3.7z" id="path129" fill="#adb8bc"/><path class="st0" d="M738.1 837.3c-.4-.6-1.3-.8-1.9-.3-3 2.1-6.1 4.2-9.2 6.2-.6.4-.8 1.3-.4 1.9l2.3 3.5c.4.6 1.3.8 1.9.4 3.1-2 6.3-4.1 9.3-6.3.6-.4.8-1.3.3-2l-2.3-3.4z" id="path131" fill="#adb8bc"/><path class="st0" d="M786.5 797.9c-.5-.6-1.4-.6-2-.1l-8.1 7.5c-.6.5-.6 1.4-.1 2l2.8 3.1c.5.6 1.4.6 2 .1 2.8-2.5 5.6-5 8.3-7.6.6-.5.6-1.4.1-2l-3-3z" id="path133" fill="#adb8bc"/><path class="st0" d="M801.2 783.2c-.6-.5-1.4-.5-2 0-2.5 2.6-5.1 5.3-7.8 7.9-.5.5-.6 1.4 0 2l2.9 3c.5.6 1.4.6 2 0 2.7-2.6 5.3-5.3 7.9-8 .5-.6.5-1.4 0-2l-3-2.9z" id="path135" fill="#adb8bc"/><path class="st0" d="M754.9 825c-.5-.6-1.3-.7-2-.3-2.9 2.2-5.9 4.5-8.8 6.6-.6.5-.8 1.3-.3 1.9l2.5 3.4c.5.6 1.3.8 2 .3 3-2.2 6-4.5 9-6.7.6-.5.7-1.4.3-2l-2.7-3.2z" id="path137" fill="#adb8bc"/><path class="st0" d="M771 811.8c-.5-.6-1.4-.7-2-.2-2.8 2.4-5.6 4.7-8.5 7.1-.6.5-.7 1.4-.2 2l2.6 3.3c.5.6 1.4.7 2 .2 2.9-2.3 5.8-4.8 8.7-7.2.6-.5.7-1.4.2-2l-2.8-3.2z" id="path139" fill="#adb8bc"/><path class="st0" d="M586.4 902.5c-.2-.8-.9-1.2-1.6-1.1-3.6.7-7.2 1.4-10.9 2-.8.1-1.3.8-1.1 1.6l.7 4.1c.1.8.9 1.3 1.6 1.1 3.7-.6 7.4-1.3 11.1-2.1.8-.2 1.2-.9 1.1-1.7l-.9-3.9z" id="path141" fill="#adb8bc"/><path class="st0" d="M665.7 877.6c-.3-.7-1.1-1-1.8-.7l-10.2 4.2c-.7.3-1.1 1.1-.8 1.8l1.5 3.9c.3.7 1.1 1.1 1.8.8 3.5-1.4 6.9-2.8 10.4-4.3.7-.3 1-1.1.7-1.8l-1.6-3.9z" id="path143" fill="#adb8bc"/><path class="st0" d="M565.9 906.1c-.1-.8-.8-1.3-1.6-1.2-3.6.5-7.3 1-10.9 1.5-.8.1-1.3.8-1.2 1.5l.5 4.2c.1.8.8 1.3 1.6 1.2 3.7-.5 7.5-1 11.2-1.5.8-.1 1.3-.8 1.2-1.6l-.8-4.1z" id="path145" fill="#adb8bc"/><path class="st0" d="M646.4 885.3c-.3-.7-1.1-1.1-1.8-.8-3.4 1.3-6.9 2.5-10.4 3.7-.7.2-1.1 1-.9 1.8l1.3 4c.2.7 1 1.1 1.8.9 3.6-1.2 7.1-2.4 10.6-3.7.7-.3 1.1-1.1.8-1.8l-1.4-4.1z" id="path147" fill="#adb8bc"/><path class="st0" d="M606.7 897.8c-.2-.7-.9-1.2-1.7-1-3.6.9-7.2 1.8-10.7 2.6-.8.2-1.2.9-1.1 1.7l.9 4.1c.2.8.9 1.2 1.7 1.1 3.7-.8 7.3-1.7 11-2.6.8-.2 1.2-1 1-1.7l-1.1-4.2z" id="path149" fill="#adb8bc"/><path class="st0" d="M626.7 892c-.2-.7-1-1.1-1.7-.9-3.5 1.1-7.1 2.1-10.6 3.1-.7.2-1.2 1-1 1.7l1.1 4c.2.7 1 1.2 1.7 1 3.6-1 7.2-2.1 10.8-3.2.7-.2 1.1-1 .9-1.8l-1.2-3.9z" id="path151" fill="#adb8bc"/><path class="st0" d="M913.9 562.8l-4.1-.6c-.8-.1-1.5.4-1.6 1.2-.6 3.6-1.2 7.3-1.8 10.9-.1.8.4 1.5 1.1 1.6l4.1.8c.8.1 1.5-.4 1.6-1.1.7-3.7 1.3-7.4 1.9-11.1 0-.8-.5-1.6-1.2-1.7z" id="path153" fill="#adb8bc"/><path class="st0" d="M899.7 624.2l-4-1.3c-.7-.2-1.5.2-1.7.9-1.1 3.5-2.3 7-3.5 10.5-.3.7.1 1.5.9 1.8l4 1.4c.7.3 1.5-.1 1.8-.9 1.2-3.6 2.4-7.2 3.6-10.7 0-.6-.4-1.4-1.1-1.7z" id="path155" fill="#adb8bc"/><path class="st0" d="M905.4 604l-4.1-1c-.7-.2-1.5.3-1.7 1-.9 3.6-1.9 7.1-2.9 10.7-.2.7.2 1.5.9 1.7l4 1.2c.7.2 1.5-.2 1.7-.9 1-3.6 2.1-7.2 3-10.9.3-.8-.1-1.6-.9-1.8z" id="path157" fill="#adb8bc"/><path class="st0" d="M910.2 583.5l-4.1-.8c-.8-.2-1.5.3-1.6 1.1-.7 3.6-1.6 7.2-2.4 10.8-.2.7.3 1.5 1 1.7l4.1 1c.8.2 1.5-.3 1.7-1 .9-3.6 1.7-7.3 2.4-11 .1-.9-.4-1.6-1.1-1.8z" id="path159" fill="#adb8bc"/><path class="st0" d="M916.5 542l-4.2-.4c-.8-.1-1.4.5-1.5 1.2-.4 3.7-.8 7.3-1.3 11-.1.8.4 1.5 1.2 1.6l4.2.6c.8.1 1.5-.4 1.6-1.2.5-3.7.9-7.5 1.3-11.2 0-.9-.5-1.5-1.3-1.6z" id="path161" fill="#adb8bc"/><path class="st0" d="M243.2 815.9c-.6-.5-1.5-.4-2 .2l-2.7 3.2c-.5.6-.4 1.5.2 2 2.9 2.4 5.8 4.8 8.8 7.1.6.5 1.5.4 2-.2l2.6-3.3c.5-.6.4-1.5-.2-2-3-2.3-5.9-4.6-8.7-7z" id="path163" fill="#adb8bc"/><path class="st0" d="M918.1 521l-4.2-.2c-.8 0-1.4.5-1.5 1.3-.2 3.7-.4 7.4-.7 11-.1.8.5 1.4 1.3 1.5l4.2.3c.8.1 1.5-.5 1.5-1.3.3-3.7.5-7.5.7-11.2 0-.7-.6-1.3-1.3-1.4z" id="path165" fill="#adb8bc"/><path class="st0" d="M913 499.5v.5c0 4.1-.1 8.3-.2 12.4 0 .8.6 1.4 1.3 1.4l4.2.1c.8 0 1.4-.6 1.4-1.4.1-4.2.2-8.5.2-12.7v-.5H913z" id="path167" fill="#adb8bc"/><path class="st0" d="M840.7 734.9c-.6-.4-1.5-.3-1.9.3-2.1 3-4.3 6-6.5 9-.5.6-.3 1.5.3 1.9l3.4 2.5c.6.5 1.5.3 2-.3 2.2-3 4.5-6.1 6.6-9.1.4-.6.3-1.5-.3-2l-3.6-2.3z" id="path169" fill="#adb8bc"/><path class="st0" d="M855.7 719.7l-3.6-2.2c-.7-.4-1.5-.2-1.9.4l-6 9.3c-.4.6-.3 1.5.4 1.9l3.5 2.3c.6.4 1.5.3 1.9-.4 2.1-3.1 4.1-6.3 6.1-9.5.5-.5.3-1.4-.4-1.8z" id="path171" fill="#adb8bc"/><path class="st0" d="M828.3 751.6c-.6-.5-1.5-.4-2 .2-2.3 2.9-4.6 5.8-6.9 8.6-.5.6-.4 1.5.2 2l3.2 2.7c.6.5 1.5.4 2-.2 2.4-2.9 4.8-5.8 7.1-8.8.5-.6.4-1.5-.2-2l-3.4-2.5z" id="path173" fill="#adb8bc"/><path class="st0" d="M866.4 701.6l-3.7-2c-.7-.4-1.5-.1-1.9.5-1.8 3.2-3.7 6.4-5.5 9.6-.4.7-.2 1.5.5 1.9l3.6 2.2c.7.4 1.5.2 1.9-.5 1.9-3.2 3.8-6.5 5.7-9.8.3-.7.1-1.5-.6-1.9z" id="path175" fill="#adb8bc"/><path class="st0" d="M885 663.8l-3.9-1.7c-.7-.3-1.5 0-1.8.7-1.5 3.4-3 6.8-4.5 10.1-.3.7 0 1.5.7 1.9l3.8 1.8c.7.3 1.5 0 1.9-.7 1.6-3.4 3.1-6.9 4.6-10.3.3-.7-.1-1.5-.8-1.8z" id="path177" fill="#adb8bc"/><path class="st0" d="M876.2 682.9l-3.8-1.8c-.7-.3-1.5-.1-1.9.6-1.6 3.3-3.3 6.6-5.1 9.9-.4.7-.1 1.5.6 1.9l3.7 2c.7.4 1.5.1 1.9-.6 1.8-3.3 3.5-6.7 5.2-10 .4-.8.1-1.6-.6-2z" id="path179" fill="#adb8bc"/><path class="st0" d="M892.8 644.2l-3.9-1.5c-.7-.3-1.5.1-1.8.8-1.3 3.4-2.6 6.9-4 10.3-.3.7.1 1.5.8 1.8l3.9 1.6c.7.3 1.5 0 1.8-.8 1.4-3.5 2.8-7 4.1-10.5.2-.6-.1-1.4-.9-1.7z" id="path181" fill="#adb8bc"/><path class="st0" d="M815.1 767.8c-.6-.5-1.5-.4-2 .1-2.4 2.8-4.9 5.5-7.3 8.3-.5.6-.5 1.4.1 2l3.1 2.8c.6.5 1.5.5 2-.1l7.5-8.4c.5-.6.4-1.5-.1-2l-3.3-2.7z" id="path183" fill="#adb8bc"/><path class="st0" d="M340.8 875.8c-3.4-1.5-6.8-3-10.1-4.5-.7-.3-1.5 0-1.9.7l-1.8 3.8c-.3.7 0 1.5.7 1.9 3.4 1.6 6.9 3.1 10.3 4.6.7.3 1.5 0 1.8-.7l1.7-3.9c.4-.8.1-1.6-.7-1.9z" id="path185" fill="#adb8bc"/><path class="st0" d="M322 867c-3.3-1.6-6.6-3.3-9.9-5.1-.7-.4-1.5-.1-1.9.6l-2 3.7c-.4.7-.1 1.5.6 1.9 3.3 1.8 6.7 3.5 10 5.2.7.3 1.5.1 1.9-.6l1.8-3.8c.5-.7.2-1.5-.5-1.9z" id="path187" fill="#adb8bc"/><path class="st0" d="M334.9 125.3l-1.7-3.8c-.3-.7-1.1-1-1.9-.7-3.4 1.5-6.8 3.1-10.2 4.8-.7.3-1 1.2-.6 1.9l1.9 3.8c.3.7 1.2 1 1.9.6 3.3-1.6 6.6-3.2 10-4.7.6-.4.9-1.2.6-1.9z" id="path189" fill="#adb8bc"/><path class="st0" d="M354.1 117.2l-1.5-3.9c-.3-.7-1.1-1.1-1.8-.8-3.5 1.4-7 2.8-10.4 4.3-.7.3-1 1.1-.7 1.8l1.7 3.9c.3.7 1.1 1 1.8.7l10.2-4.2c.6-.2.9-1 .7-1.8z" id="path191" fill="#adb8bc"/><path class="st0" d="M379.8 890.4c-3.5-1.1-7-2.3-10.5-3.5-.7-.3-1.5.1-1.8.9l-1.4 4c-.3.7.1 1.5.9 1.8 3.6 1.2 7.2 2.4 10.7 3.6.7.2 1.5-.2 1.8-.9l1.3-4c.1-.9-.3-1.7-1-1.9z" id="path193" fill="#adb8bc"/><path class="st0" d="M360.1 883.6c-3.4-1.3-6.9-2.6-10.3-4-.7-.3-1.5.1-1.8.8l-1.6 3.9c-.3.7 0 1.5.8 1.8 3.5 1.4 7 2.8 10.5 4.1.7.3 1.5-.1 1.8-.8l1.5-3.9c.2-.8-.1-1.6-.9-1.9z" id="path195" fill="#adb8bc"/><path class="st0" d="M373.6 110.2l-1.3-4c-.2-.7-1-1.1-1.8-.9-3.6 1.2-7.1 2.5-10.6 3.7-.7.3-1.1 1.1-.8 1.8l1.5 3.9c.3.7 1.1 1.1 1.8.8 3.4-1.3 6.9-2.5 10.4-3.7.7-.1 1.1-.9.8-1.6z" id="path197" fill="#adb8bc"/><path class="st0" d="M280.3 155.1l-2.3-3.5c-.4-.6-1.3-.8-1.9-.4-3.1 2-6.3 4.2-9.3 6.3-.6.4-.8 1.3-.3 2l2.4 3.4c.4.6 1.3.8 1.9.3 3-2.1 6.1-4.2 9.2-6.2.5-.4.7-1.3.3-1.9z" id="path199" fill="#adb8bc"/><path class="st0" d="M543.7 907.5c-3.7.4-7.3.7-11 .9-.8.1-1.3.7-1.3 1.5l.3 4.2c.1.8.7 1.4 1.5 1.3 3.7-.3 7.5-.6 11.2-.9.8-.1 1.3-.8 1.3-1.5l-.4-4.2c-.1-.8-.8-1.4-1.6-1.3z" id="path201" fill="#adb8bc"/><path class="st0" d="M259.5 828.7c-.6-.5-1.5-.3-1.9.3l-2.5 3.4c-.5.6-.3 1.5.3 2 3 2.2 6.1 4.5 9.1 6.6.6.4 1.5.3 2-.3l2.4-3.4c.4-.6.3-1.5-.3-1.9-3.1-2.3-6.1-4.5-9.1-6.7z" id="path203" fill="#adb8bc"/><path class="st0" d="M263.2 166.8l-2.5-3.4c-.5-.6-1.3-.8-2-.3-3 2.2-6 4.5-9 6.7-.6.5-.7 1.4-.2 2l2.6 3.3c.5.6 1.3.7 2 .3 2.9-2.2 5.9-4.5 8.8-6.6.6-.5.7-1.3.3-2z" id="path205" fill="#adb8bc"/><path class="st0" d="M393.5 104.1l-1.1-4c-.2-.7-1-1.2-1.7-1-3.6 1-7.2 2.1-10.8 3.2-.7.2-1.1 1-.9 1.8l1.3 4c.2.7 1 1.1 1.7.9 3.5-1.1 7.1-2.1 10.6-3.1.7-.3 1.1-1.1.9-1.8z" id="path207" fill="#adb8bc"/><path class="st0" d="M303.6 857.3c-3.2-1.8-6.4-3.7-9.6-5.5-.7-.4-1.5-.2-1.9.5l-2.2 3.6c-.4.7-.2 1.5.5 1.9 3.2 1.9 6.5 3.8 9.8 5.7.7.4 1.5.1 1.9-.5l2-3.7c.4-.7.2-1.6-.5-2z" id="path209" fill="#adb8bc"/><path class="st0" d="M298 144.2l-2.1-3.6c-.4-.7-1.2-.9-1.9-.5-3.2 1.9-6.5 3.8-9.6 5.8-.7.4-.9 1.3-.4 1.9l2.2 3.6c.4.7 1.3.9 1.9.4 3.1-1.9 6.3-3.8 9.4-5.7.7-.3.9-1.2.5-1.9z" id="path211" fill="#adb8bc"/><path class="st0" d="M285.8 846.7l-9.3-6c-.6-.4-1.5-.3-1.9.4l-2.3 3.5c-.4.6-.3 1.5.4 1.9 3.1 2.1 6.3 4.1 9.5 6.1.7.4 1.5.2 1.9-.4l2.2-3.6c.3-.6.1-1.5-.5-1.9z" id="path213" fill="#adb8bc"/><path class="st0" d="M316.2 134.3l-1.9-3.7c-.4-.7-1.2-1-1.9-.6-3.3 1.7-6.6 3.5-9.9 5.3-.7.4-.9 1.2-.5 1.9l2 3.7c.4.7 1.2.9 1.9.5 3.2-1.8 6.5-3.5 9.7-5.2.7-.4 1-1.2.6-1.9z" id="path215" fill="#adb8bc"/><path class="st0" d="M481.6 908.8c-3.7-.2-7.4-.4-11-.7-.8-.1-1.4.5-1.5 1.3l-.3 4.2c-.1.8.5 1.5 1.3 1.5 3.7.3 7.5.5 11.2.7.8 0 1.4-.6 1.5-1.3l.2-4.2c-.1-.8-.7-1.4-1.4-1.5z" id="path217" fill="#adb8bc"/><path class="st0" d="M399.7 896.1c-3.6-.9-7.1-1.9-10.7-2.9-.7-.2-1.5.2-1.7.9l-1.2 4c-.2.7.2 1.5.9 1.7 3.6 1 7.2 2 10.9 3 .7.2 1.5-.3 1.7-1l1-4.1c.3-.6-.1-1.4-.9-1.6z" id="path219" fill="#adb8bc"/><path class="st0" d="M523.1 909c-3.7.2-7.4.3-11 .4-.8 0-1.4.6-1.4 1.4l.1 4.2c0 .8.7 1.4 1.4 1.4 3.7-.1 7.5-.2 11.3-.4.8 0 1.4-.7 1.3-1.5l-.2-4.2c-.1-.8-.8-1.4-1.5-1.3z" id="path221" fill="#adb8bc"/><path class="st0" d="M491.3 909.2c-.8 0-1.4.6-1.4 1.3l-.1 4.2c0 .8.6 1.4 1.4 1.4 4.1.1 8.3.2 12.5.2h.1v-7h-.1c-4.2.1-8.3.1-12.4-.1z" id="path223" fill="#adb8bc"/><path class="st0" d="M460.9 907.2c-3.7-.4-7.3-.8-11-1.3-.8-.1-1.5.4-1.6 1.2l-.6 4.2c-.1.8.4 1.5 1.2 1.6 3.7.5 7.5.9 11.2 1.3.8.1 1.5-.5 1.5-1.3l.4-4.2c.2-.7-.3-1.4-1.1-1.5z" id="path225" fill="#adb8bc"/><path class="st0" d="M419.9 900.9c-3.6-.7-7.2-1.5-10.8-2.4-.7-.2-1.5.3-1.7 1l-1 4.1c-.2.8.3 1.5 1 1.7 3.6.9 7.3 1.7 11 2.4.8.2 1.5-.3 1.7-1.1l.8-4.1c.3-.7-.2-1.5-1-1.6z" id="path227" fill="#adb8bc"/><path class="st0" d="M440.3 904.6c-3.6-.6-7.3-1.2-10.9-1.8-.8-.1-1.5.4-1.6 1.1l-.8 4.1c-.1.8.4 1.5 1.1 1.6 3.7.7 7.4 1.3 11.1 1.9.8.1 1.5-.4 1.6-1.2l.6-4.1c.2-.8-.3-1.5-1.1-1.6z" id="path229" fill="#adb8bc"/><path class="st1" d="M464.3 777.9l-75.1-43.4c-2.1-1.2-4.7.3-4.7 2.7V824c0 2.4 2.6 3.9 4.7 2.7l75.1-43.4c2.1-1.2 2.1-4.2 0-5.4z" id="path231" fill="#c7ecff"/><path class="st1" d="M243.5 750.5V699h-20.6v52.5c0 21.2 17.2 38.3 38.3 38.3h140.2v-20.6H262.2c-10.3 0-18.7-8.4-18.7-18.7z" id="path233" fill="#c7ecff"/><path class="st0" d="M674.1 875.8c3.4-1.5 6.8-3 10.1-4.5.7-.3 1.5 0 1.9.7l1.8 3.8c.3.7 0 1.5-.7 1.9-3.4 1.6-6.9 3.1-10.3 4.6-.7.3-1.5 0-1.8-.7l-1.7-3.9c-.3-.8 0-1.6.7-1.9z" id="path235" fill="#adb8bc"/><path class="st0" d="M693 867c3.3-1.6 6.6-3.3 9.9-5.1.7-.4 1.5-.1 1.9.6l2 3.7c.4.7.1 1.5-.6 1.9-3.3 1.8-6.7 3.5-10 5.2-.7.3-1.5.1-1.9-.6l-1.8-3.8c-.5-.7-.2-1.5.5-1.9z" id="path237" fill="#adb8bc"/><path class="st1" d="M550.6 777.9l75.1-43.4c2.1-1.2 4.7.3 4.7 2.7V824c0 2.4-2.6 3.9-4.7 2.7l-75.1-43.4c-2-1.2-2-4.2 0-5.4z" id="path239" fill="#c7ecff"/><path class="st1" d="M771.4 750.5V699H792v52.5c0 21.2-17.2 38.3-38.3 38.3H613.5v-20.6h139.3c10.3 0 18.6-8.4 18.6-18.7z" id="path241" fill="#c7ecff"/><path class="st1" d="M243.5 321.7v164.1h-20.6V320.7c0-21.2 17.2-38.3 38.3-38.3h72.7V303h-71.7c-10.3 0-18.7 8.3-18.7 18.7z" id="path243" fill="#c7ecff"/><path class="st1" d="M771.4 321.7v164.1H792V320.7c0-21.2-17.2-38.3-38.3-38.3H681V303h71.7c10.4 0 18.7 8.3 18.7 18.7z" id="path245" fill="#c7ecff"/></g><g id="Layer_7" transform="translate(-4.919 -5.403) scale(.05996)"><path class="st0" id="polygon248" fill="#adb8bc" d="M508.5 116.1l238.2 91.1L508 285l-238.7-77.8z"/><path class="st0" d="M367.8 250.7l140.7 43.6 138.8-44.6v60.6s-22.7 51.3-139.8 51.1c-117.1-.2-139.8-51.1-139.8-51.1v-59.6z" id="path250" fill="#adb8bc"/><path class="st0" d="M672.3 359.8c4.1-2.4 6.8-6.9 6.8-12 0-5.7-3.4-10.6-8.3-12.8v-93.2l-11.4 3.7V335c-4.9 2.2-8.3 7.1-8.3 12.8 0 4.8 2.4 9 6 11.5-4.3 2.5-7.2 7.1-7.2 12.4v87.1c0 7.9 6.4 14.3 14.3 14.3s14.3-6.4 14.3-14.3v-87.1c.1-4.9-2.4-9.3-6.2-11.9z" id="path252" fill="#adb8bc"/></g><g id="Layer_5" transform="translate(-4.919 -5.403) scale(.05996)"><circle class="st2" cx="440.1" cy="644.5" r="28.7" id="circle255" fill="#aa5263"/><circle class="st2" cx="226.7" cy="644.5" r="28.7" id="circle257" fill="#aa5263"/><path class="st2" d="M475.6 614.4l3.2-27.1c1.6-13.3 12.5-23.5 25.7-24l3.4-.2-68.1-3c-9.4-.5-18.1-5.7-22.5-14L404 522.3c-4.6-8.6-13.6-13.8-23.2-14l-123.3-2.2c-11.9-.2-22.5 7.5-26.3 18.7l-2.1 6.3c-3.8 11.6-14.8 19.2-27 18.7l-27.1-1.3c-15.4-.6-28.2 11.6-28.2 27.1v41.6c0 14.9 12.2 27.1 27.1 27.1h10c5.2 0 9.7-3.5 11.1-8.6 3.8-14.1 16.7-24.6 32.2-24.6 15.2 0 28.2 10.3 32.1 24.4 1.4 5.2 6 8.9 11.4 8.9h126.1c5.2 0 10-3.6 11.4-8.9 3.8-14 16.8-24.4 32.1-24.4s28.2 10.3 32.1 24.3c1.4 5.2 6.3 8.9 11.9 8.9h18c-15.9.2-28.6-13.7-26.7-29.9z" id="path259" fill="#aa5263"/><path class="st2" d="M840.9 548.7l-27.1 1.3c-12.2.5-23.2-7.1-27-18.7l-2.1-6.3c-3.8-11.3-14.4-18.9-26.3-18.7l-123.3 2.2c-9.5.2-18.6 5.4-23.2 14l-13.3 23.8c-4.4 8.3-13.2 13.5-22.5 14l-68.1 3 3.4.2c13.2.5 24.1 10.6 25.7 24l3.2 27.1c1.9 16.2-10.8 30.1-26.7 30.1h18c5.6 0 10.5-3.6 11.9-8.9 3.8-14 16.8-24.3 32.1-24.3s28.2 10.5 32.1 24.4c1.4 5.2 6.2 8.9 11.4 8.9h126.1c5.4 0 10-3.6 11.4-8.9 3.8-14.1 16.8-24.4 32.1-24.4 15.5 0 28.4 10.5 32.2 24.6 1.4 5.1 5.9 8.6 11.1 8.6h10c14.9 0 27.1-12.2 27.1-27.1V576c0-15.7-12.8-28-28.2-27.3z" id="path261" fill="#aa5263"/><path class="st2" d="M536.1 613l-2.8-23.6c-1.4-11.6-10.9-20.4-22.4-20.9l-3-.1-3 .1c-11.5.4-21 9.3-22.4 20.9l-2.8 23.6c-1.7 14.1 9.4 26.3 23.2 26.3h9.8c14 0 25-12.2 23.4-26.3z" id="path263" fill="#aa5263"/><circle class="st2" cx="575.8" cy="644.5" r="28.7" id="circle265" fill="#aa5263"/><circle class="st2" cx="789.2" cy="644.5" r="28.7" id="circle267" fill="#aa5263"/></g></svg>