<svg xmlns="http://www.w3.org/2000/svg" viewBox="0 0 50 50" id="svg2" width="50" height="50"><style id="style4">.st0{fill:#adb8bc}.st1{fill:#c6babd}.st2{fill:#ddd4d7}.st3{fill:#c7ecff}.st4{fill:#808384}.st5{fill:#aa5263}.st6{fill:#fff}</style><g id="Layer_3" transform="translate(-4.138 -3.288) scale(.05738)"><path class="st0" d="M90.6 458.3l4.2.4c.8.1 1.4-.5 1.5-1.2.4-3.7.8-7.3 1.3-11 .1-.8-.4-1.5-1.2-1.6l-4.2-.6c-.8-.1-1.5.4-1.6 1.2-.5 3.7-.9 7.5-1.3 11.2 0 .8.6 1.5 1.3 1.6z" id="path7" fill="#adb8bc"/><path class="st0" d="M89.1 479.2l4.2.2c.8 0 1.4-.6 1.5-1.3.2-3.7.4-7.4.7-11 .1-.8-.5-1.4-1.3-1.5l-4.2-.3c-.8-.1-1.5.5-1.5 1.3-.3 3.7-.5 7.5-.7 11.2-.1.7.5 1.4 1.3 1.4z" id="path9" fill="#adb8bc"/><path class="st0" d="M94.2 500c0-4 .1-8.1.2-12.2 0-.8-.6-1.4-1.3-1.4l-4.2-.1c-.8 0-1.4.6-1.4 1.4-.1 4.1-.2 8.3-.2 12.4v.3h7l-.1-.4z" id="path11" fill="#adb8bc"/><path class="st0" d="M97.5 562.5c.8-.1 1.3-.8 1.2-1.6-.5-3.6-1-7.3-1.5-10.9-.1-.8-.8-1.3-1.5-1.2l-4.2.5c-.8.1-1.3.8-1.2 1.6.5 3.7 1 7.5 1.5 11.2.1.8.8 1.3 1.6 1.2l4.1-.8z" id="path13" fill="#adb8bc"/><path class="st0" d="M90.7 542.2l4.2-.4c.8-.1 1.3-.8 1.2-1.5-.4-3.7-.7-7.3-.9-11-.1-.8-.7-1.3-1.5-1.3l-4.2.3c-.8.1-1.4.7-1.3 1.5.3 3.7.6 7.5.9 11.2.1.8.8 1.3 1.6 1.2z" id="path15" fill="#adb8bc"/><path class="st0" d="M93.3 521.1c.8 0 1.4-.7 1.3-1.5-.2-3.7-.3-7.4-.4-11 0-.8-.6-1.4-1.4-1.4l-4.2.1c-.8 0-1.4.7-1.4 1.4.1 3.7.2 7.5.4 11.3 0 .8.7 1.4 1.5 1.3l4.2-.2z" id="path17" fill="#adb8bc"/><path class="st0" d="M122 336.5l3.9 1.7c.7.3 1.5 0 1.8-.7 1.5-3.4 3-6.8 4.5-10.1.3-.7 0-1.5-.7-1.9l-3.8-1.8c-.7-.3-1.5 0-1.9.7-1.6 3.4-3.1 6.9-4.6 10.3-.2.6.1 1.5.8 1.8z" id="path19" fill="#adb8bc"/><path class="st0" d="M102.2 581.3c-.7-3.6-1.4-7.2-2-10.9-.1-.8-.8-1.3-1.6-1.1l-4.1.7c-.8.1-1.3.9-1.1 1.6.6 3.7 1.3 7.4 2.1 11.1.2.8.9 1.2 1.7 1.1l4.1-.8c.6-.2 1.1-.9.9-1.7z" id="path21" fill="#adb8bc"/><path class="st0" d="M130.8 317.3l3.8 1.8c.7.3 1.5.1 1.9-.6 1.6-3.3 3.3-6.6 5.1-9.9.4-.7.1-1.5-.6-1.9l-3.7-2c-.7-.4-1.5-.1-1.9.6-1.8 3.3-3.5 6.7-5.1 10-.4.8-.2 1.7.5 2z" id="path23" fill="#adb8bc"/><path class="st0" d="M114.2 356l3.9 1.5c.7.3 1.5-.1 1.8-.8 1.3-3.5 2.6-6.9 4-10.3.3-.7-.1-1.5-.8-1.8l-3.9-1.6c-.7-.3-1.5 0-1.8.8-1.4 3.5-2.8 7-4.1 10.5-.2.7.2 1.5.9 1.7z" id="path25" fill="#adb8bc"/><path class="st0" d="M96.9 416.7l4.1.8c.8.2 1.5-.3 1.6-1.1.7-3.6 1.5-7.2 2.4-10.8.2-.7-.3-1.5-1-1.7l-4.1-1c-.8-.2-1.5.3-1.7 1-.9 3.6-1.7 7.3-2.4 11-.1.9.4 1.7 1.1 1.8z" id="path27" fill="#adb8bc"/><path class="st0" d="M107.4 376l4 1.3c.7.2 1.5-.2 1.7-.9 1.1-3.5 2.3-7 3.5-10.5.3-.7-.1-1.5-.9-1.8l-4-1.4c-.7-.3-1.5.1-1.8.9-1.2 3.6-2.4 7.2-3.6 10.7 0 .7.4 1.5 1.1 1.7z" id="path29" fill="#adb8bc"/><path class="st0" d="M101.7 396.2l4.1 1c.7.2 1.5-.3 1.7-1 .9-3.6 1.9-7.1 2.9-10.7.2-.7-.2-1.5-.9-1.7l-4-1.2c-.7-.2-1.5.2-1.7.9-1 3.6-2 7.2-3 10.9-.3.9.1 1.6.9 1.8z" id="path31" fill="#adb8bc"/><path class="st0" d="M93.3 437.4l4.1.6c.8.1 1.5-.4 1.6-1.2.6-3.6 1.2-7.3 1.8-10.9.1-.8-.4-1.5-1.1-1.6l-4.1-.8c-.8-.1-1.5.4-1.6 1.1-.7 3.7-1.3 7.4-1.9 11.1-.1.9.4 1.6 1.2 1.7z" id="path33" fill="#adb8bc"/><path class="st0" d="M215.5 209.1c.5-.5.6-1.4 0-2l-2.9-3c-.5-.6-1.4-.6-2 0-2.7 2.6-5.3 5.3-7.9 8-.5.6-.5 1.4 0 2l3 2.9c.6.5 1.4.5 2 0 2.6-2.7 5.2-5.4 7.8-7.9z" id="path35" fill="#adb8bc"/><path class="st0" d="M246.6 179.5l-2.6-3.3c-.5-.6-1.4-.7-2-.2l-8.7 7.2c-.6.5-.7 1.4-.1 2l2.7 3.2c.5.6 1.4.7 2 .2 2.8-2.4 5.6-4.7 8.5-7.1.6-.6.7-1.4.2-2z" id="path37" fill="#adb8bc"/><path class="st0" d="M227.5 802.3c-.6-.5-1.4-.5-2 .1l-2.8 3.1c-.5.6-.5 1.5.1 2l8.4 7.5c.6.5 1.5.4 2-.1l2.7-3.2c.5-.6.4-1.5-.1-2-2.8-2.4-5.6-4.9-8.3-7.4z" id="path39" fill="#adb8bc"/><path class="st0" d="M230.6 194.8c.6-.5.6-1.4.1-2l-2.8-3.1c-.5-.6-1.4-.6-2-.1-2.8 2.5-5.6 5.1-8.3 7.6-.6.5-.6 1.4 0 2l2.9 3c.5.6 1.4.6 2 .1l8.1-7.5z" id="path41" fill="#adb8bc"/><path class="st0" d="M119.1 641.1c-1.3-3.4-2.5-6.9-3.7-10.4-.2-.7-1-1.1-1.8-.9l-4 1.3c-.7.2-1.1 1-.9 1.8 1.2 3.6 2.5 7.1 3.7 10.6.3.7 1.1 1.1 1.8.8l3.9-1.5c.9-.1 1.3-.9 1-1.7z" id="path43" fill="#adb8bc"/><path class="st0" d="M126.8 660.4l-4.2-10.2c-.3-.7-1.1-1.1-1.8-.8l-3.9 1.5c-.7.3-1.1 1.1-.8 1.8 1.4 3.5 2.8 7 4.3 10.4.3.7 1.1 1 1.8.7l3.9-1.7c.6-.2 1-1 .7-1.7z" id="path45" fill="#adb8bc"/><path class="st0" d="M112.5 621.5c-1.1-3.5-2.1-7.1-3.1-10.6-.2-.7-1-1.2-1.7-1l-4 1.1c-.7.2-1.2 1-1 1.7 1 3.6 2.1 7.2 3.2 10.8.2.7 1 1.1 1.8.9l4-1.3c.6-.1 1-.9.8-1.6z" id="path47" fill="#adb8bc"/><path class="st0" d="M144.9 697.5c-1.8-3.2-3.5-6.5-5.2-9.7-.4-.7-1.2-1-1.9-.6l-3.7 1.9c-.7.4-1 1.2-.6 1.9 1.7 3.3 3.5 6.6 5.3 9.9.4.7 1.2.9 1.9.5l3.7-2c.6-.3.9-1.2.5-1.9z" id="path49" fill="#adb8bc"/><path class="st0" d="M135.3 679.2c-1.6-3.3-3.2-6.6-4.7-10-.3-.7-1.1-1-1.8-.7l-3.8 1.7c-.7.3-1 1.1-.7 1.9 1.5 3.4 3.1 6.8 4.8 10.2.3.7 1.2 1 1.9.6l3.8-1.9c.6-.3.9-1.1.5-1.8z" id="path51" fill="#adb8bc"/><path class="st0" d="M106.8 601.5c-.9-3.6-1.8-7.2-2.6-10.7-.2-.8-.9-1.2-1.7-1.1l-4.1.9c-.8.2-1.2.9-1.1 1.7.8 3.7 1.7 7.3 2.6 10.9.2.8 1 1.2 1.7 1l4.1-1.1c.9-.1 1.3-.8 1.1-1.6z" id="path53" fill="#adb8bc"/><path class="st0" d="M880.3 339.4l4.2 10.2c.3.7 1.1 1.1 1.8.8l3.9-1.5c.7-.3 1.1-1.1.8-1.8-1.4-3.5-2.8-6.9-4.3-10.4-.3-.7-1.1-1-1.8-.7l-3.8 1.7c-.8.2-1.1 1-.8 1.7z" id="path55" fill="#adb8bc"/><path class="st0" d="M904.9 418.4c.7 3.6 1.4 7.2 2 10.9.1.8.8 1.3 1.6 1.1l4.1-.7c.8-.1 1.3-.9 1.1-1.6-.6-3.7-1.3-7.4-2.1-11.1-.2-.8-.9-1.2-1.7-1.1l-4.1.8c-.6.3-1.1 1-.9 1.7z" id="path57" fill="#adb8bc"/><path class="st0" d="M909.6 437.3c-.8.1-1.3.8-1.2 1.6.5 3.6 1 7.3 1.5 10.9.1.8.8 1.3 1.5 1.2l4.2-.5c.8-.1 1.3-.8 1.2-1.6-.5-3.7-1-7.5-1.5-11.2-.1-.8-.8-1.3-1.6-1.2l-4.1.8z" id="path59" fill="#adb8bc"/><path class="st0" d="M916.4 457.5l-4.2.4c-.8.1-1.3.8-1.2 1.5.4 3.6.7 7.3.9 11 .1.8.7 1.3 1.5 1.3l4.2-.3c.8-.1 1.4-.7 1.3-1.5-.3-3.7-.6-7.5-1-11.2 0-.7-.7-1.3-1.5-1.2z" id="path61" fill="#adb8bc"/><path class="st0" d="M913.8 478.7c-.8 0-1.4.7-1.3 1.5.2 3.7.3 7.4.4 11 0 .8.6 1.4 1.4 1.4l4.2-.1c.8 0 1.4-.7 1.4-1.4-.1-3.7-.2-7.5-.4-11.3 0-.8-.7-1.4-1.5-1.3l-4.2.2z" id="path63" fill="#adb8bc"/><path class="st0" d="M894.6 378.3c1.1 3.5 2.1 7.1 3.1 10.6.2.7 1 1.2 1.7 1l4-1.1c.7-.2 1.2-1 1-1.7-1-3.6-2.1-7.2-3.2-10.8-.2-.7-1-1.1-1.8-.9l-4 1.3c-.6.1-1 .8-.8 1.6z" id="path65" fill="#adb8bc"/><path class="st0" d="M808.6 226.9c.5.6 1.4.6 2 .1l3.1-2.8c.6-.5.6-1.4.1-2-2.5-2.8-5-5.6-7.6-8.3-.5-.6-1.4-.6-2 0l-3 2.9c-.6.5-.6 1.4-.1 2 2.6 2.7 5.1 5.4 7.5 8.1z" id="path67" fill="#adb8bc"/><path class="st0" d="M887.9 358.6c1.3 3.4 2.5 6.9 3.7 10.4.2.7 1 1.1 1.8.9l4-1.3c.7-.2 1.1-1 .9-1.8-1.2-3.6-2.5-7.1-3.7-10.6-.3-.7-1.1-1.1-1.8-.8l-3.9 1.5c-.9.2-1.2 1-1 1.7z" id="path69" fill="#adb8bc"/><path class="st0" d="M900.2 398.2c.9 3.6 1.8 7.2 2.6 10.7.2.8.9 1.2 1.7 1.1l4.1-.9c.8-.2 1.2-.9 1.1-1.7-.8-3.7-1.7-7.3-2.6-10.9-.2-.7-1-1.2-1.7-1l-4.1 1.1c-.8.1-1.2.9-1.1 1.6z" id="path71" fill="#adb8bc"/><path class="st0" d="M646.8 116.3c3.5 1.3 6.9 2.6 10.3 4 .7.3 1.5-.1 1.8-.8l1.6-3.9c.3-.7 0-1.5-.8-1.8-3.5-1.4-7-2.8-10.5-4.1-.7-.3-1.5.1-1.8.8l-1.5 3.9c-.2.9.2 1.6.9 1.9z" id="path73" fill="#adb8bc"/><path class="st0" d="M794.4 211.8c.5.5 1.4.6 2 0l3-2.9c.6-.5.6-1.4 0-2-2.6-2.7-5.3-5.3-8-7.9-.6-.5-1.4-.5-2 .1l-2.9 3c-.5.6-.5 1.4 0 2 2.7 2.5 5.3 5.1 7.9 7.7z" id="path75" fill="#adb8bc"/><path class="st0" d="M191.8 232.4c.6.5 1.5.4 2-.1 2.4-2.8 4.9-5.6 7.3-8.3.5-.6.5-1.4-.1-2l-3.1-2.8c-.6-.5-1.5-.5-2 .1l-7.5 8.4c-.5.6-.4 1.5.1 2l3.3 2.7z" id="path77" fill="#adb8bc"/><path class="st0" d="M666.1 124.1c3.4 1.5 6.8 3 10.1 4.5.7.3 1.5 0 1.8-.7l1.8-3.8c.3-.7 0-1.5-.7-1.9-3.4-1.6-6.9-3.1-10.3-4.6-.7-.3-1.5 0-1.8.7l-1.7 3.9c-.3.8.1 1.6.8 1.9z" id="path79" fill="#adb8bc"/><path class="st0" d="M747.4 171.1c.6.5 1.5.3 1.9-.3l2.5-3.4c.5-.6.3-1.5-.3-2-3-2.2-6.1-4.4-9.1-6.6-.6-.4-1.5-.3-2 .3l-2.4 3.4c-.4.6-.3 1.5.3 1.9 3.2 2.3 6.2 4.5 9.1 6.7z" id="path81" fill="#adb8bc"/><path class="st0" d="M779.5 197.5c.6.5 1.4.5 2-.1l2.8-3.1c.5-.6.5-1.5-.1-2l-8.4-7.5c-.6-.5-1.5-.4-2 .2l-2.7 3.2c-.5.6-.4 1.5.1 2 2.8 2.3 5.6 4.8 8.3 7.3z" id="path83" fill="#adb8bc"/><path class="st0" d="M763.8 183.9c.6.5 1.5.4 2-.2l2.7-3.2c.5-.6.4-1.5-.2-2-2.9-2.4-5.8-4.8-8.8-7-.6-.5-1.5-.4-2 .2l-2.6 3.3c-.5.6-.4 1.5.2 2 3 2.2 5.8 4.5 8.7 6.9z" id="path85" fill="#adb8bc"/><path class="st0" d="M703.3 142.5c3.2 1.8 6.4 3.7 9.6 5.5.7.4 1.5.2 1.9-.5l2.2-3.6c.4-.7.2-1.5-.5-1.9-3.2-1.9-6.5-3.8-9.8-5.6-.7-.4-1.5-.1-1.9.5l-2 3.7c-.4.7-.2 1.5.5 1.9z" id="path87" fill="#adb8bc"/><path class="st0" d="M684.9 132.8c3.3 1.6 6.6 3.3 9.9 5 .7.4 1.5.1 1.9-.6l2-3.7c.4-.7.1-1.5-.6-1.9-3.3-1.8-6.7-3.5-10-5.1-.7-.3-1.5-.1-1.9.6l-1.8 3.8c-.4.8-.2 1.6.5 1.9z" id="path89" fill="#adb8bc"/><path class="st0" d="M721.2 153.1l9.3 6c.6.4 1.5.3 1.9-.4l2.3-3.5c.4-.6.3-1.5-.4-1.9-3.1-2.1-6.3-4.1-9.5-6.1-.7-.4-1.5-.2-1.9.4l-2.2 3.6c-.4.7-.2 1.5.5 1.9z" id="path91" fill="#adb8bc"/><path class="st0" d="M684.5 868.9c-.3-.7-1.2-1-1.9-.6-3.3 1.6-6.6 3.2-10 4.7-.7.3-1 1.1-.7 1.8l1.7 3.8c.3.7 1.1 1 1.9.7 3.4-1.5 6.8-3.1 10.2-4.8.7-.3 1-1.2.6-1.9l-1.8-3.7z" id="path93" fill="#adb8bc"/><path class="st0" d="M720.8 848.7c-.4-.7-1.3-.9-1.9-.4-3.1 1.9-6.3 3.8-9.5 5.7-.7.4-.9 1.2-.5 1.9l2.1 3.6c.4.7 1.2.9 1.9.5 3.2-1.9 6.5-3.8 9.6-5.8.7-.4.9-1.3.4-1.9l-2.1-3.6z" id="path95" fill="#adb8bc"/><path class="st0" d="M702.9 859.3c-.4-.7-1.2-.9-1.9-.5-3.2 1.8-6.5 3.5-9.7 5.2-.7.4-1 1.2-.6 1.9l1.9 3.7c.4.7 1.2 1 1.9.6 3.3-1.7 6.6-3.5 9.9-5.3.7-.4.9-1.2.5-1.9l-2-3.7z" id="path97" fill="#adb8bc"/><path class="st0" d="M738.1 837.3c-.4-.6-1.3-.8-1.9-.3-3 2.1-6.1 4.2-9.2 6.2-.6.4-.8 1.3-.4 1.9l2.3 3.5c.4.6 1.3.8 1.9.4 3.1-2 6.3-4.1 9.3-6.3.6-.4.8-1.3.3-2l-2.3-3.4z" id="path99" fill="#adb8bc"/><path class="st0" d="M786.5 797.9c-.5-.6-1.4-.6-2-.1l-8.1 7.5c-.6.5-.6 1.4-.1 2l2.8 3.1c.5.6 1.4.6 2 .1 2.8-2.5 5.6-5 8.3-7.6.6-.5.6-1.4.1-2l-3-3z" id="path101" fill="#adb8bc"/><path class="st0" d="M754.9 825c-.5-.6-1.3-.7-2-.3-2.9 2.2-5.9 4.5-8.8 6.6-.6.5-.8 1.3-.3 1.9l2.5 3.4c.5.6 1.3.8 2 .3 3-2.2 6-4.5 9-6.7.6-.5.7-1.4.3-2l-2.7-3.2z" id="path103" fill="#adb8bc"/><path class="st0" d="M771 811.8c-.5-.6-1.4-.7-2-.2-2.8 2.4-5.6 4.7-8.5 7.1-.6.5-.7 1.4-.2 2l2.6 3.3c.5.6 1.4.7 2 .2 2.9-2.3 5.8-4.8 8.7-7.2.6-.5.7-1.4.2-2l-2.8-3.2z" id="path105" fill="#adb8bc"/><path class="st0" d="M586.4 902.5c-.2-.8-.9-1.2-1.6-1.1-3.6.7-7.2 1.4-10.9 2-.8.1-1.3.8-1.1 1.6l.7 4.1c.1.8.9 1.3 1.6 1.1 3.7-.6 7.4-1.3 11.1-2.1.8-.2 1.2-.9 1.1-1.7l-.9-3.9z" id="path107" fill="#adb8bc"/><path class="st0" d="M665.7 877.6c-.3-.7-1.1-1-1.8-.7l-10.2 4.2c-.7.3-1.1 1.1-.8 1.8l1.5 3.9c.3.7 1.1 1.1 1.8.8 3.5-1.4 6.9-2.8 10.4-4.3.7-.3 1-1.1.7-1.8l-1.6-3.9z" id="path109" fill="#adb8bc"/><path class="st0" d="M565.9 906.1c-.1-.8-.8-1.3-1.6-1.2-3.6.5-7.3 1-10.9 1.5-.8.1-1.3.8-1.2 1.5l.5 4.2c.1.8.8 1.3 1.6 1.2 3.7-.5 7.5-1 11.2-1.5.8-.1 1.3-.8 1.2-1.6l-.8-4.1z" id="path111" fill="#adb8bc"/><path class="st0" d="M646.4 885.3c-.3-.7-1.1-1.1-1.8-.8-3.4 1.3-6.9 2.5-10.4 3.7-.7.2-1.1 1-.9 1.8l1.3 4c.2.7 1 1.1 1.8.9 3.6-1.2 7.1-2.4 10.6-3.7.7-.3 1.1-1.1.8-1.8l-1.4-4.1z" id="path113" fill="#adb8bc"/><path class="st0" d="M606.7 897.8c-.2-.7-.9-1.2-1.7-1-3.6.9-7.2 1.8-10.7 2.6-.8.2-1.2.9-1.1 1.7l.9 4.1c.2.8.9 1.2 1.7 1.1 3.7-.8 7.3-1.7 11-2.6.8-.2 1.2-1 1-1.7l-1.1-4.2z" id="path115" fill="#adb8bc"/><path class="st0" d="M626.7 892c-.2-.7-1-1.1-1.7-.9-3.5 1.1-7.1 2.1-10.6 3.1-.7.2-1.2 1-1 1.7l1.1 4c.2.7 1 1.2 1.7 1 3.6-1 7.2-2.1 10.8-3.2.7-.2 1.1-1 .9-1.8l-1.2-3.9z" id="path117" fill="#adb8bc"/><path class="st0" d="M913.9 562.8l-4.1-.6c-.8-.1-1.5.4-1.6 1.2-.6 3.6-1.2 7.3-1.8 10.9-.1.8.4 1.5 1.1 1.6l4.1.8c.8.1 1.5-.4 1.6-1.1.7-3.7 1.3-7.4 1.9-11.1 0-.8-.5-1.6-1.2-1.7z" id="path119" fill="#adb8bc"/><path class="st0" d="M899.7 624.2l-4-1.3c-.7-.2-1.5.2-1.7.9-1.1 3.5-2.3 7-3.5 10.5-.3.7.1 1.5.9 1.8l4 1.4c.7.3 1.5-.1 1.8-.9 1.2-3.6 2.4-7.2 3.6-10.7 0-.6-.4-1.4-1.1-1.7z" id="path121" fill="#adb8bc"/><path class="st0" d="M905.4 604l-4.1-1c-.7-.2-1.5.3-1.7 1-.9 3.6-1.9 7.1-2.9 10.7-.2.7.2 1.5.9 1.7l4 1.2c.7.2 1.5-.2 1.7-.9 1-3.6 2.1-7.2 3-10.9.3-.8-.1-1.6-.9-1.8z" id="path123" fill="#adb8bc"/><path class="st0" d="M910.2 583.5l-4.1-.8c-.8-.2-1.5.3-1.6 1.1-.7 3.6-1.6 7.2-2.4 10.8-.2.7.3 1.5 1 1.7l4.1 1c.8.2 1.5-.3 1.7-1 .9-3.6 1.7-7.3 2.4-11 .1-.9-.4-1.6-1.1-1.8z" id="path125" fill="#adb8bc"/><path class="st0" d="M916.5 542l-4.2-.4c-.8-.1-1.4.5-1.5 1.2-.4 3.7-.8 7.3-1.3 11-.1.8.4 1.5 1.2 1.6l4.2.6c.8.1 1.5-.4 1.6-1.2.5-3.7.9-7.5 1.3-11.2 0-.9-.5-1.5-1.3-1.6z" id="path127" fill="#adb8bc"/><path class="st0" d="M243.2 815.9c-.6-.5-1.5-.4-2 .2l-2.7 3.2c-.5.6-.4 1.5.2 2 2.9 2.4 5.8 4.8 8.8 7.1.6.5 1.5.4 2-.2l2.6-3.3c.5-.6.4-1.5-.2-2-3-2.3-5.9-4.6-8.7-7z" id="path129" fill="#adb8bc"/><path class="st0" d="M918.1 521l-4.2-.2c-.8 0-1.4.5-1.5 1.3-.2 3.7-.4 7.4-.7 11-.1.8.5 1.4 1.3 1.5l4.2.3c.8.1 1.5-.5 1.5-1.3.3-3.7.5-7.5.7-11.2 0-.7-.6-1.3-1.3-1.4z" id="path131" fill="#adb8bc"/><path class="st0" d="M913 499.5v.5c0 4.1-.1 8.3-.2 12.4 0 .8.6 1.4 1.3 1.4l4.2.1c.8 0 1.4-.6 1.4-1.4.1-4.2.2-8.5.2-12.7v-.5H913v.2z" id="path133" fill="#adb8bc"/><path class="st0" d="M885 663.8l-3.9-1.7c-.7-.3-1.5 0-1.8.7-1.5 3.4-3 6.8-4.5 10.1-.3.7 0 1.5.7 1.9l3.8 1.8c.7.3 1.5 0 1.9-.7 1.6-3.4 3.1-6.9 4.6-10.3.3-.7-.1-1.5-.8-1.8z" id="path135" fill="#adb8bc"/><path class="st0" d="M892.8 644.2l-3.9-1.5c-.7-.3-1.5.1-1.8.8-1.3 3.4-2.6 6.9-4 10.3-.3.7.1 1.5.8 1.8l3.9 1.6c.7.3 1.5 0 1.8-.8 1.4-3.5 2.8-7 4.1-10.5.2-.6-.1-1.4-.9-1.7z" id="path137" fill="#adb8bc"/><path class="st0" d="M340.8 875.8c-3.4-1.5-6.8-3-10.1-4.5-.7-.3-1.5 0-1.9.7l-1.8 3.8c-.3.7 0 1.5.7 1.9 3.4 1.6 6.9 3.1 10.3 4.6.7.3 1.5 0 1.8-.7l1.7-3.9c.4-.8.1-1.6-.7-1.9z" id="path139" fill="#adb8bc"/><path class="st0" d="M322 867c-3.3-1.6-6.6-3.3-9.9-5.1-.7-.4-1.5-.1-1.9.6l-2 3.7c-.4.7-.1 1.5.6 1.9 3.3 1.8 6.7 3.5 10 5.2.7.3 1.5.1 1.9-.6l1.8-3.8c.5-.7.2-1.5-.5-1.9z" id="path141" fill="#adb8bc"/><path class="st0" d="M334.9 125.3l-1.7-3.8c-.3-.7-1.1-1-1.9-.7-3.4 1.5-6.8 3.1-10.2 4.8-.7.3-1 1.2-.6 1.9l1.9 3.8c.3.7 1.2 1 1.9.6 3.3-1.6 6.6-3.2 10-4.7.6-.4.9-1.2.6-1.9z" id="path143" fill="#adb8bc"/><path class="st0" d="M354.1 117.2l-1.5-3.9c-.3-.7-1.1-1.1-1.8-.8-3.5 1.4-7 2.8-10.4 4.3-.7.3-1 1.1-.7 1.8l1.7 3.9c.3.7 1.1 1 1.8.7l10.2-4.2c.6-.2.9-1 .7-1.8z" id="path145" fill="#adb8bc"/><path class="st0" d="M379.8 890.4c-3.5-1.1-7-2.3-10.5-3.5-.7-.3-1.5.1-1.8.9l-1.4 4c-.3.7.1 1.5.9 1.8 3.6 1.2 7.2 2.4 10.7 3.6.7.2 1.5-.2 1.8-.9l1.3-4c.1-.9-.3-1.7-1-1.9z" id="path147" fill="#adb8bc"/><path class="st0" d="M360.1 883.6c-3.4-1.3-6.9-2.6-10.3-4-.7-.3-1.5.1-1.8.8l-1.6 3.9c-.3.7 0 1.5.8 1.8 3.5 1.4 7 2.8 10.5 4.1.7.3 1.5-.1 1.8-.8l1.5-3.9c.2-.8-.1-1.6-.9-1.9z" id="path149" fill="#adb8bc"/><path class="st0" d="M373.6 110.2l-1.3-4c-.2-.7-1-1.1-1.8-.9-3.6 1.2-7.1 2.5-10.6 3.7-.7.3-1.1 1.1-.8 1.8l1.5 3.9c.3.7 1.1 1.1 1.8.8 3.4-1.3 6.9-2.5 10.4-3.7.7-.1 1.1-.9.8-1.6z" id="path151" fill="#adb8bc"/><path class="st0" d="M280.3 155.1l-2.3-3.5c-.4-.6-1.3-.8-1.9-.4-3.1 2-6.3 4.2-9.3 6.3-.6.4-.8 1.3-.3 2l2.4 3.4c.4.6 1.3.8 1.9.3 3-2.1 6.1-4.2 9.2-6.2.5-.4.7-1.3.3-1.9z" id="path153" fill="#adb8bc"/><path class="st0" d="M543.7 907.5c-3.7.4-7.3.7-11 .9-.8.1-1.3.7-1.3 1.5l.3 4.2c.1.8.7 1.4 1.5 1.3 3.7-.3 7.5-.6 11.2-.9.8-.1 1.3-.8 1.3-1.5l-.4-4.2c-.1-.8-.8-1.4-1.6-1.3z" id="path155" fill="#adb8bc"/><path class="st0" d="M259.5 828.7c-.6-.5-1.5-.3-1.9.3l-2.5 3.4c-.5.6-.3 1.5.3 2 3 2.2 6.1 4.5 9.1 6.6.6.4 1.5.3 2-.3l2.4-3.4c.4-.6.3-1.5-.3-1.9-3.1-2.3-6.1-4.5-9.1-6.7z" id="path157" fill="#adb8bc"/><path class="st0" d="M263.2 166.8l-2.5-3.4c-.5-.6-1.3-.8-2-.3-3 2.2-6 4.5-9 6.7-.6.5-.7 1.4-.2 2l2.6 3.3c.5.6 1.3.7 2 .3 2.9-2.2 5.9-4.5 8.8-6.6.6-.5.7-1.3.3-2z" id="path159" fill="#adb8bc"/><path class="st0" d="M393.5 104.1l-1.1-4c-.2-.7-1-1.2-1.7-1-3.6 1-7.2 2.1-10.8 3.2-.7.2-1.1 1-.9 1.8l1.3 4c.2.7 1 1.1 1.7.9 3.5-1.1 7.1-2.1 10.6-3.1.7-.3 1.1-1.1.9-1.8z" id="path161" fill="#adb8bc"/><path class="st0" d="M303.6 857.3c-3.2-1.8-6.4-3.7-9.6-5.5-.7-.4-1.5-.2-1.9.5l-2.2 3.6c-.4.7-.2 1.5.5 1.9 3.2 1.9 6.5 3.8 9.8 5.7.7.4 1.5.1 1.9-.5l2-3.7c.4-.7.2-1.6-.5-2z" id="path163" fill="#adb8bc"/><path class="st0" d="M298 144.2l-2.1-3.6c-.4-.7-1.2-.9-1.9-.5-3.2 1.9-6.5 3.8-9.6 5.8-.7.4-.9 1.3-.4 1.9l2.2 3.6c.4.7 1.3.9 1.9.4 3.1-1.9 6.3-3.8 9.4-5.7.7-.3.9-1.2.5-1.9z" id="path165" fill="#adb8bc"/><path class="st0" d="M285.8 846.7l-9.3-6c-.6-.4-1.5-.3-1.9.4l-2.3 3.5c-.4.6-.3 1.5.4 1.9 3.1 2.1 6.3 4.1 9.5 6.1.7.4 1.5.2 1.9-.4l2.2-3.6c.3-.6.1-1.5-.5-1.9z" id="path167" fill="#adb8bc"/><path class="st0" d="M316.2 134.3l-1.9-3.7c-.4-.7-1.2-1-1.9-.6-3.3 1.7-6.6 3.5-9.9 5.3-.7.4-.9 1.2-.5 1.9l2 3.7c.4.7 1.2.9 1.9.5 3.2-1.8 6.5-3.5 9.7-5.2.7-.4 1-1.2.6-1.9z" id="path169" fill="#adb8bc"/><path class="st0" d="M481.6 908.8c-3.7-.2-7.4-.4-11-.7-.8-.1-1.4.5-1.5 1.3l-.3 4.2c-.1.8.5 1.5 1.3 1.5 3.7.3 7.5.5 11.2.7.8 0 1.4-.6 1.5-1.3l.2-4.2c-.1-.8-.7-1.4-1.4-1.5z" id="path171" fill="#adb8bc"/><path class="st0" d="M399.7 896.1c-3.6-.9-7.1-1.9-10.7-2.9-.7-.2-1.5.2-1.7.9l-1.2 4c-.2.7.2 1.5.9 1.7 3.6 1 7.2 2 10.9 3 .7.2 1.5-.3 1.7-1l1-4.1c.3-.6-.1-1.4-.9-1.6z" id="path173" fill="#adb8bc"/><path class="st0" d="M523.1 909c-3.7.2-7.4.3-11 .4-.8 0-1.4.6-1.4 1.4l.1 4.2c0 .8.7 1.4 1.4 1.4 3.7-.1 7.5-.2 11.3-.4.8 0 1.4-.7 1.3-1.5l-.2-4.2c-.1-.8-.8-1.4-1.5-1.3z" id="path175" fill="#adb8bc"/><path class="st0" d="M491.3 909.2c-.8 0-1.4.6-1.4 1.3l-.1 4.2c0 .8.6 1.4 1.4 1.4 4.1.1 8.3.2 12.5.2h.1v-7h-.1c-4.2.1-8.3.1-12.4-.1z" id="path177" fill="#adb8bc"/><path class="st0" d="M460.9 907.2c-3.7-.4-7.3-.8-11-1.3-.8-.1-1.5.4-1.6 1.2l-.6 4.2c-.1.8.4 1.5 1.2 1.6 3.7.5 7.5.9 11.2 1.3.8.1 1.5-.5 1.5-1.3l.4-4.2c.2-.7-.3-1.4-1.1-1.5z" id="path179" fill="#adb8bc"/><path class="st0" d="M419.9 900.9c-3.6-.7-7.2-1.5-10.8-2.4-.7-.2-1.5.3-1.7 1l-1 4.1c-.2.8.3 1.5 1 1.7 3.6.9 7.3 1.7 11 2.4.8.2 1.5-.3 1.7-1.1l.8-4.1c.3-.7-.2-1.5-1-1.6z" id="path181" fill="#adb8bc"/><path class="st0" d="M440.3 904.6c-3.6-.6-7.3-1.2-10.9-1.8-.8-.1-1.5.4-1.6 1.1l-.8 4.1c-.1.8.4 1.5 1.1 1.6 3.7.7 7.4 1.3 11.1 1.9.8.1 1.5-.4 1.6-1.2l.6-4.1c.2-.8-.3-1.5-1.1-1.6z" id="path183" fill="#adb8bc"/><path class="st0" d="M617.3 106.5c.7.2 1.5-.2 1.7-.9l1.2-4c.2-.7-.2-1.5-.9-1.7-3.6-1-7.2-2.1-10.8-3-.7-.2-1.5.3-1.7 1l-1.1 4.1c-.2.7.3 1.5 1 1.7 3.5.8 7.1 1.8 10.6 2.8z" id="path185" fill="#adb8bc"/><path class="st0" d="M626.6 109.4c3.5 1.1 7 2.3 10.5 3.5.7.3 1.5-.1 1.8-.9l1.4-4c.3-.7-.1-1.5-.9-1.8-3.5-1.2-7.1-2.4-10.7-3.5-.7-.2-1.5.2-1.8.9l-1.3 4c-.2.7.2 1.5 1 1.8z" id="path187" fill="#adb8bc"/><path class="st0" d="M597.3 101.2c.7.2 1.5-.3 1.7-1l1-4.1c.2-.8-.3-1.5-1-1.7-3.6-.9-7.3-1.7-11-2.5-.8-.2-1.5.3-1.7 1.1l-.8 4.1c-.2.8.3 1.5 1.1 1.6 3.5.9 7.1 1.7 10.7 2.5z" id="path189" fill="#adb8bc"/><path class="st0" d="M401.2 102.8c3.6-.9 7.2-1.8 10.8-2.6.8-.2 1.2-.9 1.1-1.7l-.9-4.1c-.2-.8-.9-1.2-1.7-1.1-3.7.8-7.3 1.7-11 2.6-.7.2-1.2 1-1 1.7l1.1 4.1c.1.8.9 1.3 1.6 1.1z" id="path191" fill="#adb8bc"/><path class="st0" d="M577 97c.8.1 1.5-.4 1.6-1.1l.8-4.1c.1-.8-.4-1.5-1.1-1.6-3.7-.7-7.4-1.3-11.1-1.9-.8-.1-1.5.4-1.6 1.2l-.6 4.1c-.1.8.4 1.5 1.2 1.6 3.5.5 7.2 1.1 10.8 1.8z" id="path193" fill="#adb8bc"/><path class="st0" d="M421.5 98.1c3.6-.7 7.3-1.4 10.9-2 .8-.1 1.3-.8 1.1-1.6l-.7-4.1c-.1-.8-.9-1.3-1.6-1.1-3.7.6-7.4 1.3-11.1 2.1-.8.2-1.2.9-1.1 1.7l.8 4.1c.2.6.9 1.1 1.7.9z" id="path195" fill="#adb8bc"/><path class="st0" d="M515.1 90.3c.8 0 1.4-.6 1.4-1.3l.1-4.2c0-.8-.6-1.4-1.4-1.4-3.7-.1-7.5-.2-11.3-.2-.8 0-1.4.6-1.4 1.4v4.2c0 .8.6 1.4 1.4 1.4 3.9-.1 7.6 0 11.2.1z" id="path197" fill="#adb8bc"/><path class="st0" d="M556.5 93.7c.8.1 1.5-.4 1.6-1.2l.6-4.2c.1-.8-.4-1.5-1.2-1.6-3.7-.5-7.5-.9-11.2-1.3-.8-.1-1.5.5-1.5 1.3l-.4 4.2c-.1.8.5 1.4 1.2 1.5 3.6.4 7.2.8 10.9 1.3z" id="path199" fill="#adb8bc"/><path class="st0" d="M535.9 91.5c.8.1 1.4-.5 1.5-1.3l.4-4.2c.1-.8-.5-1.5-1.3-1.5-3.7-.3-7.5-.6-11.2-.8-.8 0-1.4.6-1.5 1.3l-.2 4.2c0 .8.5 1.4 1.3 1.5 3.6.2 7.3.5 11 .8z" id="path201" fill="#adb8bc"/><path class="st0" d="M462.6 92c3.7-.4 7.4-.7 11-.9.8-.1 1.3-.7 1.3-1.5l-.3-4.2c-.1-.8-.7-1.4-1.5-1.3-3.7.3-7.5.6-11.2.9-.8.1-1.3.8-1.3 1.5l.4 4.2c.1.8.8 1.4 1.6 1.3z" id="path203" fill="#adb8bc"/><path class="st0" d="M442 94.6c3.6-.5 7.3-1 11-1.5.8-.1 1.3-.8 1.2-1.5l-.5-4.2c-.1-.8-.8-1.3-1.6-1.2-3.7.5-7.5 1-11.2 1.5-.8.1-1.3.8-1.2 1.6l.6 4.1c.2.8.9 1.3 1.7 1.2z" id="path205" fill="#adb8bc"/><path class="st0" d="M483.3 90.5c3.7-.2 7.4-.3 11.1-.4.8 0 1.4-.6 1.4-1.4l-.1-4.2c0-.8-.6-1.4-1.4-1.4-3.8.1-7.5.2-11.3.4-.8 0-1.4.7-1.3 1.5l.2 4.2c0 .8.6 1.4 1.4 1.3z" id="path207" fill="#adb8bc"/></g><g id="Layer_4" transform="translate(-4.138 -3.288) scale(.05738)"><g id="g210"><path class="st1" d="M510.8 803.6L481.3 793c-15.5-5.6-31.8-8.4-48.3-8.4H157.5V253.2h259.6c27.2 0 54 4.7 79.5 13.9l11.1 4 13.3-5.6c19.6-8.2 40.4-12.3 61.7-12.3h275.4v531.4H589.8c-18.8 0-37.2 3.3-54.8 10l-24.2 9zm-343.3-29.1h265.6c17.7 0 35 3 51.6 9l26 9.4 20.8-7.8c18.7-7 38.3-10.6 58.3-10.6H848V263.2H582.7c-20 0-39.4 3.9-57.8 11.6l-16.9 7-14.7-5.3c-24.5-8.8-50.1-13.3-76.2-13.3H167.5v511.3z" id="path212" fill="#c6babd"/></g><path class="st2" id="rect214" fill="#ddd4d7" d="M194.8 293.5h263v11.9h-263z"/><path class="st2" id="rect216" fill="#ddd4d7" d="M194.8 545.6h263v11.9h-263z"/><path class="st2" id="rect218" fill="#ddd4d7" d="M194.8 577.1h263V589h-263z"/><path class="st2" id="rect220" fill="#ddd4d7" d="M194.8 608.6h263v11.9h-263z"/><path class="st2" id="rect222" fill="#ddd4d7" d="M194.8 640.1h263V652h-263z"/><path class="st2" id="rect224" fill="#ddd4d7" d="M194.8 671.6h263v11.9h-263z"/><path class="st2" id="rect226" fill="#ddd4d7" d="M194.8 703.1h263V715h-263z"/><path class="st2" id="rect228" fill="#ddd4d7" d="M194.8 734.7h263v11.9h-263z"/><path class="st2" id="rect230" fill="#ddd4d7" d="M550.3 293.5h263v11.9h-263z"/><path class="st2" id="rect232" fill="#ddd4d7" d="M550.3 325h263v11.9h-263z"/><path class="st2" id="rect234" fill="#ddd4d7" d="M550.3 356.5h263v11.9h-263z"/><path class="st2" id="rect236" fill="#ddd4d7" d="M550.3 388h263v11.9h-263z"/><path class="st2" id="rect238" fill="#ddd4d7" d="M550.3 419.5h263v11.9h-263z"/><path class="st2" id="rect240" fill="#ddd4d7" d="M550.3 451h263v11.9h-263z"/><path class="st2" id="rect242" fill="#ddd4d7" d="M550.3 482.6h263v11.9h-263z"/><path class="st2" id="rect244" fill="#ddd4d7" d="M550.3 514.1h263V526h-263z"/><path class="st2" id="rect246" fill="#ddd4d7" d="M550.3 545.6h263v11.9h-263z"/><path class="st2" id="polygon248" fill="#ddd4d7" d="M705.7 589l-6-11.9h113.6V589z"/><path class="st2" id="polygon250" fill="#ddd4d7" d="M809.8 620.5l-16-11.9h19.5v11.9z"/><path class="st2" id="rect252" fill="#ddd4d7" d="M550.3 640.1h263V652h-263z"/><path class="st2" id="polygon254" fill="#ddd4d7" d="M752.3 715l6-11.9h55V715z"/><path class="st2" id="rect256" fill="#ddd4d7" d="M550.3 734.7h263v11.9h-263z"/><path class="st2" id="polygon258" fill="#ddd4d7" d="M550.3 715v-11.9h135.5l5 11.9z"/></g><g id="Layer_1" transform="translate(-4.138 -3.288) scale(.05738)"><path class="st3" d="M470.1 517.3H212.5c-9.7 0-17.5-7.8-17.5-17.5V346.9c0-9.7 7.8-17.5 17.5-17.5h257.6c9.7 0 17.5 7.8 17.5 17.5v152.8c0 9.7-7.8 17.6-17.5 17.6z" id="path261" fill="#c7ecff"/><path class="st4" d="M452.5 359.3H312.7c-2.7 0-4.8-2.2-4.8-4.8v-1c0-2.7 2.2-4.8 4.8-4.8h139.8c2.7 0 4.8 2.2 4.8 4.8v1c0 2.7-2.1 4.8-4.8 4.8z" id="path263" fill="#808384"/><path class="st4" d="M378.1 388.2h-32.9c-1.6 0-2.9-1.3-2.9-2.9v-1.1c0-1.6 1.3-2.9 2.9-2.9h32.9c1.6 0 2.9 1.3 2.9 2.9v1.1c0 1.6-1.3 2.9-2.9 2.9z" id="path265" fill="#808384"/><path class="st4" d="M378.1 402.5h-32.9c-1.6 0-2.9-1.3-2.9-2.9v-1.1c0-1.6 1.3-2.9 2.9-2.9h32.9c1.6 0 2.9 1.3 2.9 2.9v1.1c0 1.6-1.3 2.9-2.9 2.9z" id="path267" fill="#808384"/><path class="st4" d="M378.1 416.8h-32.9c-1.6 0-2.9-1.3-2.9-2.9v-1.1c0-1.6 1.3-2.9 2.9-2.9h32.9c1.6 0 2.9 1.3 2.9 2.9v1.1c0 1.6-1.3 2.9-2.9 2.9z" id="path269" fill="#808384"/><path class="st4" d="M387.3 453.2h-42.1c-1.6 0-2.9-1.3-2.9-2.9v-1.1c0-1.6 1.3-2.9 2.9-2.9h42.1c1.6 0 2.9 1.3 2.9 2.9v1.1c0 1.6-1.3 2.9-2.9 2.9z" id="path271" fill="#808384"/><path class="st4" d="M387.3 486.7h-42.1c-1.6 0-2.9-1.3-2.9-2.9v-1.1c0-1.6 1.3-2.9 2.9-2.9h42.1c1.6 0 2.9 1.3 2.9 2.9v1.1c0 1.6-1.3 2.9-2.9 2.9z" id="path273" fill="#808384"/><path class="st4" d="M468.6 453.2h-58.3c-1.6 0-2.9-1.3-2.9-2.9v-1.1c0-1.6 1.3-2.9 2.9-2.9h58.3c1.6 0 2.9 1.3 2.9 2.9v1.1c0 1.6-1.3 2.9-2.9 2.9z" id="path275" fill="#808384"/><path class="st5" d="M427.1 388.2h-32.9c-1.6 0-2.9-1.3-2.9-2.9v-1.1c0-1.6 1.3-2.9 2.9-2.9h32.9c1.6 0 2.9 1.3 2.9 2.9v1.1c0 1.6-1.3 2.9-2.9 2.9z" id="path277" fill="#aa5263"/><path class="st5" d="M427.1 402.5h-32.9c-1.6 0-2.9-1.3-2.9-2.9v-1.1c0-1.6 1.3-2.9 2.9-2.9h32.9c1.6 0 2.9 1.3 2.9 2.9v1.1c0 1.6-1.3 2.9-2.9 2.9z" id="path279" fill="#aa5263"/><path class="st5" d="M427.1 416.8h-32.9c-1.6 0-2.9-1.3-2.9-2.9v-1.1c0-1.6 1.3-2.9 2.9-2.9h32.9c1.6 0 2.9 1.3 2.9 2.9v1.1c0 1.6-1.3 2.9-2.9 2.9z" id="path281" fill="#aa5263"/><path class="st1" d="M291.1 461.6c-1.8-.9-6.3-9-6.8-10.8-.5-1.7.8-7.7 1-9.8.3-2.1 2.4-2.9 3.3-3.7.9-.8 3-10.9 3.5-14 .5-3.1-.5-3.6-1.2-4.5-.7-.9.1-4.3 1.3-9.6 1.2-5.2 1.4-10.1 0-12.3-1.4-2.2-.7-4.6-2-7.1s-4.5-3.8-6.8-5.1c-2.4-1.3-4.6-4.9-6.8-5.9s-8.5-.7-11-1.3c-2.5-.7-9.4 0-15.5 1.8-6 1.8-10.8 9.7-12 12.4-1.2 2.7-2.9 9.8-4.2 14.2-1.4 4.3.6 9.8 1.1 12.4.5 2.6-.7 3.3-1.1 5-.4 1.7 2.4 9.3 4.3 12.3s3 3.3 4.5 4.3 2 9.8 2 12.2c0 2.4-1.4 7.5-8.3 9.8-4.1 1.4-11 4.7-15.9 7.2v9.3c0 2.6 2.1 4.7 4.7 4.7h75.9c2.6 0 4.7-2.1 4.7-4.7v-12.1c-5.1-1.5-13.5-4.1-14.7-4.7z" id="path283" fill="#c6babd"/><path class="st6" d="M244.7 452.2c0-2.4-.4-11.2-2-12.2s-2.6-1.4-4.5-4.3-4.7-10.6-4.3-12.3c.4-1.7 1.6-2.5 1.1-5-.5-2.6-2.5-8.1-1.1-12.4 1.4-4.3 3-11.5 4.2-14.2 1.2-2.7 6-10.6 12-12.4 6-1.8 13-2.5 15.5-1.8s8.8.4 11 1.3c2.2.9 4.5 4.5 6.8 5.9 2.4 1.3 5.5 2.7 6.8 5.1 1.3 2.5.5 4.9 2 7.1 1.4 2.2 1.2 7.1 0 12.3-1.2 5.2-2 8.7-1.3 9.6.7.9 1.7 1.4 1.2 4.5s-2.6 13.2-3.5 14c-.9.8-3 1.6-3.3 3.7-.3 2.1-1.6 8.1-1 9.8.5 1.7 5 9.8 6.8 10.8 1.3.6 9.7 3.2 14.8 4.8v-88.6c0-2.6-2.1-4.7-4.7-4.7h-75.9c-2.6 0-4.7 2.1-4.7 4.7v91.4c5-2.5 11.9-5.8 15.9-7.2 6.9-2.5 8.2-7.6 8.2-9.9z" id="path285" fill="#fff"/><path class="st5" d="M816.3 668.1l-2.9-26c-1.5-12.7-12-22.4-24.7-23l-68.5-2.9c-9-.4-17.3-5.4-21.6-13.3L685.9 580c-4.4-8.2-13-13.2-22.2-13.3l-118.1-2.1c-11.4-.2-21.6 7.1-25.2 17.9l-2 6.1c-3.6 11.1-14.2 18.4-25.8 17.9l-26-1.2c-14.7-.6-27.1 11.1-27.1 25.9V671c0 14.3 11.7 25.9 25.9 25.9h9.5c5 0 9.3-3.4 10.6-8.2 3.6-13.6 16-23.6 30.8-23.6 14.6 0 27 9.9 30.7 23.4 1.3 5 5.7 8.5 10.9 8.5h120.8c5.1 0 9.5-3.5 10.9-8.5 3.7-13.5 16.1-23.4 30.7-23.4 14.6 0 27 9.8 30.7 23.3 1.3 5.1 6.1 8.6 11.4 8.6h28.1c15.6-.1 27.6-13.5 25.8-28.9z" id="path287" fill="#aa5263"/><circle class="st5" cx="720.4" cy="696.9" r="27.5" id="circle289" fill="#aa5263"/><circle class="st5" cx="515.9" cy="696.9" r="27.5" id="circle291" fill="#aa5263"/></g></svg>