<svg xmlns="http://www.w3.org/2000/svg" id="Layer_1" viewBox="0 0 50 50" width="50" height="50"><style id="style3">.st0{fill:#e9f1ff}.st1{fill:#70798d}</style><g id="Layer_3" transform="translate(-4.192 -2.887) scale(.05783)"><path class="st0" d="M90.6 458.3l4.2.4c.8.1 1.4-.5 1.5-1.2.4-3.7.8-7.3 1.3-11 .1-.8-.4-1.5-1.2-1.6l-4.2-.6c-.8-.1-1.5.4-1.6 1.2-.5 3.7-.9 7.5-1.3 11.2 0 .8.6 1.5 1.3 1.6z" id="path6" fill="#e9f1ff"/><path class="st0" d="M89.1 479.2l4.2.2c.8 0 1.4-.6 1.5-1.3.2-3.7.4-7.4.7-11 .1-.8-.5-1.4-1.3-1.5l-4.2-.3c-.8-.1-1.5.5-1.5 1.3-.3 3.7-.5 7.5-.7 11.2-.1.7.5 1.4 1.3 1.4z" id="path8" fill="#e9f1ff"/><path class="st0" d="M94.2 500c0-4 .1-8.1.2-12.2 0-.8-.6-1.4-1.3-1.4l-4.2-.1c-.8 0-1.4.6-1.4 1.4-.1 4.1-.2 8.3-.2 12.4v.3h7l-.1-.4z" id="path10" fill="#e9f1ff"/><path class="st0" d="M97.5 562.5c.8-.1 1.3-.8 1.2-1.6-.5-3.6-1-7.3-1.5-10.9-.1-.8-.8-1.3-1.5-1.2l-4.2.5c-.8.1-1.3.8-1.2 1.6.5 3.7 1 7.5 1.5 11.2.1.8.8 1.3 1.6 1.2l4.1-.8z" id="path12" fill="#e9f1ff"/><path class="st0" d="M90.7 542.2l4.2-.4c.8-.1 1.3-.8 1.2-1.5-.4-3.7-.7-7.3-.9-11-.1-.8-.7-1.3-1.5-1.3l-4.2.3c-.8.1-1.4.7-1.3 1.5.3 3.7.6 7.5.9 11.2.1.8.8 1.3 1.6 1.2z" id="path14" fill="#e9f1ff"/><path class="st0" d="M93.3 521.1c.8 0 1.4-.7 1.3-1.5-.2-3.7-.3-7.4-.4-11 0-.8-.6-1.4-1.4-1.4l-4.2.1c-.8 0-1.4.7-1.4 1.4.1 3.7.2 7.5.4 11.3 0 .8.7 1.4 1.5 1.3l4.2-.2z" id="path16" fill="#e9f1ff"/><path class="st0" d="M122 336.5l3.9 1.7c.7.3 1.5 0 1.8-.7 1.5-3.4 3-6.8 4.5-10.1.3-.7 0-1.5-.7-1.9l-3.8-1.8c-.7-.3-1.5 0-1.9.7-1.6 3.4-3.1 6.9-4.6 10.3-.2.6.1 1.5.8 1.8z" id="path18" fill="#e9f1ff"/><path class="st0" d="M102.2 581.3c-.7-3.6-1.4-7.2-2-10.9-.1-.8-.8-1.3-1.6-1.1l-4.1.7c-.8.1-1.3.9-1.1 1.6.6 3.7 1.3 7.4 2.1 11.1.2.8.9 1.2 1.7 1.1l4.1-.8c.6-.2 1.1-.9.9-1.7z" id="path20" fill="#e9f1ff"/><path class="st0" d="M130.8 317.3l3.8 1.8c.7.3 1.5.1 1.9-.6 1.6-3.3 3.3-6.6 5.1-9.9.4-.7.1-1.5-.6-1.9l-3.7-2c-.7-.4-1.5-.1-1.9.6-1.8 3.3-3.5 6.7-5.1 10-.4.8-.2 1.7.5 2z" id="path22" fill="#e9f1ff"/><path class="st0" d="M114.2 356l3.9 1.5c.7.3 1.5-.1 1.8-.8 1.3-3.5 2.6-6.9 4-10.3.3-.7-.1-1.5-.8-1.8l-3.9-1.6c-.7-.3-1.5 0-1.8.8-1.4 3.5-2.8 7-4.1 10.5-.2.7.2 1.5.9 1.7z" id="path24" fill="#e9f1ff"/><path class="st0" d="M96.9 416.7l4.1.8c.8.2 1.5-.3 1.6-1.1.7-3.6 1.5-7.2 2.4-10.8.2-.7-.3-1.5-1-1.7l-4.1-1c-.8-.2-1.5.3-1.7 1-.9 3.6-1.7 7.3-2.4 11-.1.9.4 1.7 1.1 1.8z" id="path26" fill="#e9f1ff"/><path class="st0" d="M107.4 376l4 1.3c.7.2 1.5-.2 1.7-.9 1.1-3.5 2.3-7 3.5-10.5.3-.7-.1-1.5-.9-1.8l-4-1.4c-.7-.3-1.5.1-1.8.9-1.2 3.6-2.4 7.2-3.6 10.7 0 .7.4 1.5 1.1 1.7z" id="path28" fill="#e9f1ff"/><path class="st0" d="M140.6 298.6l3.7 2c.7.4 1.5.1 1.9-.5 1.8-3.2 3.7-6.4 5.5-9.6.4-.7.2-1.5-.5-1.9l-3.6-2.2c-.7-.4-1.5-.2-1.9.5-1.9 3.2-3.8 6.5-5.6 9.8-.4.7-.2 1.6.5 1.9z" id="path30" fill="#e9f1ff"/><path class="st0" d="M101.7 396.2l4.1 1c.7.2 1.5-.3 1.7-1 .9-3.6 1.9-7.1 2.9-10.7.2-.7-.2-1.5-.9-1.7l-4-1.2c-.7-.2-1.5.2-1.7.9-1 3.6-2 7.2-3 10.9-.3.9.1 1.6.9 1.8z" id="path32" fill="#e9f1ff"/><path class="st0" d="M93.3 437.4l4.1.6c.8.1 1.5-.4 1.6-1.2.6-3.6 1.2-7.3 1.8-10.9.1-.8-.4-1.5-1.1-1.6l-4.1-.8c-.8-.1-1.5.4-1.6 1.1-.7 3.7-1.3 7.4-1.9 11.1-.1.9.4 1.6 1.2 1.7z" id="path34" fill="#e9f1ff"/><path class="st0" d="M178.9 749.5c-2.2-2.9-4.5-5.9-6.6-8.8-.5-.6-1.3-.8-1.9-.3l-3.4 2.5c-.6.5-.8 1.3-.3 2 2.2 3 4.5 6 6.7 9 .5.6 1.4.7 2 .2l3.3-2.6c.6-.6.7-1.4.2-2z" id="path36" fill="#e9f1ff"/><path class="st0" d="M215.5 209.1c.5-.5.6-1.4 0-2l-2.9-3c-.5-.6-1.4-.6-2 0-2.7 2.6-5.3 5.3-7.9 8-.5.6-.5 1.4 0 2l3 2.9c.6.5 1.4.5 2 0 2.6-2.7 5.2-5.4 7.8-7.9z" id="path38" fill="#e9f1ff"/><path class="st0" d="M246.6 179.5l-2.6-3.3c-.5-.6-1.4-.7-2-.2l-8.7 7.2c-.6.5-.7 1.4-.1 2l2.7 3.2c.5.6 1.4.7 2 .2 2.8-2.4 5.6-4.7 8.5-7.1.6-.6.7-1.4.2-2z" id="path40" fill="#e9f1ff"/><path class="st0" d="M198.3 772.9c-.5-.6-1.4-.6-2-.1l-3.1 2.8c-.6.5-.6 1.4-.1 2 2.5 2.8 5.1 5.6 7.6 8.3.5.6 1.4.6 2 .1l3-2.9c.6-.5.6-1.4.1-2-2.5-2.8-5-5.5-7.5-8.2z" id="path42" fill="#e9f1ff"/><path class="st0" d="M227.5 802.3c-.6-.5-1.4-.5-2 .1l-2.8 3.1c-.5.6-.5 1.5.1 2l8.4 7.5c.6.5 1.5.4 2-.1l2.7-3.2c.5-.6.4-1.5-.1-2-2.8-2.4-5.6-4.9-8.3-7.4z" id="path44" fill="#e9f1ff"/><path class="st0" d="M230.6 194.8c.6-.5.6-1.4.1-2l-2.8-3.1c-.5-.6-1.4-.6-2-.1-2.8 2.5-5.6 5.1-8.3 7.6-.6.5-.6 1.4 0 2l2.9 3c.5.6 1.4.6 2 .1l8.1-7.5z" id="path46" fill="#e9f1ff"/><path class="st0" d="M212.5 788c-.5-.5-1.4-.6-2 0l-3 2.9c-.6.5-.6 1.4 0 2 2.6 2.7 5.3 5.3 8 7.9.6.5 1.4.5 2 0l2.9-3c.5-.6.5-1.4 0-2-2.6-2.6-5.3-5.2-7.9-7.8z" id="path48" fill="#e9f1ff"/><path class="st0" d="M166.7 732.7c-2.1-3-4.2-6.1-6.2-9.2-.4-.6-1.3-.8-1.9-.4l-3.5 2.3c-.6.4-.8 1.3-.4 1.9 2 3.1 4.1 6.3 6.3 9.3.4.6 1.3.8 2 .3l3.4-2.4c.6-.3.7-1.1.3-1.8z" id="path50" fill="#e9f1ff"/><path class="st0" d="M119.1 641.1c-1.3-3.4-2.5-6.9-3.7-10.4-.2-.7-1-1.1-1.8-.9l-4 1.3c-.7.2-1.1 1-.9 1.8 1.2 3.6 2.5 7.1 3.7 10.6.3.7 1.1 1.1 1.8.8l3.9-1.5c.9-.1 1.3-.9 1-1.7z" id="path52" fill="#e9f1ff"/><path class="st0" d="M126.8 660.4l-4.2-10.2c-.3-.7-1.1-1.1-1.8-.8l-3.9 1.5c-.7.3-1.1 1.1-.8 1.8 1.4 3.5 2.8 7 4.3 10.4.3.7 1.1 1 1.8.7l3.9-1.7c.6-.2 1-1 .7-1.7z" id="path54" fill="#e9f1ff"/><path class="st0" d="M112.5 621.5c-1.1-3.5-2.1-7.1-3.1-10.6-.2-.7-1-1.2-1.7-1l-4 1.1c-.7.2-1.2 1-1 1.7 1 3.6 2.1 7.2 3.2 10.8.2.7 1 1.1 1.8.9l4-1.3c.6-.1 1-.9.8-1.6z" id="path56" fill="#e9f1ff"/><path class="st0" d="M144.9 697.5c-1.8-3.2-3.5-6.5-5.2-9.7-.4-.7-1.2-1-1.9-.6l-3.7 1.9c-.7.4-1 1.2-.6 1.9 1.7 3.3 3.5 6.6 5.3 9.9.4.7 1.2.9 1.9.5l3.7-2c.6-.3.9-1.2.5-1.9z" id="path58" fill="#e9f1ff"/><path class="st0" d="M155.3 715.4c-1.9-3.1-3.8-6.3-5.7-9.4-.4-.7-1.2-.9-1.9-.5l-3.6 2.1c-.7.4-.9 1.2-.5 1.9 1.9 3.2 3.8 6.5 5.8 9.6.4.7 1.3.9 1.9.4l3.6-2.2c.6-.4.8-1.2.4-1.9z" id="path60" fill="#e9f1ff"/><path class="st0" d="M135.3 679.2c-1.6-3.3-3.2-6.6-4.7-10-.3-.7-1.1-1-1.8-.7l-3.8 1.7c-.7.3-1 1.1-.7 1.9 1.5 3.4 3.1 6.8 4.8 10.2.3.7 1.2 1 1.9.6l3.8-1.9c.6-.3.9-1.1.5-1.8z" id="path62" fill="#e9f1ff"/><path class="st0" d="M106.8 601.5c-.9-3.6-1.8-7.2-2.6-10.7-.2-.8-.9-1.2-1.7-1.1l-4.1.9c-.8.2-1.2.9-1.1 1.7.8 3.7 1.7 7.3 2.6 10.9.2.8 1 1.2 1.7 1l4.1-1.1c.9-.1 1.3-.8 1.1-1.6z" id="path64" fill="#e9f1ff"/><path class="st0" d="M184.9 757.1c-.5-.6-1.4-.7-2-.2l-3.3 2.6c-.6.5-.7 1.4-.2 2l7.2 8.7c.5.6 1.4.7 2 .1l3.2-2.7c.6-.5.7-1.4.2-2-2.4-2.8-4.8-5.7-7.1-8.5z" id="path66" fill="#e9f1ff"/><path class="st0" d="M862.1 302.2c1.8 3.2 3.5 6.5 5.2 9.7.4.7 1.2 1 1.9.6l3.7-1.9c.7-.4 1-1.2.6-1.9-1.7-3.3-3.5-6.6-5.3-9.9-.4-.7-1.2-.9-1.9-.5l-3.7 2c-.6.4-.8 1.3-.5 1.9z" id="path68" fill="#e9f1ff"/><path class="st0" d="M871.7 320.6c1.6 3.3 3.2 6.6 4.7 10 .3.7 1.1 1 1.8.7l3.8-1.7c.7-.3 1-1.1.7-1.9-1.5-3.4-3.2-6.8-4.8-10.2-.3-.7-1.2-1-1.9-.6l-3.8 1.9c-.6.3-.8 1.1-.5 1.8z" id="path70" fill="#e9f1ff"/><path class="st0" d="M151.3 280.5l3.6 2.2c.7.4 1.5.2 1.9-.4l6-9.3c.4-.6.3-1.5-.4-1.9l-3.5-2.3c-.6-.4-1.5-.3-1.9.4-2.1 3.1-4.1 6.3-6.1 9.5-.5.5-.3 1.4.4 1.8z" id="path72" fill="#e9f1ff"/><path class="st0" d="M840.3 267.1c2.1 3 4.2 6.1 6.2 9.2.4.6 1.3.8 1.9.4l3.5-2.3c.6-.4.8-1.3.4-1.9-2-3.1-4.2-6.3-6.3-9.3-.4-.6-1.3-.8-2-.3l-3.4 2.4c-.6.3-.7 1.1-.3 1.8z" id="path74" fill="#e9f1ff"/><path class="st0" d="M880.3 339.4l4.2 10.2c.3.7 1.1 1.1 1.8.8l3.9-1.5c.7-.3 1.1-1.1.8-1.8-1.4-3.5-2.8-6.9-4.3-10.4-.3-.7-1.1-1-1.8-.7l-3.8 1.7c-.8.2-1.1 1-.8 1.7z" id="path76" fill="#e9f1ff"/><path class="st0" d="M822.1 242.7c.5.6 1.4.7 2 .2l3.3-2.6c.6-.5.7-1.4.2-2l-7.2-8.7c-.5-.6-1.4-.7-2-.1l-3.2 2.7c-.6.5-.7 1.4-.2 2 2.4 2.8 4.8 5.7 7.1 8.5z" id="path78" fill="#e9f1ff"/><path class="st0" d="M828.1 250.3c2.2 2.9 4.5 5.9 6.6 8.8.5.6 1.3.8 1.9.3l3.4-2.5c.6-.5.8-1.3.3-2-2.2-3-4.5-6-6.7-9-.5-.6-1.4-.7-2-.2l-3.3 2.6c-.6.5-.7 1.4-.2 2z" id="path80" fill="#e9f1ff"/><path class="st0" d="M904.9 418.4c.7 3.6 1.4 7.2 2 10.9.1.8.8 1.3 1.6 1.1l4.1-.7c.8-.1 1.3-.9 1.1-1.6-.6-3.7-1.3-7.4-2.1-11.1-.2-.8-.9-1.2-1.7-1.1l-4.1.8c-.6.3-1.1 1-.9 1.7z" id="path82" fill="#e9f1ff"/><path class="st0" d="M909.6 437.3c-.8.1-1.3.8-1.2 1.6.5 3.6 1 7.3 1.5 10.9.1.8.8 1.3 1.5 1.2l4.2-.5c.8-.1 1.3-.8 1.2-1.6-.5-3.7-1-7.5-1.5-11.2-.1-.8-.8-1.3-1.6-1.2l-4.1.8z" id="path84" fill="#e9f1ff"/><path class="st0" d="M916.4 457.5l-4.2.4c-.8.1-1.3.8-1.2 1.5.4 3.6.7 7.3.9 11 .1.8.7 1.3 1.5 1.3l4.2-.3c.8-.1 1.4-.7 1.3-1.5-.3-3.7-.6-7.5-1-11.2 0-.7-.7-1.3-1.5-1.2z" id="path86" fill="#e9f1ff"/><path class="st0" d="M913.8 478.7c-.8 0-1.4.7-1.3 1.5.2 3.7.3 7.4.4 11 0 .8.6 1.4 1.4 1.4l4.2-.1c.8 0 1.4-.7 1.4-1.4-.1-3.7-.2-7.5-.4-11.3 0-.8-.7-1.4-1.5-1.3l-4.2.2z" id="path88" fill="#e9f1ff"/><path class="st0" d="M894.6 378.3c1.1 3.5 2.1 7.1 3.1 10.6.2.7 1 1.2 1.7 1l4-1.1c.7-.2 1.2-1 1-1.7-1-3.6-2.1-7.2-3.2-10.8-.2-.7-1-1.1-1.8-.9l-4 1.3c-.6.1-1 .8-.8 1.6z" id="path90" fill="#e9f1ff"/><path class="st0" d="M808.6 226.9c.5.6 1.4.6 2 .1l3.1-2.8c.6-.5.6-1.4.1-2-2.5-2.8-5-5.6-7.6-8.3-.5-.6-1.4-.6-2 0l-3 2.9c-.6.5-.6 1.4-.1 2 2.6 2.7 5.1 5.4 7.5 8.1z" id="path92" fill="#e9f1ff"/><path class="st0" d="M887.9 358.6c1.3 3.4 2.5 6.9 3.7 10.4.2.7 1 1.1 1.8.9l4-1.3c.7-.2 1.1-1 .9-1.8-1.2-3.6-2.5-7.1-3.7-10.6-.3-.7-1.1-1.1-1.8-.8l-3.9 1.5c-.9.2-1.2 1-1 1.7z" id="path94" fill="#e9f1ff"/><path class="st0" d="M900.2 398.2c.9 3.6 1.8 7.2 2.6 10.7.2.8.9 1.2 1.7 1.1l4.1-.9c.8-.2 1.2-.9 1.1-1.7-.8-3.7-1.7-7.3-2.6-10.9-.2-.7-1-1.2-1.7-1l-4.1 1.1c-.8.1-1.2.9-1.1 1.6z" id="path96" fill="#e9f1ff"/><path class="st0" d="M851.7 284.4c1.9 3.1 3.8 6.3 5.7 9.4.4.7 1.2.9 1.9.5l3.6-2.1c.7-.4.9-1.2.5-1.9-1.9-3.2-3.8-6.5-5.8-9.6-.4-.7-1.3-.9-1.9-.4l-3.6 2.2c-.6.4-.8 1.2-.4 1.9z" id="path98" fill="#e9f1ff"/><path class="st0" d="M166.3 265.3c.6.4 1.5.3 1.9-.3 2.1-3 4.3-6 6.5-9 .5-.6.3-1.5-.3-1.9l-3.4-2.5c-.6-.5-1.5-.3-2 .3-2.2 3-4.4 6.1-6.6 9.1-.4.6-.3 1.5.3 2l3.6 2.3z" id="path100" fill="#e9f1ff"/><path class="st0" d="M646.8 116.3c3.5 1.3 6.9 2.6 10.3 4 .7.3 1.5-.1 1.8-.8l1.6-3.9c.3-.7 0-1.5-.8-1.8-3.5-1.4-7-2.8-10.5-4.1-.7-.3-1.5.1-1.8.8l-1.5 3.9c-.2.9.2 1.6.9 1.9z" id="path102" fill="#e9f1ff"/><path class="st0" d="M794.4 211.8c.5.5 1.4.6 2 0l3-2.9c.6-.5.6-1.4 0-2-2.6-2.7-5.3-5.3-8-7.9-.6-.5-1.4-.5-2 .1l-2.9 3c-.5.6-.5 1.4 0 2 2.7 2.5 5.3 5.1 7.9 7.7z" id="path104" fill="#e9f1ff"/><path class="st0" d="M178.7 248.6c.6.5 1.5.4 2-.2 2.3-2.9 4.6-5.8 6.9-8.6.5-.6.4-1.5-.2-2l-3.2-2.7c-.6-.5-1.5-.4-2 .2-2.4 2.9-4.7 5.8-7.1 8.8-.5.6-.4 1.5.2 2l3.4 2.5z" id="path106" fill="#e9f1ff"/><path class="st0" d="M191.8 232.4c.6.5 1.5.4 2-.1 2.4-2.8 4.9-5.6 7.3-8.3.5-.6.5-1.4-.1-2l-3.1-2.8c-.6-.5-1.5-.5-2 .1l-7.5 8.4c-.5.6-.4 1.5.1 2l3.3 2.7z" id="path108" fill="#e9f1ff"/><path class="st0" d="M666.1 124.1c3.4 1.5 6.8 3 10.1 4.5.7.3 1.5 0 1.8-.7l1.8-3.8c.3-.7 0-1.5-.7-1.9-3.4-1.6-6.9-3.1-10.3-4.6-.7-.3-1.5 0-1.8.7l-1.7 3.9c-.3.8.1 1.6.8 1.9z" id="path110" fill="#e9f1ff"/><path class="st0" d="M747.4 171.1c.6.5 1.5.3 1.9-.3l2.5-3.4c.5-.6.3-1.5-.3-2-3-2.2-6.1-4.4-9.1-6.6-.6-.4-1.5-.3-2 .3l-2.4 3.4c-.4.6-.3 1.5.3 1.9 3.2 2.3 6.2 4.5 9.1 6.7z" id="path112" fill="#e9f1ff"/><path class="st0" d="M779.5 197.5c.6.5 1.4.5 2-.1l2.8-3.1c.5-.6.5-1.5-.1-2l-8.4-7.5c-.6-.5-1.5-.4-2 .2l-2.7 3.2c-.5.6-.4 1.5.1 2 2.8 2.3 5.6 4.8 8.3 7.3z" id="path114" fill="#e9f1ff"/><path class="st0" d="M763.8 183.9c.6.5 1.5.4 2-.2l2.7-3.2c.5-.6.4-1.5-.2-2-2.9-2.4-5.8-4.8-8.8-7-.6-.5-1.5-.4-2 .2l-2.6 3.3c-.5.6-.4 1.5.2 2 3 2.2 5.8 4.5 8.7 6.9z" id="path116" fill="#e9f1ff"/><path class="st0" d="M703.3 142.5c3.2 1.8 6.4 3.7 9.6 5.5.7.4 1.5.2 1.9-.5l2.2-3.6c.4-.7.2-1.5-.5-1.9-3.2-1.9-6.5-3.8-9.8-5.6-.7-.4-1.5-.1-1.9.5l-2 3.7c-.4.7-.2 1.5.5 1.9z" id="path118" fill="#e9f1ff"/><path class="st0" d="M684.9 132.8c3.3 1.6 6.6 3.3 9.9 5 .7.4 1.5.1 1.9-.6l2-3.7c.4-.7.1-1.5-.6-1.9-3.3-1.8-6.7-3.5-10-5.1-.7-.3-1.5-.1-1.9.6l-1.8 3.8c-.4.8-.2 1.6.5 1.9z" id="path120" fill="#e9f1ff"/><path class="st0" d="M721.2 153.1l9.3 6c.6.4 1.5.3 1.9-.4l2.3-3.5c.4-.6.3-1.5-.4-1.9-3.1-2.1-6.3-4.1-9.5-6.1-.7-.4-1.5-.2-1.9.4l-2.2 3.6c-.4.7-.2 1.5.5 1.9z" id="path122" fill="#e9f1ff"/><path class="st0" d="M684.5 868.9c-.3-.7-1.2-1-1.9-.6-3.3 1.6-6.6 3.2-10 4.7-.7.3-1 1.1-.7 1.8l1.7 3.8c.3.7 1.1 1 1.9.7 3.4-1.5 6.8-3.1 10.2-4.8.7-.3 1-1.2.6-1.9l-1.8-3.7z" id="path124" fill="#e9f1ff"/><path class="st0" d="M720.8 848.7c-.4-.7-1.3-.9-1.9-.4-3.1 1.9-6.3 3.8-9.5 5.7-.7.4-.9 1.2-.5 1.9l2.1 3.6c.4.7 1.2.9 1.9.5 3.2-1.9 6.5-3.8 9.6-5.8.7-.4.9-1.3.4-1.9l-2.1-3.6z" id="path126" fill="#e9f1ff"/><path class="st0" d="M702.9 859.3c-.4-.7-1.2-.9-1.9-.5-3.2 1.8-6.5 3.5-9.7 5.2-.7.4-1 1.2-.6 1.9l1.9 3.7c.4.7 1.2 1 1.9.6 3.3-1.7 6.6-3.5 9.9-5.3.7-.4.9-1.2.5-1.9l-2-3.7z" id="path128" fill="#e9f1ff"/><path class="st0" d="M738.1 837.3c-.4-.6-1.3-.8-1.9-.3-3 2.1-6.1 4.2-9.2 6.2-.6.4-.8 1.3-.4 1.9l2.3 3.5c.4.6 1.3.8 1.9.4 3.1-2 6.3-4.1 9.3-6.3.6-.4.8-1.3.3-2l-2.3-3.4z" id="path130" fill="#e9f1ff"/><path class="st0" d="M786.5 797.9c-.5-.6-1.4-.6-2-.1l-8.1 7.5c-.6.5-.6 1.4-.1 2l2.8 3.1c.5.6 1.4.6 2 .1 2.8-2.5 5.6-5 8.3-7.6.6-.5.6-1.4.1-2l-3-3z" id="path132" fill="#e9f1ff"/><path class="st0" d="M801.2 783.2c-.6-.5-1.4-.5-2 0-2.5 2.6-5.1 5.3-7.8 7.9-.5.5-.6 1.4 0 2l2.9 3c.5.6 1.4.6 2 0 2.7-2.6 5.3-5.3 7.9-8 .5-.6.5-1.4 0-2l-3-2.9z" id="path134" fill="#e9f1ff"/><path class="st0" d="M754.9 825c-.5-.6-1.3-.7-2-.3-2.9 2.2-5.9 4.5-8.8 6.6-.6.5-.8 1.3-.3 1.9l2.5 3.4c.5.6 1.3.8 2 .3 3-2.2 6-4.5 9-6.7.6-.5.7-1.4.3-2l-2.7-3.2z" id="path136" fill="#e9f1ff"/><path class="st0" d="M771 811.8c-.5-.6-1.4-.7-2-.2-2.8 2.4-5.6 4.7-8.5 7.1-.6.5-.7 1.4-.2 2l2.6 3.3c.5.6 1.4.7 2 .2 2.9-2.3 5.8-4.8 8.7-7.2.6-.5.7-1.4.2-2l-2.8-3.2z" id="path138" fill="#e9f1ff"/><path class="st0" d="M586.4 902.5c-.2-.8-.9-1.2-1.6-1.1-3.6.7-7.2 1.4-10.9 2-.8.1-1.3.8-1.1 1.6l.7 4.1c.1.8.9 1.3 1.6 1.1 3.7-.6 7.4-1.3 11.1-2.1.8-.2 1.2-.9 1.1-1.7l-.9-3.9z" id="path140" fill="#e9f1ff"/><path class="st0" d="M665.7 877.6c-.3-.7-1.1-1-1.8-.7l-10.2 4.2c-.7.3-1.1 1.1-.8 1.8l1.5 3.9c.3.7 1.1 1.1 1.8.8 3.5-1.4 6.9-2.8 10.4-4.3.7-.3 1-1.1.7-1.8l-1.6-3.9z" id="path142" fill="#e9f1ff"/><path class="st0" d="M565.9 906.1c-.1-.8-.8-1.3-1.6-1.2-3.6.5-7.3 1-10.9 1.5-.8.1-1.3.8-1.2 1.5l.5 4.2c.1.8.8 1.3 1.6 1.2 3.7-.5 7.5-1 11.2-1.5.8-.1 1.3-.8 1.2-1.6l-.8-4.1z" id="path144" fill="#e9f1ff"/><path class="st0" d="M646.4 885.3c-.3-.7-1.1-1.1-1.8-.8-3.4 1.3-6.9 2.5-10.4 3.7-.7.2-1.1 1-.9 1.8l1.3 4c.2.7 1 1.1 1.8.9 3.6-1.2 7.1-2.4 10.6-3.7.7-.3 1.1-1.1.8-1.8l-1.4-4.1z" id="path146" fill="#e9f1ff"/><path class="st0" d="M606.7 897.8c-.2-.7-.9-1.2-1.7-1-3.6.9-7.2 1.8-10.7 2.6-.8.2-1.2.9-1.1 1.7l.9 4.1c.2.8.9 1.2 1.7 1.1 3.7-.8 7.3-1.7 11-2.6.8-.2 1.2-1 1-1.7l-1.1-4.2z" id="path148" fill="#e9f1ff"/><path class="st0" d="M626.7 892c-.2-.7-1-1.1-1.7-.9-3.5 1.1-7.1 2.1-10.6 3.1-.7.2-1.2 1-1 1.7l1.1 4c.2.7 1 1.2 1.7 1 3.6-1 7.2-2.1 10.8-3.2.7-.2 1.1-1 .9-1.8l-1.2-3.9z" id="path150" fill="#e9f1ff"/><path class="st0" d="M913.9 562.8l-4.1-.6c-.8-.1-1.5.4-1.6 1.2-.6 3.6-1.2 7.3-1.8 10.9-.1.8.4 1.5 1.1 1.6l4.1.8c.8.1 1.5-.4 1.6-1.1.7-3.7 1.3-7.4 1.9-11.1 0-.8-.5-1.6-1.2-1.7z" id="path152" fill="#e9f1ff"/><path class="st0" d="M899.7 624.2l-4-1.3c-.7-.2-1.5.2-1.7.9-1.1 3.5-2.3 7-3.5 10.5-.3.7.1 1.5.9 1.8l4 1.4c.7.3 1.5-.1 1.8-.9 1.2-3.6 2.4-7.2 3.6-10.7 0-.6-.4-1.4-1.1-1.7z" id="path154" fill="#e9f1ff"/><path class="st0" d="M905.4 604l-4.1-1c-.7-.2-1.5.3-1.7 1-.9 3.6-1.9 7.1-2.9 10.7-.2.7.2 1.5.9 1.7l4 1.2c.7.2 1.5-.2 1.7-.9 1-3.6 2.1-7.2 3-10.9.3-.8-.1-1.6-.9-1.8z" id="path156" fill="#e9f1ff"/><path class="st0" d="M910.2 583.5l-4.1-.8c-.8-.2-1.5.3-1.6 1.1-.7 3.6-1.6 7.2-2.4 10.8-.2.7.3 1.5 1 1.7l4.1 1c.8.2 1.5-.3 1.7-1 .9-3.6 1.7-7.3 2.4-11 .1-.9-.4-1.6-1.1-1.8z" id="path158" fill="#e9f1ff"/><path class="st0" d="M916.5 542l-4.2-.4c-.8-.1-1.4.5-1.5 1.2-.4 3.7-.8 7.3-1.3 11-.1.8.4 1.5 1.2 1.6l4.2.6c.8.1 1.5-.4 1.6-1.2.5-3.7.9-7.5 1.3-11.2 0-.9-.5-1.5-1.3-1.6z" id="path160" fill="#e9f1ff"/><path class="st0" d="M243.2 815.9c-.6-.5-1.5-.4-2 .2l-2.7 3.2c-.5.6-.4 1.5.2 2 2.9 2.4 5.8 4.8 8.8 7.1.6.5 1.5.4 2-.2l2.6-3.3c.5-.6.4-1.5-.2-2-3-2.3-5.9-4.6-8.7-7z" id="path162" fill="#e9f1ff"/><path class="st0" d="M918.1 521l-4.2-.2c-.8 0-1.4.5-1.5 1.3-.2 3.7-.4 7.4-.7 11-.1.8.5 1.4 1.3 1.5l4.2.3c.8.1 1.5-.5 1.5-1.3.3-3.7.5-7.5.7-11.2 0-.7-.6-1.3-1.3-1.4z" id="path164" fill="#e9f1ff"/><path class="st0" d="M913 499.5v.5c0 4.1-.1 8.3-.2 12.4 0 .8.6 1.4 1.3 1.4l4.2.1c.8 0 1.4-.6 1.4-1.4.1-4.2.2-8.5.2-12.7v-.5H913v.2z" id="path166" fill="#e9f1ff"/><path class="st0" d="M840.7 734.9c-.6-.4-1.5-.3-1.9.3-2.1 3-4.3 6-6.5 9-.5.6-.3 1.5.3 1.9l3.4 2.5c.6.5 1.5.3 2-.3 2.2-3 4.5-6.1 6.6-9.1.4-.6.3-1.5-.3-2l-3.6-2.3z" id="path168" fill="#e9f1ff"/><path class="st0" d="M855.7 719.7l-3.6-2.2c-.7-.4-1.5-.2-1.9.4l-6 9.3c-.4.6-.3 1.5.4 1.9l3.5 2.3c.6.4 1.5.3 1.9-.4 2.1-3.1 4.1-6.3 6.1-9.5.5-.5.3-1.4-.4-1.8z" id="path170" fill="#e9f1ff"/><path class="st0" d="M828.3 751.6c-.6-.5-1.5-.4-2 .2-2.3 2.9-4.6 5.8-6.9 8.6-.5.6-.4 1.5.2 2l3.2 2.7c.6.5 1.5.4 2-.2 2.4-2.9 4.8-5.8 7.1-8.8.5-.6.4-1.5-.2-2l-3.4-2.5z" id="path172" fill="#e9f1ff"/><path class="st0" d="M866.4 701.6l-3.7-2c-.7-.4-1.5-.1-1.9.5-1.8 3.2-3.7 6.4-5.5 9.6-.4.7-.2 1.5.5 1.9l3.6 2.2c.7.4 1.5.2 1.9-.5 1.9-3.2 3.8-6.5 5.7-9.8.3-.7.1-1.5-.6-1.9z" id="path174" fill="#e9f1ff"/><path class="st0" d="M885 663.8l-3.9-1.7c-.7-.3-1.5 0-1.8.7-1.5 3.4-3 6.8-4.5 10.1-.3.7 0 1.5.7 1.9l3.8 1.8c.7.3 1.5 0 1.9-.7 1.6-3.4 3.1-6.9 4.6-10.3.3-.7-.1-1.5-.8-1.8z" id="path176" fill="#e9f1ff"/><path class="st0" d="M876.2 682.9l-3.8-1.8c-.7-.3-1.5-.1-1.9.6-1.6 3.3-3.3 6.6-5.1 9.9-.4.7-.1 1.5.6 1.9l3.7 2c.7.4 1.5.1 1.9-.6 1.8-3.3 3.5-6.7 5.2-10 .4-.8.1-1.6-.6-2z" id="path178" fill="#e9f1ff"/><path class="st0" d="M892.8 644.2l-3.9-1.5c-.7-.3-1.5.1-1.8.8-1.3 3.4-2.6 6.9-4 10.3-.3.7.1 1.5.8 1.8l3.9 1.6c.7.3 1.5 0 1.8-.8 1.4-3.5 2.8-7 4.1-10.5.2-.6-.1-1.4-.9-1.7z" id="path180" fill="#e9f1ff"/><path class="st0" d="M815.1 767.8c-.6-.5-1.5-.4-2 .1-2.4 2.8-4.9 5.5-7.3 8.3-.5.6-.5 1.4.1 2l3.1 2.8c.6.5 1.5.5 2-.1l7.5-8.4c.5-.6.4-1.5-.1-2l-3.3-2.7z" id="path182" fill="#e9f1ff"/><path class="st0" d="M340.8 875.8c-3.4-1.5-6.8-3-10.1-4.5-.7-.3-1.5 0-1.9.7l-1.8 3.8c-.3.7 0 1.5.7 1.9 3.4 1.6 6.9 3.1 10.3 4.6.7.3 1.5 0 1.8-.7l1.7-3.9c.4-.8.1-1.6-.7-1.9z" id="path184" fill="#e9f1ff"/><path class="st0" d="M322 867c-3.3-1.6-6.6-3.3-9.9-5.1-.7-.4-1.5-.1-1.9.6l-2 3.7c-.4.7-.1 1.5.6 1.9 3.3 1.8 6.7 3.5 10 5.2.7.3 1.5.1 1.9-.6l1.8-3.8c.5-.7.2-1.5-.5-1.9z" id="path186" fill="#e9f1ff"/><path class="st0" d="M334.9 125.3l-1.7-3.8c-.3-.7-1.1-1-1.9-.7-3.4 1.5-6.8 3.1-10.2 4.8-.7.3-1 1.2-.6 1.9l1.9 3.8c.3.7 1.2 1 1.9.6 3.3-1.6 6.6-3.2 10-4.7.6-.4.9-1.2.6-1.9z" id="path188" fill="#e9f1ff"/><path class="st0" d="M354.1 117.2l-1.5-3.9c-.3-.7-1.1-1.1-1.8-.8-3.5 1.4-7 2.8-10.4 4.3-.7.3-1 1.1-.7 1.8l1.7 3.9c.3.7 1.1 1 1.8.7l10.2-4.2c.6-.2.9-1 .7-1.8z" id="path190" fill="#e9f1ff"/><path class="st0" d="M379.8 890.4c-3.5-1.1-7-2.3-10.5-3.5-.7-.3-1.5.1-1.8.9l-1.4 4c-.3.7.1 1.5.9 1.8 3.6 1.2 7.2 2.4 10.7 3.6.7.2 1.5-.2 1.8-.9l1.3-4c.1-.9-.3-1.7-1-1.9z" id="path192" fill="#e9f1ff"/><path class="st0" d="M360.1 883.6c-3.4-1.3-6.9-2.6-10.3-4-.7-.3-1.5.1-1.8.8l-1.6 3.9c-.3.7 0 1.5.8 1.8 3.5 1.4 7 2.8 10.5 4.1.7.3 1.5-.1 1.8-.8l1.5-3.9c.2-.8-.1-1.6-.9-1.9z" id="path194" fill="#e9f1ff"/><path class="st0" d="M373.6 110.2l-1.3-4c-.2-.7-1-1.1-1.8-.9-3.6 1.2-7.1 2.5-10.6 3.7-.7.3-1.1 1.1-.8 1.8l1.5 3.9c.3.7 1.1 1.1 1.8.8 3.4-1.3 6.9-2.5 10.4-3.7.7-.1 1.1-.9.8-1.6z" id="path196" fill="#e9f1ff"/><path class="st0" d="M280.3 155.1l-2.3-3.5c-.4-.6-1.3-.8-1.9-.4-3.1 2-6.3 4.2-9.3 6.3-.6.4-.8 1.3-.3 2l2.4 3.4c.4.6 1.3.8 1.9.3 3-2.1 6.1-4.2 9.2-6.2.5-.4.7-1.3.3-1.9z" id="path198" fill="#e9f1ff"/><path class="st0" d="M543.7 907.5c-3.7.4-7.3.7-11 .9-.8.1-1.3.7-1.3 1.5l.3 4.2c.1.8.7 1.4 1.5 1.3 3.7-.3 7.5-.6 11.2-.9.8-.1 1.3-.8 1.3-1.5l-.4-4.2c-.1-.8-.8-1.4-1.6-1.3z" id="path200" fill="#e9f1ff"/><path class="st0" d="M259.5 828.7c-.6-.5-1.5-.3-1.9.3l-2.5 3.4c-.5.6-.3 1.5.3 2 3 2.2 6.1 4.5 9.1 6.6.6.4 1.5.3 2-.3l2.4-3.4c.4-.6.3-1.5-.3-1.9-3.1-2.3-6.1-4.5-9.1-6.7z" id="path202" fill="#e9f1ff"/><path class="st0" d="M263.2 166.8l-2.5-3.4c-.5-.6-1.3-.8-2-.3-3 2.2-6 4.5-9 6.7-.6.5-.7 1.4-.2 2l2.6 3.3c.5.6 1.3.7 2 .3 2.9-2.2 5.9-4.5 8.8-6.6.6-.5.7-1.3.3-2z" id="path204" fill="#e9f1ff"/><path class="st0" d="M393.5 104.1l-1.1-4c-.2-.7-1-1.2-1.7-1-3.6 1-7.2 2.1-10.8 3.2-.7.2-1.1 1-.9 1.8l1.3 4c.2.7 1 1.1 1.7.9 3.5-1.1 7.1-2.1 10.6-3.1.7-.3 1.1-1.1.9-1.8z" id="path206" fill="#e9f1ff"/><path class="st0" d="M303.6 857.3c-3.2-1.8-6.4-3.7-9.6-5.5-.7-.4-1.5-.2-1.9.5l-2.2 3.6c-.4.7-.2 1.5.5 1.9 3.2 1.9 6.5 3.8 9.8 5.7.7.4 1.5.1 1.9-.5l2-3.7c.4-.7.2-1.6-.5-2z" id="path208" fill="#e9f1ff"/><path class="st0" d="M298 144.2l-2.1-3.6c-.4-.7-1.2-.9-1.9-.5-3.2 1.9-6.5 3.8-9.6 5.8-.7.4-.9 1.3-.4 1.9l2.2 3.6c.4.7 1.3.9 1.9.4 3.1-1.9 6.3-3.8 9.4-5.7.7-.3.9-1.2.5-1.9z" id="path210" fill="#e9f1ff"/><path class="st0" d="M285.8 846.7l-9.3-6c-.6-.4-1.5-.3-1.9.4l-2.3 3.5c-.4.6-.3 1.5.4 1.9 3.1 2.1 6.3 4.1 9.5 6.1.7.4 1.5.2 1.9-.4l2.2-3.6c.3-.6.1-1.5-.5-1.9z" id="path212" fill="#e9f1ff"/><path class="st0" d="M316.2 134.3l-1.9-3.7c-.4-.7-1.2-1-1.9-.6-3.3 1.7-6.6 3.5-9.9 5.3-.7.4-.9 1.2-.5 1.9l2 3.7c.4.7 1.2.9 1.9.5 3.2-1.8 6.5-3.5 9.7-5.2.7-.4 1-1.2.6-1.9z" id="path214" fill="#e9f1ff"/><path class="st0" d="M481.6 908.8c-3.7-.2-7.4-.4-11-.7-.8-.1-1.4.5-1.5 1.3l-.3 4.2c-.1.8.5 1.5 1.3 1.5 3.7.3 7.5.5 11.2.7.8 0 1.4-.6 1.5-1.3l.2-4.2c-.1-.8-.7-1.4-1.4-1.5z" id="path216" fill="#e9f1ff"/><path class="st0" d="M399.7 896.1c-3.6-.9-7.1-1.9-10.7-2.9-.7-.2-1.5.2-1.7.9l-1.2 4c-.2.7.2 1.5.9 1.7 3.6 1 7.2 2 10.9 3 .7.2 1.5-.3 1.7-1l1-4.1c.3-.6-.1-1.4-.9-1.6z" id="path218" fill="#e9f1ff"/><path class="st0" d="M523.1 909c-3.7.2-7.4.3-11 .4-.8 0-1.4.6-1.4 1.4l.1 4.2c0 .8.7 1.4 1.4 1.4 3.7-.1 7.5-.2 11.3-.4.8 0 1.4-.7 1.3-1.5l-.2-4.2c-.1-.8-.8-1.4-1.5-1.3z" id="path220" fill="#e9f1ff"/><path class="st0" d="M491.3 909.2c-.8 0-1.4.6-1.4 1.3l-.1 4.2c0 .8.6 1.4 1.4 1.4 4.1.1 8.3.2 12.5.2h.1v-7h-.1c-4.2.1-8.3.1-12.4-.1z" id="path222" fill="#e9f1ff"/><path class="st0" d="M460.9 907.2c-3.7-.4-7.3-.8-11-1.3-.8-.1-1.5.4-1.6 1.2l-.6 4.2c-.1.8.4 1.5 1.2 1.6 3.7.5 7.5.9 11.2 1.3.8.1 1.5-.5 1.5-1.3l.4-4.2c.2-.7-.3-1.4-1.1-1.5z" id="path224" fill="#e9f1ff"/><path class="st0" d="M419.9 900.9c-3.6-.7-7.2-1.5-10.8-2.4-.7-.2-1.5.3-1.7 1l-1 4.1c-.2.8.3 1.5 1 1.7 3.6.9 7.3 1.7 11 2.4.8.2 1.5-.3 1.7-1.1l.8-4.1c.3-.7-.2-1.5-1-1.6z" id="path226" fill="#e9f1ff"/><path class="st0" d="M440.3 904.6c-3.6-.6-7.3-1.2-10.9-1.8-.8-.1-1.5.4-1.6 1.1l-.8 4.1c-.1.8.4 1.5 1.1 1.6 3.7.7 7.4 1.3 11.1 1.9.8.1 1.5-.4 1.6-1.2l.6-4.1c.2-.8-.3-1.5-1.1-1.6z" id="path228" fill="#e9f1ff"/><path class="st0" d="M471.5 96.3l-65.6-37.9c-2.1-1.2-4.7.3-4.7 2.7v75.8c0 2.4 2.6 3.9 4.7 2.7l65.6-37.9c2.1-1.2 2.1-4.2 0-5.4z" id="path230" fill="#e9f1ff"/></g><g id="Layer_2" transform="translate(-4.192 -2.887) scale(.05783)"><path class="st0" d="M778.5 820.7H221.6c-54.8 0-99.2-44.4-99.2-99.2 0-8.3 6.7-15.1 15.1-15.1h725.2c8.3 0 15.1 6.7 15.1 15.1-.1 54.8-44.5 99.2-99.3 99.2z" id="path233" fill="#e9f1ff"/><circle class="st0" cx="140.4" cy="681" r="18" id="circle235" fill="#e9f1ff"/><circle class="st0" cx="859.1" cy="681" r="18" id="circle237" fill="#e9f1ff"/><circle class="st0" cx="859.1" cy="282.9" r="17.1" id="circle239" fill="#e9f1ff"/><circle class="st0" cx="140.4" cy="282.4" r="17.1" id="circle241" fill="#e9f1ff"/><circle class="st0" cx="493.1" cy="683" r="15.9" id="circle243" fill="#e9f1ff"/><circle class="st0" cx="859.1" cy="653.3" r="6.2" id="circle245" fill="#e9f1ff"/><circle class="st0" cx="859.1" cy="639" r="6.2" id="circle247" fill="#e9f1ff"/><circle class="st0" cx="859.1" cy="624.6" r="6.2" id="circle249" fill="#e9f1ff"/><circle class="st0" cx="859.1" cy="610.3" r="6.2" id="circle251" fill="#e9f1ff"/><circle class="st0" cx="859.1" cy="596" r="6.2" id="circle253" fill="#e9f1ff"/><circle class="st0" cx="859.1" cy="581.6" r="6.2" id="circle255" fill="#e9f1ff"/><circle class="st0" cx="859.1" cy="567.3" r="6.2" id="circle257" fill="#e9f1ff"/><circle class="st0" cx="859.1" cy="553" r="6.2" id="circle259" fill="#e9f1ff"/><circle class="st0" cx="859.1" cy="538.6" r="6.2" id="circle261" fill="#e9f1ff"/><circle class="st0" cx="859.1" cy="524.3" r="6.2" id="circle263" fill="#e9f1ff"/><circle class="st0" cx="859.1" cy="510" r="6.2" id="circle265" fill="#e9f1ff"/><circle class="st0" cx="859.1" cy="495.6" r="6.2" id="circle267" fill="#e9f1ff"/><circle class="st0" cx="859.1" cy="481.3" r="6.2" id="circle269" fill="#e9f1ff"/><circle class="st0" cx="859.1" cy="467" r="6.2" id="circle271" fill="#e9f1ff"/><circle class="st0" cx="859.1" cy="452.6" r="6.2" id="circle273" fill="#e9f1ff"/><circle class="st0" cx="859.1" cy="438.3" r="6.2" id="circle275" fill="#e9f1ff"/><circle class="st0" cx="859.1" cy="424" r="6.2" id="circle277" fill="#e9f1ff"/><circle class="st0" cx="859.1" cy="409.6" r="6.2" id="circle279" fill="#e9f1ff"/><circle class="st0" cx="859.1" cy="395.3" r="6.2" id="circle281" fill="#e9f1ff"/><circle class="st0" cx="859.1" cy="381" r="6.2" id="circle283" fill="#e9f1ff"/><circle class="st0" cx="859.1" cy="366.6" r="6.2" id="circle285" fill="#e9f1ff"/><circle class="st0" cx="859.1" cy="352.3" r="6.2" id="circle287" fill="#e9f1ff"/><circle class="st0" cx="859.1" cy="338" r="6.2" id="circle289" fill="#e9f1ff"/><circle class="st0" cx="859.1" cy="323.6" r="6.2" id="circle291" fill="#e9f1ff"/><circle class="st0" cx="859.1" cy="309.3" r="6.2" id="circle293" fill="#e9f1ff"/><circle class="st0" cx="493.1" cy="314.8" r="6.2" id="circle295" fill="#e9f1ff"/><circle class="st0" cx="493.1" cy="329.2" r="6.2" id="circle297" fill="#e9f1ff"/><circle class="st0" cx="493.1" cy="300.5" r="6.2" id="circle299" fill="#e9f1ff"/><circle class="st0" cx="493.1" cy="278.2" r="13.2" id="circle301" fill="#e9f1ff"/><circle class="st0" cx="493.1" cy="171.4" r="32.2" id="circle303" fill="#e9f1ff"/><circle class="st0" cx="493.1" cy="112.4" r="19.8" id="circle305" fill="#e9f1ff"/><circle class="st0" cx="140.4" cy="652.6" r="6.2" id="circle307" fill="#e9f1ff"/><circle class="st0" cx="140.4" cy="638.3" r="6.2" id="circle309" fill="#e9f1ff"/><circle class="st0" cx="140.4" cy="623.9" r="6.2" id="circle311" fill="#e9f1ff"/><circle class="st0" cx="140.4" cy="609.6" r="6.2" id="circle313" fill="#e9f1ff"/><circle class="st0" cx="140.4" cy="595.3" r="6.2" id="circle315" fill="#e9f1ff"/><circle class="st0" cx="140.4" cy="580.9" r="6.2" id="circle317" fill="#e9f1ff"/><circle class="st0" cx="140.4" cy="566.6" r="6.2" id="circle319" fill="#e9f1ff"/><circle class="st0" cx="140.4" cy="552.3" r="6.2" id="circle321" fill="#e9f1ff"/><circle class="st0" cx="140.4" cy="537.9" r="6.2" id="circle323" fill="#e9f1ff"/><circle class="st0" cx="140.4" cy="523.6" r="6.2" id="circle325" fill="#e9f1ff"/><circle class="st0" cx="140.4" cy="509.3" r="6.2" id="circle327" fill="#e9f1ff"/><circle class="st0" cx="140.4" cy="494.9" r="6.2" id="circle329" fill="#e9f1ff"/><circle class="st0" cx="140.4" cy="480.6" r="6.2" id="circle331" fill="#e9f1ff"/><circle class="st0" cx="140.4" cy="466.3" r="6.2" id="circle333" fill="#e9f1ff"/><circle class="st0" cx="140.4" cy="451.9" r="6.2" id="circle335" fill="#e9f1ff"/><circle class="st0" cx="140.4" cy="437.6" r="6.2" id="circle337" fill="#e9f1ff"/><circle class="st0" cx="140.4" cy="423.3" r="6.2" id="circle339" fill="#e9f1ff"/><circle class="st0" cx="140.4" cy="408.9" r="6.2" id="circle341" fill="#e9f1ff"/><circle class="st0" cx="140.4" cy="394.6" r="6.2" id="circle343" fill="#e9f1ff"/><circle class="st0" cx="140.4" cy="380.3" r="6.2" id="circle345" fill="#e9f1ff"/><circle class="st0" cx="140.4" cy="365.9" r="6.2" id="circle347" fill="#e9f1ff"/><circle class="st0" cx="140.4" cy="351.6" r="6.2" id="circle349" fill="#e9f1ff"/><circle class="st0" cx="140.4" cy="337.3" r="6.2" id="circle351" fill="#e9f1ff"/><circle class="st0" cx="140.4" cy="322.9" r="6.2" id="circle353" fill="#e9f1ff"/><circle class="st0" cx="140.4" cy="308.6" r="6.2" id="circle355" fill="#e9f1ff"/><path class="st0" d="M877.7 258.4H124.2c0-24 31.2-43.5 69.6-43.5H808c38.5.1 69.7 19.5 69.7 43.5z" id="path357" fill="#e9f1ff"/></g><path class="st0" d="M39.601 35.407H12.376a1.01 1.01 0 0 1-1.012-1.012V17.648a1.01 1.01 0 0 1 1.012-1.012h27.225c.561 0 1.012.45 1.012 1.012V34.4c0 .555-.45 1.006-1.012 1.006z" id="path359" fill="#e9f1ff"/><path class="st1" d="M37.306 19.62H22.93a.278.278 0 0 1-.278-.278v-.503c0-.156.127-.278.278-.278h14.382c.156 0 .277.128.277.278v.503a.279.279 0 0 1-.283.278z" id="path361" fill="#70798d"/><path class="st1" d="M29.794 22.505H26.26a.168.168 0 0 1-.168-.167v-.353c0-.093.075-.168.168-.168h3.533c.092 0 .168.075.168.168v.353a.168.168 0 0 1-.168.167z" id="path363" fill="#70798d"/><path class="st1" d="M29.794 23.934H26.26a.168.168 0 0 1-.168-.168v-.353c0-.092.075-.167.168-.167h3.533c.092 0 .168.075.168.167v.353a.168.168 0 0 1-.168.168z" id="path365" fill="#70798d"/><path class="st1" d="M29.794 25.362H26.26a.168.168 0 0 1-.168-.168v-.352c0-.093.075-.168.168-.168h3.533c.092 0 .168.075.168.168v.352a.168.168 0 0 1-.168.168z" id="path367" fill="#70798d"/><path class="st1" d="M30.708 29.005h-4.453a.168.168 0 0 1-.168-.167v-.353c0-.093.075-.168.168-.168h4.453c.092 0 .167.075.167.168v.353a.168.168 0 0 1-.167.167z" id="path369" fill="#70798d"/><path class="st1" d="M30.708 32.348h-4.453a.168.168 0 0 1-.168-.168v-.353c0-.092.075-.167.168-.167h4.453c.092 0 .167.075.167.167v.353a.168.168 0 0 1-.167.168z" id="path371" fill="#70798d"/><path class="st1" d="M38.832 29.005h-6.077a.168.168 0 0 1-.168-.167v-.353c0-.093.075-.168.168-.168h6.077c.093 0 .168.075.168.168v.353c.006.092-.075.167-.168.167z" id="path373" fill="#70798d"/><path class="st1" d="M34.686 22.505h-3.533a.168.168 0 0 1-.168-.167v-.353c0-.093.075-.168.168-.168h3.533c.093 0 .168.075.168.168v.353a.168.168 0 0 1-.168.167z" id="path375" fill="#70798d"/><path class="st1" d="M34.686 23.934h-3.533a.168.168 0 0 1-.168-.168v-.353c0-.092.075-.167.168-.167h3.533c.093 0 .168.075.168.167v.353a.168.168 0 0 1-.168.168z" id="path377" fill="#70798d"/><path class="st1" d="M34.686 25.362h-3.533a.168.168 0 0 1-.168-.168v-.352c0-.093.075-.168.168-.168h3.533c.093 0 .168.075.168.168v.352a.168.168 0 0 1-.168.168z" id="path379" fill="#70798d"/><path class="st1" d="M20.97 29.844c-.186-.093-.631-.902-.683-1.076-.052-.173.08-.775.104-.983.029-.208.237-.29.33-.364.092-.081.3-1.087.352-1.4.052-.312-.052-.358-.115-.45-.064-.093.011-.434.133-.955.115-.526.144-1.012 0-1.232-.145-.225-.064-.457-.197-.705-.133-.249-.445-.382-.682-.515-.237-.133-.457-.497-.683-.584-.225-.087-.85-.064-1.098-.133-.25-.064-.943 0-1.544.185-.602.185-1.088.972-1.203 1.238-.116.266-.284.983-.422 1.416-.14.434.057.984.11 1.238.046.254-.07.335-.11.503-.04.168.237.931.433 1.226.197.295.295.335.451.434.156.098.197.983.197 1.22s-.139.746-.827.983c-.405.139-1.099.474-1.59.723v.93c0 .261.214.475.474.475h7.587c.26 0 .474-.214.474-.474v-1.209c-.526-.167-1.365-.428-1.492-.491z" id="path381" fill="#70798d"/><path class="st0" d="M16.337 28.901c0-.237-.04-1.122-.196-1.22-.157-.098-.255-.139-.451-.434-.197-.295-.475-1.058-.434-1.226.04-.167.156-.248.11-.503-.047-.254-.243-.804-.11-1.237.139-.434.306-1.151.422-1.417.116-.266.601-1.053 1.203-1.238.601-.185 1.295-.248 1.544-.185.248.064.879.04 1.099.133.22.093.445.451.682.584.237.133.55.266.682.515.133.249.052.486.197.706.144.225.116.705 0 1.231-.116.527-.197.868-.133.954.064.093.168.14.116.452-.052.312-.26 1.318-.353 1.399-.093.08-.3.156-.33.364-.029.208-.156.816-.104.983.052.168.497.983.682 1.076.128.064.966.324 1.48.48V21.47a.476.476 0 0 0-.473-.474h-7.582a.476.476 0 0 0-.474.474v9.137c.498-.249 1.186-.578 1.59-.723.694-.237.833-.746.833-.983z" id="path383" fill="#e9f1ff"/></svg>