<svg xmlns="http://www.w3.org/2000/svg" viewBox="0 0 50 50" id="svg2" width="50" height="50"><style id="style4">.st0{fill:#e9f1ff}.st1{fill:#70798d}</style><g id="Layer_3" transform="translate(-3.398 -5.403) scale(.05864)"><path class="st0" d="M196.6 818l2.9-3c.5-.6.5-1.4 0-2-2.6-2.6-5.3-5.2-7.8-7.8-.5-.6-1.4-.6-2 0l-3 2.9c-.6.5-.6 1.4 0 2 2.6 2.7 5.3 5.3 8 8 .5.5 1.4.4 1.9-.1z" id="path7" fill="#e9f1ff"/><path class="st0" d="M212.1 832.2l2.8-3.2c.5-.6.4-1.5-.1-2-2.8-2.4-5.5-4.9-8.2-7.4-.6-.5-1.4-.5-2 .1l-2.9 3.1c-.5.6-.5 1.5.1 2 2.7 2.5 5.5 5.1 8.4 7.5.5.5 1.4.5 1.9-.1z" id="path9" fill="#e9f1ff"/><path class="st0" d="M231.5 841.1c-3.2-2.5-6.3-5.1-9.4-7.7-.6-.5-1.5-.4-2 .2l-2.7 3.2c-.5.6-.4 1.5.2 2 3.2 2.6 6.4 5.3 9.6 7.8l.2.2 4.3-5.5-.2-.2z" id="path11" fill="#e9f1ff"/><path class="st0" d="M282.6 877.2c.4-.7.1-1.5-.5-1.9-3.2-1.8-6.4-3.7-9.5-5.6-.7-.4-1.5-.2-1.9.5l-2.2 3.6c-.4.7-.2 1.5.5 1.9 3.2 2 6.4 3.9 9.7 5.7.7.4 1.5.1 1.9-.5l2-3.7z" id="path13" fill="#e9f1ff"/><path class="st0" d="M262.5 870l2.3-3.5c.4-.6.2-1.5-.4-1.9-3.1-2-6.2-4-9.2-6.1-.6-.4-1.5-.3-1.9.4l-2.4 3.5c-.4.6-.3 1.5.4 1.9 3.1 2.1 6.2 4.2 9.4 6.2.5.3 1.4.1 1.8-.5z" id="path15" fill="#e9f1ff"/><path class="st0" d="M247.5 854.8c.4-.6.3-1.5-.3-1.9-3-2.1-6-4.3-8.9-6.6-.6-.5-1.5-.3-1.9.3l-2.5 3.3c-.5.6-.4 1.5.3 2 3 2.3 6 4.5 9.1 6.7.6.5 1.5.3 2-.3l2.2-3.5z" id="path17" fill="#e9f1ff"/><path class="st0" d="M120.5 717.8l3.7-2c.7-.4.9-1.2.6-1.9-1.7-3.2-3.5-6.5-5.1-9.8-.3-.7-1.2-1-1.9-.6l-3.8 1.9c-.7.3-1 1.2-.6 1.9 1.7 3.4 3.4 6.7 5.2 10 .3.6 1.2.9 1.9.5z" id="path19" fill="#e9f1ff"/><path class="st0" d="M300.3 885.1c-3.3-1.7-6.6-3.4-9.8-5.1-.7-.4-1.5-.1-1.9.6l-2 3.7c-.4.7-.1 1.5.6 1.9 3.3 1.8 6.6 3.5 10 5.2.7.4 1.5.1 1.9-.6l1.9-3.7c.3-.8 0-1.6-.7-2z" id="path21" fill="#e9f1ff"/><path class="st0" d="M110.9 699.1l3.8-1.8c.7-.3 1-1.2.7-1.9-1.6-3.3-3.1-6.7-4.6-10.1-.3-.7-1.1-1-1.8-.7l-3.8 1.7c-.7.3-1 1.1-.7 1.8 1.5 3.4 3.1 6.9 4.7 10.3.2.7 1 1 1.7.7z" id="path23" fill="#e9f1ff"/><path class="st0" d="M131 736.1l3.6-2.2c.7-.4.9-1.3.5-1.9-1.9-3.2-3.8-6.4-5.6-9.6-.4-.7-1.2-.9-1.9-.5l-3.7 2.1c-.7.4-.9 1.2-.5 1.9 1.9 3.3 3.8 6.5 5.7 9.7.4.7 1.2.9 1.9.5z" id="path25" fill="#e9f1ff"/><path class="st0" d="M167.9 787.3l3.2-2.7c.6-.5.7-1.4.2-2-2.4-2.8-4.7-5.7-7-8.6-.5-.6-1.4-.7-2-.2l-3.3 2.6c-.6.5-.7 1.4-.2 2 2.3 2.9 4.7 5.9 7.1 8.7.5.6 1.4.7 2 .2z" id="path27" fill="#e9f1ff"/><path class="st0" d="M142.4 753.8l3.5-2.4c.6-.4.8-1.3.4-1.9-2.1-3.1-4.1-6.2-6.1-9.3-.4-.6-1.3-.8-1.9-.4l-3.5 2.2c-.7.4-.8 1.3-.4 1.9 2 3.2 4.1 6.3 6.2 9.4.3.8 1.2 1 1.8.5z" id="path29" fill="#e9f1ff"/><path class="st0" d="M102.3 679.8l3.9-1.6c.7-.3 1-1.1.8-1.8-1.4-3.4-2.8-6.8-4.1-10.3-.3-.7-1.1-1.1-1.8-.8l-3.9 1.5c-.7.3-1.1 1.1-.8 1.8 1.3 3.5 2.7 7 4.2 10.5.2.7 1 1 1.7.7z" id="path31" fill="#e9f1ff"/><path class="st0" d="M154.7 770.9l3.3-2.5c.6-.5.7-1.3.3-1.9-2.2-2.9-4.4-5.9-6.5-8.9-.4-.6-1.3-.8-1.9-.3l-3.4 2.4c-.6.4-.8 1.3-.3 2 2.2 3 4.4 6.1 6.7 9.1.3.4 1.2.5 1.8.1z" id="path33" fill="#e9f1ff"/><path class="st0" d="M181.8 803l3.1-2.9c.6-.5.6-1.4.1-2-2.5-2.7-5-5.4-7.4-8.2-.5-.6-1.4-.6-2-.1l-3.2 2.8c-.6.5-.6 1.4-.1 2 2.5 2.8 5 5.6 7.6 8.4.5.5 1.4.5 1.9 0z" id="path35" fill="#e9f1ff"/><path class="st0" d="M479.8 929.2c-3.7 0-7.4-.1-11-.3-.8 0-1.4.6-1.4 1.3l-.2 4.2c0 .8.6 1.4 1.3 1.5l11.2.3c.8 0 1.4-.6 1.4-1.4v-4.2c.1-.8-.5-1.4-1.3-1.4z" id="path37" fill="#e9f1ff"/><path class="st0" d="M78.4 565.5c-.1-.8-.8-1.3-1.5-1.2l-4.2.5c-.8.1-1.3.8-1.2 1.5.4 3.7.9 7.5 1.4 11.2.1.8.8 1.3 1.6 1.2l4.1-.6c.8-.1 1.3-.8 1.2-1.6-.5-3.7-1-7.3-1.4-11z" id="path39" fill="#e9f1ff"/><path class="st0" d="M74.5 522.8h-4.2c-.8 0-1.4.6-1.4 1.4 0 3.7.1 7.5.3 11.2 0 .8.7 1.4 1.5 1.3l4.2-.2c.8 0 1.4-.7 1.3-1.4-.1-3.7-.2-7.4-.3-11 0-.7-.7-1.4-1.4-1.3z" id="path41" fill="#e9f1ff"/><path class="st0" d="M510.2 928.5c-.8 0-1.4.7-1.3 1.5l.2 4.2c0 .8.7 1.4 1.5 1.3 3.7-.2 7.5-.5 11.2-.8.8-.1 1.3-.8 1.3-1.5l-.4-4.2c-.1-.8-.7-1.3-1.5-1.3-3.6.3-7.3.5-11 .8z" id="path43" fill="#e9f1ff"/><path class="st0" d="M551.4 923.9c-.8.1-1.3.8-1.2 1.6l.7 4.1c.1.8.8 1.3 1.6 1.2 3.7-.6 7.4-1.3 11.1-2 .8-.1 1.3-.9 1.1-1.6l-.8-4.1c-.1-.8-.9-1.2-1.6-1.1-3.6.6-7.3 1.3-10.9 1.9z" id="path45" fill="#e9f1ff"/><path class="st0" d="M76.6 544.8c0-.8-.7-1.4-1.5-1.3l-4.2.2c-.8 0-1.4.7-1.3 1.5.2 3.7.5 7.5.8 11.2.1.8.8 1.3 1.5 1.3l4.2-.4c.8-.1 1.3-.7 1.3-1.5-.3-3.6-.5-7.3-.8-11z" id="path47" fill="#e9f1ff"/><path class="st0" d="M530.9 926.7c-.8.1-1.3.8-1.2 1.5l.5 4.2c.1.8.8 1.3 1.5 1.2 3.7-.4 7.5-.9 11.2-1.4.8-.1 1.3-.8 1.2-1.6l-.6-4.1c-.1-.8-.8-1.3-1.6-1.2-3.7.5-7.4 1-11 1.4z" id="path49" fill="#e9f1ff"/><path class="st0" d="M459.1 928.4c-3.7-.2-7.4-.5-11-.8-.8-.1-1.4.5-1.5 1.3l-.4 4.2c-.1.8.5 1.5 1.3 1.5 3.7.3 7.5.6 11.2.9.8 0 1.4-.5 1.5-1.3l.3-4.2c-.1-.9-.6-1.5-1.4-1.6z" id="path51" fill="#e9f1ff"/><path class="st0" d="M357.7 909c-3.5-1.1-7-2.3-10.5-3.6-.7-.3-1.5.1-1.8.8l-1.4 3.9c-.3.7.1 1.5.8 1.8 3.5 1.3 7.1 2.5 10.7 3.7.7.2 1.5-.2 1.8-.9l1.3-4c.3-.7-.1-1.5-.9-1.7z" id="path53" fill="#e9f1ff"/><path class="st0" d="M377.6 914.9c-3.5-1-7.1-2-10.6-3-.7-.2-1.5.2-1.7.9l-1.2 4c-.2.7.2 1.5.9 1.7 3.6 1.1 7.2 2.1 10.8 3.1.7.2 1.5-.2 1.7-1l1.1-4c.1-.7-.3-1.5-1-1.7z" id="path55" fill="#e9f1ff"/><path class="st0" d="M338.2 902c-3.4-1.3-6.9-2.7-10.3-4.1-.7-.3-1.5 0-1.8.7l-1.6 3.9c-.3.7 0 1.5.7 1.8l10.5 4.2c.7.3 1.5-.1 1.8-.8l1.5-3.9c.3-.7-.1-1.5-.8-1.8z" id="path57" fill="#e9f1ff"/><path class="st0" d="M418 923.7c-3.6-.6-7.3-1.3-10.8-1.9-.8-.1-1.5.3-1.6 1.1l-.8 4.1c-.1.8.3 1.5 1.1 1.6 3.7.7 7.4 1.4 11.1 2 .8.1 1.5-.4 1.6-1.2l.7-4.1c-.1-.7-.6-1.4-1.3-1.6z" id="path59" fill="#e9f1ff"/><path class="st0" d="M438.5 926.6c-3.6-.4-7.3-.9-10.9-1.4-.8-.1-1.5.4-1.6 1.2l-.6 4.1c-.1.8.4 1.5 1.2 1.6 3.7.5 7.4 1 11.1 1.4.8.1 1.5-.5 1.5-1.2l.5-4.2c.1-.7-.5-1.4-1.2-1.5z" id="path61" fill="#e9f1ff"/><path class="st0" d="M397.6 919.8c-3.6-.8-7.2-1.6-10.7-2.5-.7-.2-1.5.3-1.7 1l-1 4.1c-.2.8.3 1.5 1 1.7 3.6.9 7.3 1.7 10.9 2.5.8.2 1.5-.3 1.7-1.1l.9-4.1c.2-.7-.3-1.4-1.1-1.6z" id="path63" fill="#e9f1ff"/><path class="st0" d="M319 894.1c-3.4-1.5-6.7-3-10-4.6-.7-.3-1.5 0-1.9.7l-1.8 3.8c-.3.7 0 1.5.7 1.9 3.4 1.6 6.8 3.2 10.2 4.7.7.3 1.5 0 1.8-.7l1.7-3.8c.4-.9 0-1.7-.7-2z" id="path65" fill="#e9f1ff"/><path class="st0" d="M489.5 929.2c-.8 0-1.4.6-1.4 1.4v4.2c0 .8.6 1.4 1.4 1.4 3.7 0 7.5-.1 11.3-.3.8 0 1.4-.7 1.3-1.5l-.2-4.2c0-.8-.7-1.4-1.4-1.3-3.6.2-7.3.3-11 .3z" id="path67" fill="#e9f1ff"/><path class="st0" d="M552.4 115.8c3.6.6 7.3 1.2 10.8 1.9.8.1 1.5-.3 1.6-1.1l.8-4.1c.1-.8-.3-1.5-1.1-1.6-3.7-.7-7.4-1.4-11.1-2-.8-.1-1.5.4-1.6 1.2l-.7 4.1c0 .8.5 1.5 1.3 1.6z" id="path69" fill="#e9f1ff"/><path class="st0" d="M572.7 119.7c3.6.8 7.2 1.6 10.7 2.5.7.2 1.5-.3 1.7-1l1-4.1c.2-.8-.3-1.5-1-1.7-3.6-.9-7.3-1.7-10.9-2.5-.8-.2-1.5.3-1.7 1.1l-.9 4.1c-.1.7.3 1.5 1.1 1.6z" id="path71" fill="#e9f1ff"/><path class="st0" d="M94.7 660.2l3.9-1.4c.7-.3 1.1-1.1.8-1.8l-3.6-10.5c-.2-.7-1-1.1-1.8-.9l-4 1.3c-.7.2-1.1 1-.9 1.8 1.2 3.6 2.4 7.1 3.6 10.7.5.7 1.3 1 2 .8z" id="path73" fill="#e9f1ff"/><path class="st0" d="M511.2 111.2c3.7.2 7.3.5 11 .8.8.1 1.4-.5 1.5-1.3l.4-4.2c.1-.8-.5-1.5-1.3-1.5-3.7-.3-7.5-.6-11.2-.9-.8 0-1.4.5-1.5 1.3l-.2 4.2c0 .9.6 1.5 1.3 1.6z" id="path75" fill="#e9f1ff"/><path class="st0" d="M592.8 124.6c3.5 1 7.1 2 10.6 3 .7.2 1.5-.2 1.7-.9l1.2-4c.2-.7-.2-1.5-.9-1.7-3.6-1.1-7.2-2.1-10.8-3.1-.7-.2-1.5.2-1.7 1l-1.1 4c-.2.8.2 1.5 1 1.7z" id="path77" fill="#e9f1ff"/><path class="st0" d="M480.8 110.4c.8 0 1.4-.6 1.4-1.4v-4.2c0-.8-.6-1.4-1.4-1.4-3.7 0-7.5.1-11.2.3-.8 0-1.4.7-1.3 1.5l.2 4.2c0 .8.7 1.4 1.4 1.3 3.6-.2 7.3-.3 10.9-.3z" id="path79" fill="#e9f1ff"/><path class="st0" d="M490.5 110.4c3.7 0 7.4.1 11 .3.8 0 1.4-.6 1.4-1.3l.2-4.2c0-.8-.6-1.4-1.3-1.5l-11.2-.3c-.8 0-1.4.6-1.4 1.4v4.2c-.1.8.6 1.4 1.3 1.4z" id="path81" fill="#e9f1ff"/><path class="st0" d="M670 154.3c3.3 1.7 6.6 3.4 9.8 5.1.7.4 1.5.1 1.9-.6l2-3.7c.4-.7.1-1.5-.6-1.9-3.3-1.8-6.6-3.5-10-5.2-.7-.3-1.5-.1-1.9.6l-1.9 3.7c-.2.9 0 1.7.7 2z" id="path83" fill="#e9f1ff"/><path class="st0" d="M687.8 162.3c-.4.7-.1 1.5.5 1.9 3.2 1.8 6.4 3.7 9.5 5.6.7.4 1.5.2 1.9-.5l2.2-3.6c.4-.7.2-1.5-.5-1.9-3.2-1.9-6.5-3.9-9.7-5.7-.7-.4-1.5-.1-1.9.5l-2 3.7z" id="path85" fill="#e9f1ff"/><path class="st0" d="M707.9 169.5l-2.3 3.5c-.4.6-.2 1.5.4 1.9 3.1 2 6.2 4 9.2 6.1.6.4 1.5.3 1.9-.4l2.4-3.5c.4-.6.3-1.5-.4-1.9-3.1-2.1-6.2-4.2-9.4-6.2-.6-.4-1.4-.2-1.8.5z" id="path87" fill="#e9f1ff"/><path class="st0" d="M722.9 184.6c-.4.6-.3 1.5.3 1.9 3 2.1 6 4.3 8.9 6.5.6.5 1.5.3 1.9-.3l2.5-3.3c.5-.6.4-1.5-.3-2-3-2.3-6-4.5-9.1-6.7-.6-.5-1.5-.3-2 .3l-2.2 3.6z" id="path89" fill="#e9f1ff"/><path class="st0" d="M632.1 137.5c3.4 1.3 6.9 2.7 10.3 4.1.7.3 1.5 0 1.8-.7l1.6-3.9c.3-.7 0-1.5-.7-1.8l-10.5-4.2c-.7-.3-1.5.1-1.8.8l-1.5 3.9c-.2.7.1 1.5.8 1.8z" id="path91" fill="#e9f1ff"/><path class="st0" d="M460.1 111.2c.8 0 1.4-.7 1.3-1.5l-.2-4.2c0-.8-.7-1.4-1.5-1.3-3.7.2-7.5.5-11.2.8-.8.1-1.3.8-1.3 1.5l.4 4.2c.1.8.7 1.3 1.5 1.3 3.7-.3 7.4-.6 11-.8z" id="path93" fill="#e9f1ff"/><path class="st0" d="M612.6 130.6c3.5 1.1 7 2.3 10.5 3.6.7.3 1.5-.1 1.8-.8l1.4-3.9c.3-.7-.1-1.5-.8-1.8-3.5-1.3-7.1-2.5-10.7-3.6-.7-.2-1.5.2-1.8.9l-1.3 4c-.2.5.2 1.3.9 1.6z" id="path95" fill="#e9f1ff"/><path class="st0" d="M651.3 145.4c3.4 1.5 6.7 3 10 4.6.7.3 1.5 0 1.9-.7l1.8-3.8c.3-.7 0-1.5-.7-1.9-3.4-1.6-6.8-3.2-10.2-4.7-.7-.3-1.5 0-1.8.7l-1.7 3.8c-.3.9 0 1.7.7 2z" id="path97" fill="#e9f1ff"/><path class="st0" d="M531.9 113c3.6.4 7.3.9 10.9 1.4.8.1 1.5-.4 1.6-1.2l.6-4.1c.1-.8-.4-1.5-1.2-1.6-3.7-.5-7.4-1-11.1-1.4-.8-.1-1.5.5-1.5 1.2l-.5 4.2c-.2.7.4 1.4 1.2 1.5z" id="path99" fill="#e9f1ff"/><path class="st0" d="M92.1 639c.7-.2 1.2-1 .9-1.7-1.1-3.5-2.1-7.1-3-10.6-.2-.7-1-1.2-1.7-1l-4.1 1.1c-.7.2-1.2 1-1 1.7 1 3.6 2 7.3 3.1 10.8.2.7 1 1.2 1.7.9l4.1-1.2z" id="path101" fill="#e9f1ff"/><path class="st0" d="M439.5 113c.8-.1 1.3-.8 1.2-1.5l-.5-4.2c-.1-.8-.8-1.3-1.5-1.2-3.7.4-7.5.9-11.2 1.4-.8.1-1.3.8-1.2 1.6l.6 4.2c.1.8.8 1.3 1.6 1.2 3.6-.7 7.3-1.1 11-1.5z" id="path103" fill="#e9f1ff"/><path class="st0" d="M86.6 618.9c.7-.2 1.2-.9 1-1.7-.9-3.6-1.7-7.2-2.5-10.8-.2-.8-.9-1.2-1.7-1.1l-4.1.9c-.8.2-1.2.9-1.1 1.7.8 3.7 1.6 7.3 2.5 11 .2.8.9 1.2 1.7 1l4.2-1z" id="path105" fill="#e9f1ff"/><path class="st0" d="M82.1 598.6c.8-.1 1.2-.9 1.1-1.6-.7-3.6-1.3-7.3-1.9-10.9-.1-.8-.8-1.3-1.6-1.2l-4.1.7c-.8.1-1.3.8-1.2 1.6.6 3.7 1.3 7.4 2 11.1.1.8.9 1.3 1.6 1.1l4.1-.8z" id="path107" fill="#e9f1ff"/><path class="st0" d="M378.4 124.6c.7-.2 1.2-1 1-1.7l-1.1-4.1c-.2-.7-1-1.2-1.7-1-3.6 1-7.3 2-10.8 3.1-.7.2-1.2 1-.9 1.7l1.2 4c.2.7 1 1.2 1.7.9 3.4-1 7-2 10.6-2.9z" id="path109" fill="#e9f1ff"/><path class="st0" d="M418.9 115.8c.8-.1 1.3-.8 1.2-1.6l-.7-4.1c-.1-.8-.8-1.3-1.6-1.2-3.7.6-7.4 1.3-11.1 2-.8.1-1.3.9-1.1 1.6l.8 4.1c.1.8.9 1.2 1.6 1.1 3.6-.7 7.3-1.3 10.9-1.9z" id="path111" fill="#e9f1ff"/><path class="st0" d="M398.5 119.7c.8-.2 1.2-.9 1.1-1.7l-.9-4.1c-.2-.8-.9-1.2-1.7-1.1-3.7.8-7.4 1.6-11 2.5-.8.2-1.2.9-1 1.7l1 4.1c.2.7.9 1.2 1.7 1l10.8-2.4z" id="path113" fill="#e9f1ff"/><path class="st0" d="M328.6 141.5c3.4-1.4 6.8-2.8 10.3-4.1.7-.3 1.1-1.1.8-1.8l-1.5-3.9c-.3-.7-1.1-1.1-1.8-.8-3.5 1.3-7 2.7-10.5 4.2-.7.3-1.1 1.1-.8 1.8l1.6 3.9c.4.6 1.2 1 1.9.7z" id="path115" fill="#e9f1ff"/><path class="st0" d="M348 134l10.5-3.6c.7-.2 1.1-1 .9-1.8l-1.3-4c-.2-.7-1-1.1-1.8-.9-3.6 1.2-7.1 2.4-10.7 3.6-.7.3-1.1 1.1-.8 1.8l1.4 3.9c.3.9 1.1 1.3 1.8 1z" id="path117" fill="#e9f1ff"/><path class="st0" d="M886.9 606.5c-.8-.2-1.5.3-1.7 1.1-.8 3.6-1.6 7.2-2.5 10.7-.2.7.3 1.5 1 1.7l4.1 1c.8.2 1.5-.3 1.7-1 .9-3.6 1.7-7.3 2.5-10.9.2-.8-.3-1.5-1.1-1.7l-4-.9z" id="path119" fill="#e9f1ff"/><path class="st0" d="M893.6 565.5c-.8-.1-1.5.5-1.5 1.2-.4 3.6-.9 7.3-1.4 10.9-.1.8.4 1.5 1.2 1.6l4.1.6c.8.1 1.5-.4 1.6-1.2.5-3.7 1-7.4 1.4-11.1.1-.8-.5-1.5-1.2-1.5l-4.2-.5z" id="path121" fill="#e9f1ff"/><path class="st0" d="M890.8 586.1c-.8-.1-1.5.4-1.6 1.1-.6 3.6-1.3 7.3-2 10.8-.1.8.3 1.5 1.1 1.6l4.1.8c.8.2 1.5-.3 1.6-1.1.7-3.7 1.4-7.4 2-11.1.1-.8-.4-1.5-1.2-1.6l-4-.5z" id="path123" fill="#e9f1ff"/><path class="st0" d="M895.4 544.8c-.8 0-1.4.5-1.5 1.3-.2 3.7-.5 7.4-.8 11-.1.8.5 1.4 1.3 1.5l4.2.4c.8.1 1.5-.5 1.5-1.3.3-3.7.6-7.5.9-11.2 0-.8-.5-1.4-1.3-1.5l-4.3-.2z" id="path125" fill="#e9f1ff"/><path class="st0" d="M894.4 482.5c-.8.1-1.3.7-1.3 1.5.3 3.7.6 7.4.8 11 0 .8.7 1.4 1.5 1.3l4.2-.2c.8 0 1.4-.7 1.3-1.5-.2-3.7-.5-7.5-.8-11.2-.1-.8-.8-1.3-1.5-1.3l-4.2.4z" id="path127" fill="#e9f1ff"/><path class="st0" d="M892 461.8c-.8.1-1.3.8-1.2 1.6.5 3.6 1 7.3 1.4 11 .1.8.8 1.3 1.5 1.2l4.2-.5c.8-.1 1.3-.8 1.2-1.5-.4-3.7-.9-7.5-1.4-11.2-.1-.8-.8-1.3-1.6-1.2l-4.1.6z" id="path129" fill="#e9f1ff"/><path class="st0" d="M896.1 524c-.8 0-1.4.6-1.4 1.4 0 3.7-.1 7.4-.3 11 0 .8.6 1.4 1.3 1.4l4.2.2c.8 0 1.4-.6 1.5-1.3l.3-11.2c0-.8-.6-1.4-1.4-1.4l-4.2-.1z" id="path131" fill="#e9f1ff"/><path class="st0" d="M895.8 503.2c-.8 0-1.4.7-1.3 1.4.1 3.7.2 7.4.3 11 0 .8.6 1.4 1.4 1.4h4.2c.8 0 1.4-.6 1.4-1.4 0-3.7-.1-7.5-.3-11.2 0-.8-.7-1.4-1.5-1.3l-4.2.1z" id="path133" fill="#e9f1ff"/><path class="st0" d="M882.1 626.7c-.7-.2-1.5.2-1.7 1-1 3.5-2 7.1-3 10.6-.2.7.2 1.5.9 1.7l4 1.2c.7.2 1.5-.2 1.7-.9 1.1-3.6 2.1-7.2 3.1-10.8.2-.7-.2-1.5-1-1.7l-4-1.1z" id="path135" fill="#e9f1ff"/><path class="st0" d="M876.2 646.6c-.7-.2-1.5.2-1.8.9-1.1 3.5-2.3 7-3.6 10.5-.3.7.1 1.5.8 1.8l3.9 1.4c.7.3 1.5-.1 1.8-.8 1.3-3.5 2.5-7.1 3.7-10.7.2-.7-.2-1.5-.9-1.8l-3.9-1.3z" id="path137" fill="#e9f1ff"/><path class="st0" d="M788.9 236.8l-3.1 2.9c-.6.5-.6 1.4-.1 2 2.5 2.7 5 5.4 7.4 8.2.5.6 1.4.6 2 .1l3.2-2.8c.6-.5.6-1.4.1-2l-7.5-8.4c-.5-.5-1.4-.5-2 0z" id="path139" fill="#e9f1ff"/><path class="st0" d="M828.3 286l-3.5 2.4c-.6.4-.8 1.3-.4 1.9 2.1 3 4.1 6.2 6.1 9.3.4.6 1.3.8 1.9.4l3.5-2.2c.7-.4.9-1.3.4-1.9-2-3.2-4.1-6.3-6.2-9.4-.3-.8-1.2-.9-1.8-.5z" id="path141" fill="#e9f1ff"/><path class="st0" d="M816 268.9l-3.3 2.5c-.6.5-.7 1.3-.3 1.9 2.2 2.9 4.4 5.9 6.5 8.9.4.6 1.3.8 1.9.3l3.4-2.4c.6-.4.8-1.3.3-2-2.2-3-4.4-6.1-6.7-9.1-.3-.4-1.2-.5-1.8-.1z" id="path143" fill="#e9f1ff"/><path class="st0" d="M802.9 252.5l-3.2 2.7c-.6.5-.7 1.4-.2 2 2.4 2.8 4.7 5.7 7 8.6.5.6 1.3.7 2 .2l3.3-2.6c.6-.5.7-1.4.2-2-2.3-2.9-4.7-5.9-7.1-8.7-.6-.6-1.4-.7-2-.2z" id="path145" fill="#e9f1ff"/><path class="st0" d="M774.2 221.8l-2.9 3c-.5.6-.5 1.4 0 2l7.8 7.8c.5.6 1.4.6 2 0l3-2.9c.6-.5.6-1.4 0-2-2.6-2.7-5.3-5.4-8-8-.5-.5-1.4-.4-1.9.1z" id="path147" fill="#e9f1ff"/><path class="st0" d="M571.8 920c-.8.2-1.2.9-1.1 1.7l.9 4.1c.2.8.9 1.2 1.7 1.1 3.7-.8 7.4-1.6 11-2.5.8-.2 1.2-.9 1-1.7l-1-4.1c-.2-.7-.9-1.2-1.7-1l-10.8 2.4z" id="path149" fill="#e9f1ff"/><path class="st0" d="M758.7 207.6l-2.8 3.2c-.5.6-.4 1.5.1 2 2.8 2.4 5.5 4.9 8.2 7.4.6.5 1.4.5 2-.1l2.9-3.1c.5-.6.5-1.5-.1-2-2.7-2.5-5.5-5.1-8.4-7.6-.5-.5-1.4-.4-1.9.2z" id="path151" fill="#e9f1ff"/><path class="st0" d="M738.7 198.2l.4.3c3.2 2.6 6.5 5.2 9.6 7.9.6.5 1.5.4 2-.2l2.7-3.2c.5-.6.4-1.5-.2-2-3.2-2.7-6.5-5.4-9.8-8l-.4-.3-4.3 5.5z" id="path153" fill="#e9f1ff"/><path class="st0" d="M878.5 400.9c-.7.2-1.2 1-.9 1.7 1 3.5 2.1 7.1 3 10.6.2.7 1 1.2 1.7 1l4.1-1.1c.7-.2 1.2-1 1-1.7-1-3.6-2-7.3-3.1-10.8-.2-.7-1-1.2-1.7-.9l-4.1 1.2z" id="path155" fill="#e9f1ff"/><path class="st0" d="M876 379.7l-3.9 1.4c-.7.3-1.1 1.1-.8 1.8l3.6 10.5c.2.7 1 1.1 1.8.9l4-1.3c.7-.2 1.1-1 .9-1.8-1.2-3.6-2.4-7.1-3.6-10.7-.5-.7-1.3-1.1-2-.8z" id="path157" fill="#e9f1ff"/><path class="st0" d="M884 421c-.7.2-1.2.9-1 1.7.9 3.6 1.7 7.2 2.5 10.8.2.8.9 1.2 1.7 1.1l4.1-.9c.8-.2 1.2-.9 1.1-1.7-.8-3.7-1.6-7.3-2.5-11-.2-.8-.9-1.2-1.7-1l-4.2 1z" id="path159" fill="#e9f1ff"/><path class="st0" d="M868.4 360l-3.9 1.6c-.7.3-1 1.1-.8 1.8 1.4 3.4 2.8 6.9 4.1 10.3.3.7 1.1 1.1 1.8.8l3.9-1.5c.7-.3 1.1-1.1.8-1.8-1.3-3.5-2.7-7-4.2-10.5-.2-.6-1-1-1.7-.7z" id="path161" fill="#e9f1ff"/><path class="st0" d="M850.2 322l-3.7 2c-.7.4-.9 1.2-.6 1.9 1.7 3.2 3.5 6.5 5.1 9.8.3.7 1.2 1 1.9.6l3.8-1.9c.7-.3 1-1.2.6-1.9-1.7-3.4-3.4-6.7-5.2-10-.3-.6-1.2-.9-1.9-.5z" id="path163" fill="#e9f1ff"/><path class="st0" d="M859.8 340.8l-3.8 1.8c-.7.3-1 1.2-.7 1.9 1.6 3.3 3.1 6.7 4.6 10.1.3.7 1.1 1 1.8.7l3.8-1.7c.7-.3 1-1.1.7-1.8-1.5-3.4-3.1-6.9-4.7-10.3-.2-.8-1-1-1.7-.7z" id="path165" fill="#e9f1ff"/><path class="st0" d="M839.7 303.7l-3.6 2.2c-.7.4-.9 1.3-.5 1.9 1.9 3.1 3.8 6.4 5.6 9.6.4.7 1.2.9 1.9.5l3.7-2.1c.7-.4.9-1.2.5-1.9-1.9-3.3-3.8-6.5-5.7-9.7-.3-.7-1.2-.9-1.9-.5z" id="path167" fill="#e9f1ff"/><path class="st0" d="M888.5 441.3c-.8.1-1.2.9-1.1 1.6.7 3.6 1.3 7.3 1.9 10.9.1.8.8 1.3 1.6 1.2l4.1-.7c.8-.1 1.3-.8 1.2-1.6-.6-3.7-1.3-7.4-2-11.1-.1-.8-.9-1.3-1.6-1.1l-4.1.8z" id="path169" fill="#e9f1ff"/><path class="st0" d="M660.8 889.8c-3.3 1.6-6.7 3.1-10.1 4.6-.7.3-1 1.1-.7 1.8l1.7 3.8c.3.7 1.1 1 1.8.7 3.4-1.5 6.9-3.1 10.3-4.7.7-.3 1-1.2.7-1.9l-1.8-3.8c-.4-.5-1.2-.8-1.9-.5z" id="path171" fill="#e9f1ff"/><path class="st0" d="M86.7 419.9l-4.1-1c-.8-.2-1.5.3-1.7 1-.9 3.6-1.7 7.3-2.5 10.9-.2.8.3 1.5 1.1 1.7l4.1.9c.8.2 1.5-.3 1.7-1.1.8-3.6 1.6-7.2 2.5-10.7.1-.8-.3-1.5-1.1-1.7z" id="path173" fill="#e9f1ff"/><path class="st0" d="M92.3 399.9l-4-1.2c-.7-.2-1.5.2-1.7.9-1.1 3.6-2.1 7.2-3.1 10.8-.2.7.2 1.5 1 1.7l4 1.1c.7.2 1.5-.2 1.7-1 1-3.5 2-7.1 3-10.6.2-.7-.2-1.5-.9-1.7z" id="path175" fill="#e9f1ff"/><path class="st0" d="M98.8 380.1l-3.9-1.4c-.7-.3-1.5.1-1.8.8-1.3 3.5-2.5 7.1-3.6 10.7-.2.7.2 1.5.9 1.8l4 1.3c.7.2 1.5-.2 1.8-.9 1.1-3.5 2.3-7 3.6-10.5.1-.7-.3-1.5-1-1.8z" id="path177" fill="#e9f1ff"/><path class="st0" d="M76.2 481.2l-4.2-.4c-.8-.1-1.5.5-1.5 1.3-.3 3.7-.6 7.5-.9 11.2 0 .8.5 1.4 1.3 1.5l4.2.2c.8 0 1.4-.5 1.5-1.3.2-3.7.5-7.3.8-11 .2-.7-.4-1.4-1.2-1.5z" id="path179" fill="#e9f1ff"/><path class="st0" d="M592 915.1c-.7.2-1.2 1-1 1.7l1.1 4.1c.2.7 1 1.2 1.7 1 3.6-1 7.3-2 10.8-3.1.7-.2 1.2-1 .9-1.7l-1.2-4c-.2-.7-1-1.2-1.7-.9-3.5.9-7.1 2-10.6 2.9z" id="path181" fill="#e9f1ff"/><path class="st0" d="M74.8 502l-4.2-.2c-.8 0-1.4.6-1.5 1.3l-.3 11.2c0 .8.6 1.4 1.4 1.4h4.2c.8 0 1.4-.6 1.4-1.4 0-3.7.1-7.4.3-11 .1-.7-.5-1.3-1.3-1.3z" id="path183" fill="#e9f1ff"/><path class="st0" d="M106.4 360.8l-3.9-1.6c-.7-.3-1.5 0-1.8.7l-4.2 10.5c-.3.7.1 1.5.8 1.8l3.9 1.5c.7.3 1.5-.1 1.8-.8 1.3-3.4 2.7-6.9 4.1-10.3.3-.7 0-1.5-.7-1.8z" id="path185" fill="#e9f1ff"/><path class="st0" d="M641.8 898.2c-3.4 1.4-6.8 2.8-10.3 4.1-.7.3-1.1 1.1-.8 1.8l1.5 3.9c.3.7 1.1 1.1 1.8.8 3.5-1.3 7-2.7 10.5-4.2.7-.3 1.1-1.1.8-1.8l-1.6-3.9c-.4-.6-1.2-1-1.9-.7z" id="path187" fill="#e9f1ff"/><path class="st0" d="M78.7 460.6l-4.1-.6c-.8-.1-1.5.4-1.6 1.2-.5 3.7-1 7.4-1.4 11.1-.1.8.5 1.5 1.2 1.5l4.2.5c.8.1 1.5-.5 1.5-1.2.4-3.6.9-7.3 1.4-10.9.1-.8-.4-1.5-1.2-1.6z" id="path189" fill="#e9f1ff"/><path class="st0" d="M622.4 905.7l-10.5 3.6c-.7.2-1.1 1-.9 1.8l1.3 4c.2.7 1 1.1 1.8.9 3.6-1.2 7.1-2.4 10.7-3.6.7-.3 1.1-1.1.8-1.8l-1.4-3.9c-.3-.9-1.1-1.3-1.8-1z" id="path191" fill="#e9f1ff"/><path class="st0" d="M82.2 440.1l-4.1-.8c-.8-.1-1.5.3-1.6 1.1-.7 3.7-1.4 7.4-2 11.1-.1.8.4 1.5 1.2 1.6l4.1.7c.8.1 1.5-.4 1.6-1.1.6-3.6 1.3-7.3 1.9-10.8.1-.9-.4-1.6-1.1-1.8z" id="path193" fill="#e9f1ff"/></g><g id="Layer_4" transform="translate(-3.398 -5.403) scale(.05864)"><g id="g196"><path class="st0" d="M399.2 625.9h-252c-18 0-32.5-14.6-32.5-32.5V187c0-18 14.6-32.5 32.5-32.5h549.2c18 0 32.5 14.6 32.5 32.5v372.2c0 14-11.4 25.4-25.4 25.4H428.7c-12.4 0-22.5 10.1-22.5 22.5V619c0 3.8-3.2 6.9-7 6.9zm-252-461.5c-12.4 0-22.5 10.1-22.5 22.5v406.4c0 12.4 10.1 22.5 22.5 22.5h243.6c2.9 0 5.3-2.4 5.3-5.3V607c0-18 14.6-32.5 32.5-32.5h271.7c10.3 0 18.6-8.3 18.6-18.6V187c0-12.4-10.1-22.5-22.5-22.5H147.2z" id="path198" fill="#e9f1ff"/></g><path class="st0" d="M195.7 278.8h-20.1c-5.4 0-9.8-4.4-9.8-9.8v-15.2c0-5.4 4.4-9.8 9.8-9.8h20.1c5.4 0 9.8 4.4 9.8 9.8V269c0 5.4-4.4 9.8-9.8 9.8z" id="path200" fill="#e9f1ff"/><path class="st0" d="M273 278.8h-20.1c-5.4 0-9.8-4.4-9.8-9.8v-15.2c0-5.4 4.4-9.8 9.8-9.8H273c5.4 0 9.8 4.4 9.8 9.8V269c0 5.4-4.4 9.8-9.8 9.8z" id="path202" fill="#e9f1ff"/><path class="st0" d="M350.3 278.8h-20.1c-5.4 0-9.8-4.4-9.8-9.8v-15.2c0-5.4 4.4-9.8 9.8-9.8h20.1c5.4 0 9.8 4.4 9.8 9.8V269c0 5.4-4.4 9.8-9.8 9.8z" id="path204" fill="#e9f1ff"/><path class="st0" d="M427.6 278.8h-20.1c-5.4 0-9.8-4.4-9.8-9.8v-15.2c0-5.4 4.4-9.8 9.8-9.8h20.1c5.4 0 9.8 4.4 9.8 9.8V269c0 5.4-4.4 9.8-9.8 9.8z" id="path206" fill="#e9f1ff"/><path class="st0" d="M504.9 278.8h-20.1c-5.4 0-9.8-4.4-9.8-9.8v-15.2c0-5.4 4.4-9.8 9.8-9.8h20.1c5.4 0 9.8 4.4 9.8 9.8V269c0 5.4-4.4 9.8-9.8 9.8z" id="path208" fill="#e9f1ff"/><path class="st0" d="M582.2 278.8h-20.1c-5.4 0-9.8-4.4-9.8-9.8v-15.2c0-5.4 4.4-9.8 9.8-9.8h20.1c5.4 0 9.8 4.4 9.8 9.8V269c0 5.4-4.4 9.8-9.8 9.8z" id="path210" fill="#e9f1ff"/><path class="st0" d="M659.5 278.8h-20.1c-5.4 0-9.8-4.4-9.8-9.8v-15.2c0-5.4 4.4-9.8 9.8-9.8h20.1c5.4 0 9.8 4.4 9.8 9.8V269c0 5.4-4.3 9.8-9.8 9.8z" id="path212" fill="#e9f1ff"/><path class="st0" d="M195.7 341.6h-20.1c-5.4 0-9.8-4.4-9.8-9.8v-15.2c0-5.4 4.4-9.8 9.8-9.8h20.1c5.4 0 9.8 4.4 9.8 9.8v15.2c0 5.5-4.4 9.8-9.8 9.8z" id="path214" fill="#e9f1ff"/><path class="st0" d="M273 341.6h-20.1c-5.4 0-9.8-4.4-9.8-9.8v-15.2c0-5.4 4.4-9.8 9.8-9.8H273c5.4 0 9.8 4.4 9.8 9.8v15.2c0 5.5-4.4 9.8-9.8 9.8z" id="path216" fill="#e9f1ff"/><path class="st0" d="M350.3 341.6h-20.1c-5.4 0-9.8-4.4-9.8-9.8v-15.2c0-5.4 4.4-9.8 9.8-9.8h20.1c5.4 0 9.8 4.4 9.8 9.8v15.2c0 5.5-4.4 9.8-9.8 9.8z" id="path218" fill="#e9f1ff"/><path class="st0" d="M427.6 341.6h-20.1c-5.4 0-9.8-4.4-9.8-9.8v-15.2c0-5.4 4.4-9.8 9.8-9.8h20.1c5.4 0 9.8 4.4 9.8 9.8v15.2c0 5.5-4.4 9.8-9.8 9.8z" id="path220" fill="#e9f1ff"/><path class="st0" d="M504.9 341.6h-20.1c-5.4 0-9.8-4.4-9.8-9.8v-15.2c0-5.4 4.4-9.8 9.8-9.8h20.1c5.4 0 9.8 4.4 9.8 9.8v15.2c0 5.5-4.4 9.8-9.8 9.8z" id="path222" fill="#e9f1ff"/><path class="st0" d="M582.2 341.6h-20.1c-5.4 0-9.8-4.4-9.8-9.8v-15.2c0-5.4 4.4-9.8 9.8-9.8h20.1c5.4 0 9.8 4.4 9.8 9.8v15.2c0 5.5-4.4 9.8-9.8 9.8z" id="path224" fill="#e9f1ff"/><path class="st0" d="M659.5 341.6h-20.1c-5.4 0-9.8-4.4-9.8-9.8v-15.2c0-5.4 4.4-9.8 9.8-9.8h20.1c5.4 0 9.8 4.4 9.8 9.8v15.2c0 5.5-4.3 9.8-9.8 9.8z" id="path226" fill="#e9f1ff"/><path class="st0" d="M195.7 404.5h-20.1c-5.4 0-9.8-4.4-9.8-9.8v-15.2c0-5.4 4.4-9.8 9.8-9.8h20.1c5.4 0 9.8 4.4 9.8 9.8v15.2c0 5.4-4.4 9.8-9.8 9.8z" id="path228" fill="#e9f1ff"/><path class="st0" d="M273 404.5h-20.1c-5.4 0-9.8-4.4-9.8-9.8v-15.2c0-5.4 4.4-9.8 9.8-9.8H273c5.4 0 9.8 4.4 9.8 9.8v15.2c0 5.4-4.4 9.8-9.8 9.8z" id="path230" fill="#e9f1ff"/><path class="st0" d="M350.3 404.5h-20.1c-5.4 0-9.8-4.4-9.8-9.8v-15.2c0-5.4 4.4-9.8 9.8-9.8h20.1c5.4 0 9.8 4.4 9.8 9.8v15.2c0 5.4-4.4 9.8-9.8 9.8z" id="path232" fill="#e9f1ff"/><path class="st0" d="M427.6 404.5h-20.1c-5.4 0-9.8-4.4-9.8-9.8v-15.2c0-5.4 4.4-9.8 9.8-9.8h20.1c5.4 0 9.8 4.4 9.8 9.8v15.2c0 5.4-4.4 9.8-9.8 9.8z" id="path234" fill="#e9f1ff"/><path class="st0" d="M504.9 404.5h-20.1c-5.4 0-9.8-4.4-9.8-9.8v-15.2c0-5.4 4.4-9.8 9.8-9.8h20.1c5.4 0 9.8 4.4 9.8 9.8v15.2c0 5.4-4.4 9.8-9.8 9.8z" id="path236" fill="#e9f1ff"/><path class="st0" d="M582.2 404.5h-20.1c-5.4 0-9.8-4.4-9.8-9.8v-15.2c0-5.4 4.4-9.8 9.8-9.8h20.1c5.4 0 9.8 4.4 9.8 9.8v15.2c0 5.4-4.4 9.8-9.8 9.8z" id="path238" fill="#e9f1ff"/><path class="st0" d="M659.5 404.5h-20.1c-5.4 0-9.8-4.4-9.8-9.8v-15.2c0-5.4 4.4-9.8 9.8-9.8h20.1c5.4 0 9.8 4.4 9.8 9.8v15.2c0 5.4-4.3 9.8-9.8 9.8z" id="path240" fill="#e9f1ff"/><path class="st0" d="M195.7 467.4h-20.1c-5.4 0-9.8-4.4-9.8-9.8v-15.2c0-5.4 4.4-9.8 9.8-9.8h20.1c5.4 0 9.8 4.4 9.8 9.8v15.2c0 5.4-4.4 9.8-9.8 9.8z" id="path242" fill="#e9f1ff"/><path class="st0" d="M273 467.4h-20.1c-5.4 0-9.8-4.4-9.8-9.8v-15.2c0-5.4 4.4-9.8 9.8-9.8H273c5.4 0 9.8 4.4 9.8 9.8v15.2c0 5.4-4.4 9.8-9.8 9.8z" id="path244" fill="#e9f1ff"/><path class="st0" d="M350.3 467.4h-20.1c-5.4 0-9.8-4.4-9.8-9.8v-15.2c0-5.4 4.4-9.8 9.8-9.8h20.1c5.4 0 9.8 4.4 9.8 9.8v15.2c0 5.4-4.4 9.8-9.8 9.8z" id="path246" fill="#e9f1ff"/><path class="st0" d="M427.6 467.4h-20.1c-5.4 0-9.8-4.4-9.8-9.8v-15.2c0-5.4 4.4-9.8 9.8-9.8h20.1c5.4 0 9.8 4.4 9.8 9.8v15.2c0 5.4-4.4 9.8-9.8 9.8z" id="path248" fill="#e9f1ff"/><path class="st0" d="M504.9 467.4h-20.1c-5.4 0-9.8-4.4-9.8-9.8v-15.2c0-5.4 4.4-9.8 9.8-9.8h20.1c5.4 0 9.8 4.4 9.8 9.8v15.2c0 5.4-4.4 9.8-9.8 9.8z" id="path250" fill="#e9f1ff"/><path class="st0" d="M582.2 467.4h-20.1c-5.4 0-9.8-4.4-9.8-9.8v-15.2c0-5.4 4.4-9.8 9.8-9.8h20.1c5.4 0 9.8 4.4 9.8 9.8v15.2c0 5.4-4.4 9.8-9.8 9.8z" id="path252" fill="#e9f1ff"/><path class="st0" d="M659.5 467.4h-20.1c-5.4 0-9.8-4.4-9.8-9.8v-15.2c0-5.4 4.4-9.8 9.8-9.8h20.1c5.4 0 9.8 4.4 9.8 9.8v15.2c0 5.4-4.3 9.8-9.8 9.8z" id="path254" fill="#e9f1ff"/><path class="st0" d="M195.7 530.2h-20.1c-5.4 0-9.8-4.4-9.8-9.8v-15.2c0-5.4 4.4-9.8 9.8-9.8h20.1c5.4 0 9.8 4.4 9.8 9.8v15.2c0 5.4-4.4 9.8-9.8 9.8z" id="path256" fill="#e9f1ff"/><path class="st0" d="M203.1 597.5h-35c-5.4 0-9.8-4.4-9.8-9.8v-28.2c0-5.4 4.4-9.8 9.8-9.8h35c5.4 0 9.8 4.4 9.8 9.8v28.2c0 5.4-4.4 9.8-9.8 9.8z" id="path258" fill="#e9f1ff"/><path class="st0" d="M273 530.2h-20.1c-5.4 0-9.8-4.4-9.8-9.8v-15.2c0-5.4 4.4-9.8 9.8-9.8H273c5.4 0 9.8 4.4 9.8 9.8v15.2c0 5.4-4.4 9.8-9.8 9.8z" id="path260" fill="#e9f1ff"/><path class="st0" d="M350.3 530.2h-20.1c-5.4 0-9.8-4.4-9.8-9.8v-15.2c0-5.4 4.4-9.8 9.8-9.8h20.1c5.4 0 9.8 4.4 9.8 9.8v15.2c0 5.4-4.4 9.8-9.8 9.8z" id="path262" fill="#e9f1ff"/><path class="st0" d="M427.6 530.2h-20.1c-5.4 0-9.8-4.4-9.8-9.8v-15.2c0-5.4 4.4-9.8 9.8-9.8h20.1c5.4 0 9.8 4.4 9.8 9.8v15.2c0 5.4-4.4 9.8-9.8 9.8z" id="path264" fill="#e9f1ff"/><path class="st0" d="M504.9 530.2h-20.1c-5.4 0-9.8-4.4-9.8-9.8v-15.2c0-5.4 4.4-9.8 9.8-9.8h20.1c5.4 0 9.8 4.4 9.8 9.8v15.2c0 5.4-4.4 9.8-9.8 9.8z" id="path266" fill="#e9f1ff"/><path class="st0" d="M582.2 530.2h-20.1c-5.4 0-9.8-4.4-9.8-9.8v-15.2c0-5.4 4.4-9.8 9.8-9.8h20.1c5.4 0 9.8 4.4 9.8 9.8v15.2c0 5.4-4.4 9.8-9.8 9.8z" id="path268" fill="#e9f1ff"/><path class="st0" d="M659.5 530.2h-20.1c-5.4 0-9.8-4.4-9.8-9.8v-15.2c0-5.4 4.4-9.8 9.8-9.8h20.1c5.4 0 9.8 4.4 9.8 9.8v15.2c0 5.4-4.3 9.8-9.8 9.8z" id="path270" fill="#e9f1ff"/><path class="st0" d="M195.7 218.8h-20.1c-5.4 0-9.8-4.4-9.8-9.8v-15.2c0-5.4 4.4-9.8 9.8-9.8h20.1c5.4 0 9.8 4.4 9.8 9.8V209c0 5.4-4.4 9.8-9.8 9.8z" id="path272" fill="#e9f1ff"/><path class="st0" d="M273 218.8h-20.1c-5.4 0-9.8-4.4-9.8-9.8v-15.2c0-5.4 4.4-9.8 9.8-9.8H273c5.4 0 9.8 4.4 9.8 9.8V209c0 5.4-4.4 9.8-9.8 9.8z" id="path274" fill="#e9f1ff"/><path class="st0" d="M350.3 218.8h-20.1c-5.4 0-9.8-4.4-9.8-9.8v-15.2c0-5.4 4.4-9.8 9.8-9.8h20.1c5.4 0 9.8 4.4 9.8 9.8V209c0 5.4-4.4 9.8-9.8 9.8z" id="path276" fill="#e9f1ff"/><path class="st0" d="M427.6 218.8h-20.1c-5.4 0-9.8-4.4-9.8-9.8v-15.2c0-5.4 4.4-9.8 9.8-9.8h20.1c5.4 0 9.8 4.4 9.8 9.8V209c0 5.4-4.4 9.8-9.8 9.8z" id="path278" fill="#e9f1ff"/><path class="st0" d="M504.9 218.8h-20.1c-5.4 0-9.8-4.4-9.8-9.8v-15.2c0-5.4 4.4-9.8 9.8-9.8h20.1c5.4 0 9.8 4.4 9.8 9.8V209c0 5.4-4.4 9.8-9.8 9.8z" id="path280" fill="#e9f1ff"/><path class="st0" d="M582.2 218.8h-20.1c-5.4 0-9.8-4.4-9.8-9.8v-15.2c0-5.4 4.4-9.8 9.8-9.8h20.1c5.4 0 9.8 4.4 9.8 9.8V209c0 5.4-4.4 9.8-9.8 9.8z" id="path282" fill="#e9f1ff"/><path class="st0" d="M659.5 218.8h-20.1c-5.4 0-9.8-4.4-9.8-9.8v-15.2c0-5.4 4.4-9.8 9.8-9.8h20.1c5.4 0 9.8 4.4 9.8 9.8V209c0 5.4-4.3 9.8-9.8 9.8z" id="path284" fill="#e9f1ff"/><path class="st0" d="M263.6 302.1l71.6 138.3c2.7 5.2 10.1 5.3 12.9.2l146-265.6c2.3-4.2-3.6-8-6.5-4.1l-134.3 183c-5.5 7.4-16.2 8.4-22.9 2l-60.7-58.4c-3.2-3-8.1.7-6.1 4.6z" id="path286" fill="#e9f1ff"/></g><g id="Layer_1" transform="translate(-3.398 -5.403) scale(.05864)"><path class="st0" d="M815.7 864.7H445c-9.7 0-17.5-7.8-17.5-17.5V621.9c0-9.7 7.8-17.5 17.5-17.5h370.7c9.7 0 17.5 7.8 17.5 17.5v225.4c0 9.6-7.8 17.4-17.5 17.4z" id="path289" fill="#e9f1ff"/><path class="st1" d="M786.4 645.8H588.9c-2.7 0-4.8-2.2-4.8-4.8v-5.1c0-2.7 2.2-4.8 4.8-4.8h197.5c2.7 0 4.8 2.2 4.8 4.8v5.1c0 2.6-2.1 4.8-4.8 4.8z" id="path291" fill="#70798d"/><path class="st1" d="M682.5 685.8h-47.9c-1.6 0-2.9-1.3-2.9-2.9v-3.7c0-1.6 1.3-2.9 2.9-2.9h47.9c1.6 0 2.9 1.3 2.9 2.9v3.7c0 1.6-1.3 2.9-2.9 2.9z" id="path293" fill="#70798d"/><path class="st1" d="M682.5 705.6h-47.9c-1.6 0-2.9-1.3-2.9-2.9V699c0-1.6 1.3-2.9 2.9-2.9h47.9c1.6 0 2.9 1.3 2.9 2.9v3.7c0 1.6-1.3 2.9-2.9 2.9z" id="path295" fill="#70798d"/><path class="st1" d="M682.5 725.4h-47.9c-1.6 0-2.9-1.3-2.9-2.9v-3.7c0-1.6 1.3-2.9 2.9-2.9h47.9c1.6 0 2.9 1.3 2.9 2.9v3.7c0 1.6-1.3 2.9-2.9 2.9z" id="path297" fill="#70798d"/><path class="st1" d="M695.2 775.9h-60.6c-1.6 0-2.9-1.3-2.9-2.9v-3.7c0-1.6 1.3-2.9 2.9-2.9h60.6c1.6 0 2.9 1.3 2.9 2.9v3.7c.1 1.6-1.2 2.9-2.9 2.9z" id="path299" fill="#70798d"/><path class="st1" d="M695.2 822.3h-60.6c-1.6 0-2.9-1.3-2.9-2.9v-3.7c0-1.6 1.3-2.9 2.9-2.9h60.6c1.6 0 2.9 1.3 2.9 2.9v3.7c.1 1.6-1.2 2.9-2.9 2.9z" id="path301" fill="#70798d"/><path class="st1" d="M807.9 775.9h-83.1c-1.6 0-2.9-1.3-2.9-2.9v-3.7c0-1.6 1.3-2.9 2.9-2.9h83.1c1.6 0 2.9 1.3 2.9 2.9v3.7c0 1.6-1.3 2.9-2.9 2.9z" id="path303" fill="#70798d"/><path class="st1" d="M750.4 685.8h-47.9c-1.6 0-2.9-1.3-2.9-2.9v-3.7c0-1.6 1.3-2.9 2.9-2.9h47.9c1.6 0 2.9 1.3 2.9 2.9v3.7c0 1.6-1.3 2.9-2.9 2.9z" id="path305" fill="#70798d"/><path class="st1" d="M750.4 705.6h-47.9c-1.6 0-2.9-1.3-2.9-2.9V699c0-1.6 1.3-2.9 2.9-2.9h47.9c1.6 0 2.9 1.3 2.9 2.9v3.7c0 1.6-1.3 2.9-2.9 2.9z" id="path307" fill="#70798d"/><path class="st1" d="M750.4 725.4h-47.9c-1.6 0-2.9-1.3-2.9-2.9v-3.7c0-1.6 1.3-2.9 2.9-2.9h47.9c1.6 0 2.9 1.3 2.9 2.9v3.7c0 1.6-1.3 2.9-2.9 2.9z" id="path309" fill="#70798d"/><path class="st0" d="M560.8 787.6c-2.5-1.3-8.7-12.5-9.5-14.9-.8-2.4 1.1-10.7 1.5-13.6.4-2.9 3.3-4 4.5-5.1 1.2-1.1 4.2-15.1 4.9-19.4.7-4.3-.7-5-1.6-6.2-.9-1.3.2-6 1.8-13.3 1.6-7.3 2-14 0-17.1-2-3.1-.9-6.4-2.7-9.8-1.8-3.4-6.2-5.3-9.5-7.1-3.3-1.9-6.4-6.9-9.5-8.1-3.1-1.3-11.8-.9-15.3-1.8s-13.1 0-21.4 2.5c-8.4 2.5-15 13.5-16.7 17.2-1.6 3.7-4 13.6-5.9 19.6-1.9 6 .8 13.6 1.5 17.2.7 3.5-1 4.6-1.5 7-.5 2.3 3.3 12.9 6 17s4.1 4.6 6.3 6c2.2 1.4 2.7 13.6 2.7 16.9 0 3.3-1.9 10.4-11.5 13.6-5.6 1.9-15.2 6.5-22.1 10V811c0 3.6 2.9 6.5 6.5 6.5h105.2c3.6 0 6.5-2.9 6.5-6.5v-16.8c-6.9-2.2-18.5-5.8-20.2-6.6z" id="path311" fill="#e9f1ff"/><path class="st1" d="M496.5 774.5c0-3.3-.5-15.5-2.7-16.9-2.2-1.4-3.5-1.9-6.3-6s-6.5-14.7-6-17c.5-2.3 2.2-3.4 1.5-7-.7-3.5-3.4-11.2-1.5-17.2s4.2-15.9 5.9-19.6c1.6-3.7 8.3-14.6 16.7-17.2 8.4-2.5 18-3.5 21.4-2.5 3.4 1 12.2.5 15.3 1.8 3.1 1.3 6.2 6.3 9.5 8.1 3.3 1.9 7.6 3.7 9.5 7.1 1.9 3.4.7 6.7 2.7 9.8 2 3.1 1.6 9.8 0 17.1-1.6 7.3-2.7 12-1.8 13.3.9 1.3 2.4 1.9 1.6 6.2-.7 4.3-3.6 18.3-4.9 19.4-1.3 1.1-4.2 2.2-4.5 5.1-.4 2.9-2.2 11.3-1.5 13.6.7 2.3 6.9 13.6 9.5 14.9 1.7.9 13.4 4.5 20.5 6.7V671.4c0-3.6-2.9-6.5-6.5-6.5H469.5c-3.6 0-6.5 2.9-6.5 6.5v126.7c6.9-3.4 16.4-8.1 22.1-10 9.5-3.3 11.4-10.4 11.4-13.6z" id="path313" fill="#70798d"/></g></svg>