<svg xmlns="http://www.w3.org/2000/svg" width="52" height="39" version="1"><path d="M.02 19.44V-.11h51.995l-.051 19.498-.051 19.498-25.947.05-25.946.052V19.439zm40.961 9.623l-8.513-8.512-2.369 2.345c-2.449 2.425-3.258 2.997-4.223 2.984-.832-.01-1.181-.266-3.9-2.854L19.5 20.668l-8.43 8.278C6.434 33.5 2.64 37.303 2.64 37.4c0 .099 10.23.176 23.427.176h23.427l-8.513-8.513zM9.945 10.925L1.431 2.41v34.056l8.514-8.514 8.514-8.514-8.514-8.514zm40.658 8.497c0-9.32-.073-16.915-.162-16.878-.089.037-3.915 3.859-8.502 8.492l-8.34 8.425 8.45 8.453c4.648 4.649 8.474 8.453 8.502 8.453.029 0 .052-7.625.052-16.945zM37.929 12.94L49.337 1.402l-11.66-.052c-6.413-.028-16.942-.028-23.398 0l-11.737.052 11.485 11.544c9.143 9.188 11.589 11.542 11.99 11.538.395-.005 2.956-2.487 11.912-11.544z" fill="#f39c12"/></svg>