<svg xmlns="http://www.w3.org/2000/svg" viewBox="0 0 456.29999 247.8" id="svg2" width="456.3" height="247.8"><style id="style4">.st0{fill:#6162ac}</style><g id="Layer_3" transform="translate(-31.8 -113.2)" fill="#ebedec"><g id="g8"><path class="st0" d="M257.6 222.9c-58.7 0-73.4 5.7-73.4 5.7 23.9-5.5 65.3-5.1 73.4-4.9 8.1-.2 49.5-.6 73.4 4.9 0 .1-14.7-5.6-73.4-5.7z" id="path10"/><path class="st0" d="M152.5 289.9c22.7-.3 34.1 0 43.8 1.3 0 0-6.6-4.8-29.1-4.6-22.5.2-26.7-.5-30.7 2.3s-4.2 9.9-3.9 14.4c.3 4.5.9 13 4.2 14.9 3.3 1.9 19.2 3 23.1 3.4 0 0-14.6-1.8-18.8-5.8-4.2-4-3.9-14.6-2.7-18.8 1.5-5.3 3-6.9 14.1-7.1z" id="path12"/><path class="st0" d="M257.6 268.8h-38.7c-1.6 0-2.8 1.3-2.8 2.8v12.6c0 1.6 1.3 2.8 2.8 2.8h77.4c1.6 0 2.8-1.3 2.8-2.8v-12.6c0-1.6-1.3-2.8-2.8-2.8h-38.7z" id="path14"/><path class="st0" d="M154.6 193.9c9.8-1.2 41.5-4.3 103-4.6 61.6.3 93.2 3.4 103 4.6 1.6.2 2.8-1.3 2.3-2.8-3.4-10-18.4-42.2-26.3-46.5-6.8-3.7-62.1-5-79.1-5.3-17 .3-72.3 1.6-79.1 5.3-7.9 4.3-22.8 36.4-26.3 46.5-.3 1.5.9 3 2.5 2.8z" id="path16"/><path class="st0" d="M318.5 250.6l1.2-3.9c.8-3.2-.1-6.3-5.2-7.6-5.1-1.3-18.6-1.9-29.3-1.9-6.5 0-18.9-.1-27.7-.2-8.8.1-21.2.1-27.7.2-10.7.1-24.2.6-29.3 1.9-5.1 1.3-6 4.4-5.2 7.6l1.2 3.9c5.3 14 13.8 13.5 21.6 14 7 .5 8.4.4 20 .1 5.8-.1 13.3-.3 19.2-.4 6 .1 13.4.2 19.2.4 11.6.3 13 .3 20-.1 8.3-.5 16.7 0 22-14z" id="path18"/><path class="st0" d="M182.2 254.2c1.2 0 2.1-1 2-2.2-.3-4.4-1.9-14.3-9.3-17.6-9.6-4.3-30-8.2-39.5-7.5-11.3.8-14.9 9-15.2 12.9-.3 5.8 10.5 11.5 16.7 13.3 7.1 2.1 36.9 1.2 45.3 1.1z" id="path20"/><path class="st0" d="M379.8 227c-9.5-.7-29.9 3.2-39.5 7.5-7.4 3.3-8.9 13.2-9.3 17.6-.1 1.2.8 2.1 2 2.2 8.4.2 38.2 1 45.2-1 6.2-1.8 17-7.5 16.7-13.3-.1-4-3.8-12.2-15.1-13z" id="path22"/><path class="st0" d="M312.2 292.5c-2.7-1.4-6.7-1.3-17.9-1.7-6.5-.3-28.6-.7-36.7-.9-8.1.2-30.1.6-36.7.9-11.2.4-15.2.3-17.9 1.7-2.7 1.4-4.7 3.3-7.5 10.6s-1.5 8.7 0 11.2 7.4 3.9 21 4.8c11.1.7 33 .9 41 .9s29.9-.2 41-.9c13.7-.9 19.5-2.3 21-4.8s2.8-3.9 0-11.2c-2.6-7.3-4.6-9.2-7.3-10.6z" id="path24"/><path class="st0" d="M31.8 113.2v144.2c0 57.2 46.4 103.6 103.6 103.6h352.7V225.4c0-62-50.2-112.2-112.2-112.2H31.8zm76.6 82.8c-2.1-3.4 2.5-12.4 4.8-13.6 4.3-2.1 13.4-3.5 18.6-4.2 1.8-.2 3.4 1.4 3 3.2l-1.4 6.7c-.2.8-.7 1.4-1.4 1.7l-9.1 3.7c-.4.2-.4.7 0 .9l.8.4c.5.2 1 .2 1.5 0l7.4-3.1s2.4-.7 4.3-1.8c.5-.3 1 .2.9.7-.4 1.8-1.3 5-2.5 6.8-.5.7-1.2 1-2 1H131c-.4 0-.8.1-1.2.2-.8.2-2.5.6-4.1.6-2.4.1-15.2.2-17.3-3.2zm43.8 145.4c0 3-2.4 5.3-5.3 5.3h-28.6c-4.1 0-7.4-3.3-7.4-7.4v-72.6h1l7 59.4 33.4 1.9v13.4zm252.2-2c0 4.1-3.3 7.4-7.4 7.4h-28.6c-3 0-5.3-2.4-5.3-5.3v-13.3l33.4-1.9 7-59.4h1v72.5zm0-87.6v.3l-9.3 70.5c-.1 1.1-1 1.8-2.1 1.9-84.6 2.3-122.8 3.3-135.3 3.7-12.5-.3-50.7-1.4-135.3-3.7-1.1 0-1.9-.8-2.1-1.9l-9.3-70.5v-19.4c0-1.4.7-2.7 1.8-3.6l9.2-7.1c.4-.3.7-.7.8-1.2.6-2.2 2.7-9.5 8.9-16.1 7.5-8.1 6.3-8.3 6.8-9.8s5.4-13.8 14-30.4c8.6-16.6 19-28 25.1-30.5 5.9-2.4 26.2-6.6 80.1-7.2 53.9.6 74.2 4.8 80.1 7.2 6.1 2.5 16.4 13.9 25.1 30.5 8.7 16.6 13.5 29 14 30.4.5 1.4-.6 1.7 6.8 9.8 6.2 6.7 8.4 13.9 8.9 16.1.1.5.4.9.8 1.2l9.2 7.1c1.1.9 1.8 2.2 1.8 3.6v19.1zm2.5-55.8c-2.1 3.4-14.9 3.3-17.2 3.3-1.6 0-3.3-.4-4.1-.6-.4-.1-.8-.2-1.2-.2h-2.2c-.8 0-1.5-.4-2-1-1.2-1.7-2.1-5-2.6-6.8-.1-.5.4-.9.9-.7 1.9 1.1 4.3 1.8 4.3 1.8l7.4 3.1c.5.2 1.1.2 1.5 0l.8-.4c.4-.2.4-.7 0-.9l-9.1-3.7c-.7-.3-1.3-.9-1.4-1.7l-1.4-6.7c-.4-1.8 1.2-3.5 3-3.2 5.2.7 14.3 2.1 18.6 4.2 2.2 1.1 6.8 10.1 4.7 13.5z" id="path26"/><path class="st0" d="M378.7 289c-4-2.8-8.2-2.2-30.7-2.3-22.5-.1-29.1 4.6-29.1 4.6 9.7-1.3 21.2-1.6 43.8-1.3 11.1.1 12.6 1.7 14.1 7.1 1.2 4.2 1.4 14.8-2.7 18.8-4.2 4-18.8 5.8-18.8 5.8 3.9-.4 19.8-1.5 23.1-3.4 3.3-1.9 3.9-10.4 4.2-14.9.3-4.5.1-11.7-3.9-14.4z" id="path28"/></g></g></svg>